<svg class="object-cover h-full w-full" width="418" height="207" fill="none" xmlns="http://www.w3.org/2000/svg"><path fill-rule="evenodd" clip-rule="evenodd" d="M165.595 29.551h-7.925v13.203h7.925V29.55zM178.778 38.01v27.326h5.814V38.009h-5.814zM262.154 40.543v14.87l-16.125-.05v-23.69h19.295v-8.558h-27.972V63.81h-15.293V19.958h12.137V0h-40.642v12.147h19.524v60.561h64.917V40.543h-15.841z" fill="#000"/><path fill-rule="evenodd" clip-rule="evenodd" d="M193.554 29.551v35.787h16.322V29.55h-16.322zM178.778 26.395h11.619v-11.09h-11.619v11.09zM157.67 45.91v14.786h7.925V45.911h-7.925zM165.595 26.395V10.16h-34.837v66.77l12.147-.014V42.754h11.609V26.395h11.081zM168.752 29.551v13.203h6.87V29.55h-6.87z" fill="#000"/><path d="M0 139.561v-36.44h5.752c3.34 0 5.777.212 7.325.643 2.19.583 3.933 1.658 5.227 3.223 1.294 1.574 1.946 3.426 1.946 5.558 0 1.387-.296 2.647-.88 3.781-.584 1.133-1.54 2.198-2.859 3.189 2.208 1.039 3.824 2.334 4.847 3.899 1.023 1.557 1.531 3.4 1.531 5.532 0 2.046-.533 3.908-1.59 5.591-1.066 1.683-2.436 2.944-4.11 3.772-1.676.838-3.985 1.252-6.937 1.252H0zm6.902-29.842v7.715H8.45c1.726 0 3.011-.356 3.849-1.075.837-.71 1.252-1.683 1.252-2.91 0-1.141-.398-2.046-1.193-2.723-.795-.669-2.005-1.007-3.629-1.007H6.902zm0 13.907v9.337h1.76c2.918 0 4.889-.364 5.903-1.09 1.016-.727 1.523-1.785 1.523-3.173 0-1.565-.592-2.808-1.785-3.713-1.193-.905-3.172-1.361-5.938-1.361H6.902zm39.765-21.418c5.15 0 9.584 1.869 13.288 5.6 3.714 3.73 5.567 8.281 5.567 13.644 0 5.32-1.828 9.82-5.49 13.499-3.655 3.681-8.096 5.524-13.314 5.524-5.473 0-10.016-1.895-13.628-5.676-3.62-3.781-5.43-8.273-5.43-13.475 0-3.476.846-6.682 2.529-9.608 1.684-2.919 4.001-5.237 6.945-6.946 2.952-1.707 6.133-2.562 9.533-2.562zm-.102 6.801c-3.357 0-6.183 1.176-8.467 3.519-2.292 2.342-3.434 5.32-3.434 8.94 0 4.027 1.438 7.215 4.322 9.558 2.242 1.836 4.804 2.75 7.706 2.75 3.274 0 6.065-1.192 8.366-3.569 2.309-2.377 3.46-5.305 3.46-8.789 0-3.469-1.16-6.404-3.486-8.807-2.317-2.401-5.142-3.602-8.467-3.602zm44.68-.931-5.144 4.533c-1.801-2.503-3.637-3.755-5.506-3.755-.914 0-1.658.245-2.233.728-.584.49-.871 1.04-.871 1.649s.203 1.192.617 1.735c.567.727 2.267 2.283 5.1 4.677 2.648 2.216 4.255 3.612 4.822 4.187 1.404 1.421 2.402 2.775 2.994 4.069.584 1.303.88 2.714.88 4.247 0 2.994-1.032 5.454-3.104 7.409-2.064 1.945-4.763 2.918-8.095 2.918-2.597 0-4.856-.634-6.784-1.904-1.929-1.276-3.587-3.273-4.957-5.996l5.845-3.52c1.76 3.215 3.781 4.823 6.065 4.823 1.192 0 2.2-.348 3.011-1.042.813-.693 1.219-1.496 1.219-2.402 0-.82-.305-1.648-.922-2.478-.61-.821-1.963-2.09-4.052-3.789-3.976-3.232-6.54-5.726-7.698-7.486-1.158-1.759-1.742-3.51-1.742-5.262 0-2.529.963-4.695 2.884-6.496 1.928-1.81 4.305-2.715 7.131-2.715 1.819 0 3.552.423 5.193 1.26 1.65.846 3.426 2.377 5.346 4.61zm7.308-4.957h7.003v12.604l9.863-12.604h8.365l-12.73 16.266 13.966 20.174h-8.23l-11.234-16.232v16.232h-7.003v-36.44zm42.564 0h6.987l14.024 36.44h-7.215l-2.843-7.511h-14.938l-2.909 7.511h-7.216l14.11-36.44zm3.502 9.685-4.941 12.545h9.855l-4.914-12.545zm34.333-9.685h6.793l5.287 23.262 6.504-23.262h5.744l6.631 23.262 5.279-23.262h6.801l-8.273 36.44h-6.632l-6.716-23.557-6.589 23.557h-6.539l-8.29-36.44zm48.486 0h19.895v6.801H234.34v6.548h12.993v6.698H234.34v9.593h12.993v6.8h-19.895v-36.44zm26.391 0h6.581l15.699 23.981v-23.981h6.902v36.44h-6.632l-15.648-23.904v23.904h-6.902v-36.44zm37.54 0h19.895v6.801H298.27v6.548h12.994v6.698H298.27v9.593h12.994v6.8h-19.895v-36.44zm59.836 6.395-4.863 4.619c-3.308-3.486-7.021-5.228-11.158-5.228-3.485 0-6.428 1.193-8.814 3.569-2.393 2.377-3.586 5.304-3.586 8.789 0 2.427.533 4.585 1.59 6.463 1.058 1.886 2.555 3.366 4.483 4.441 1.937 1.073 4.086 1.607 6.454 1.607 2.014 0 3.857-.373 5.524-1.126 1.675-.752 3.51-2.123 5.507-4.101l4.711 4.922c-2.69 2.631-5.236 4.459-7.63 5.473-2.394 1.023-5.134 1.531-8.204 1.531-5.668 0-10.312-1.793-13.924-5.388-3.612-3.586-5.413-8.197-5.413-13.804 0-3.638.82-6.862 2.47-9.686 1.641-2.824 3.992-5.093 7.063-6.809 3.062-1.717 6.361-2.58 9.905-2.58 3.003 0 5.896.634 8.687 1.903a20.8 20.8 0 0 1 7.198 5.405zm15.116-6.395h6.953v24.175c0 3.85-.304 6.547-.913 8.103a7.702 7.702 0 0 1-3.011 3.698c-1.405.922-3.08 1.378-5.042 1.378-3.992 0-7.401-1.76-10.218-5.279l4.982-4.693c1.1 1.26 2.039 2.096 2.808 2.528.779.432 1.523.643 2.251.643.735 0 1.285-.312 1.649-.938.364-.626.541-2.005.541-4.136v-25.479zm26.468 0h6.987l14.024 36.44h-7.215l-2.842-7.511h-14.938l-2.91 7.511h-7.215l14.109-36.44zm3.502 9.685-4.94 12.545h9.854l-4.914-12.545z" fill="#000"/><path fill-rule="evenodd" clip-rule="evenodd" d="M.436 87.191h417.147v1.927H.436V87.19zM.436 151.584h417.147v1.926H.436v-1.926zM165.595 176.852h-7.925v-13.203h7.925v13.203zM178.778 180.008h11.619v11.091h-11.619v-11.091zM168.752 176.852v-13.203h6.87v13.203h-6.87z" fill="#000"/><path fill-rule="evenodd" clip-rule="evenodd" d="M165.595 180.007v16.237h-34.837V163.59h12.146v.06h11.61v16.357h11.081zM178.778 168.393v-4.803h5.814v4.803h-5.814zM193.554 176.852V163.59h16.322v13.262h-16.322z" fill="#000"/><path fill-rule="evenodd" clip-rule="evenodd" d="M262.154 168.109v-4.519h15.841v4.519h-15.841zm-16.125-4.519v11.141h19.295v8.557h-27.972V163.59h8.677zm-23.97 0v22.854h12.136v19.958h-40.641v-12.147h19.524V163.59h8.981z" fill="#000"/></svg>