<?xml version="1.0" encoding="UTF-8" standalone="no"?>
<!-- Created with Inkscape (http://www.inkscape.org/) -->

<svg
   width="96.438004mm"
   height="71.4375mm"
   viewBox="0 0 96.438004 71.4375"
   version="1.1"
   id="svg1"
   xml:space="preserve"
   xmlns="http://www.w3.org/2000/svg"
   xmlns:svg="http://www.w3.org/2000/svg"><defs
     id="defs1" /><g
     id="layer1"
     transform="translate(-51.677941,-186.27971)"><g
       id="g1"
       transform="matrix(0.26458333,0,0,0.26458333,51.148774,185.75054)"><g
         id="g153"><g
           id="g2"
           transform="translate(94.074377)"><path
             d="m 258.5,2 c -4.1715,0 -8.0325,1.926 -10.5615,5.148 l -33.615,3.735 -16.812,-8.406 c -1.17,-0.5895 -2.529,-0.63 -3.735,-0.1305 -1.206,0.4995 -2.133,1.4985 -2.547,2.7315 l -9,27 c -0.5085,1.521 -0.1665,3.1995 0.8955,4.4055 1.062,1.2015 2.6775,1.746 4.257,1.431 l 20.1375,-4.0275 19.701,19.701 C 227.0765,54.38 227,55.1855 227,56 c 0,7.443 6.057,13.5 13.5,13.5 7.443,0 13.5,-6.057 13.5,-13.5 0,-0.2565 -0.005,-0.5085 -0.0225,-0.765 C 259.229,53.3855 263,48.377 263,42.5 c 0,-1.071 -0.126,-2.133 -0.3735,-3.159 3.024,-2.5155 4.8735,-6.2775 4.8735,-10.341 0,-1.071 -0.126,-2.133 -0.3735,-3.159 C 270.1505,23.3255 272,19.5635 272,15.5 272,8.057 265.943,2 258.5,2 Z m 1.467,17.721 c -1.314,0.4635 -2.3445,1.5075 -2.7855,2.835 -0.4365,1.323 -0.234,2.7765 0.549,3.933 0.504,0.738 0.7695,1.611 0.7695,2.511 0,1.8855 -1.2195,3.582 -3.033,4.221 -1.314,0.4635 -2.3445,1.5075 -2.7855,2.835 -0.4365,1.323 -0.234,2.7765 0.549,3.933 0.504,0.738 0.7695,1.611 0.7695,2.511 0,2.484 -2.0205,4.5 -4.5,4.5 -0.1845,0 -0.36,-0.0405 -0.6885,-0.09 -1.737,-0.2655 -3.429,0.522 -4.3875,1.9755 -0.9585,1.449 -0.9945,3.321 -0.0945,4.806 C 244.775,54.4295 245,55.208 245,56 c 0,2.484 -2.0205,4.5 -4.5,4.5 -2.4795,0 -4.5,-2.016 -4.5,-4.5 0,-0.621 0.1395,-1.2375 0.4095,-1.8405 0.7695,-1.7055 0.4005,-3.708 -0.9225,-5.031 l -23.31,-23.31 C 211.331,24.968 210.1835,24.5 209,24.5 c -0.2925,0 -0.5895,0.0315 -0.882,0.09 l -14.895,2.979 4.905,-14.7195 13.3605,6.678 c 0.774,0.387 1.656,0.5445 2.511,0.45 l 37.0395,-4.113 c 1.494,-0.1665 2.808,-1.0665 3.4965,-2.403 0.783,-1.521 2.304,-2.4615 3.9645,-2.4615 2.4795,0 4.5,2.016 4.5,4.5 0,1.8855 -1.2195,3.582 -3.033,4.221 z"
             id="path42"
             style="stroke-width:4.5" /><path
             d="m 38.909,12.7865 c -4.635,6.138 -5.3775,12.7665 -5.409,16.173 l 9,0.081 c 0.018,-2.295 0.513,-6.7545 3.591,-10.827 C 51.095,11.594 59.078,11.0405 60.626,11 L 60.374,2 C 58.1015,2.0675 46.3925,2.882 38.909,12.7865 Z"
             id="path43"
             style="stroke-width:4.5" /><path
             d="m 53.6105,20.684 4.779,7.6275 c 8.982,-5.6295 23.679,-12.429 42.705,-12.8115 16.6635,-0.378 30.1005,4.4505 38.4255,8.5365 l 3.9645,-8.0775 C 130.259,9.47 115.5035,6.176 100.91,6.5 79.832,6.9275 63.551,14.4515 53.6105,20.684 Z"
             id="path44"
             style="stroke-width:4.5" /><path
             d="m 95.789,25.4585 1.422,8.8875 c 7.038,-1.125 14.13,-1.125 21.069,0 10.5525,1.71 20.763,6.0885 29.52,12.654 l 5.4,-7.2 c -9.918,-7.4385 -21.4965,-12.402 -33.48,-14.346 -7.8885,-1.2735 -15.939,-1.2825 -23.931,0.0045 z"
             id="path45"
             style="stroke-width:4.5" /><path
             d="m 77.5235,133.346 -3.375,-10.134 4.266,-21.3255 c 0.153,-0.7695 0.1035,-1.566 -0.144,-2.3085 L 74,86.771 v -8.37 c 0.369,-0.2835 0.7155,-0.5895 1.071,-0.8955 3.321,7.929 6.048,16.1685 8.055,24.5475 0.2925,1.224 1.089,2.2725 2.1915,2.8845 0.675,0.3735 1.4265,0.5625 2.1825,0.5625 0.477,0 0.9585,-0.0765 1.422,-0.234 l 27,-9 c 1.926,-0.6435 3.186,-2.4975 3.069,-4.527 C 118.5905,84.728 116.93,78.113 114.0635,72.0695 103.232,49.2545 78.7025,41.501 66.755,39.0125 64.874,38.45 63.0785,38.144 61.328,38.072 61.2515,38.063 61.139,38.045 61.067,38.036 61.0265,38.0315 60.986,38.045 60.9455,38.0405 60.797,38.036 60.644,38 60.5,38 c -0.2385,0 -0.4635,0.063 -0.702,0.072 -0.018,0.0045 -0.0405,0.0045 -0.0585,0.0045 C 47.693,38.4905 38,48.3545 38,60.5 c 0,7.3215 3.5685,13.7745 9,17.883 V 83 h -4.5 c -0.2835,0 -0.549,0.081 -0.8235,0.135 L 29,75.89 V 38 C 29,30.557 22.943,24.5 15.5,24.5 8.057,24.5 2,30.557 2,38 v 49.5 c 0,1.5525 0.801,2.9925 2.115,3.816 l 22.1625,13.851 -1.6875,8.451 c -0.297,1.476 0.1665,3.0015 1.2285,4.0635 L 38,129.863 v 12.258 C 16.886,147.9845 2,195.122 2,258.5 c 0,2.106 1.458,3.9285 3.51,4.392 26.8695,6.0435 54.4545,9.108 81.99,9.108 27.5355,0 55.1205,-3.0645 81.99,-9.108 2.16,-0.486 3.6495,-2.475 3.501,-4.689 -0.936,-14.166 -10.6335,-61.6455 -41.805,-92.88 -18.342,-18.378 -38.9025,-27.495 -53.6625,-31.977 z m 28.413,-57.4155 c 1.9035,4.014 3.1635,8.343 3.753,12.9285 l -19.026,6.345 C 88.5395,87.356 85.844,79.643 82.6265,72.2135 81.9155,70.5755 81.0695,68.996 80.309,67.3805 80.2865,67.322 80.3,67.259 80.273,67.205 c -0.369,-0.7785 -0.774,-1.5255 -1.152,-2.2995 -1.2735,-2.592 -2.5965,-5.1525 -4.0005,-7.677 -1.161,-2.1015 -2.349,-4.167 -3.582,-6.192 -0.378,-0.6165 -0.702,-1.2645 -1.089,-1.8765 11.2365,3.1635 27.738,10.449 35.487,26.7705 z M 58.2635,47.189 c 0.324,0.459 0.6345,0.927 0.954,1.3905 1.9215,2.799 3.7935,5.661 5.5665,8.649 0.1125,0.1845 0.225,0.3645 0.3375,0.5535 2.088,3.555 4.0725,7.227 5.931,11.016 -1.116,1.4265 -2.5155,2.547 -4.0545,3.42 -0.9,0.504 -1.827,0.891 -2.7675,1.179 -0.135,0.0405 -0.2565,0.108 -0.396,0.144 -2.196,0.594 -4.4595,0.594 -6.6555,0 C 57.089,73.5185 57.008,73.487 56.9225,73.46 55.847,73.1495 54.7895,72.713 53.768,72.119 53.7275,72.0965 53.6825,72.0875 53.642,72.065 49.682,69.707 47,65.432 47,60.5 47,53.8175 51.878,48.26 58.2635,47.189 Z M 11.018,254.882 C 11.612,192.278 27.5735,150.5 42.5,150.5 c 2.484,0 4.5,-2.0115 4.5,-4.5 v -18 c 0,-1.197 -0.4725,-2.34 -1.3185,-3.1815 l -11.799,-11.799 0.5535,-2.7495 5.679,3.546 v 0 0 L 42.5,110 44.885,106.184 33.6845,99.182 c 0,0 -0.0045,0 -0.0045,-0.0045 L 11,85.0025 V 38 c 0,-2.484 2.0205,-4.5 4.5,-4.5 2.4795,0 4.5,2.016 4.5,4.5 v 40.5 c 0,1.611 0.864,3.105 2.268,3.906 l 31.5,18 L 56,96.5 58.4975,92.756 54.9515,90.3935 C 55.604,89.6105 56,88.598 56,87.5 V 82.5455 C 57.4535,82.8425 58.961,83 60.5,83 c 1.386,0 2.7405,-0.1755 4.077,-0.4275 0.1395,-0.027 0.2835,-0.0135 0.423,-0.045 V 87.5 c 0,0.4815 0.0765,0.963 0.2295,1.422 l 4.122,12.366 -4.266,21.3255 c -0.153,0.7695 -0.1035,1.566 0.144,2.3085 l 4.5,13.5 c 0.468,1.4085 1.611,2.502 3.042,2.907 13.8375,3.924 34.101,12.3705 52.0425,30.348 26.8515,26.9055 36.7065,66.6855 38.8125,83.286 -50.103,10.692 -102.5235,10.665 -152.6085,-0.081 z"
             id="path46"
             style="stroke-width:4.5" /></g></g></g></g></svg>
