<?xml version="1.0" encoding="UTF-8" standalone="no"?>
<!-- Created with Inkscape (http://www.inkscape.org/) -->

<svg
   width="85.846107mm"
   height="88.498978mm"
   viewBox="0 0 85.846108 88.498979"
   version="1.1"
   id="svg1"
   xml:space="preserve"
   inkscape:export-filename="bread_and_salt.svg"
   inkscape:export-xdpi="96"
   inkscape:export-ydpi="96"
   xmlns:inkscape="http://www.inkscape.org/namespaces/inkscape"
   xmlns:sodipodi="http://sodipodi.sourceforge.net/DTD/sodipodi-0.dtd"
   xmlns="http://www.w3.org/2000/svg"
   xmlns:svg="http://www.w3.org/2000/svg"><sodipodi:namedview
     id="namedview1"
     pagecolor="#ffffff"
     bordercolor="#000000"
     borderopacity="0.25"
     inkscape:showpageshadow="2"
     inkscape:pageopacity="0.0"
     inkscape:pagecheckerboard="0"
     inkscape:deskcolor="#d1d1d1"
     inkscape:document-units="mm"
     inkscape:zoom="1.2783635"
     inkscape:cx="133.76477"
     inkscape:cy="219.42116"
     inkscape:window-width="1192"
     inkscape:window-height="790"
     inkscape:window-x="0"
     inkscape:window-y="38"
     inkscape:window-maximized="0"
     inkscape:current-layer="layer1"><inkscape:page
       x="0"
       y="0"
       width="85.846107"
       height="88.498985"
       id="page2"
       margin="0"
       bleed="0" /></sodipodi:namedview><defs
     id="defs1" /><g
     inkscape:label="Layer 1"
     inkscape:groupmode="layer"
     id="layer1"
     transform="translate(-119.85047,-121.123)"><g
       id="g3"
       transform="matrix(3,0,0,3,-155.124,-219.74548)"
       inkscape:export-filename="bread_and_salt.svg"
       inkscape:export-xdpi="96"
       inkscape:export-ydpi="96"><g
         id="g1"
         transform="matrix(0.26458333,0,0,0.26458333,959.02104,-629.95876)"><g
           id="g7"
           transform="translate(-3234.1303,2795.3904)"><path
             d="M 63.18,27.62 51.44,15.88 C 50.85,15.29 50.07,14.96 49.25,15 c -0.82,0.02 -1.58,0.37 -2.14,0.98 L 30.28,34.56 c -1.07,1.18 -1.03,2.99 0.1,4.12 l 0.52,0.52 -1.18,1.17 -0.76,-0.76 c -0.34,-0.33 -0.86,-0.38 -1.25,-0.13 -1.39,0.9 -3.05,2.23 -3.05,3.43 0,4.3 7.19,11.49 11.49,11.49 1.2,0 2.53,-1.66 3.43,-3.05 0.25,-0.39 0.2,-0.91 -0.13,-1.25 l -0.76,-0.76 1.17,-1.18 0.52,0.52 c 0.59,0.58 1.35,0.88 2.12,0.88 0.71,0 1.43,-0.26 2,-0.78 L 63.08,31.95 c 0.61,-0.56 0.96,-1.32 0.98,-2.14 0.02,-0.83 -0.29,-1.6 -0.88,-2.19 z M 39.56,35.3 c -0.2,0.22 -0.47,0.33 -0.75,0.33 -0.23,0 -0.47,-0.08 -0.66,-0.25 -0.41,-0.37 -0.45,-1 -0.08,-1.41 l 10.37,-11.6 c 0.37,-0.42 1,-0.45 1.42,-0.08 0.41,0.36 0.44,1 0.07,1.41 z m 17.13,-4.68 -11.6,10.37 c -0.19,0.17 -0.43,0.25 -0.66,0.25 -0.28,0 -0.55,-0.11 -0.75,-0.33 -0.37,-0.41 -0.33,-1.04 0.08,-1.41 l 11.6,-10.38 c 0.41,-0.36 1.05,-0.33 1.41,0.08 0.37,0.42 0.34,1.05 -0.08,1.42 z"
             id="path1" /><path
             d="m 22.07,56.47 c -0.38,-0.37 -1.04,-0.37 -1.41,0 -0.19,0.18 -0.3,0.44 -0.3,0.71 0,0.26 0.11,0.52 0.3,0.7 0.18,0.19 0.44,0.3 0.7,0.3 0.27,0 0.52,-0.11 0.71,-0.3 0.09,-0.09 0.16,-0.2 0.22,-0.32 0.05,-0.12 0.07,-0.25 0.07,-0.38 0,-0.14 -0.02,-0.26 -0.07,-0.39 -0.06,-0.12 -0.13,-0.23 -0.22,-0.32 z"
             id="path2" /><path
             d="m 17.64,59.86 c -0.28,-0.28 -0.72,-0.37 -1.09,-0.22 -0.12,0.06 -0.23,0.13 -0.32,0.22 -0.1,0.09 -0.17,0.2 -0.22,0.33 -0.05,0.12 -0.08,0.25 -0.08,0.38 0,0.26 0.11,0.52 0.3,0.7 0.09,0.1 0.2,0.17 0.32,0.22 0.12,0.05 0.25,0.08 0.38,0.08 0.27,0 0.52,-0.11 0.71,-0.3 0.19,-0.18 0.29,-0.44 0.29,-0.7 0,-0.13 -0.02,-0.26 -0.07,-0.38 -0.05,-0.13 -0.13,-0.24 -0.22,-0.33 z"
             id="path3" /><path
             d="m 26.36,59.42 c -0.09,-0.09 -0.2,-0.17 -0.32,-0.22 -0.37,-0.15 -0.81,-0.06 -1.09,0.22 -0.09,0.09 -0.17,0.2 -0.22,0.32 -0.05,0.12 -0.07,0.25 -0.07,0.38 0,0.27 0.1,0.53 0.29,0.71 0.18,0.19 0.44,0.29 0.71,0.29 0.13,0 0.26,-0.02 0.38,-0.07 0.12,-0.05 0.23,-0.12 0.32,-0.22 0.1,-0.09 0.17,-0.2 0.22,-0.32 0.05,-0.13 0.08,-0.25 0.08,-0.39 0,-0.13 -0.03,-0.26 -0.08,-0.38 -0.05,-0.12 -0.12,-0.23 -0.22,-0.32 z"
             id="path4" /><path
             d="m 21.75,63.08 c -0.38,-0.16 -0.82,-0.07 -1.1,0.21 -0.18,0.19 -0.29,0.45 -0.29,0.71 0,0.07 0.01,0.13 0.02,0.2 0.01,0.06 0.03,0.12 0.06,0.18 0.02,0.06 0.06,0.12 0.09,0.18 0.04,0.05 0.08,0.1 0.12,0.15 0.19,0.18 0.45,0.29 0.71,0.29 0.13,0 0.26,-0.03 0.39,-0.08 0.12,-0.05 0.23,-0.12 0.32,-0.21 0.19,-0.19 0.29,-0.45 0.29,-0.71 0,-0.26 -0.1,-0.52 -0.29,-0.71 -0.09,-0.09 -0.2,-0.16 -0.32,-0.21 z"
             id="path5" /><path
             d="m 28.09,53.3 c -0.37,-0.15 -0.81,-0.06 -1.09,0.21 -0.18,0.19 -0.29,0.45 -0.29,0.71 0,0.26 0.11,0.52 0.29,0.71 0.19,0.18 0.45,0.29 0.71,0.29 0.26,0 0.52,-0.11 0.71,-0.29 0.18,-0.19 0.29,-0.45 0.29,-0.71 0,-0.26 -0.11,-0.52 -0.29,-0.71 -0.1,-0.09 -0.21,-0.16 -0.33,-0.21 z"
             id="path6" /><path
             d="m 22.46,51 c -0.18,0.19 -0.29,0.45 -0.29,0.71 0,0.26 0.11,0.52 0.29,0.71 0.19,0.18 0.45,0.29 0.71,0.29 0.26,0 0.52,-0.11 0.71,-0.29 0.18,-0.19 0.29,-0.45 0.29,-0.71 0,-0.26 -0.11,-0.52 -0.29,-0.71 -0.37,-0.37 -1.05,-0.37 -1.42,0 z"
             id="path7" /></g></g><g
         id="g2"
         transform="matrix(0.26458333,0,0,0.26458333,90.348451,123.2364)"
         inkscape:export-filename="bread_and_salt.svg"
         inkscape:export-xdpi="300"
         inkscape:export-ydpi="300"><path
           d="m 84.367,26.504 c -4.7266,-1.4727 -10.68,-1.9688 -16.781,-1.3984 -4.4141,-0.03906 -6.6133,2.125 -7.9766,4.3281 -5.7773,-2.3203 -12.453,-1.1328 -13.262,-0.97656 -4.3125,0.62109 -7.1562,2.9453 -8.2812,6.7461 -8.5391,-0.89062 -14.035,3.3359 -14.414,9.4805 -1.5,-0.19922 -2.2734,-0.58594 -3.5547,-0.11719 -5.1328,3.6133 -9.957,8 -12.539,11.301 -6.9062,9.1016 0.84375,19.984 12.223,19.258 8.043,-0.05859 18.906,-2.8828 35.867,-9.0078 19.133,-7.6367 44.023,-15.441 38.594,-31.898 -1.2461,-3.4258 -4.6562,-6.0938 -9.875,-7.7188 z m -18.105,1.0195 c 1.4844,3.7344 2.5156,7.5078 2.4141,8.7812 -1.8828,-1.8047 -3.5508,-3.7109 -6.9531,-5.8281 0.92969,-1.4375 2.2344,-2.6406 4.5391,-2.9531 z m -19.965,3.3203 c 0.92578,0.54297 3.8359,2.3906 8.25,6.543 1.957,1.8398 2.207,3.1094 1.8984,3.5117 -0.65625,0.85156 -4.2031,0.98828 -9.7969,-2.5156 -2.2188,-1.3906 -4.332,-2.2422 -6.2656,-2.7344 0.86719,-2.6797 2.8125,-4.2578 5.9141,-4.8047 z m -16.121,7.8203 c 0.83984,0.78906 2.4453,2.3203 4.0312,3.9961 3.1367,3.3125 4.0195,4.8672 4.2656,5.4883 -4.3359,-0.95313 -9.7734,-2.6172 -12.488,-3.0273 -0.04687,-2.7578 1.3047,-4.8359 4.1875,-6.4609 z m 56.66,9.8906 c -8.668,8.168 -54.98,24.957 -66.641,24.227 -6.5039,0.14062 -10.66,-2.0859 -12.414,-7.1328 -2.2852,-5.4531 2.9414,-11.547 13.609,-18.957 4.5469,0.71484 8.3594,1.543 14.883,3.3945 0.95703,0.27734 3.5,1.0156 4.4062,-0.60938 1.8086,-1.8047 -4.8281,-8.75 -8.0625,-11.734 3.7148,-0.92969 8.8125,0.02344 12.789,2.625 5.8125,3.6406 11,4.4258 12.898,1.957 3.0938,-4.2734 -6.7422,-10.367 -8.4258,-11.922 6.8125,-0.51562 11.711,1.8125 16.219,6.6562 1.5625,1.6797 2.9844,2.6875 4.4258,0.90625 1.3555,-1.0625 -0.47656,-7.3438 -1.8125,-10.609 11.648,-0.88281 21.375,2.2812 23.332,7.6641 1.8125,4.9922 0.21094,9.1641 -5.2031,13.535 z"
           id="path1-3"
           sodipodi:nodetypes="cccccccccccccscccscccccccccccccccccccccccccccc" /></g></g></g></svg>
