<?xml version="1.0" encoding="UTF-8" standalone="no"?>
<svg
   version="1.1"
   x="0px"
   y="0px"
   viewBox="0 0 225.37084 246.86302"
   xml:space="preserve"
   id="svg13"
   sodipodi:docname="bride-groom.svg"
   width="225.37083"
   height="246.86301"
   inkscape:version="1.4 (e7c3feb1, 2024-10-09)"
   xmlns:inkscape="http://www.inkscape.org/namespaces/inkscape"
   xmlns:sodipodi="http://sodipodi.sourceforge.net/DTD/sodipodi-0.dtd"
   xmlns="http://www.w3.org/2000/svg"
   xmlns:svg="http://www.w3.org/2000/svg"><defs
     id="defs13" /><sodipodi:namedview
     id="namedview13"
     pagecolor="#ffffff"
     bordercolor="#000000"
     borderopacity="0.25"
     inkscape:showpageshadow="2"
     inkscape:pageopacity="0.0"
     inkscape:pagecheckerboard="0"
     inkscape:deskcolor="#d1d1d1"
     showgrid="false"
     inkscape:zoom="1.2956472"
     inkscape:cx="112.685"
     inkscape:cy="154.36301"
     inkscape:window-width="1392"
     inkscape:window-height="1017"
     inkscape:window-x="0"
     inkscape:window-y="25"
     inkscape:window-maximized="0"
     inkscape:current-layer="svg13" /><g
     id="g12"
     transform="translate(4.1209958e-4)"><path
       d="m 205.893,136.501 c -1.176,1.643 -2.801,2.898 -4.609,3.602 -0.086,1.939 -0.754,3.88 -1.932,5.52 -0.856,1.193 -1.953,2.176 -3.182,2.897 1.652,3.454 5.164,5.682 9.002,5.682 0.708,0 1.427,-0.075 2.146,-0.232 5.396,-1.183 8.815,-6.512 7.633,-11.908 -0.984,-4.574 -2.65,-8.713 -4.777,-12.396 -0.729,0.543 -1.517,0.996 -2.351,1.318 -0.085,1.935 -0.753,3.877 -1.93,5.517 z"
       id="path1" /><ellipse
       transform="matrix(0.7065,-0.7077,0.7077,0.7065,-18.928,105.2469)"
       cx="117.428"
       cy="75.444"
       rx="1.207"
       ry="1.206"
       id="ellipse1" /><path
       d="m 97.054,109.675 c -2.581,-0.248 -5.052,-0.415 -7.36,-0.57 -1.395,-0.094 -2.746,-0.186 -4.031,-0.29 -3.182,4.562 -6.771,8.326 -10.709,11.199 -0.45,0.321 -1.421,0.956 -2.626,1.725 v 17.761 95 c 0,6.828 5.535,12.363 12.363,12.363 6.828,0 12.363,-5.535 12.363,-12.363 v -87.273 h 4.637 V 234.5 c 0,6.828 5.535,12.363 12.363,12.363 6.828,0 12.363,-5.535 12.363,-12.363 v -95 -21.006 c -8.204,-5.04 -16.833,-7.2 -24.727,-8.283 -1.578,-0.216 -3.126,-0.391 -4.636,-0.536 z"
       id="path2" /><path
       d="m 117.43,77.719 c 10e-4,1.001 -0.131,1.76 -0.35,2.335 0.21,-0.063 0.419,-0.135 0.628,-0.203 -0.175,-0.548 -0.277,-1.248 -0.278,-2.132 z"
       id="path3" /><path
       d="m 70.41,67.025 c 0.536,-0.289 1.17,-0.629 1.888,-0.972 0.01,-0.005 0.02,-0.009 0.029,-0.013 2.583,-1.23 4.945,-1.828 7.214,-1.828 1.671,0 3.292,0.33 4.82,0.979 0.277,0.118 0.537,0.261 0.805,0.393 1.865,0.921 3.498,2.154 4.967,3.518 -0.719,-3.114 -1.343,-6.153 -1.865,-8.894 -0.325,-1.707 -0.611,-3.291 -0.855,-4.704 -0.31,-1.791 -0.552,-3.296 -0.725,-4.408 h -6.634 c -1.041,0 -2.032,0.209 -2.939,0.582 -3.304,0.825 -8.868,3.082 -14.197,9.024 -1.224,1.359 -2.422,2.889 -3.575,4.605 3.183,0.206 6.653,0.901 10.363,2.092 0.208,-0.106 0.474,-0.249 0.704,-0.374 z"
       id="path4" /><path
       d="m 130.338,121.158 c 0,0.604 -0.001,1.209 -0.005,1.845 -0.017,4.417 3.553,8.012 7.973,8.027 0.01,0 0.021,0 0.031,0 0.66,0 1.299,-0.089 1.913,-0.24 -3.13,-3.892 -6.465,-7.052 -9.912,-9.632 z"
       id="path5" /><path
       d="m 118.742,57.428 c -1.734,2.849 -3.512,5.523 -5.323,8.04 -1.849,2.567 -3.736,4.962 -5.66,7.177 -0.674,2.675 -1.414,5.329 -2.217,7.825 1.689,0.391 3.35,0.592 4.999,0.592 0.983,0 1.949,-0.077 2.902,-0.21 -2.301,-1.559 -3.774,-5.397 1.709,-5.404 -9.668,0.012 2.262,-11.947 2.272,-2.278 -0.005,-4.818 2.96,-4.272 4.741,-2.511 0.682,0.674 1.189,1.525 1.291,2.323 0.166,1.301 -0.748,2.457 -3.755,2.461 2.625,-0.003 3.65,0.878 3.762,1.968 0.507,-0.259 1.014,-0.528 1.521,-0.804 0.477,-0.26 0.955,-0.525 1.433,-0.797 1.418,-0.806 2.841,-1.655 4.28,-2.517 l 1.632,-0.975 c 2.2,-1.308 4.409,-2.577 6.681,-3.74 -0.684,-1.627 -1.4,-3.122 -2.147,-4.492 -2.748,-4.998 -6.042,-8.38 -9.379,-10.382 -2.752,-1.674 -5.407,-2.307 -7.377,-2.469 -0.221,-0.042 -0.444,-0.076 -0.673,-0.098 0.007,0.02 0.012,0.039 0.018,0.059 0.658,2.01 0.474,4.285 -0.71,6.232 z"
       id="path6" /><circle
       cx="99.373001"
       cy="22.5"
       r="22.5"
       id="circle6" /><polygon
       points="91.544,51.098 91.373,51 91.373,51.098 91.373,60 98.373,56 98.373,55 "
       id="polygon6" /><path
       d="m 100.373,55 v 1 l 0.982,0.561 c 0.804,-1.121 1.602,-2.285 2.395,-3.491 z"
       id="path7" /><path
       d="m 2.142,74.168 c 0.122,0.018 0.243,0.026 0.363,0.026 1.22,0 2.289,-0.897 2.471,-2.141 -0.002,-0.004 0.129,-0.91 0.438,-2.569 1.069,-5.802 4.283,-20.469 10.884,-33.442 3.292,-6.488 7.427,-12.531 12.427,-16.858 5.018,-4.332 10.784,-6.981 17.777,-6.992 7.979,0.015 14.402,3.471 19.863,8.949 0.974,0.979 2.557,0.986 3.536,0.015 0.979,-0.974 0.988,-2.556 0.017,-3.536 H 69.915 C 63.847,11.474 56.02,7.178 46.501,7.193 36.981,7.178 29.153,11.474 23.085,17.621 4.95,36.087 0.132,71.138 0.026,71.335 c -0.199,1.367 0.748,2.634 2.116,2.833 z"
       id="path8" /><circle
       cx="46.500999"
       cy="40.193001"
       r="22.5"
       id="circle8" /><path
       d="m 212.293,120.379 c 1.907,-0.346 3.761,-1.478 5.055,-3.281 1.291,-1.802 1.769,-3.92 1.484,-5.837 1.907,-0.346 3.762,-1.48 5.055,-3.283 2.389,-3.33 1.788,-7.889 -1.053,-10.112 -44.853,-39.305 -66.595,-35.893 -83.076,-27.423 -4.74,2.436 -9.047,5.287 -13.341,7.664 -0.258,0.143 -0.517,0.283 -0.774,0.422 -1.181,0.637 -2.362,1.235 -3.554,1.773 -0.941,0.425 -1.89,0.81 -2.848,1.153 -4.412,1.578 -9.05,2.178 -14.334,0.916 -1.639,-0.392 -3.341,-0.966 -5.116,-1.744 -0.571,0.489 -1.145,0.964 -1.72,1.424 2.093,0.984 4.134,1.724 6.147,2.222 2.127,0.527 4.225,0.789 6.322,0.789 5.747,-0.002 10.762,-1.951 15.686,-4.575 0.063,-0.034 0.127,-0.069 0.19,-0.103 2.11,-1.132 4.205,-2.383 6.335,-3.658 l 1.62,-0.968 c 2.004,-1.192 4.013,-2.35 6.069,-3.416 5.894,-3.053 12.183,-5.327 19.893,-5.327 16.324,0 36.336,10.582 61.181,32.355 l 0.043,0.036 0.043,0.034 c 2.065,1.617 2.368,4.992 0.662,7.371 -0.941,1.311 -2.319,2.216 -3.784,2.481 l -1.906,0.345 0.283,1.914 c 0.217,1.476 -0.197,3.073 -1.135,4.379 -0.939,1.311 -2.318,2.214 -3.784,2.481 l -1.903,0.347 0.283,1.912 c 0.217,1.476 -0.197,3.073 -1.135,4.381 -0.338,0.472 -0.735,0.889 -1.171,1.244 -0.774,0.632 -1.675,1.065 -2.613,1.234 l -1.907,0.346 0.284,1.916 c 0.22,1.474 -0.194,3.071 -1.132,4.381 -0.939,1.309 -2.318,2.212 -3.787,2.479 l -1.902,0.347 0.282,1.911 c 0.218,1.477 -0.196,3.074 -1.134,4.38 -0.338,0.471 -0.733,0.887 -1.168,1.241 -0.775,0.634 -1.678,1.068 -2.617,1.239 l -1.902,0.348 0.282,1.911 c 0.218,1.477 -0.196,3.074 -1.134,4.382 -0.939,1.309 -2.318,2.212 -3.785,2.477 l -1.906,0.345 0.283,1.916 c 0.221,1.475 -0.193,3.071 -1.133,4.384 -0.94,1.309 -2.319,2.212 -3.783,2.477 l -1.904,0.345 0.281,1.914 c 0.219,1.477 -0.195,3.073 -1.133,4.382 -0.939,1.311 -2.319,2.214 -3.785,2.479 l -1.907,0.345 0.284,1.916 c 0.221,1.475 -0.193,3.071 -1.131,4.382 -1.151,1.602 -2.897,2.559 -4.671,2.559 -0.632,0 -1.235,-0.13 -1.78,-0.377 -3.638,-25.063 -10.897,-41.8 -19.753,-53.036 -4.191,-5.319 -8.741,-9.403 -13.433,-12.555 -1.287,-0.865 -2.585,-1.661 -3.89,-2.392 -8.31,-4.654 -16.871,-6.709 -24.54,-7.755 -1.756,-0.24 -3.466,-0.428 -5.114,-0.582 -2.411,-0.224 -4.693,-0.378 -6.802,-0.519 -0.661,-0.044 -1.313,-0.087 -1.951,-0.132 -0.2,0.462 -0.426,0.916 -0.697,1.352 -0.123,0.197 -0.253,0.382 -0.378,0.577 3.007,0.222 6.416,0.406 10.088,0.756 1.517,0.145 3.076,0.317 4.672,0.534 7.803,1.06 16.433,3.162 24.723,8.017 1.314,0.769 2.62,1.612 3.913,2.527 4.128,2.923 8.121,6.615 11.828,11.313 8.773,11.123 15.942,27.844 19.488,53.128 3.025,2.169 7.475,1.159 9.922,-2.251 1.291,-1.802 1.77,-3.921 1.485,-5.838 1.907,-0.346 3.761,-1.477 5.054,-3.281 1.293,-1.804 1.77,-3.922 1.486,-5.839 1.906,-0.346 3.76,-1.478 5.054,-3.281 1.293,-1.803 1.771,-3.922 1.487,-5.839 1.906,-0.346 3.76,-1.478 5.052,-3.279 1.294,-1.804 1.77,-3.922 1.487,-5.839 0.974,-0.177 1.932,-0.561 2.81,-1.132 0.842,-0.548 1.61,-1.267 2.243,-2.149 1.293,-1.802 1.77,-3.921 1.486,-5.837 1.906,-0.347 3.762,-1.48 5.055,-3.283 1.291,-1.802 1.77,-3.921 1.485,-5.838 1.189,-0.216 2.357,-0.737 3.382,-1.536 0.619,-0.482 1.186,-1.066 1.672,-1.745 1.294,-1.805 1.771,-3.924 1.487,-5.841 z"
       id="path9" /><path
       d="M 70.151,92.796 H 70.149 70.055 C 68.5,92.793 67.041,92.691 65.666,92.527 58.816,91.714 54.267,89.25 52.865,88.394 c -0.897,-0.571 -1.633,-1.296 -2.196,-2.116 -1.661,-2.418 -1.82,-5.667 -0.165,-8.272 0.902,-1.417 2.224,-2.454 3.745,-3.011 0.816,-0.298 1.688,-0.466 2.588,-0.466 1.427,0 2.815,0.404 4.022,1.172 0.004,0 0.125,0.064 0.294,0.151 0.352,0.177 0.962,0.458 1.767,0.742 1.544,0.55 4.029,1.204 7.139,1.204 0.162,0 0.324,-0.017 0.486,-0.021 0.372,-0.009 0.743,-0.022 1.114,-0.049 -0.101,-0.494 -0.201,-0.984 -0.302,-1.463 -0.359,-1.709 -0.718,-3.323 -1.066,-4.823 0.58,-0.124 1.17,-0.438 2.018,-0.896 0.006,-0.003 0.013,-0.007 0.019,-0.01 0.482,-0.261 1.052,-0.567 1.694,-0.876 1.633,-0.777 3.106,-1.222 4.486,-1.376 0.349,-0.039 0.696,-0.072 1.033,-0.072 1.13,0 2.223,0.222 3.251,0.659 1.538,0.655 2.91,1.638 4.191,2.774 0.542,-0.392 1.083,-0.802 1.622,-1.23 -1.498,-1.368 -3.141,-2.58 -5.029,-3.384 -0.23,-0.098 -0.458,-0.163 -0.687,-0.242 -4.17,-1.436 -8.07,0.198 -10.563,1.488 -1.384,0.716 -2.342,1.32 -2.655,1.216 -4.451,-1.48 -8.277,-2.15 -11.575,-2.234 -16.166,-0.41 -19.32,13.608 -17.582,19.241 1.416,4.593 4.168,8.06 8.131,10.755 3.956,2.69 9.125,4.609 15.392,6.104 0.2,0.047 0.399,0.095 0.602,0.142 1.813,-2.133 4.037,-5.079 5.717,-7.771 0.546,-0.873 1.22,-1.627 1.973,-2.276 0.342,-0.294 0.701,-0.563 1.077,-0.807 -0.367,0.033 -0.728,0.061 -1.077,0.082 -0.771,0.047 -1.499,0.067 -2.178,0.067 z"
       id="path10" /><path
       d="m 107.637,50.672 c -0.088,0.145 -0.176,0.279 -0.264,0.423 -0.001,10e-4 -0.001,0.002 -0.002,0.003 -1.435,2.334 -2.859,4.483 -4.271,6.461 -1.03,1.445 -2.054,2.794 -3.067,4.062 -0.804,1.004 -1.602,1.962 -2.393,2.861 -2.07,2.354 -4.092,4.354 -6.05,6.054 -0.312,0.271 -0.622,0.533 -0.932,0.789 -0.2,0.166 -0.401,0.336 -0.601,0.496 -0.539,0.433 -1.071,0.84 -1.599,1.229 -0.752,0.553 -1.493,1.068 -2.221,1.537 -5.336,3.426 -9.993,4.745 -13.912,5.101 -0.091,0.008 -0.183,0.016 -0.272,0.023 -0.688,0.055 -1.355,0.084 -1.996,0.087 -0.159,0 -0.31,-0.008 -0.466,-0.012 -3.086,-0.059 -5.608,-0.688 -7.337,-1.305 -0.906,-0.321 -1.594,-0.639 -2.017,-0.852 -0.213,-0.108 -0.36,-0.189 -0.44,-0.234 l -0.013,-0.006 c -2.159,-1.373 -4.9,-1.037 -6.689,0.631 -0.335,0.312 -0.647,0.654 -0.904,1.058 -0.811,1.275 -1.028,2.757 -0.729,4.125 0.302,1.382 1.131,2.649 2.418,3.469 V 86.67 c 0.46,0.28 4.94,3.068 12.215,3.893 1.244,0.141 2.561,0.231 3.963,0.234 0.031,0 0.062,0 0.092,0 0.707,0 1.434,-0.026 2.177,-0.073 0.517,-0.033 1.04,-0.075 1.572,-0.132 5.486,-0.592 11.782,-2.542 18.3,-6.761 0.577,-0.373 1.157,-0.767 1.738,-1.174 0.758,-0.532 1.52,-1.1 2.283,-1.693 0.521,-0.405 1.042,-0.825 1.564,-1.26 0.02,-0.017 0.04,-0.033 0.061,-0.05 0.534,-0.446 1.069,-0.907 1.605,-1.385 0.437,-0.39 0.874,-0.792 1.312,-1.203 2.671,-2.508 5.357,-5.425 8.044,-8.805 1.066,-1.342 2.133,-2.756 3.198,-4.247 1.68,-2.351 3.357,-4.881 5.027,-7.625 0.976,-1.604 1.029,-3.508 0.317,-5.103 -0.029,-0.065 -0.066,-0.125 -0.098,-0.189 -0.446,-0.904 -1.134,-1.702 -2.06,-2.266 -1.904,-1.158 -4.229,-1.013 -5.958,0.168 -0.623,0.429 -1.175,0.983 -1.595,1.673 z"
       id="path11" /><path
       d="m 73.774,118.399 c 3.349,-2.444 6.597,-5.712 9.581,-9.802 0.443,-0.606 0.88,-1.23 1.311,-1.874 0.319,-0.478 0.64,-0.953 0.952,-1.451 0.093,-0.148 0.171,-0.302 0.253,-0.454 1.573,-2.921 1.155,-6.435 -0.88,-8.89 -0.532,-0.643 -1.17,-1.215 -1.916,-1.681 -2.747,-1.719 -6.131,-1.558 -8.665,0.123 -0.794,0.527 -1.501,1.205 -2.082,2.021 -0.093,0.131 -0.19,0.258 -0.276,0.396 -1.896,3.038 -3.907,5.381 -5.76,7.08 -0.671,0.615 -1.322,1.152 -1.938,1.599 -0.014,0.01 -0.025,0.017 -0.039,0.027 -0.174,0.126 -0.339,0.233 -0.507,0.346 -0.412,0.278 -0.812,0.53 -1.175,0.729 -0.101,-0.197 -0.222,-0.381 -0.338,-0.569 0.235,-0.209 0.511,-0.479 0.816,-0.797 -0.595,-0.146 -1.183,-0.298 -1.764,-0.455 -1.367,-1.468 -3.278,-2.432 -5.44,-2.542 -0.62,-0.032 -1.225,0.015 -1.812,0.119 -2.06,-0.852 -3.976,-1.819 -5.722,-2.927 -0.385,3.25 -0.68,6.705 -0.864,10.395 -10e-4,0.01 10e-4,0.021 0,0.031 -0.011,0.238 -0.02,0.498 -0.02,0.793 -0.045,3.121 1.062,6.79 3.74,9.355 2.62,2.55 6.049,3.489 8.941,3.489 0.039,0 0.078,0 0.117,-10e-4 0.738,-0.012 1.458,-0.077 2.169,-0.17 3.512,-0.456 6.727,-1.863 9.871,-3.911 0.484,-0.311 0.966,-0.635 1.447,-0.979 z"
       id="path12" /></g><text
     x="0.00041209959"
     y="266.86301"
     fill="#000000"
     font-size="5px"
     font-weight="bold"
     font-family="'Helvetica Neue', Helvetica, Arial-Unicode, Arial, Sans-serif"
     id="text13" /></svg>
