<?xml version="1.0" encoding="utf-8"?>
<!-- Generator: Adobe Illustrator 26.0.2, SVG Export Plug-In . SVG Version: 6.00 Build 0)  -->
<svg version="1.1" id="Layer_3" xmlns="http://www.w3.org/2000/svg" xmlns:xlink="http://www.w3.org/1999/xlink" x="0px" y="0px"
	 viewBox="0 0 64 64" style="enable-background:new 0 0 64 64;" xml:space="preserve">
<g>
	<path d="M54,1H22c-0.552,0-1,0.448-1,1v6.667c0,0.421,0.264,0.797,0.66,0.94l11.566,4.176l2.837,7.567
		c0.061,0.163,0.163,0.306,0.296,0.417l3.534,2.945l-7.253-0.659l-3.13-6.146c-0.142-0.278-0.405-0.475-0.712-0.53l-6.62-1.204
		c-0.29-0.051-0.592,0.026-0.819,0.216S21,16.861,21,17.158V26c0,8.252,5.958,15.29,14,16.721V53c0,2.206-1.794,4-4,4
		c-2.757,0-5,2.243-5,5c0,0.553,0.448,1,1,1h22c0.552,0,1-0.447,1-1c0-2.757-2.243-5-5-5c-2.206,0-4-1.794-4-4V42.721
		C49.042,41.29,55,34.252,55,26V2C55,1.448,54.552,1,54,1z M23,7.965V3h21v5.586L40.586,12h-6.411L23,7.965z M53,26
		c0,7.542-5.642,13.935-13.124,14.869C39.375,40.932,39,41.357,39,41.861V53c0,3.309,2.691,6,6,6c1.304,0,2.416,0.836,2.829,2
		H28.171c0.413-1.164,1.525-2,2.829-2c3.309,0,6-2.691,6-6V41.861c0-0.504-0.375-0.93-0.876-0.992C28.642,39.935,23,33.542,23,26
		v-7.644l4.953,0.9l3.156,6.197c0.156,0.307,0.458,0.511,0.801,0.542l11,1c0.431,0.036,0.846-0.209,1.014-0.613
		c0.167-0.404,0.053-0.871-0.284-1.151l-5.797-4.831L35.443,14h5.143l2.707,2.707C43.48,16.895,43.735,17,44,17h5v-2h-4.586l-2-2
		l3.293-3.293C45.895,9.52,46,9.265,46,9V3h7V26z"/>
	<rect x="30" y="29" width="2" height="2"/>
	<rect x="45" y="20" width="2" height="2"/>
	<rect x="34" y="7" width="2" height="2"/>
	<path d="M15.071,9.372C15.224,9.752,15.593,10,16,10c0.017,0,0.034,0,0.052-0.001c0.427-0.021,0.793-0.312,0.91-0.724l2-7
		c0.109-0.381-0.018-0.791-0.323-1.044c-0.306-0.253-0.732-0.303-1.086-0.125l-4,2c-0.465,0.233-0.674,0.783-0.481,1.266
		L15.071,9.372z M16.414,3.911l-0.572,2.001l-0.572-1.43L16.414,3.911z"/>
	<path d="M18.725,13.039l-7,2c-0.411,0.117-0.702,0.483-0.724,0.91c-0.022,0.427,0.23,0.821,0.627,0.98l5,2
		C16.75,18.977,16.876,19,17,19c0.369,0,0.721-0.205,0.895-0.553l2-4c0.177-0.355,0.128-0.781-0.125-1.086
		C19.517,13.057,19.107,12.929,18.725,13.039z M16.517,16.73l-1.43-0.572l2.001-0.572L16.517,16.73z"/>
	<rect x="16" y="22" width="2" height="2"/>
	<rect x="10" y="10" width="2" height="2"/>
</g>
</svg>
