<?xml version="1.0" encoding="UTF-8" standalone="no"?>
<!-- Generator: Adobe Illustrator 26.0.2, SVG Export Plug-In . SVG Version: 6.00 Build 0)  -->

<svg
   version="1.1"
   id="Layer_3"
   x="0px"
   y="0px"
   viewBox="0 0 64 64"
   style="enable-background:new 0 0 64 64;"
   xml:space="preserve"
   sodipodi:docname="broken-glass.svg"
   inkscape:version="1.4 (e7c3feb1, 2024-10-09)"
   inkscape:export-filename="broken-glass.svg"
   inkscape:export-xdpi="96"
   inkscape:export-ydpi="96"
   xmlns:inkscape="http://www.inkscape.org/namespaces/inkscape"
   xmlns:sodipodi="http://sodipodi.sourceforge.net/DTD/sodipodi-0.dtd"
   xmlns="http://www.w3.org/2000/svg"
   xmlns:svg="http://www.w3.org/2000/svg"><defs
   id="defs5" /><sodipodi:namedview
   id="namedview5"
   pagecolor="#ffffff"
   bordercolor="#000000"
   borderopacity="0.25"
   inkscape:showpageshadow="2"
   inkscape:pageopacity="0.0"
   inkscape:pagecheckerboard="0"
   inkscape:deskcolor="#d1d1d1"
   inkscape:zoom="5.5471858"
   inkscape:cx="41.462466"
   inkscape:cy="37.496491"
   inkscape:window-width="1824"
   inkscape:window-height="981"
   inkscape:window-x="0"
   inkscape:window-y="25"
   inkscape:window-maximized="0"
   inkscape:current-layer="Layer_3" />
<g
   id="g5"
   transform="translate(-5.1363429)">
	<path
   d="M 54,1 H 22 c -0.552,0 -1,0.448 -1,1 v 6.667 c 0,0.421 0.264,0.797 0.66,0.94 l 11.566,4.176 2.837,7.567 c 0.061,0.163 0.163,0.306 0.296,0.417 l 3.534,2.945 -7.253,-0.659 -3.13,-6.146 c -0.142,-0.278 -0.405,-0.475 -0.712,-0.53 l -6.62,-1.204 c -0.29,-0.051 -0.592,0.026 -0.819,0.216 C 21.132,16.579 21,16.861 21,17.158 V 26 c 0,8.252 5.958,15.29 14,16.721 V 53 c 0,2.206 -1.794,4 -4,4 -2.757,0 -5,2.243 -5,5 0,0.553 0.448,1 1,1 h 22 c 0.552,0 1,-0.447 1,-1 0,-2.757 -2.243,-5 -5,-5 -2.206,0 -4,-1.794 -4,-4 V 42.721 C 49.042,41.29 55,34.252 55,26 V 2 C 55,1.448 54.552,1 54,1 Z M 23,7.965 V 3 H 44 V 8.586 L 40.586,12 H 34.175 Z M 53,26 C 53,33.542 47.358,39.935 39.876,40.869 39.375,40.932 39,41.357 39,41.861 V 53 c 0,3.309 2.691,6 6,6 1.304,0 2.416,0.836 2.829,2 H 28.171 c 0.413,-1.164 1.525,-2 2.829,-2 3.309,0 6,-2.691 6,-6 V 41.861 C 37,41.357 36.625,40.931 36.124,40.869 28.642,39.935 23,33.542 23,26 v -7.644 l 4.953,0.9 3.156,6.197 c 0.156,0.307 0.458,0.511 0.801,0.542 l 11,1 c 0.431,0.036 0.846,-0.209 1.014,-0.613 0.167,-0.404 0.053,-0.871 -0.284,-1.151 L 37.843,20.4 35.443,14 h 5.143 l 2.707,2.707 C 43.48,16.895 43.735,17 44,17 h 5 v -2 h -4.586 l -2,-2 3.293,-3.293 C 45.895,9.52 46,9.265 46,9 V 3 h 7 z"
   id="path1" />
	<rect
   x="30"
   y="29"
   width="2"
   height="2"
   id="rect1" />
	<rect
   x="45"
   y="20"
   width="2"
   height="2"
   id="rect2" />
	<rect
   x="34"
   y="7"
   width="2"
   height="2"
   id="rect3" />
	<path
   d="M 15.071,9.372 C 15.224,9.752 15.593,10 16,10 c 0.017,0 0.034,0 0.052,-10e-4 0.427,-0.021 0.793,-0.312 0.91,-0.724 l 2,-7 C 19.071,1.894 18.944,1.484 18.639,1.231 18.333,0.978 17.907,0.928 17.553,1.106 l -4,2 C 13.088,3.339 12.879,3.889 13.072,4.372 Z M 16.414,3.911 15.842,5.912 15.27,4.482 Z"
   id="path3" />
	<path
   d="m 18.725,13.039 -7,2 c -0.411,0.117 -0.702,0.483 -0.724,0.91 -0.022,0.427 0.23,0.821 0.627,0.98 l 5,2 C 16.75,18.977 16.876,19 17,19 c 0.369,0 0.721,-0.205 0.895,-0.553 l 2,-4 c 0.177,-0.355 0.128,-0.781 -0.125,-1.086 -0.253,-0.304 -0.663,-0.432 -1.045,-0.322 z m -2.208,3.691 -1.43,-0.572 2.001,-0.572 z"
   id="path4" />
	<rect
   x="16"
   y="22"
   width="2"
   height="2"
   id="rect4" />
	<rect
   x="10"
   y="10"
   width="2"
   height="2"
   id="rect5" />
</g>
</svg>
