<svg xmlns="http://www.w3.org/2000/svg" width="1024" height="184" viewBox="-0.998 -0.998 196.462 35.254"><path style="fill:#015478;fill-rule:nonzero;stroke:none;stroke-width:1" d="M104.972 31.445c5.707 0 10.204-4.32 10.204-9.848 0-5.53-4.497-9.848-10.204-9.848-5.707 0-10.203 4.319-10.203 9.848 0 5.615 4.496 9.848 10.203 9.848zm0-16.241c3.632 0 6.399 2.764 6.399 6.393 0 3.8-2.68 6.478-6.399 6.478-3.718 0-6.398-2.764-6.398-6.478 0-3.715 2.68-6.393 6.398-6.393zM74.536 31.185V12.18h2.248l10.981 12.094V12.18h3.718v19.005h-2.161L78.34 19.005v12.18h-3.804zm48.595-.086-7.264-18.919h3.978l.086.26 4.41 12.007 4.929-12.267h2.075v.087l4.842 12.18 4.41-12.267h3.978l-7.264 19.005h-2.075l-5.015-12.698-5.015 12.698-2.075-.086z"/><path transform="translate(-.173 -.432)" style="fill:#015478;fill-rule:nonzero;stroke:none;stroke-width:1" d="M160.658 33.69V11.058L141.894.432h9.08l14.18 8.034v14.513L188.241.432h6.399z"/><path style="fill:#ff0a2b;fill-rule:nonzero;stroke:none;stroke-width:1" d="M37.268 31.185V12.18h14.094v3.283H40.9v4.32h9.512v3.196h-9.512v4.837h10.463V31.1H37.268v.086zM0 31.185V12.18h13.835v3.283H3.632v4.406h9.338v3.282H3.632v8.034H0zm28.535-7.774c2.766-.778 4.41-2.851 4.41-5.443 0-3.369-2.854-5.788-6.832-5.788H17.9v19.005h3.718V23.67h2.94l5.102 7.515h4.237l-5.362-7.774zm-6.918-3.024v-4.924h4.41c1.989 0 3.2.95 3.2 2.505s-1.211 2.42-3.2 2.42h-4.41zm34.069 10.798V12.18H69.78v3.283H59.317v4.32h9.512v3.196h-9.512v4.837H69.78V31.1H55.685v.086z"/></svg>