<?xml version="1.0" encoding="UTF-8" standalone="no"?>
<svg
   version="1.1"
   viewBox="-5 -10 841.73956 580.39271"
   id="svg16"
   sodipodi:docname="noun-stomp-6769184.svg"
   width="841.73956"
   height="580.3927"
   inkscape:version="1.4 (e7c3feb1, 2024-10-09)"
   xml:space="preserve"
   inkscape:export-filename="glass-and-stomp.svg"
   inkscape:export-xdpi="96"
   inkscape:export-ydpi="96"
   xmlns:inkscape="http://www.inkscape.org/namespaces/inkscape"
   xmlns:sodipodi="http://sodipodi.sourceforge.net/DTD/sodipodi-0.dtd"
   xmlns="http://www.w3.org/2000/svg"
   xmlns:svg="http://www.w3.org/2000/svg"><defs
     id="defs16" /><sodipodi:namedview
     id="namedview16"
     pagecolor="#ffffff"
     bordercolor="#000000"
     borderopacity="0.25"
     inkscape:showpageshadow="2"
     inkscape:pageopacity="0.0"
     inkscape:pagecheckerboard="0"
     inkscape:deskcolor="#d1d1d1"
     inkscape:zoom="0.55677904"
     inkscape:cx="422.07049"
     inkscape:cy="340.35046"
     inkscape:window-width="1888"
     inkscape:window-height="830"
     inkscape:window-x="0"
     inkscape:window-y="25"
     inkscape:window-maximized="0"
     inkscape:current-layer="svg16"><inkscape:page
       x="0"
       y="0"
       width="841.73956"
       height="580.3927"
       id="page2"
       margin="0"
       bleed="0" /></sodipodi:namedview><g
     fill-rule="evenodd"
     id="g15"
     transform="matrix(5,0,0,5,-5.0005,104.94112)"><path
       d="m 9.7266,79.32 c -0.64453,0 -1.1719,-0.52734 -1.1719,-1.1719 v -28.531 c 0,-0.64453 0.52734,-1.1719 1.1719,-1.1719 0.64453,0 1.1719,0.52734 1.1719,1.1719 v 28.531 c 0,0.64453 -0.52734,1.1719 -1.1719,1.1719 z"
       id="path1" /><path
       d="m 4.1016,56.473 c -0.29297,0 -0.58594,-0.11719 -0.82031,-0.35156 -0.46875,-0.46875 -0.46875,-1.2305 0,-1.6406 l 5.625,-5.6836 c 0.46875,-0.46875 1.2305,-0.46875 1.6406,0 l 5.6836,5.6836 c 0.46875,0.41016 0.46875,1.1719 0,1.6406 -0.46875,0.4687 -1.1719,0.46875 -1.6406,0 l -4.8633,-4.8633 -4.8047,4.8633 C 4.68751,56.35582 4.39455,56.473 4.10158,56.473 Z"
       id="path2" /><path
       d="m 83.07,87.992 c -0.64453,0 -1.1719,-0.52734 -1.1719,-1.1719 v -13.355 c 0,-0.64453 0.52734,-1.1719 1.1719,-1.1719 0.64453,0 1.1719,0.52734 1.1719,1.1719 v 13.355 c 0,0.64453 -0.52734,1.1719 -1.1719,1.1719 z"
       id="path3" /><path
       d="m 83.07,87.992 c -0.29297,0 -0.58594,-0.11719 -0.82031,-0.35156 l -4.5117,-4.5117 c -0.46875,-0.41016 -0.46875,-1.1719 0,-1.6406 0.46875,-0.4687 1.1719,-0.46875 1.6406,0 l 3.6914,3.6914 3.6914,-3.6914 c 0.46875,-0.46875 1.1719,-0.46875 1.6406,0 0.4687,0.46875 0.46875,1.2305 0,1.6406 l -4.5117,4.5117 C 83.65591,87.87482 83.36295,87.992 83.06998,87.992 Z"
       id="path4" /><path
       d="M 98.828,93.086 H 1.172 c -0.64453,0 -1.1719,-0.46875 -1.1719,-1.1719 0,-0.64453 0.52734,-1.1719 1.1719,-1.1719 h 97.656 c 0.64453,0 1.1719,0.52734 1.1719,1.1719 0,0.70313 -0.52734,1.1719 -1.1719,1.1719 z"
       id="path5" /><path
       d="M 58.699,93.086 H 39.133 c -0.35156,0 -0.70312,-0.11719 -0.9375,-0.41016 l -5.8008,-6.7969 h -14.176 c -0.35156,0 -0.70312,-0.17578 -0.9375,-0.46875 -3.3398,-4.6289 -0.17578,-10.719 -0.05859,-10.953 4.6289,-8.9648 2.1094,-14.117 2.0508,-14.176 -0.11719,-0.29297 -0.17578,-0.64453 0,-0.99609 0.11719,-0.29297 0.35156,-0.52734 0.70312,-0.64453 0.17578,-0.05859 3.5742,-1.1133 7.2656,-1.1133 1.6992,0 3.2227,0.23438 4.4531,0.70312 1.0547,0.41016 2.0508,0.58594 3.1055,0.58594 1.9336,0 3.2227,-0.76172 3.2227,-0.76172 0.41016,-0.23438 0.9375,-0.23438 1.2891,0.05859 0.41016,0.29297 0.58594,0.76172 0.46875,1.2305 -2.168,8.0273 2.2266,13.824 5.0977,16.52 2.6953,2.6367 7.0312,4.1016 10.895,5.332 0.82031,0.29297 1.6992,0.58594 2.5195,0.87891 3.0469,1.0547 4.8633,5.0977 4.3945,7.793 -0.35156,2.0508 -1.8164,3.2227 -3.9844,3.2227 z M 39.66,90.7422 h 19.039 c 0.99609,0 1.5234,-0.35156 1.6992,-1.2891 0.29297,-1.6992 -0.99609,-4.5117 -2.8711,-5.1562 -0.82031,-0.29297 -1.6406,-0.58594 -2.5195,-0.87891 -4.1016,-1.3477 -8.6719,-2.8711 -11.773,-5.8594 -2.9297,-2.8125 -7.3828,-8.6133 -6.2109,-16.695 -0.64453,0.17578 -1.4062,0.29297 -2.2266,0.29297 -1.2891,0 -2.6367,-0.23438 -3.9258,-0.70312 -0.99609,-0.41016 -2.2266,-0.58594 -3.6328,-0.58594 -2.1094,0 -4.1016,0.41016 -5.3906,0.70312 0.70312,2.2852 1.3477,7.5 -2.5781,14.938 0,0.05859 -2.3438,4.6289 -0.41016,8.0273 h 14.117 c 0.29297,0 0.64453,0.17578 0.87891,0.41016 l 5.8008,6.7969 z"
       id="path6" /><path
       d="m 50.203,84.301 c -10.543,0 -18.512,-3.6328 -18.512,-8.4375 0,-2.7539 2.6953,-5.2734 7.3242,-6.7969 0.58594,-0.23438 1.2305,0.05859 1.4648,0.64453 1.1719,2.7539 3.0469,4.8633 4.3945,6.1523 2.6953,2.6367 7.0312,4.1016 10.836,5.332 l 0.99609,0.35156 c 0.52734,0.17578 0.87891,0.64453 0.82031,1.1719 -0.05859,0.58594 -0.46875,0.99609 -0.99609,1.1133 -2.0508,0.29297 -4.1602,0.46875 -6.3281,0.46875 z M 38.781,71.649 c -2.9297,1.1133 -4.7461,2.6953 -4.7461,4.2188 0,2.8711 6.6211,6.0938 16.168,6.0938 h 0.52734 c -2.7539,-1.0547 -5.4492,-2.4023 -7.5,-4.3945 -1.3477,-1.2891 -3.1055,-3.2812 -4.4531,-5.918 z"
       id="path7" /><path
       d="M 29.469,93.086 H 19.453 c -0.58594,0 -1.0547,-0.41016 -1.1719,-0.9375 l -1.1719,-7.207 c -0.05859,-0.35156 0,-0.70312 0.23438,-0.9375 0.23438,-0.29297 0.58594,-0.46875 0.87891,-0.46875 h 14.762 c 0.35156,0 0.76172,0.23438 0.99609,0.58594 0.17578,0.35156 0.23438,0.76172 0.05859,1.1133 l -3.5156,7.207 c -0.23438,0.41016 -0.64453,0.64453 -1.0547,0.64453 z m -9.0234,-2.3438 h 8.2617 l 2.4023,-4.8633 h -11.48 l 0.82031,4.8633 z"
       id="path8" /><path
       d="m 20.328,60.926 h -0.23438 c -0.64453,-0.17578 -1.0547,-0.76172 -0.9375,-1.4062 0.41016,-2.0508 1.7578,-9.1406 1.2305,-12.359 -0.46875,-2.5781 -0.87891,-4.6289 -1.2305,-6.4453 -1.7578,-9.3164 -1.9922,-10.543 2.5781,-23.727 0.11719,-0.29297 0.35156,-0.52734 0.64453,-0.64453 0.29297,-0.17578 0.58594,-0.17578 0.9375,-0.05859 l 17.281,6.9727 c 0.46875,0.17578 0.76172,0.64453 0.70312,1.1133 0,0.23438 -0.52734,24.547 -1.5234,34.797 -0.05859,0.64453 -0.58594,1.1133 -1.2891,1.0547 -0.64453,-0.05859 -1.1133,-0.64453 -1.0547,-1.2891 0.87891,-9.082 1.4062,-29.469 1.5234,-33.801 l -15.406,-6.2109 c -3.9258,11.48 -3.6914,12.652 -2.0508,21.324 0.35156,1.875 0.70312,3.9258 1.1719,6.5625 0.58594,3.5156 -0.64453,10.367 -1.1719,13.18 -0.11719,0.52734 -0.64453,0.9375 -1.1719,0.9375 z"
       id="path9" /><path
       d="m 39.074,52.547 h -0.23438 l -17.516,-3.75 c -0.58594,-0.11719 -0.99609,-0.76172 -0.87891,-1.4062 0.11719,-0.58594 0.76172,-0.99609 1.4062,-0.87891 l 17.516,3.6914 c 0.58594,0.17578 0.99609,0.76172 0.87891,1.4062 -0.11719,0.58594 -0.58594,0.9375 -1.1719,0.9375 z"
       id="path10" /><path
       d="M 83.949,70.18 H 67.898 c -0.35156,0 -0.64453,-0.11719 -0.87891,-0.41016 l -4.6875,-5.4492 h -11.48 c -0.41016,0 -0.76172,-0.17578 -0.99609,-0.52734 -2.8125,-3.8672 -0.17578,-8.9648 -0.05859,-9.1992 3.8086,-7.2656 1.6992,-11.305 1.6992,-11.363 -0.17578,-0.29297 -0.17578,-0.64453 -0.05859,-0.99609 0.11719,-0.29297 0.41016,-0.58594 0.76172,-0.64453 0.11719,-0.05859 2.9297,-0.9375 5.9766,-0.9375 1.4062,0 2.6953,0.23438 3.6914,0.58594 0.87891,0.29297 1.6992,0.46875 2.4609,0.46875 1.582,0 2.5781,-0.58594 2.5781,-0.58594 0.41016,-0.23438 0.9375,-0.23438 1.2891,0.05859 0.41016,0.29297 0.58594,0.76172 0.41016,1.2305 -1.6992,6.5039 1.875,11.129 4.1602,13.355 2.168,2.1094 5.6836,3.2812 8.7891,4.2773 0.76172,0.23438 1.4062,0.46875 2.1094,0.70312 2.5781,0.9375 4.1016,4.3359 3.75,6.6211 -0.29297,1.7578 -1.6406,2.8125 -3.457,2.8125 z M 68.426,67.8362 h 15.523 c 0.70312,0 0.99609,-0.23438 1.1133,-0.87891 0.23438,-1.2891 -0.76172,-3.5156 -2.168,-3.9844 -0.70312,-0.23438 -1.3477,-0.46875 -2.0508,-0.70312 -3.3398,-1.1133 -7.1484,-2.3438 -9.7266,-4.8633 -2.4023,-2.2852 -6.0352,-6.9727 -5.1562,-13.531 -0.46875,0.11719 -0.99609,0.17578 -1.6406,0.17578 -1.0547,0 -2.168,-0.17578 -3.2227,-0.58594 -0.82031,-0.29297 -1.7578,-0.46875 -2.9297,-0.46875 -1.582,0 -3.1055,0.29297 -4.1016,0.52734 0.52734,2.0508 0.87891,6.2695 -2.2266,12.184 0,0.05859 -1.8164,3.5742 -0.35156,6.2695 h 11.363 c 0.35156,0 0.64453,0.11719 0.87891,0.41016 l 4.6875,5.4492 z"
       id="path11" /><path
       d="m 76.977,62.977 c -8.7891,0 -15.348,-3.0469 -15.348,-7.0898 0,-2.4023 2.168,-4.4531 6.1523,-5.8008 0.52734,-0.17578 1.1719,0.11719 1.4062,0.64453 0.99609,2.2852 2.4609,3.9844 3.5742,5.0391 2.168,2.1094 5.6836,3.2812 8.7891,4.2773 l 0.82031,0.29297 c 0.52734,0.17578 0.82031,0.64453 0.82031,1.1719 -0.05859,0.52734 -0.46875,0.99609 -0.99609,1.0547 -1.6992,0.29297 -3.457,0.41016 -5.2148,0.41016 z M 67.5434,52.668 c -2.2266,0.9375 -3.5742,2.1094 -3.5742,3.2227 0,2.168 5.2148,4.6289 12.301,4.7461 -1.875,-0.82031 -3.75,-1.8164 -5.1562,-3.2227 -1.0547,-0.99609 -2.5195,-2.6367 -3.5742,-4.7461 z"
       id="path12" /><path
       d="m 59.578,71 h -7.6172 c -0.58594,0 -1.0547,-0.41016 -1.1719,-0.99609 l -1.1133,-6.6797 c -0.05859,-0.35156 0.05859,-0.70312 0.23438,-0.9375 0.23438,-0.29297 0.58594,-0.41016 0.9375,-0.41016 h 12.008 c 0.41016,0 0.76172,0.17578 0.99609,0.52734 0.23438,0.35156 0.23438,0.76172 0.05859,1.1719 l -3.2812,6.6797 c -0.17578,0.35156 -0.58594,0.64453 -1.0547,0.64453 z m -6.6211,-2.3438 h 5.918 l 2.1094,-4.3359 h -8.7891 z"
       id="path13" /><path
       d="m 52.547,43.879 c -0.11719,0 -0.17578,0 -0.23438,-0.05859 -0.64453,-0.11719 -1.0547,-0.70312 -0.9375,-1.3477 0.87891,-4.5117 1.2891,-8.2617 0.99609,-10.016 -0.41016,-2.1094 -0.70312,-3.8086 -0.99609,-5.332 -1.4648,-7.793 -1.5234,-8.9648 2.1094,-19.449 0.11719,-0.35156 0.35156,-0.58594 0.64453,-0.70312 0.29297,-0.11719 0.58594,-0.11719 0.87891,0 l 14.176,5.6836 c 0.46875,0.17578 0.76172,0.64453 0.76172,1.1133 -0.05859,0.17578 -0.46875,20.094 -1.2891,28.473 -0.05859,0.64453 -0.64453,1.1133 -1.2891,1.0547 -0.64453,-0.05859 -1.1133,-0.64453 -1.0547,-1.2891 0.70312,-7.3242 1.1719,-23.668 1.2305,-27.477 l -12.242,-4.9219 c -3.1055,9.1406 -2.9297,10.074 -1.6406,17.105 0.29297,1.4648 0.64453,3.2227 0.99609,5.332 0.46875,2.8125 -0.41016,8.0273 -0.99609,10.895 -0.11719,0.52734 -0.58594,0.9375 -1.1133,0.9375 z"
       id="path14" /><path
       d="m 67.898,37.023 c -0.11719,0 -0.17578,0 -0.23438,-0.05859 l -14.352,-2.9883 c -0.64453,-0.17578 -1.0547,-0.76172 -0.87891,-1.4062 0.11719,-0.64453 0.76172,-1.0547 1.3477,-0.9375 l 14.352,3.0469 c 0.64453,0.17578 1.0547,0.76172 0.87891,1.4062 -0.11719,0.52734 -0.58594,0.9375 -1.1133,0.9375 z"
       id="path15" /></g><g
     id="g16"
     transform="matrix(3,0,0,3,427.02111,-71.203519)"><path
       d="m 74.722878,60.405938 c -0.113872,-0.55024 -0.593629,-0.97243 -1.194725,-1.04511 l -32.58426,-3.94337 c -0.597363,-0.0744 -1.181658,0.21975 -1.443004,0.725 -2.409985,4.65107 -4.15167,10.05483 -5.17652,15.71986 -0.03174,0.0848 -0.08027,0.16265 -0.09334,0.25436 -0.0093,0.0623 0.01307,0.11939 0.01307,0.17995 -0.113872,0.64887 -0.261346,1.28562 -0.352817,1.94141 -1.308597,9.29004 -0.485357,18.292842 2.318513,25.349042 2.31478,5.8225 5.785083,9.76934 9.951687,11.51003 l -4.426083,31.41551 -9.983422,-0.28031 c -0.686967,-0.007 -1.336598,0.46891 -1.429936,1.12816 l -0.406954,2.8827 c -0.04854,0.34087 0.05227,0.68866 0.278147,0.96032 0.227745,0.27339 0.560028,0.45334 0.929646,0.4966 l 26.326888,3.18723 c 0.05974,0.007 0.121339,0.0104 0.182942,0.0104 0.692567,0 1.293663,-0.47237 1.385134,-1.12816 l 0.40882,-2.8827 c 0.0952,-0.65924 -0.367751,-1.28043 -1.067785,-1.43269 l -9.725809,-2.10579 4.422349,-31.38264 c 10.304504,-1.56766 19.591625,-15.11253 22.07628,-32.737472 0.084,-0.59695 0.113872,-1.19045 0.179209,-1.78568 0.0504,-0.10901 0.102672,-0.21801 0.119472,-0.34087 0.02427,-0.16611 0.0056,-0.32876 -0.03733,-0.48275 0.550694,-5.64774 0.356551,-11.20895 -0.670166,-16.21301 z M 45.689191,144.17891 c -0.09334,0.66271 0.369618,1.28043 1.069653,1.4327 l 9.725809,2.10578 -0.0616,0.43258 -23.549152,-2.85155 0.0616,-0.42912 9.983421,0.27685 c 0.653366,-0.0208 1.336599,-0.46718 1.431804,-1.12816 l 4.519421,-32.08341 c 0.224011,0.0381 0.444288,0.0727 0.666432,0.10036 0.225878,0.0277 0.449889,0.0467 0.675767,0.0623 z M 72.352095,78.896028 C 69.98878,95.65409 61.061943,108.90827 51.765488,109.51041 c -0.02053,0.002 -0.03733,-0.009 -0.056,-0.009 -0.60483,0.0398 -1.198459,0.0294 -1.797688,-0.0398 -0.0056,-0.002 -0.0093,0 -0.01307,-0.002 -0.505892,-0.0606 -0.996849,-0.17822 -1.48594,-0.31664 -0.09147,-0.0277 -0.179209,-0.0433 -0.272546,-0.0744 -0.0037,0 -0.0056,0 -0.0093,0 -3.830588,-1.2164 -7.08808,-4.82583 -9.294588,-10.3784 -2.64893,-6.668612 -3.421768,-15.233652 -2.17104,-24.115332 0.0392,-0.28204 0.106405,-0.55543 0.151208,-0.83574 l 35.621475,4.31193 c -0.03547,0.28204 -0.04667,0.56062 -0.08587,0.84439 z m 0.352818,-3.42947 -35.4292,-4.28944 c 0.937113,-4.67876 2.38945,-9.13604 4.319678,-13.06211 l 30.555095,3.69767 c 0.778438,4.2531 0.942712,8.90764 0.554427,13.65388 z m -32.287446,10.83347 c -0.769105,0.0744 -1.325398,0.71462 -1.245128,1.42751 0.6795,5.947072 2.344648,11.203762 4.819969,15.202502 0.25948,0.41874 0.729903,0.65233 1.21526,0.65233 0.235211,0 0.474156,-0.0536 0.694434,-0.1713 0.670166,-0.35644 0.901644,-1.15066 0.517092,-1.77184 -2.281179,-3.68902 -3.824987,-8.59445 -4.463419,-14.185082 -0.08027,-0.71289 -0.769104,-1.22506 -1.538208,-1.15412 z m -0.179209,-2.39129 h 0.02427 c 0.772838,-0.0121 1.388868,-0.60387 1.3758,-1.32022 -0.02613,-1.40501 0.0019,-2.84982 0.08587,-4.29982 0.04107,-0.71635 -0.550693,-1.32715 -1.323531,-1.36522 -0.782172,-0.0277 -1.431803,0.51217 -1.472872,1.22679 -0.08587,1.51056 -0.115739,3.01766 -0.0896,4.4815 0.01493,0.71116 0.638431,1.27697 1.400068,1.27697 z m 52.948723,-6.52154 c -0.588029,-1.28043 -1.149923,-2.63007 -1.665148,-4.01258 -0.252012,-0.67656 -1.047251,-1.03646 -1.780887,-0.80287 -0.731769,0.23359 -1.118188,0.97244 -0.866176,1.65072 0.53576,1.44135 1.121922,2.84809 1.737952,4.18389 0.225878,0.49314 0.74297,0.78902 1.286196,0.78902 0.184809,0 0.369618,-0.0329 0.550694,-0.10382 0.711235,-0.28377 1.041651,-1.04511 0.737369,-1.70436 z m 2.264377,4.39672 c -0.36215,-0.63156 -1.209659,-0.86861 -1.894759,-0.53293 -0.681366,0.33741 -0.938979,1.1247 -0.574961,1.75626 3.04095,5.27399 6.71659,9.566892 10.629322,12.411522 0.25761,0.18687 0.56189,0.27685 0.86244,0.27685 0.41628,0 0.82697,-0.16957 1.10325,-0.4966 0.47789,-0.56235 0.37149,-1.37906 -0.23708,-1.82202 -3.60844,-2.624882 -7.028342,-6.632282 -9.888212,-11.593082 z m 41.076132,51.807222 -0.7915,-2.80829 c -0.18108,-0.64541 -0.86431,-1.0503 -1.57181,-0.9534 l -9.86582,1.43269 -8.63189,-30.65244 c 8.8671,-4.99887 12.07606,-20.656452 7.19449,-37.997612 -0.16614,-0.59177 -0.38269,-1.15758 -0.56563,-1.7407 0,-0.11074 0.0112,-0.22148 -0.0205,-0.33395 -0.0448,-0.16265 -0.12693,-0.30799 -0.22961,-0.43603 -1.77715,-5.42799 -4.2114,-10.51337 -7.19448,-14.79242 -0.32855,-0.470648 -0.94831,-0.693858 -1.52888,-0.551968 l -31.796476,7.694678 c -0.584295,0.14189 -1.006182,0.61426 -1.043518,1.17488 -0.352817,5.22381 0.19601,10.92691 1.590478,16.62136 0.0019,0.007 0,0.0121 0.0019,0.019 0.0019,0.005 0.0075,0.0104 0.0093,0.0173 0.168008,0.68866 0.34535,1.37906 0.537626,2.06599 4.810635,17.07297 15.815168,29.510442 26.31755,29.894572 l 8.63188,30.64726 -9.36365,3.21664 c -0.6739,0.23359 -1.04912,0.89976 -0.86804,1.54517 l 0.7915,2.81175 c 0.0933,0.33395 0.32668,0.61772 0.64777,0.79422 0.21467,0.1142 0.46108,0.17649 0.7075,0.17649 0.1176,0 0.23707,-0.0139 0.35281,-0.0398 l 25.68846,-6.21873 c 0.7467,-0.18342 1.19472,-0.89458 1.00058,-1.5867 z M 83.222227,54.721868 113.03994,47.508208 c 2.44546,3.67172 4.48582,7.92482 6.0483,12.45823 l -34.57235,8.36778 c -1.026717,-4.66491 -1.489672,-9.30042 -1.293663,-13.61235 z M 111.73508,99.41405 c -0.002,0 -0.006,0 -0.007,0 -0.51896,0.12632 -1.08458,0.19899 -1.67448,0.23533 -0.20534,0.0121 -0.40882,0.0363 -0.61603,0.0363 -0.002,0 -0.002,0 -0.002,0 -9.24418,0 -19.608413,-12.034312 -24.103566,-27.989502 -0.0784,-0.27512 -0.125073,-0.55023 -0.199743,-0.82708 l 34.759019,-8.41277 c 0.0821,0.27339 0.18481,0.53812 0.26322,0.81324 4.64449,16.49851 1.62221,31.773692 -6.6718,35.544042 -0.0149,0.003 -0.0317,0.003 -0.0448,0.009 -0.0504,0.0225 -0.0971,0.0363 -0.14747,0.0588 -0.50029,0.21283 -1.00992,0.40143 -1.54381,0.5312 -0.007,0 -0.009,0.002 -0.0112,0.002 z m -1.24886,39.14135 -0.11574,-0.41873 9.36366,-3.22011 c 0.6739,-0.23013 1.04912,-0.89976 0.86804,-1.54517 l -8.82043,-31.3065 c 0.22401,-0.0398 0.44242,-0.0882 0.65896,-0.14016 h 0.002 0.002 c 0,0 0.002,0 0.002,-0.002 0.21468,-0.0519 0.42936,-0.10901 0.64777,-0.17476 l 8.8167,31.30477 c 0.18107,0.64541 0.87924,1.05722 1.57181,0.95687 l 9.86581,-1.43616 0.11761,0.41873 z M 73.177202,50.377058 c 0.168009,0.0623 0.345351,0.0934 0.522693,0.0934 0.177342,0 0.354684,-0.0311 0.522692,-0.0934 0.433088,-0.16265 10.605052,-4.04373 10.605052,-10.964968 0,-3.612886 -3.169755,-6.552683 -7.065679,-6.552683 -1.469138,0 -2.955078,0.655787 -4.028464,1.501909 -1.116321,-0.88938 -2.682531,-1.501909 -4.091933,-1.501909 -3.897791,0 -7.069413,2.939797 -7.069413,6.552683 0,6.921238 10.171965,10.804048 10.605052,10.964968 z M 69.641563,35.454872 c 1.09952,0 2.473454,0.808055 2.785203,1.443078 0.220277,0.44642 0.692567,0.74057 1.222726,0.75788 0.530159,0.0311 1.026717,-0.24398 1.280596,-0.67482 0.40882,-0.692129 1.76222,-1.527868 2.833739,-1.527868 2.352115,0 4.265542,1.775298 4.265542,3.957218 0,4.42786 -6.423514,7.523388 -8.327608,8.341828 -1.905959,-0.82017 -8.329474,-3.915698 -8.329474,-8.341828 0,-2.18019 1.915294,-3.955488 4.269276,-3.955488 z m 21.753331,1.822018 c 0,4.94523 7.125414,7.665268 7.429694,7.779468 0.16801,0.0623 0.34535,0.0934 0.52269,0.0934 0.17734,0 0.35468,-0.0311 0.52269,-0.0934 0.304282,-0.1142 7.427832,-2.834238 7.427832,-7.779468 0,-2.66814 -2.33905,-4.837949 -5.21572,-4.837949 -0.98005,0 -1.95076,0.372017 -2.714272,0.89284 -0.7971,-0.541587 -1.81075,-0.89284 -2.75719,-0.89284 -2.87481,0 -5.215724,2.169809 -5.215724,4.837949 z m 5.219454,-2.242484 c 0.59176,0 1.34406,0.486218 1.4598,0.72327 0.22028,0.44815 0.69257,0.742304 1.22273,0.759604 0.52269,0.0311 1.026712,-0.243971 1.280592,-0.674819 0.18481,-0.311455 0.94832,-0.808055 1.50834,-0.808055 1.33287,0 2.41559,1.007041 2.41559,2.242484 0,2.39302 -3.33963,4.35865 -5.152252,5.15632 -1.81263,-0.79767 -5.154118,-2.7633 -5.154118,-5.15632 0,-1.237173 1.084588,-2.242484 2.419318,-2.242484 z M 55.200323,33.283333 c 0.168008,0.06229 0.34535,0.09344 0.522692,0.09344 0.177342,0 0.354684,-0.03114 0.522693,-0.09344 0.304281,-0.114201 7.42783,-2.834249 7.42783,-7.779475 0,-2.668139 -2.339048,-4.837948 -5.215722,-4.837948 -0.980048,0 -1.950762,0.372017 -2.714266,0.892841 -0.797106,-0.541588 -1.810756,-0.892841 -2.757202,-0.892841 -2.878541,0 -5.219455,2.169809 -5.219455,4.837948 0.0037,4.946957 7.129149,7.665274 7.43343,7.779475 z M 52.990082,23.263106 c 0.591762,0 1.344065,0.486217 1.459804,0.72327 0.220278,0.44815 0.692568,0.742303 1.222727,0.759606 0.535759,0.02769 1.026717,-0.243974 1.280596,-0.674821 0.184809,-0.311456 0.948313,-0.808055 1.50834,-0.808055 1.332866,0 2.415585,1.007041 2.415585,2.242482 0,2.393019 -3.33963,4.358652 -5.152252,5.156325 -1.812622,-0.797673 -5.154119,-2.763306 -5.154119,-5.156325 0,-1.237172 1.084587,-2.242482 2.419319,-2.242482 z m 33.93766,7.146181 c 0.168008,0.06229 0.34535,0.09344 0.522692,0.09344 0.177342,0 0.354684,-0.03115 0.522692,-0.09517 0.586162,-0.218019 5.736547,-2.254594 5.736547,-6.08204 0,-2.162888 -1.900359,-3.924344 -4.233807,-3.924344 -0.666432,0 -1.390734,0.226671 -2.006765,0.590036 -0.612296,-0.365096 -1.345932,-0.590036 -2.0497,-0.590036 -2.333447,0 -4.233807,1.759725 -4.233807,3.924344 0.0019,3.829176 5.154119,5.864021 5.742148,6.08377 z m -1.506474,-7.409188 c 0.259479,0 0.672033,0.230131 0.75417,0.342601 0.216544,0.439499 0.690701,0.711158 1.209659,0.737113 0.524559,0.03288 1.026717,-0.238783 1.293664,-0.654058 0.09707,-0.152267 0.535759,-0.423926 0.797105,-0.423926 0.789639,0 1.43367,0.595227 1.43367,1.328878 0,1.526134 -2.195307,2.861934 -3.460969,3.451969 -1.269395,-0.584844 -3.460969,-1.915453 -3.460969,-3.451969 0,-0.735381 0.644031,-1.330608 1.43367,-1.330608 z M 52.711935,53.609278 c 0.168008,0.0623 0.34535,0.0934 0.522692,0.0934 0.177342,0 0.354684,-0.0311 0.522692,-0.0952 0.586162,-0.21802 5.736548,-2.25459 5.736548,-6.08203 0,-2.16289 -1.90036,-3.924348 -4.233808,-3.924348 -0.666432,0 -1.390734,0.22667 -2.006764,0.59004 -0.612297,-0.3651 -1.345933,-0.59004 -2.049701,-0.59004 -2.333447,0 -4.233807,1.759728 -4.233807,3.924348 0.0037,3.82744 5.155986,5.86401 5.742148,6.08376 z m -1.504607,-7.41091 c 0.259479,0 0.672033,0.23013 0.75417,0.3426 0.216544,0.4395 0.690701,0.71116 1.209659,0.73711 0.528293,0.0242 1.028584,-0.23878 1.293664,-0.65406 0.09707,-0.15226 0.535759,-0.42392 0.797105,-0.42392 0.789639,0 1.43367,0.59523 1.43367,1.32888 0,1.52612 -2.195307,2.86192 -3.460969,3.45196 -1.269395,-0.58484 -3.460969,-1.91545 -3.460969,-3.45196 0,-0.73539 0.644031,-1.33061 1.43367,-1.33061 z"
       id="path1-3"
       style="stroke-width:1.79724" /></g></svg>
