<?xml version="1.0" encoding="iso-8859-1"?>
<!-- Generator: Adobe Illustrator 23.1.0, SVG Export Plug-In . SVG Version: 6.00 Build 0)  -->
<svg version="1.1" id="line-Black" xmlns="http://www.w3.org/2000/svg" xmlns:xlink="http://www.w3.org/1999/xlink" x="0px" y="0px"
	 viewBox="0 0 126 101.752" style="enable-background:new 0 0 126 101.752;" xml:space="preserve">
<g>
	<path d="M55.715,39.759c-0.553,0-1,0.448-1,1c0,0.389-0.584,0.824-1.366,0.824s-1.367-0.435-1.367-0.824c0-0.552-0.447-1-1-1
		s-1,0.448-1,1c0,1.557,1.511,2.824,3.367,2.824s3.366-1.267,3.366-2.824C56.715,40.207,56.267,39.759,55.715,39.759z"/>
	<path d="M122.507,61.557c2.317-4.103,3.492-8.412,3.492-12.82c0-6.171-0.637-13.26-5.297-19.208
		c0.637-7.144-1.588-14.085-6.137-19.104c-5.442-6.004-14.12-9.172-25.113-9.172c-0.059,0-0.119,0-0.179,0
		c-5.186-1.874-8.095,0.301-8.878,1.033C77.629,3.243,66.513,7.698,63.621,18.27c-0.138,0.506-0.235,0.988-0.342,1.476
		c-1.634-4.983-4.289-7.925-6.091-9.443c4.215-1.563,7.026-5.641,7.163-5.842c0.217-0.319,0.23-0.735,0.035-1.068
		c-0.196-0.333-0.573-0.525-0.949-0.49c-7.618,0.667-9.306,0.21-12.372-0.619c-2.089-0.565-4.951-1.34-10.674-2.023
		c-12.75-1.52-17.892,4.022-19.079,5.601c-1.748,0.346-8.052,2.063-12.967,9.402c-5.422,8.098-8.211,13.618-8.238,13.673
		c-0.193,0.384-0.118,0.85,0.186,1.155c0.303,0.304,0.769,0.381,1.153,0.189l5.161-2.569c-1.092,4.423-2.159,14.544,6.312,25.79
		c0.236,0.315,0.639,0.46,1.021,0.374c0.384-0.087,0.681-0.392,0.759-0.778l0.531-2.643c2.348,2.553,5.953,6.948,6.572,9.801v6.664
		h-0.816c-0.553,0-1,0.448-1,1v4.847C6.519,79.588,2.89,99.716,2.739,100.581c-0.051,0.291,0.03,0.589,0.221,0.815
		c0.189,0.226,0.47,0.356,0.765,0.356h49.246c0.286,0,0.559-0.123,0.749-0.337c0.189-0.214,0.278-0.5,0.243-0.784
		c-0.083-0.679-2.154-16.615-13.812-27.672V67.92c0-0.552-0.447-1-1-1h-0.459v-1.307c2.931,0.593,10.336,1.904,14.187,0.886
		c3.373-0.893,4.909-4.341,5.548-6.467c0.788,0.439,1.809,0.637,2.949,0.105c0.045-0.021,0.089-0.045,0.13-0.073
		c1.254-0.832,1.563-1.814,1.601-2.492c0.048-0.835-0.281-1.592-0.665-2.178c0.639-0.374,1.263-0.966,1.691-1.821
		c0.428,0.856,1.052,1.447,1.69,1.821c-0.384,0.586-0.712,1.342-0.665,2.178c0.039,0.678,0.348,1.66,1.602,2.492
		c0.041,0.028,0.085,0.052,0.13,0.073c1.139,0.531,2.16,0.334,2.948-0.105c0.64,2.126,2.176,5.575,5.549,6.467
		c3.824,1.012,10.819-0.104,13.635-0.627v4.68C77.362,81.535,74.426,99.023,74.305,99.778l-0.125,0.825
		c-0.044,0.288,0.04,0.581,0.23,0.802c0.189,0.221,0.467,0.348,0.758,0.348H119c0.312,0,0.619-0.165,0.809-0.412
		c0.071-0.093,0.377-0.373,0.622-0.598c1.547-1.417,4.765-4.366,4.66-8.441c-0.105-4.101-1.857-7.067-3.01-8.586
		c1.477-1.871,3.871-5.74,3.918-11.192C126.045,67.227,123.826,63.375,122.507,61.557z M88.447,3.077
		c1.103,1.834,7.413,13.266,9.431,37.547c-0.056-0.011-0.108-0.027-0.165-0.038c-0.658-0.117-1.322-0.124-1.98-0.046
		C93.755,17.107,85.191,6.189,82.44,3.247C83.418,2.67,85.371,2.008,88.447,3.077z M65.551,18.797
		C68.073,9.574,77.638,5.416,80.68,4.309c2.026,2.093,11.141,12.763,13.091,36.746c-0.537,0.218-1.06,0.493-1.559,0.826
		c-0.734,0.018-2.535-0.371-6.096-3.316c-4.412-3.649-5.911-10.046-4.223-18.014c0.114-0.541-0.23-1.071-0.771-1.186
		c-0.535-0.114-1.07,0.231-1.186,0.771c-1.308,6.17-0.813,11.515,1.353,15.586c-1.707-0.005-4.108-0.311-6.139-1.729
		c-3.881-2.709-5.09-8.735-3.235-16.12c0.135-0.536-0.19-1.079-0.727-1.213c-0.53-0.135-1.078,0.189-1.213,0.726
		c-1.765,7.025-0.993,12.84,2.071,16.447c-1.473-0.125-3.278-0.641-4.908-2.41C63.252,27.204,64.982,20.877,65.551,18.797z
		 M14.336,47.421c-0.353,0.107-0.618,0.399-0.69,0.76l-0.452,2.25C4.567,37.417,9.137,26.279,9.185,26.164
		c0.165-0.386,0.073-0.833-0.231-1.122c-0.306-0.288-0.757-0.356-1.133-0.168l-4.436,2.208c1.329-2.362,3.544-6.109,6.621-10.705
		C15.113,8.75,21.95,7.778,22.016,7.769c0.3-0.037,0.57-0.213,0.729-0.47c0.169-0.271,4.265-6.621,17.409-5.052
		c5.577,0.665,8.245,1.387,10.388,1.967c2.839,0.768,4.672,1.263,10.702,0.865c-1.423,1.499-3.775,3.467-6.531,3.782
		c-0.438,0.05-0.79,0.38-0.87,0.813s0.133,0.866,0.523,1.069c0.088,0.046,8.549,4.611,8.368,19.344
		c-0.097-0.059-0.204-0.127-0.304-0.189c-0.015-0.009-0.029-0.02-0.045-0.028c-4.125-2.563-10.966-7.683-11.495-12.165
		c-0.065-0.549-0.557-0.936-1.11-0.876c-0.549,0.065-0.94,0.562-0.876,1.11c0.209,1.768,1.127,3.525,2.4,5.179
		c-0.067,0.809-0.605,5.999-3.657,10.459c0.01-1.944-0.229-4.427-1.243-6.448c-0.198-0.395-0.629-0.612-1.069-0.536
		c-0.436,0.078-0.769,0.433-0.818,0.873c-0.009,0.08-0.918,7.978-3.496,12.256c-1.165,1.933-1.856,3.564-2.268,4.825
		c-2.001-2.868-5.178-4.5-8.203-3.961c-3.341,0.593-4.936,3.584-5.002,3.712c-0.913,1.753-1.037,3.867-0.349,5.954
		c0.08,0.242,0.173,0.478,0.272,0.71c-1.576,1.277-2.507,3.655-3.033,5.671c-2.376-4.228-6.866-8.725-7.106-8.963
		C15.071,47.41,14.69,47.315,14.336,47.421z M29.068,99.752H9.273c0.044-2.871,0.779-5.668,2.141-8.1
		c1.095-1.957,2.75-4.915,6.27-6.157c2.803-0.988,6.044-0.677,8.254,0.795c0.349,0.233,1.274,0.851,2.019,2
		c0.738,1.141,1.112,2.538,1.112,4.152V99.752z M51.796,99.752H29.309l1.759-7.31c0-2.006-0.482-3.768-1.434-5.239
		c-0.969-1.496-2.187-2.309-2.587-2.577c-2.758-1.835-6.6-2.226-10.03-1.017c-4.23,1.493-6.183,4.981-7.349,7.065
		c-1.529,2.729-2.352,5.864-2.396,9.077h-2.32c1.001-4.438,5.281-20.22,16.455-25.455c0.352-0.165,0.576-0.518,0.576-0.906V68.92
		h1.634v2.972c0,0.552,0.447,1,1,1s1-0.448,1-1V68.92h1.633v2.972c0,0.552,0.447,1,1,1s1-0.448,1-1V68.92h1.634v2.972
		c0,0.552,0.447,1,1,1c0.553,0,1-0.448,1-1V68.92h1.634v2.972c0,0.552,0.447,1,1,1s1-0.448,1-1V68.92h1.633v4.472
		c0,0.278,0.116,0.544,0.32,0.733C48.111,83.059,51.094,95.913,51.796,99.752z M60.631,53.957c-0.396,0.044-0.728,0.32-0.845,0.701
		c-0.117,0.381,0.005,0.797,0.308,1.056c0.276,0.237,1.058,1.065,1.016,1.749c-0.007,0.116-0.027,0.459-0.644,0.891
		c-0.968,0.394-1.66-0.539-1.788-0.728c-0.227-0.347-0.644-0.522-1.051-0.43c-0.405,0.089-0.714,0.419-0.775,0.83
		c-0.008,0.056-0.874,5.585-4.484,6.541c-4.288,1.136-14.351-1.14-14.452-1.163c-0.294-0.068-0.607,0.004-0.846,0.193
		c-0.238,0.189-0.377,0.478-0.377,0.782v2.542H23.801V60.19c0.172-1.585,0.987-5.785,2.674-7.456
		c0.775,1.066,1.764,1.929,2.898,2.482c1.13,0.55,2.265,0.737,3.286,0.737c0.826,0,1.578-0.123,2.19-0.274
		c0.536-0.132,0.864-0.674,0.731-1.21c-0.132-0.536-0.674-0.863-1.21-0.731c-1.052,0.258-2.617,0.415-4.121-0.32
		c-1.418-0.691-2.597-2.109-3.151-3.792c-0.518-1.569-0.438-3.133,0.223-4.403c0.012-0.022,1.203-2.246,3.578-2.667
		c2.89-0.512,6.036,1.749,7.313,5.259c0.164,0.453,0.619,0.721,1.105,0.641c0.476-0.08,0.826-0.492,0.834-0.975
		c0-0.025,0.068-2.557,2.582-6.727c1.383-2.295,2.31-5.42,2.898-8.04c0.075,2.04-0.194,3.713-0.199,3.742
		c-0.071,0.429,0.143,0.854,0.528,1.053c0.387,0.199,0.855,0.126,1.163-0.18c1.042-1.037,1.906-2.162,2.628-3.31
		c0.099,0.032,0.197,0.072,0.301,0.072c0.198,0,0.398-0.059,0.573-0.181c1.61-1.131,3.946-0.751,3.972-0.746
		c0.542,0.094,1.06-0.27,1.155-0.813c0.095-0.544-0.269-1.063-0.813-1.158c-0.099-0.016-1.933-0.321-3.822,0.282
		c1.119-2.45,1.67-4.771,1.939-6.35c2.539,2.601,5.683,4.797,7.795,6.139l-1.917,17.214c-0.036,0.33,0.093,0.656,0.345,0.872
		c0.253,0.215,0.597,0.292,0.915,0.203c0.274-0.075,1.417-0.265,2.008,0.187c0.315,0.24,0.476,0.695,0.476,1.351
		C62.678,53.558,60.963,53.912,60.631,53.957z M64.85,48.149c-0.24,0.183-0.497,0.446-0.718,0.802
		c-0.221-0.356-0.478-0.619-0.718-0.802c-0.735-0.56-1.631-0.709-2.352-0.702l1.675-15.038c0.248,0.143,0.408,0.231,0.46,0.259
		c0.302,0.166,0.667,0.164,0.967-0.003c0.301-0.167,0.494-0.477,0.513-0.82c0.006-0.109,0.003-0.209,0.008-0.317
		c0.228,0.336,0.489,0.651,0.757,0.962l1.753,14.956c-0.004,0-0.007,0-0.01,0C66.459,47.447,65.579,47.594,64.85,48.149z
		 M90.697,71.724c0.206-0.189,0.323-0.457,0.323-0.736v-6.331c0-0.302-0.137-0.587-0.371-0.777s-0.544-0.263-0.837-0.201
		c-0.096,0.021-9.617,2.024-13.915,0.887c-3.594-0.951-4.478-6.487-4.485-6.543c-0.063-0.41-0.372-0.739-0.777-0.827
		c-0.397-0.085-0.822,0.083-1.05,0.43c-0.03,0.047-0.763,1.147-1.786,0.727c-0.616-0.431-0.638-0.775-0.645-0.891
		c-0.041-0.683,0.74-1.512,1.014-1.746c0.307-0.258,0.43-0.673,0.313-1.056c-0.116-0.383-0.449-0.66-0.848-0.704
		c-0.083-0.009-2.048-0.256-2.048-2.866c0-0.654,0.159-1.108,0.472-1.349c0.572-0.439,1.675-0.278,2.013-0.189
		c0.321,0.089,0.664,0.012,0.917-0.205c0.252-0.217,0.381-0.545,0.342-0.875l-1.642-14.011c2.496,1.564,4.991,1.441,6.336,1.371
		c0.105-0.005,0.198-0.01,0.285-0.013c2.404,1.555,5.132,1.905,7.049,1.905c0.443,0,0.835-0.019,1.177-0.044
		c0.671,0.89,1.436,1.704,2.306,2.424c2.14,1.77,3.948,2.894,5.477,3.422c-0.902,1.008-1.644,2.23-2.145,3.606
		c-0.189,0.519,0.079,1.093,0.598,1.281c0.523,0.189,1.093-0.079,1.281-0.599c1.275-3.51,4.414-5.769,7.313-5.26
		c2.376,0.422,3.567,2.645,3.579,2.667c0.661,1.271,0.739,2.834,0.222,4.404c-0.555,1.683-1.733,3.101-3.151,3.792
		c-1.507,0.735-3.073,0.578-4.119,0.32c-0.537-0.132-1.079,0.194-1.211,0.731c-0.133,0.536,0.194,1.078,0.73,1.21
		c0.613,0.151,1.365,0.274,2.191,0.274c0.302,0,0.615-0.023,0.934-0.061c-0.624,1.626-1.11,3.973-0.186,6.405
		c0.981,2.585,2.929,3.995,4.188,4.669c-0.454,1.258-1.056,3.604-0.522,6.086l-14.804,5.051
		C86.78,75.837,88.593,73.658,90.697,71.724z M83.482,80.809l2.003-0.683v2.551c0,0.552,0.447,1,1,1s1-0.448,1-1v-3.234l1.634-0.557
		v2.887c0,0.552,0.447,1,1,1s1-0.448,1-1v-3.569l1.634-0.557v3.222c0,0.552,0.447,1,1,1s1-0.448,1-1v-3.905l1.633-0.557v2.653
		c0,0.552,0.447,1,1,1s1-0.448,1-1v-3.336l1.634-0.557v2.988c0,0.552,0.447,1,1,1s1-0.448,1-1v-1.189
		c1.184,1.304,2.828,2.343,4.92,3.101c3.48,1.26,4.612,2.593,4.949,3.49c0.05,0.133,0.079,0.258,0.099,0.377
		c-0.247-0.108-0.477-0.23-0.742-0.323c-3.433-1.21-7.272-0.82-10.029,1.017c-0.4,0.267-1.617,1.078-2.588,2.577
		c-0.95,1.469-1.433,3.231-1.433,5.239v7.31H76.341C76.679,97.95,78.515,89.19,83.482,80.809z M97.437,99.752l1.759-7.31
		c0-1.616,0.374-3.012,1.112-4.152c0.744-1.151,1.669-1.768,2.018-1.999c2.21-1.473,5.452-1.784,8.254-0.796
		c3.518,1.241,5.174,4.198,6.271,6.157c1.301,2.324,2.026,4.98,2.126,7.711c-0.154,0.141-0.302,0.276-0.416,0.388H97.437z
		 M120.033,84.364c0.884,1.012,2.95,3.816,3.058,7.989c0.054,2.072-1.07,3.83-2.253,5.167c-0.31-2.42-1.07-4.751-2.243-6.847
		c-0.883-1.577-2.222-3.956-4.652-5.667c0.11-0.531,0.137-1.244-0.15-2.063c-0.671-1.916-2.747-3.517-6.172-4.757
		c-2.745-0.993-4.54-2.504-5.337-4.491c-1.293-3.224,0.423-6.748,0.439-6.781c0.127-0.252,0.141-0.545,0.039-0.809
		c-0.101-0.263-0.309-0.471-0.571-0.573c-0.68-0.263-2.974-1.324-3.969-3.945c-1.096-2.883,0.478-5.773,0.938-6.523
		c1.791-0.971,3.208-2.702,3.904-4.813c0.688-2.086,0.564-4.201-0.348-5.955c-0.049-0.094-0.943-1.766-2.767-2.865
		C98.226,19.111,93,7.286,90.861,3.278c9.853,0.244,17.329,3.092,22.223,8.491c4.254,4.693,6.292,11.241,5.59,17.963
		c-0.028,0.265,0.051,0.529,0.219,0.735c4.488,5.513,5.106,12.039,5.106,18.27c0,4.253-1.194,8.42-3.551,12.383
		c-0.213,0.358-0.182,0.81,0.078,1.135c1.06,1.327,3.519,4.981,3.473,10.249c-0.048,5.522-2.787,9.21-3.962,10.539
		C119.704,83.42,119.702,83.986,120.033,84.364z"/>
	<path d="M77.283,39.759c-0.553,0-1,0.448-1,1c0,0.389-0.585,0.824-1.367,0.824s-1.367-0.435-1.367-0.824c0-0.552-0.447-1-1-1
		s-1,0.448-1,1c0,1.557,1.511,2.824,3.367,2.824s3.367-1.267,3.367-2.824C78.283,40.207,77.836,39.759,77.283,39.759z"/>
	<path d="M73.68,69.98c-2.524-1.751-5.464-0.976-6.028-0.802c-1.676,0.516-2.823,1.624-3.526,2.538
		c-0.747-0.908-1.95-2.022-3.629-2.538c-0.562-0.173-3.503-0.949-6.027,0.802c-1.297,0.9-2.868,2.749-2.986,6.451
		C51.33,81.387,56.157,86.634,63.78,89.8c0.123,0.051,0.253,0.077,0.384,0.077s0.261-0.025,0.384-0.077
		c7.516-3.121,12.271-8.368,12.117-13.374C76.548,72.729,74.976,70.88,73.68,69.98z M64.164,87.79
		c-6.627-2.851-10.807-7.258-10.682-11.3c0.091-2.866,1.207-4.228,2.127-4.866c0.871-0.605,1.832-0.773,2.631-0.773
		c0.816,0,1.463,0.176,1.669,0.239c2.191,0.673,3.354,2.884,3.363,2.903c0.173,0.343,0.499,0.575,0.917,0.545
		c0.385-0.009,0.731-0.241,0.889-0.593c0.01-0.022,1.004-2.192,3.16-2.855c0.409-0.126,2.538-0.69,4.301,0.534
		c0.92,0.638,2.036,2,2.127,4.869C74.792,80.576,70.684,84.982,64.164,87.79z"/>
</g>
</svg>
