<svg xmlns="http://www.w3.org/2000/svg" xmlns:xlink="http://www.w3.org/1999/xlink" width="337" zoomAndPan="magnify" viewBox="0 0 252.75 142.499996" height="190" preserveAspectRatio="xMidYMid meet" version="1.0"><defs><g/><clipPath id="c1b3c2f4fb"><path d="M 0.316406 0 L 252.183594 0 L 252.183594 142 L 0.316406 142 Z M 0.316406 0 " clip-rule="nonzero"/></clipPath><clipPath id="ee38f61101"><path d="M 24.363281 31.921875 L 136 31.921875 L 136 97.691406 L 24.363281 97.691406 Z M 24.363281 31.921875 " clip-rule="nonzero"/></clipPath><clipPath id="5af040f541"><path d="M 116 31.921875 L 227.652344 31.921875 L 227.652344 97.691406 L 116 97.691406 Z M 116 31.921875 " clip-rule="nonzero"/></clipPath></defs><g clip-path="url(#c1b3c2f4fb)"><path fill="#ffffff" d="M 0.316406 0 L 252.183594 0 L 252.183594 142 L 0.316406 142 Z M 0.316406 0 " fill-opacity="1" fill-rule="nonzero"/></g><g clip-path="url(#ee38f61101)"><path fill="#000000" d="M 129.195312 86.539062 C 131.46875 88.46875 132.773438 89.652344 133.636719 90.578125 C 134.269531 91.257812 135.160156 92.492188 135.160156 92.691406 C 135.160156 92.875 134.859375 92.8125 134.207031 92.5 C 132.996094 91.914062 131.332031 90.523438 128.183594 87.464844 C 126.761719 85.949219 125.566406 84.882812 122.898438 82.691406 C 117.609375 78.277344 111.371094 74.589844 106.210938 72.828125 C 101.683594 71.285156 97.804688 70.847656 94.085938 71.453125 C 93.289062 71.582031 91.734375 71.980469 91.632812 72.082031 C 91.597656 72.117188 91.734375 72.34375 91.933594 72.585938 C 93.765625 74.824219 94.132812 77 93.164062 79.902344 C 93.035156 80.28125 92.558594 81.488281 92.101562 82.589844 C 90.804688 85.71875 90.667969 86.257812 90.828125 87.558594 C 90.925781 88.339844 90.886719 88.582031 90.6875 88.457031 C 90.53125 88.363281 89.8125 87.097656 89.460938 86.300781 C 88.808594 84.824219 88.171875 82.828125 87.945312 81.535156 C 87.605469 79.617188 88.226562 77.28125 89.960938 73.90625 C 90.355469 73.140625 90.660156 72.496094 90.640625 72.476562 C 90.550781 72.386719 89.144531 73.03125 88.136719 73.625 C 87.539062 73.972656 86.691406 74.570312 86.160156 75.007812 C 85.601562 75.46875 84.105469 76.984375 83.609375 77.597656 C 82.222656 79.300781 81.269531 81.226562 80.859375 83.164062 C 80.6875 83.980469 80.683594 85.867188 80.851562 86.789062 C 81.589844 90.847656 84.328125 94.144531 88.410156 95.890625 C 90.667969 96.855469 92.816406 97.246094 94.730469 97.035156 C 97.636719 96.71875 99.84375 95.761719 101.679688 94.019531 C 103.109375 92.664062 103.921875 91.277344 104.453125 89.292969 C 104.636719 88.605469 104.65625 88.398438 104.65625 87.265625 C 104.652344 85.914062 104.71875 85.753906 104.8125 86.863281 C 104.898438 87.90625 104.859375 89.589844 104.726562 90.285156 C 104.003906 94.140625 100.835938 96.769531 96.183594 97.371094 C 93.875 97.671875 90.863281 97.363281 88.476562 96.582031 C 86.765625 96.023438 85.242188 95.253906 83.855469 94.246094 C 83.109375 93.707031 81.710938 92.304688 81.210938 91.589844 C 80.492188 90.574219 79.933594 89.332031 79.632812 88.101562 C 79.421875 87.230469 79.441406 85.085938 79.671875 84.015625 C 79.835938 83.261719 80.152344 82.269531 80.410156 81.710938 C 80.472656 81.582031 80.519531 81.453125 80.519531 81.425781 C 80.519531 81.285156 81.207031 79.949219 81.707031 79.113281 C 82.921875 77.085938 84.578125 75.164062 86.316406 73.769531 C 87.484375 72.832031 87.558594 72.707031 86.792969 72.984375 C 84.601562 73.773438 78.527344 74.890625 78.335938 74.875 C 78.570312 74.78125 79.800781 74.546875 81.355469 74.125 C 82.402344 73.839844 85.421875 72.890625 86.734375 72.429688 C 87.257812 72.246094 88.277344 71.886719 89.007812 71.628906 C 90.734375 71.023438 92.53125 70.484375 93.667969 70.234375 C 94.167969 70.121094 94.605469 70.003906 94.640625 69.96875 C 94.675781 69.9375 94.0625 69.585938 93.273438 69.1875 C 87.96875 66.257812 84.117188 64.0625 79.375 60.402344 C 82.492188 63.015625 91.796875 68.1875 94.484375 69.472656 L 95.21875 69.90625 L 96.640625 69.839844 C 98.363281 69.757812 100.449219 69.828125 101.460938 70.003906 C 101.871094 70.074219 102.222656 70.117188 102.238281 70.097656 C 102.257812 70.082031 101.855469 69.660156 101.34375 69.167969 C 98.238281 66.148438 96.15625 64.058594 95.398438 63.199219 C 92.671875 60.125 90.980469 57.175781 90.222656 54.179688 C 89.871094 52.785156 89.757812 51.964844 89.710938 50.414062 C 89.644531 48.070312 89.894531 46.363281 90.644531 44.113281 C 91.027344 42.960938 91.921875 40.945312 92.011719 41.03125 C 92.03125 41.054688 91.878906 41.527344 91.671875 42.082031 C 90.828125 44.320312 90.527344 45.84375 90.472656 48.117188 C 90.429688 49.828125 90.523438 50.835938 90.875 52.421875 C 91.886719 56.964844 94.894531 61.890625 99.949219 67.277344 C 101.976562 69.433594 103.566406 70.378906 107.992188 72.046875 C 110.886719 73.136719 111.746094 73.519531 113.378906 74.449219 C 117.121094 76.570312 121.058594 79.4375 125.222656 83.070312 C 127.222656 84.738281 128.039062 85.554688 129.199219 86.539062 Z M 110.390625 97.042969 C 110.191406 96.832031 110.167969 96.828125 109.089844 96.773438 C 108.175781 96.726562 107.949219 96.691406 107.738281 96.5625 L 107.480469 96.40625 L 107.214844 96.6875 C 107.035156 96.875 106.910156 96.949219 106.828125 96.917969 C 106.757812 96.890625 106.5 96.804688 106.246094 96.726562 C 105.105469 96.371094 104.476562 94.851562 104.5625 92.667969 C 104.59375 91.914062 104.636719 91.664062 104.855469 91.023438 L 105.113281 90.269531 L 105.414062 90.199219 C 105.582031 90.160156 106.367188 90.125 107.160156 90.121094 C 108.441406 90.117188 108.664062 90.132812 109.1875 90.285156 C 110.058594 90.535156 110.605469 90.839844 111.035156 91.308594 C 111.460938 91.777344 111.652344 92.257812 111.71875 93.039062 C 111.757812 93.476562 111.742188 93.570312 111.597656 93.773438 L 111.429688 94.007812 L 111.640625 94.1875 C 111.761719 94.292969 111.878906 94.5 111.929688 94.695312 C 111.988281 94.945312 112.074219 95.066406 112.273438 95.195312 C 112.695312 95.46875 112.738281 95.519531 112.6875 95.695312 C 112.640625 95.859375 112.421875 96.089844 112.265625 96.140625 C 112.207031 96.160156 112.214844 96.273438 112.292969 96.503906 C 112.457031 96.988281 112.417969 97.03125 111.820312 97.03125 C 111.535156 97.03125 111.1875 97.082031 111.035156 97.148438 C 110.667969 97.300781 110.621094 97.292969 110.390625 97.042969 Z M 100.109375 90.152344 C 98.722656 90.042969 97.785156 89.578125 97.304688 88.757812 C 97.199219 88.582031 97.042969 88.15625 96.957031 87.8125 L 96.796875 87.1875 L 96.964844 86.960938 C 97.054688 86.839844 97.117188 86.730469 97.105469 86.714844 C 97.089844 86.703125 96.96875 86.640625 96.835938 86.570312 C 96.65625 86.480469 96.570312 86.367188 96.511719 86.148438 C 96.433594 85.859375 96.132812 85.542969 95.9375 85.542969 C 95.804688 85.542969 95.601562 85.328125 95.601562 85.1875 C 95.601562 85.125 95.707031 84.972656 95.839844 84.851562 L 96.078125 84.628906 L 95.941406 84.332031 C 95.75 83.90625 95.820312 83.800781 96.300781 83.800781 C 96.582031 83.800781 96.808594 83.746094 97.058594 83.613281 C 97.5 83.378906 97.554688 83.378906 97.800781 83.617188 L 98.003906 83.808594 L 99.117188 83.730469 C 100.097656 83.660156 100.257812 83.664062 100.46875 83.773438 L 100.707031 83.894531 L 100.976562 83.59375 C 101.207031 83.335938 101.277344 83.300781 101.4375 83.351562 C 101.539062 83.382812 101.75 83.414062 101.898438 83.417969 C 102.3125 83.429688 102.820312 83.808594 103.222656 84.410156 C 103.898438 85.414062 104.214844 86.976562 104.035156 88.410156 C 103.855469 89.8125 103.910156 89.75 102.648438 89.992188 C 101.652344 90.179688 100.980469 90.222656 100.109375 90.152344 Z M 107.421875 89.476562 C 106.589844 89.28125 105.613281 88.816406 105.554688 88.585938 C 105.53125 88.488281 105.527344 87.820312 105.550781 87.105469 C 105.59375 85.617188 105.738281 84.941406 106.191406 84.082031 C 106.808594 82.90625 107.40625 82.515625 108.675781 82.460938 L 109.433594 82.425781 L 109.855469 82.871094 L 110.109375 82.621094 C 110.300781 82.425781 110.429688 82.367188 110.632812 82.367188 C 110.902344 82.367188 111.050781 82.265625 111.265625 81.9375 C 111.332031 81.835938 111.457031 81.761719 111.5625 81.761719 C 111.769531 81.761719 112.046875 82.003906 112.046875 82.1875 C 112.046875 82.28125 112.09375 82.296875 112.253906 82.261719 C 112.371094 82.234375 112.574219 82.191406 112.710938 82.167969 L 112.957031 82.117188 L 112.910156 82.65625 C 112.875 83.011719 112.890625 83.3125 112.957031 83.546875 L 113.058594 83.90625 L 112.78125 84.144531 C 112.597656 84.304688 112.5 84.449219 112.5 84.574219 C 112.5 85.058594 112.191406 86.492188 112.046875 86.6875 C 111.835938 86.972656 111.855469 87.132812 112.117188 87.355469 L 112.34375 87.542969 L 112.113281 88.074219 C 111.84375 88.703125 111.613281 88.960938 111.101562 89.207031 C 110.246094 89.625 108.574219 89.746094 107.421875 89.476562 Z M 37.675781 87.875 C 37.640625 87.386719 37.65625 87.148438 37.71875 87.074219 C 37.777344 87 37.800781 86.65625 37.78125 85.96875 C 37.769531 85.421875 37.761719 84.804688 37.765625 84.597656 C 37.773438 84.386719 37.753906 84.167969 37.726562 84.105469 C 37.699219 84.042969 37.671875 83.734375 37.664062 83.425781 C 37.65625 82.984375 37.683594 82.8125 37.792969 82.65625 C 37.867188 82.546875 37.933594 82.359375 37.933594 82.242188 C 37.933594 82.121094 38.035156 81.894531 38.160156 81.726562 C 38.285156 81.566406 38.386719 81.378906 38.386719 81.3125 C 38.386719 81.242188 38.675781 81.03125 39.121094 80.785156 C 39.84375 80.382812 40.734375 79.757812 40.734375 79.65625 C 40.734375 79.625 40.367188 79.539062 39.921875 79.464844 C 39.476562 79.390625 38.804688 79.226562 38.429688 79.101562 C 36.84375 78.570312 34.734375 77.328125 33.660156 76.296875 C 33.050781 75.710938 33.082031 75.714844 33.988281 76.320312 C 35.71875 77.46875 37.1875 78.046875 39.320312 78.414062 C 40.386719 78.597656 43.386719 78.59375 44.789062 78.40625 C 45.882812 78.257812 47.871094 77.917969 49.027344 77.679688 C 49.4375 77.59375 50.472656 77.308594 50.492188 77.328125 C 50.535156 77.371094 48.371094 78.167969 47.179688 78.558594 C 45.835938 79.003906 44.542969 79.316406 43.425781 79.464844 C 42.925781 79.53125 42.476562 79.597656 42.425781 79.609375 C 42.363281 79.628906 42.414062 79.8125 42.585938 80.1875 C 42.933594 80.945312 43.085938 81.585938 43.136719 82.488281 C 43.1875 83.367188 43.078125 84.082031 42.832031 84.519531 C 42.742188 84.679688 42.414062 85.003906 42.101562 85.242188 C 41.707031 85.542969 41.511719 85.746094 41.453125 85.925781 C 41.386719 86.117188 41.304688 86.199219 41.117188 86.253906 C 40.960938 86.296875 40.8125 86.414062 40.722656 86.566406 C 40.621094 86.738281 40.507812 86.820312 40.320312 86.847656 C 40.179688 86.871094 39.988281 86.964844 39.898438 87.054688 C 39.773438 87.179688 39.671875 87.210938 39.488281 87.183594 C 39.207031 87.136719 39.089844 87.191406 38.964844 87.429688 C 38.917969 87.523438 38.757812 87.640625 38.613281 87.6875 C 38.378906 87.761719 38.34375 87.804688 38.324219 88.054688 C 38.300781 88.34375 38.09375 88.566406 37.851562 88.566406 C 37.75 88.566406 37.71875 88.441406 37.675781 87.875 Z M 54.792969 88.097656 C 54.46875 87.71875 53.589844 85.867188 53.28125 84.914062 C 53.003906 84.070312 52.707031 82.597656 52.707031 82.074219 C 52.710938 81.566406 53.382812 79.15625 53.824219 78.09375 C 53.925781 77.84375 54.132812 77.394531 54.28125 77.09375 C 54.429688 76.792969 54.53125 76.519531 54.5 76.492188 C 54.472656 76.460938 53.960938 76.554688 53.371094 76.691406 C 52.105469 76.988281 50.925781 77.261719 50.785156 77.261719 C 50.882812 77.207031 52.082031 76.746094 53.277344 76.34375 C 55.078125 75.738281 56.71875 75.582031 58.96875 75.035156 C 60.386719 74.691406 67.546875 74.621094 68.238281 74.875 C 67.667969 74.808594 63.84375 74.558594 61.351562 75.070312 C 59.582031 75.4375 55.667969 76.0625 55.527344 76.203125 C 55.507812 76.222656 55.589844 76.367188 55.710938 76.523438 C 56.65625 77.753906 56.949219 78.5625 56.953125 79.933594 C 56.953125 80.820312 56.832031 81.378906 56.339844 82.742188 C 55.066406 86.285156 54.976562 86.644531 55.085938 87.59375 C 55.171875 88.332031 55.097656 88.457031 54.792969 88.097656 Z M 67.730469 88.09375 C 67.6875 88.039062 67.636719 87.726562 67.613281 87.394531 C 67.59375 87.0625 67.550781 86.699219 67.523438 86.59375 C 67.488281 86.445312 67.523438 86.34375 67.667969 86.167969 C 67.824219 85.984375 67.855469 85.886719 67.816406 85.703125 C 67.789062 85.558594 67.820312 85.347656 67.898438 85.152344 C 68.007812 84.882812 68.011719 84.777344 67.9375 84.46875 C 67.890625 84.265625 67.871094 83.984375 67.898438 83.839844 C 67.929688 83.664062 67.90625 83.503906 67.828125 83.347656 C 67.714844 83.128906 67.714844 83.082031 67.832031 82.730469 C 67.949219 82.371094 67.949219 82.339844 67.820312 82.101562 C 67.703125 81.878906 67.699219 81.8125 67.78125 81.554688 C 67.855469 81.335938 67.859375 81.1875 67.800781 80.96875 C 67.714844 80.664062 67.753906 80.535156 68.027344 80.183594 C 68.105469 80.082031 68.167969 79.882812 68.167969 79.742188 C 68.167969 79.554688 68.246094 79.386719 68.445312 79.144531 C 68.59375 78.960938 68.742188 78.699219 68.769531 78.566406 C 68.8125 78.339844 68.902344 78.277344 69.835938 77.789062 C 70.929688 77.21875 71.582031 76.804688 72.148438 76.316406 C 72.597656 75.929688 72.871094 75.789062 73.183594 75.789062 C 74.214844 75.789062 74.941406 77.492188 75.042969 80.136719 C 75.125 82.292969 74.785156 83.058594 73.285156 84.066406 C 72.992188 84.261719 72.738281 84.4375 72.722656 84.453125 C 72.707031 84.46875 72.671875 84.605469 72.644531 84.761719 C 72.605469 85.019531 72.566406 85.054688 72.1875 85.199219 C 71.84375 85.332031 71.765625 85.394531 71.714844 85.59375 C 71.648438 85.84375 71.59375 85.875 71.078125 85.957031 C 70.847656 85.992188 70.742188 86.054688 70.683594 86.183594 C 70.605469 86.351562 70.546875 86.367188 70.007812 86.386719 C 69.433594 86.410156 69.417969 86.414062 69.394531 86.613281 C 69.363281 86.882812 69.230469 86.980469 68.796875 87.042969 L 68.433594 87.09375 L 68.457031 87.441406 C 68.480469 87.75 68.457031 87.808594 68.242188 87.988281 C 67.980469 88.207031 67.847656 88.234375 67.730469 88.09375 Z M 70.644531 83.328125 C 70.757812 83.152344 70.90625 82.90625 70.972656 82.78125 C 71.039062 82.65625 71.289062 82.21875 71.53125 81.808594 C 72.085938 80.855469 72.429688 80.171875 72.714844 79.453125 C 72.992188 78.761719 73 78.644531 72.742188 79.152344 C 72.632812 79.359375 72.054688 80.441406 71.457031 81.550781 C 70.855469 82.660156 70.367188 83.589844 70.367188 83.609375 C 70.367188 83.714844 70.457031 83.625 70.644531 83.328125 Z M 72.5625 75.25 C 71.355469 75.113281 71.707031 75.070312 74.230469 75.03125 C 76.648438 74.996094 77.652344 74.921875 78.21875 74.882812 C 77.316406 75.066406 73.703125 75.378906 72.5625 75.25 Z M 68.699219 74.882812 C 68.074219 74.835938 68.015625 74.816406 66.730469 74.15625 C 65.078125 73.3125 64.511719 72.96875 63.445312 72.171875 C 62.636719 71.574219 61.464844 70.503906 61.539062 70.433594 C 61.554688 70.414062 61.800781 70.585938 62.085938 70.816406 C 64.046875 72.398438 66.398438 73.617188 69.214844 74.5 C 69.765625 74.675781 70.214844 74.847656 70.214844 74.886719 C 70.214844 74.960938 69.746094 74.960938 68.699219 74.882812 Z M 30.617188 74.304688 C 29.335938 73.847656 28.820312 73.691406 28.242188 73.589844 C 27.757812 73.503906 27.664062 73.460938 27.496094 73.242188 C 27.390625 73.105469 27.1875 72.921875 27.046875 72.835938 C 26.875 72.726562 26.789062 72.617188 26.789062 72.5 C 26.789062 72.382812 26.6875 72.242188 26.488281 72.082031 C 26.25 71.894531 26.183594 71.792969 26.183594 71.605469 C 26.183594 71.472656 26.113281 71.25 26.027344 71.109375 C 25.90625 70.914062 25.882812 70.785156 25.921875 70.5625 C 25.957031 70.335938 25.933594 70.222656 25.8125 70.050781 C 25.722656 69.925781 25.652344 69.710938 25.652344 69.554688 C 25.652344 69.402344 25.601562 69.179688 25.539062 69.058594 C 25.476562 68.941406 25.433594 68.707031 25.4375 68.542969 C 25.445312 68.339844 25.398438 68.179688 25.285156 68.035156 C 25.195312 67.921875 25.125 67.75 25.125 67.652344 C 25.125 67.546875 25.027344 67.386719 24.894531 67.269531 C 24.738281 67.128906 24.667969 67 24.667969 66.835938 C 24.667969 66.613281 24.523438 66.003906 24.402344 65.714844 C 24.359375 65.605469 24.390625 65.582031 24.582031 65.582031 C 24.925781 65.582031 25.195312 65.734375 25.246094 65.953125 C 25.332031 66.355469 25.339844 66.359375 25.65625 66.316406 C 25.925781 66.28125 25.988281 66.304688 26.175781 66.503906 L 26.390625 66.734375 L 26.785156 66.605469 C 27.148438 66.484375 27.191406 66.484375 27.3125 66.59375 C 27.414062 66.6875 27.53125 66.703125 27.789062 66.667969 C 28.09375 66.628906 28.144531 66.644531 28.285156 66.820312 C 28.402344 66.964844 28.511719 67.019531 28.707031 67.019531 C 29.082031 67.019531 29.203125 67.078125 29.332031 67.328125 C 29.417969 67.496094 29.542969 67.570312 29.878906 67.667969 C 30.539062 67.859375 31.144531 68.191406 31.410156 68.507812 C 32.125 69.363281 32.609375 71.210938 32.535156 72.785156 C 32.484375 73.859375 32.097656 74.578125 31.574219 74.578125 C 31.464844 74.578125 31.035156 74.453125 30.617188 74.304688 Z M 30.355469 71.410156 C 30.242188 71.195312 28.691406 69.597656 28.503906 69.496094 C 28.414062 69.453125 28.5 69.582031 28.691406 69.785156 C 29.539062 70.6875 30.375 71.554688 30.402344 71.554688 C 30.417969 71.554688 30.398438 71.488281 30.355469 71.410156 Z M 59.152344 69.03125 C 58.796875 68.890625 58.234375 68.667969 57.902344 68.53125 C 57.566406 68.394531 56.75 68.148438 56.085938 67.988281 C 55.425781 67.824219 54.832031 67.664062 54.769531 67.628906 C 54.707031 67.59375 54.617188 67.453125 54.574219 67.316406 C 54.515625 67.144531 54.363281 66.980469 54.09375 66.796875 C 53.773438 66.585938 53.695312 66.492188 53.695312 66.324219 C 53.695312 66.171875 53.582031 66.003906 53.269531 65.699219 C 52.867188 65.296875 52.851562 65.265625 52.898438 64.984375 C 52.941406 64.734375 52.914062 64.644531 52.703125 64.34375 C 52.460938 64.007812 52.457031 63.988281 52.558594 63.6875 C 52.65625 63.390625 52.652344 63.355469 52.457031 63.011719 C 52.320312 62.761719 52.253906 62.539062 52.253906 62.300781 C 52.253906 62.109375 52.1875 61.78125 52.105469 61.566406 C 52.019531 61.335938 51.976562 61.089844 52 60.964844 C 52.03125 60.8125 51.976562 60.636719 51.800781 60.328125 C 51.632812 60.03125 51.570312 59.847656 51.605469 59.722656 C 51.628906 59.613281 51.609375 59.507812 51.554688 59.460938 C 51.5 59.421875 51.359375 59.304688 51.238281 59.207031 C 51.035156 59.042969 51.015625 58.988281 51.027344 58.582031 C 51.039062 58.277344 50.984375 57.964844 50.859375 57.605469 C 50.757812 57.316406 50.695312 57.046875 50.71875 57.011719 C 50.785156 56.898438 51.425781 57.011719 51.636719 57.171875 C 51.792969 57.289062 51.835938 57.386719 51.835938 57.613281 C 51.835938 58.050781 51.886719 58.085938 52.429688 58.039062 L 52.914062 58.003906 L 53.082031 58.277344 C 53.269531 58.582031 53.375 58.601562 53.847656 58.4375 C 54.277344 58.285156 54.476562 58.292969 54.640625 58.472656 C 54.761719 58.605469 54.839844 58.617188 55.296875 58.578125 L 55.816406 58.527344 L 55.898438 58.765625 C 55.988281 59.015625 56.03125 59.035156 56.6875 59.121094 C 57.132812 59.175781 57.257812 59.261719 57.257812 59.503906 C 57.257812 59.722656 57.476562 59.871094 57.976562 59.992188 C 58.539062 60.125 59.652344 60.730469 59.960938 61.070312 C 60.328125 61.476562 60.625 62.144531 60.851562 63.085938 L 61.15625 64.339844 C 61.21875 64.59375 61.308594 65.207031 61.359375 65.707031 C 61.503906 67.199219 61.316406 68.171875 60.722656 68.957031 C 60.496094 69.253906 60.449219 69.28125 60.136719 69.28125 C 59.929688 69.28125 59.539062 69.179688 59.152344 69.03125 Z M 59.390625 66.246094 C 58.679688 65.015625 57.652344 63.820312 56.039062 62.332031 C 55.074219 61.441406 55.082031 61.511719 56.0625 62.5625 C 57.21875 63.804688 58.703125 65.523438 59.136719 66.125 C 59.371094 66.445312 59.574219 66.695312 59.589844 66.679688 C 59.609375 66.664062 59.515625 66.46875 59.390625 66.246094 Z M 77.105469 58.453125 C 76.492188 57.886719 75.738281 57 74.867188 55.828125 C 73.792969 54.390625 73.441406 53.871094 73.488281 53.820312 C 73.535156 53.777344 74.175781 54.535156 75.683594 56.433594 C 76.195312 57.078125 76.820312 57.84375 77.074219 58.132812 C 77.328125 58.425781 77.550781 58.714844 77.59375 58.757812 C 78.394531 59.527344 78.414062 59.5625 78.601562 59.765625 C 78.496094 59.683594 77.375 58.703125 77.105469 58.453125 Z M 66.769531 57.683594 C 66.101562 57.449219 65.988281 57.429688 65.769531 57.507812 C 65.550781 57.585938 65.496094 57.574219 65.238281 57.398438 C 65.03125 57.261719 64.882812 57.214844 64.722656 57.238281 C 64.539062 57.269531 64.449219 57.230469 64.269531 57.042969 C 64.125 56.894531 63.972656 56.8125 63.835938 56.8125 C 63.679688 56.8125 63.597656 56.753906 63.511719 56.589844 C 63.320312 56.21875 63.199219 56.140625 62.878906 56.183594 C 62.628906 56.21875 62.570312 56.195312 62.460938 56.027344 C 62.304688 55.789062 62.105469 55.773438 61.917969 55.980469 C 61.734375 56.179688 61.480469 56.171875 61.226562 55.953125 L 61.019531 55.777344 L 61.355469 55.546875 C 61.539062 55.417969 61.789062 55.207031 61.914062 55.078125 C 62.078125 54.90625 62.203125 54.84375 62.394531 54.84375 C 62.558594 54.84375 62.734375 54.777344 62.878906 54.65625 C 63.003906 54.550781 63.167969 54.46875 63.246094 54.46875 C 63.324219 54.46875 63.550781 54.3125 63.75 54.125 C 64.449219 53.472656 64.570312 53.378906 64.835938 53.289062 C 64.984375 53.234375 65.152344 53.105469 65.21875 52.984375 C 65.285156 52.863281 65.429688 52.75 65.5625 52.714844 C 65.6875 52.683594 65.886719 52.554688 66.007812 52.429688 C 66.183594 52.246094 66.292969 52.199219 66.539062 52.199219 C 66.707031 52.199219 66.925781 52.144531 67.019531 52.078125 C 67.148438 51.988281 67.28125 51.96875 67.527344 52.007812 C 67.765625 52.042969 67.910156 52.023438 68.035156 51.941406 C 68.207031 51.828125 68.269531 51.851562 69.296875 52.34375 C 69.894531 52.632812 70.605469 52.921875 70.875 52.988281 C 71.9375 53.253906 72.234375 53.535156 72.152344 54.191406 C 72.027344 55.203125 70.652344 56.652344 68.921875 57.597656 C 68.167969 58.007812 67.730469 58.027344 66.769531 57.683594 Z M 68.042969 55.25 C 68.9375 55.121094 69.363281 55.011719 69 55 C 68.777344 54.996094 67.226562 55.195312 66.730469 55.292969 L 66.386719 55.359375 L 66.792969 55.367188 C 67.011719 55.371094 67.574219 55.320312 68.042969 55.25 Z M 75.238281 53.410156 C 74.570312 53.269531 74.078125 52.894531 74.082031 52.527344 C 74.082031 52.449219 74.1875 52.097656 74.3125 51.746094 C 74.648438 50.820312 74.804688 50.292969 74.992188 49.457031 C 75.125 48.847656 75.1875 48.695312 75.34375 48.589844 C 75.449219 48.523438 75.617188 48.335938 75.71875 48.179688 C 75.832031 48 75.960938 47.890625 76.054688 47.890625 C 76.140625 47.890625 76.339844 47.75 76.5 47.574219 C 76.734375 47.320312 76.839844 47.261719 77.042969 47.269531 C 77.183594 47.273438 77.40625 47.210938 77.535156 47.128906 C 77.703125 47.027344 77.84375 46.996094 78.007812 47.027344 C 78.175781 47.0625 78.316406 47.03125 78.5 46.914062 C 78.640625 46.828125 78.867188 46.753906 79 46.753906 C 79.128906 46.753906 79.359375 46.703125 79.511719 46.640625 C 79.660156 46.578125 79.890625 46.527344 80.019531 46.527344 C 80.148438 46.527344 80.359375 46.460938 80.484375 46.378906 C 80.609375 46.296875 80.785156 46.226562 80.875 46.226562 C 80.972656 46.226562 81.109375 46.132812 81.203125 46 C 81.328125 45.828125 81.425781 45.773438 81.609375 45.773438 C 81.746094 45.773438 82.050781 45.722656 82.289062 45.660156 C 82.53125 45.597656 82.742188 45.546875 82.761719 45.546875 C 82.78125 45.546875 82.796875 45.675781 82.796875 45.835938 C 82.796875 46.175781 82.636719 46.351562 82.304688 46.390625 C 82.082031 46.414062 82.078125 46.425781 82.101562 46.753906 C 82.125 47.046875 82.101562 47.113281 81.917969 47.257812 C 81.707031 47.425781 81.707031 47.425781 81.808594 47.84375 C 81.890625 48.191406 81.890625 48.285156 81.808594 48.382812 C 81.753906 48.449219 81.714844 48.65625 81.722656 48.851562 C 81.734375 49.117188 81.699219 49.242188 81.574219 49.371094 C 81.480469 49.472656 81.398438 49.683594 81.375 49.875 C 81.347656 50.136719 81.296875 50.226562 81.125 50.324219 C 80.976562 50.410156 80.882812 50.546875 80.824219 50.777344 C 80.777344 50.957031 80.621094 51.347656 80.476562 51.644531 C 80.199219 52.230469 79.816406 52.578125 79.125 52.886719 C 78.230469 53.28125 76.027344 53.578125 75.238281 53.410156 Z M 77.933594 50.648438 C 78.28125 50.316406 78.710938 49.875 78.882812 49.667969 C 79.148438 49.34375 79.09375 49.378906 78.511719 49.910156 C 78.136719 50.25 77.542969 50.804688 77.1875 51.140625 C 76.625 51.679688 76.589844 51.722656 76.917969 51.503906 C 77.125 51.367188 77.582031 50.980469 77.933594 50.648438 Z M 71.796875 52.085938 C 71.394531 51.859375 70.792969 51.570312 70.453125 51.445312 C 69.636719 51.148438 69.382812 51.007812 69.382812 50.871094 C 69.382812 50.808594 69.261719 50.632812 69.117188 50.484375 C 68.972656 50.332031 68.851562 50.144531 68.851562 50.0625 C 68.851562 49.980469 68.761719 49.8125 68.65625 49.683594 C 68.507812 49.507812 68.46875 49.398438 68.503906 49.230469 C 68.527344 49.101562 68.5 48.921875 68.425781 48.78125 C 68.328125 48.589844 68.324219 48.519531 68.402344 48.371094 C 68.476562 48.234375 68.476562 48.132812 68.410156 47.910156 C 68.359375 47.753906 68.320312 47.507812 68.324219 47.359375 C 68.328125 47.101562 68.289062 46.667969 68.199219 46 C 68.175781 45.8125 68.085938 45.589844 68.007812 45.5 C 67.894531 45.378906 67.867188 45.25 67.882812 44.933594 C 67.894531 44.710938 67.875 44.414062 67.839844 44.28125 C 67.78125 44.042969 67.789062 44.035156 68 44.035156 C 68.28125 44.035156 68.472656 44.242188 68.472656 44.550781 C 68.472656 44.78125 68.484375 44.789062 68.773438 44.789062 C 69.007812 44.789062 69.09375 44.828125 69.164062 44.960938 C 69.292969 45.203125 69.355469 45.226562 69.738281 45.183594 C 70.015625 45.152344 70.097656 45.171875 70.15625 45.277344 C 70.214844 45.378906 70.289062 45.398438 70.480469 45.363281 C 70.699219 45.320312 70.753906 45.34375 70.894531 45.542969 C 71 45.691406 71.148438 45.785156 71.328125 45.816406 C 71.539062 45.859375 71.621094 45.921875 71.683594 46.089844 C 71.746094 46.253906 71.90625 46.386719 72.300781 46.589844 C 73.316406 47.125 73.640625 47.660156 73.789062 49.066406 C 73.980469 50.882812 73.46875 52.5 72.703125 52.5 C 72.601562 52.5 72.195312 52.316406 71.796875 52.085938 Z M 72.066406 49.761719 C 71.972656 49.457031 71.3125 48.5 70.621094 47.667969 C 70.605469 47.652344 70.578125 47.652344 70.5625 47.671875 C 70.542969 47.6875 70.65625 47.890625 70.808594 48.117188 C 71.550781 49.214844 72.054688 49.929688 72.085938 49.929688 C 72.105469 49.929688 72.097656 49.855469 72.066406 49.761719 Z M 96.398438 43.078125 C 95.148438 42.980469 92.730469 42.40625 92.46875 42.148438 C 92.34375 42.023438 92.441406 41.988281 93.082031 41.921875 C 93.804688 41.851562 94.238281 41.65625 96.058594 40.582031 C 97.964844 39.460938 98.914062 39.160156 99.984375 39.34375 C 100.5 39.433594 101.6875 39.984375 101.921875 40.242188 C 102.03125 40.367188 102.007812 40.402344 101.527344 40.792969 C 100.4375 41.683594 99.117188 42.492188 98.277344 42.785156 C 97.820312 42.941406 96.855469 43.152344 96.738281 43.113281 C 96.71875 43.105469 96.566406 43.089844 96.398438 43.078125 Z M 90.488281 41.171875 C 89.761719 40.964844 89.324219 40.714844 88.78125 40.207031 C 87.960938 39.429688 87.640625 38.714844 87.265625 36.785156 C 86.867188 34.757812 86.632812 34.070312 86.128906 33.5 C 85.890625 33.226562 85.839844 33.070312 85.996094 33.070312 C 86.175781 33.070312 87 33.503906 87.683594 33.957031 C 89.527344 35.171875 90.3125 36.195312 90.753906 37.945312 C 90.96875 38.804688 91.242188 40.75 91.195312 41.085938 C 91.164062 41.320312 91.054688 41.335938 90.488281 41.171875 Z M 92.542969 39.59375 C 92.339844 38.367188 92.667969 37.085938 93.421875 36.167969 C 93.851562 35.644531 94.261719 35.328125 95.816406 34.324219 C 97.375 33.316406 97.648438 33.09375 97.914062 32.601562 C 98.03125 32.382812 98.179688 32.140625 98.246094 32.066406 C 98.351562 31.941406 98.367188 31.9375 98.40625 32.050781 C 98.527344 32.390625 98.230469 34.117188 97.863281 35.21875 C 97.324219 36.839844 96.808594 37.484375 95.21875 38.539062 C 94.292969 39.148438 92.9375 39.875 92.722656 39.875 C 92.628906 39.875 92.578125 39.792969 92.542969 39.59375 Z M 92.542969 39.59375 " fill-opacity="1" fill-rule="nonzero"/></g><g clip-path="url(#5af040f541)"><path fill="#000000" d="M 122.804688 86.539062 C 120.53125 88.46875 119.230469 89.652344 118.367188 90.578125 C 117.734375 91.257812 116.84375 92.492188 116.84375 92.691406 C 116.84375 92.875 117.144531 92.8125 117.796875 92.5 C 119.007812 91.914062 120.671875 90.523438 123.816406 87.464844 C 125.242188 85.949219 126.4375 84.882812 129.101562 82.691406 C 134.390625 78.277344 140.628906 74.589844 145.792969 72.828125 C 150.316406 71.285156 154.199219 70.847656 157.917969 71.453125 C 158.710938 71.582031 160.269531 71.980469 160.367188 72.082031 C 160.402344 72.117188 160.269531 72.34375 160.070312 72.585938 C 158.238281 74.824219 157.871094 77 158.839844 79.902344 C 158.964844 80.28125 159.441406 81.488281 159.898438 82.589844 C 161.195312 85.71875 161.335938 86.257812 161.175781 87.558594 C 161.078125 88.339844 161.117188 88.582031 161.316406 88.457031 C 161.46875 88.363281 162.1875 87.097656 162.542969 86.300781 C 163.195312 84.824219 163.832031 82.828125 164.058594 81.535156 C 164.394531 79.617188 163.777344 77.28125 162.042969 73.90625 C 161.648438 73.140625 161.34375 72.496094 161.363281 72.476562 C 161.453125 72.386719 162.859375 73.03125 163.867188 73.625 C 164.460938 73.972656 165.3125 74.570312 165.84375 75.007812 C 166.402344 75.46875 167.894531 76.984375 168.394531 77.597656 C 169.78125 79.300781 170.734375 81.226562 171.140625 83.164062 C 171.316406 83.980469 171.320312 85.867188 171.152344 86.789062 C 170.414062 90.847656 167.675781 94.144531 163.59375 95.890625 C 161.335938 96.855469 159.183594 97.246094 157.273438 97.035156 C 154.367188 96.71875 152.160156 95.761719 150.324219 94.019531 C 148.894531 92.664062 148.082031 91.277344 147.550781 89.292969 C 147.367188 88.605469 147.347656 88.398438 147.347656 87.265625 C 147.347656 85.914062 147.285156 85.753906 147.191406 86.863281 C 147.105469 87.90625 147.144531 89.589844 147.273438 90.285156 C 148 94.140625 151.167969 96.769531 155.816406 97.371094 C 158.125 97.671875 161.136719 97.363281 163.523438 96.582031 C 165.238281 96.023438 166.761719 95.253906 168.148438 94.246094 C 168.894531 93.707031 170.289062 92.304688 170.792969 91.589844 C 171.507812 90.574219 172.070312 89.332031 172.371094 88.101562 C 172.582031 87.230469 172.5625 85.085938 172.332031 84.015625 C 172.167969 83.261719 171.851562 82.269531 171.59375 81.710938 C 171.53125 81.582031 171.484375 81.453125 171.484375 81.425781 C 171.484375 81.285156 170.796875 79.949219 170.296875 79.113281 C 169.082031 77.085938 167.425781 75.164062 165.683594 73.769531 C 164.515625 72.832031 164.441406 72.707031 165.207031 72.984375 C 167.402344 73.773438 173.472656 74.890625 173.667969 74.875 C 173.429688 74.78125 172.199219 74.546875 170.648438 74.125 C 169.597656 73.839844 166.578125 72.890625 165.269531 72.429688 C 164.746094 72.246094 163.722656 71.886719 162.996094 71.628906 C 161.269531 71.023438 159.472656 70.484375 158.332031 70.234375 C 157.832031 70.121094 157.394531 70.003906 157.359375 69.96875 C 157.324219 69.9375 157.941406 69.585938 158.730469 69.1875 C 164.035156 66.257812 167.886719 64.0625 172.628906 60.402344 C 169.511719 63.015625 160.207031 68.1875 157.519531 69.472656 L 156.78125 69.90625 L 155.359375 69.839844 C 153.640625 69.757812 151.554688 69.828125 150.539062 70.003906 C 150.132812 70.074219 149.78125 70.117188 149.765625 70.097656 C 149.746094 70.082031 150.148438 69.660156 150.660156 69.167969 C 153.761719 66.148438 155.84375 64.058594 156.605469 63.199219 C 159.332031 60.125 161.019531 57.175781 161.78125 54.179688 C 162.132812 52.785156 162.246094 51.964844 162.289062 50.414062 C 162.359375 48.070312 162.105469 46.363281 161.359375 44.113281 C 160.976562 42.960938 160.082031 40.945312 159.992188 41.03125 C 159.96875 41.054688 160.125 41.527344 160.332031 42.082031 C 161.171875 44.320312 161.476562 45.84375 161.53125 48.117188 C 161.574219 49.828125 161.480469 50.835938 161.128906 52.421875 C 160.117188 56.964844 157.109375 61.890625 152.050781 67.277344 C 150.027344 69.433594 148.4375 70.378906 144.011719 72.046875 C 141.117188 73.136719 140.257812 73.519531 138.621094 74.449219 C 134.882812 76.570312 130.945312 79.4375 126.78125 83.070312 C 124.78125 84.738281 123.964844 85.554688 122.804688 86.539062 Z M 141.613281 97.042969 C 141.8125 96.832031 141.835938 96.828125 142.914062 96.773438 C 143.828125 96.726562 144.054688 96.691406 144.265625 96.5625 L 144.519531 96.40625 L 144.785156 96.6875 C 144.964844 96.875 145.09375 96.949219 145.175781 96.917969 C 145.242188 96.890625 145.503906 96.804688 145.757812 96.726562 C 146.894531 96.371094 147.527344 94.851562 147.441406 92.667969 C 147.410156 91.914062 147.363281 91.664062 147.148438 91.023438 L 146.890625 90.269531 L 146.585938 90.199219 C 146.421875 90.160156 145.636719 90.125 144.84375 90.121094 C 143.5625 90.117188 143.339844 90.132812 142.8125 90.285156 C 141.945312 90.535156 141.398438 90.839844 140.96875 91.308594 C 140.539062 91.777344 140.351562 92.257812 140.28125 93.039062 C 140.246094 93.476562 140.261719 93.570312 140.40625 93.773438 L 140.574219 94.007812 L 140.363281 94.1875 C 140.238281 94.292969 140.121094 94.5 140.074219 94.695312 C 140.015625 94.945312 139.929688 95.066406 139.730469 95.195312 C 139.308594 95.46875 139.265625 95.519531 139.316406 95.695312 C 139.363281 95.859375 139.582031 96.089844 139.738281 96.140625 C 139.796875 96.160156 139.785156 96.273438 139.707031 96.503906 C 139.542969 96.988281 139.585938 97.03125 140.183594 97.03125 C 140.46875 97.03125 140.816406 97.082031 140.96875 97.148438 C 141.335938 97.300781 141.378906 97.292969 141.613281 97.042969 Z M 151.894531 90.152344 C 153.277344 90.042969 154.21875 89.578125 154.699219 88.757812 C 154.800781 88.582031 154.960938 88.15625 155.046875 87.8125 L 155.203125 87.1875 L 155.039062 86.960938 C 154.949219 86.839844 154.882812 86.730469 154.898438 86.714844 C 154.914062 86.703125 155.035156 86.640625 155.167969 86.570312 C 155.347656 86.480469 155.433594 86.367188 155.492188 86.148438 C 155.570312 85.859375 155.871094 85.542969 156.066406 85.542969 C 156.199219 85.542969 156.402344 85.328125 156.402344 85.1875 C 156.402344 85.125 156.292969 84.972656 156.164062 84.851562 L 155.925781 84.628906 L 156.058594 84.332031 C 156.253906 83.90625 156.183594 83.800781 155.703125 83.800781 C 155.421875 83.800781 155.195312 83.746094 154.945312 83.613281 C 154.503906 83.378906 154.449219 83.378906 154.199219 83.617188 L 154 83.808594 L 152.886719 83.730469 C 151.902344 83.660156 151.742188 83.664062 151.535156 83.773438 L 151.296875 83.894531 L 151.027344 83.59375 C 150.796875 83.335938 150.726562 83.300781 150.566406 83.351562 C 150.460938 83.382812 150.253906 83.414062 150.105469 83.417969 C 149.691406 83.429688 149.183594 83.808594 148.777344 84.410156 C 148.105469 85.414062 147.789062 86.976562 147.96875 88.410156 C 148.144531 89.8125 148.09375 89.75 149.355469 89.992188 C 150.347656 90.179688 151.019531 90.222656 151.894531 90.152344 Z M 144.578125 89.476562 C 145.414062 89.28125 146.390625 88.816406 146.445312 88.585938 C 146.472656 88.488281 146.476562 87.820312 146.453125 87.105469 C 146.410156 85.617188 146.265625 84.941406 145.8125 84.082031 C 145.191406 82.90625 144.597656 82.515625 143.328125 82.460938 L 142.570312 82.425781 L 142.148438 82.871094 L 141.894531 82.621094 C 141.699219 82.425781 141.574219 82.367188 141.371094 82.367188 C 141.101562 82.367188 140.953125 82.265625 140.738281 81.9375 C 140.667969 81.835938 140.546875 81.761719 140.441406 81.761719 C 140.234375 81.761719 139.957031 82.003906 139.957031 82.1875 C 139.957031 82.28125 139.910156 82.296875 139.75 82.261719 C 139.632812 82.234375 139.429688 82.191406 139.292969 82.167969 L 139.042969 82.117188 L 139.09375 82.65625 C 139.128906 83.011719 139.109375 83.3125 139.042969 83.546875 L 138.945312 83.90625 L 139.222656 84.144531 C 139.40625 84.304688 139.5 84.449219 139.5 84.574219 C 139.5 85.058594 139.808594 86.492188 139.953125 86.6875 C 140.164062 86.972656 140.148438 87.132812 139.882812 87.355469 L 139.660156 87.542969 L 139.886719 88.074219 C 140.160156 88.703125 140.390625 88.960938 140.902344 89.207031 C 141.757812 89.625 143.429688 89.746094 144.578125 89.476562 Z M 214.324219 87.875 C 214.359375 87.386719 214.347656 87.148438 214.285156 87.074219 C 214.222656 87 214.203125 86.65625 214.21875 85.96875 C 214.234375 85.421875 214.242188 84.804688 214.234375 84.597656 C 214.230469 84.386719 214.25 84.167969 214.277344 84.105469 C 214.304688 84.042969 214.332031 83.734375 214.339844 83.425781 C 214.347656 82.984375 214.320312 82.8125 214.210938 82.65625 C 214.132812 82.546875 214.070312 82.359375 214.070312 82.242188 C 214.070312 82.121094 213.96875 81.894531 213.84375 81.726562 C 213.71875 81.566406 213.617188 81.378906 213.617188 81.3125 C 213.617188 81.242188 213.328125 81.03125 212.882812 80.785156 C 212.160156 80.382812 211.269531 79.757812 211.269531 79.65625 C 211.269531 79.625 211.632812 79.539062 212.082031 79.464844 C 212.527344 79.390625 213.199219 79.226562 213.574219 79.101562 C 215.15625 78.570312 217.269531 77.328125 218.34375 76.296875 C 218.953125 75.710938 218.921875 75.714844 218.011719 76.320312 C 216.285156 77.46875 214.816406 78.046875 212.683594 78.414062 C 211.617188 78.597656 208.613281 78.59375 207.214844 78.40625 C 206.121094 78.257812 204.128906 77.917969 202.976562 77.679688 C 202.5625 77.59375 201.53125 77.308594 201.511719 77.328125 C 201.46875 77.371094 203.628906 78.167969 204.824219 78.558594 C 206.167969 79.003906 207.460938 79.316406 208.578125 79.464844 C 209.078125 79.53125 209.527344 79.597656 209.578125 79.609375 C 209.640625 79.628906 209.589844 79.8125 209.417969 80.1875 C 209.070312 80.945312 208.917969 81.585938 208.867188 82.488281 C 208.816406 83.367188 208.921875 84.082031 209.171875 84.519531 C 209.261719 84.679688 209.589844 85.003906 209.898438 85.242188 C 210.296875 85.542969 210.492188 85.746094 210.550781 85.925781 C 210.617188 86.117188 210.699219 86.199219 210.886719 86.253906 C 211.042969 86.296875 211.191406 86.414062 211.28125 86.566406 C 211.382812 86.738281 211.496094 86.820312 211.679688 86.847656 C 211.824219 86.871094 212.011719 86.964844 212.105469 87.054688 C 212.230469 87.179688 212.328125 87.210938 212.515625 87.183594 C 212.796875 87.136719 212.914062 87.191406 213.035156 87.429688 C 213.085938 87.523438 213.242188 87.640625 213.390625 87.6875 C 213.625 87.761719 213.65625 87.804688 213.679688 88.054688 C 213.703125 88.34375 213.90625 88.566406 214.152344 88.566406 C 214.253906 88.566406 214.285156 88.441406 214.324219 87.875 Z M 197.210938 88.097656 C 197.535156 87.71875 198.414062 85.867188 198.722656 84.914062 C 199 84.070312 199.292969 82.597656 199.292969 82.074219 C 199.292969 81.566406 198.621094 79.15625 198.179688 78.09375 C 198.078125 77.84375 197.871094 77.394531 197.722656 77.09375 C 197.570312 76.792969 197.472656 76.519531 197.503906 76.492188 C 197.53125 76.460938 198.039062 76.554688 198.632812 76.691406 C 199.898438 76.988281 201.074219 77.261719 201.214844 77.261719 C 201.121094 77.207031 199.921875 76.746094 198.726562 76.34375 C 196.925781 75.738281 195.285156 75.582031 193.035156 75.035156 C 191.617188 74.691406 184.457031 74.621094 183.761719 74.875 C 184.335938 74.808594 188.15625 74.558594 190.652344 75.070312 C 192.421875 75.4375 196.335938 76.0625 196.476562 76.203125 C 196.496094 76.222656 196.414062 76.367188 196.292969 76.523438 C 195.347656 77.753906 195.054688 78.5625 195.050781 79.933594 C 195.050781 80.820312 195.171875 81.378906 195.664062 82.742188 C 196.933594 86.285156 197.027344 86.644531 196.917969 87.59375 C 196.832031 88.332031 196.90625 88.457031 197.210938 88.097656 Z M 184.273438 88.09375 C 184.3125 88.039062 184.367188 87.726562 184.386719 87.394531 C 184.410156 87.0625 184.449219 86.699219 184.476562 86.59375 C 184.515625 86.445312 184.480469 86.34375 184.332031 86.167969 C 184.179688 85.984375 184.148438 85.886719 184.183594 85.703125 C 184.214844 85.558594 184.183594 85.347656 184.105469 85.152344 C 183.996094 84.882812 183.992188 84.777344 184.066406 84.46875 C 184.113281 84.265625 184.132812 83.984375 184.105469 83.839844 C 184.070312 83.664062 184.097656 83.503906 184.175781 83.347656 C 184.289062 83.128906 184.289062 83.082031 184.171875 82.730469 C 184.050781 82.371094 184.050781 82.339844 184.179688 82.101562 C 184.300781 81.878906 184.304688 81.8125 184.21875 81.554688 C 184.148438 81.335938 184.144531 81.1875 184.203125 80.96875 C 184.289062 80.664062 184.25 80.535156 183.976562 80.183594 C 183.898438 80.082031 183.835938 79.882812 183.835938 79.742188 C 183.835938 79.554688 183.757812 79.386719 183.558594 79.144531 C 183.40625 78.960938 183.261719 78.699219 183.234375 78.566406 C 183.191406 78.339844 183.101562 78.277344 182.164062 77.789062 C 181.070312 77.21875 180.421875 76.804688 179.855469 76.316406 C 179.40625 75.929688 179.128906 75.789062 178.816406 75.789062 C 177.789062 75.789062 177.0625 77.492188 176.960938 80.136719 C 176.878906 82.292969 177.21875 83.058594 178.71875 84.066406 C 179.011719 84.261719 179.261719 84.4375 179.28125 84.453125 C 179.296875 84.46875 179.332031 84.605469 179.355469 84.761719 C 179.398438 85.019531 179.4375 85.054688 179.8125 85.199219 C 180.160156 85.332031 180.234375 85.394531 180.289062 85.59375 C 180.351562 85.84375 180.410156 85.875 180.925781 85.957031 C 181.15625 85.992188 181.261719 86.054688 181.320312 86.183594 C 181.394531 86.351562 181.453125 86.367188 181.992188 86.386719 C 182.570312 86.410156 182.585938 86.414062 182.605469 86.613281 C 182.640625 86.882812 182.769531 86.980469 183.203125 87.042969 L 183.570312 87.09375 L 183.546875 87.441406 C 183.523438 87.75 183.546875 87.808594 183.757812 87.988281 C 184.023438 88.207031 184.15625 88.234375 184.273438 88.09375 Z M 181.355469 83.328125 C 181.242188 83.152344 181.097656 82.90625 181.03125 82.78125 C 180.960938 82.65625 180.710938 82.21875 180.472656 81.808594 C 179.917969 80.855469 179.574219 80.171875 179.289062 79.453125 C 179.011719 78.761719 179 78.644531 179.261719 79.152344 C 179.367188 79.359375 179.945312 80.441406 180.546875 81.550781 C 181.144531 82.660156 181.636719 83.589844 181.636719 83.609375 C 181.636719 83.714844 181.546875 83.625 181.355469 83.328125 Z M 179.4375 75.25 C 180.648438 75.113281 180.292969 75.070312 177.773438 75.03125 C 175.355469 74.996094 174.351562 74.921875 173.785156 74.882812 C 174.6875 75.066406 178.300781 75.378906 179.4375 75.25 Z M 183.304688 74.882812 C 183.929688 74.835938 183.988281 74.816406 185.273438 74.15625 C 186.921875 73.3125 187.492188 72.96875 188.558594 72.171875 C 189.363281 71.574219 190.535156 70.503906 190.464844 70.433594 C 190.445312 70.414062 190.199219 70.585938 189.917969 70.816406 C 187.957031 72.398438 185.605469 73.617188 182.789062 74.5 C 182.238281 74.675781 181.789062 74.847656 181.789062 74.886719 C 181.789062 74.960938 182.257812 74.960938 183.304688 74.882812 Z M 221.386719 74.304688 C 222.667969 73.847656 223.183594 73.691406 223.761719 73.589844 C 224.246094 73.503906 224.339844 73.460938 224.507812 73.242188 C 224.613281 73.105469 224.8125 72.921875 224.957031 72.835938 C 225.128906 72.726562 225.210938 72.617188 225.210938 72.5 C 225.210938 72.382812 225.316406 72.242188 225.515625 72.082031 C 225.753906 71.894531 225.820312 71.792969 225.820312 71.605469 C 225.820312 71.472656 225.890625 71.25 225.976562 71.109375 C 226.09375 70.914062 226.121094 70.785156 226.082031 70.5625 C 226.042969 70.335938 226.066406 70.222656 226.191406 70.050781 C 226.28125 69.925781 226.347656 69.710938 226.347656 69.554688 C 226.347656 69.402344 226.398438 69.179688 226.460938 69.058594 C 226.523438 68.941406 226.570312 68.707031 226.5625 68.542969 C 226.554688 68.339844 226.605469 68.179688 226.714844 68.035156 C 226.804688 67.921875 226.878906 67.75 226.878906 67.652344 C 226.878906 67.546875 226.976562 67.386719 227.105469 67.269531 C 227.265625 67.128906 227.335938 67 227.335938 66.835938 C 227.335938 66.613281 227.480469 66.003906 227.597656 65.714844 C 227.644531 65.605469 227.613281 65.582031 227.421875 65.582031 C 227.074219 65.582031 226.804688 65.734375 226.757812 65.953125 C 226.671875 66.355469 226.664062 66.359375 226.34375 66.316406 C 226.078125 66.28125 226.015625 66.304688 225.824219 66.503906 L 225.609375 66.734375 L 225.21875 66.605469 C 224.855469 66.484375 224.8125 66.484375 224.691406 66.59375 C 224.589844 66.6875 224.472656 66.703125 224.214844 66.667969 C 223.910156 66.628906 223.855469 66.644531 223.71875 66.820312 C 223.601562 66.964844 223.492188 67.019531 223.292969 67.019531 C 222.921875 67.019531 222.800781 67.078125 222.667969 67.328125 C 222.582031 67.496094 222.460938 67.570312 222.125 67.667969 C 221.464844 67.859375 220.859375 68.191406 220.59375 68.507812 C 219.878906 69.363281 219.394531 71.210938 219.46875 72.785156 C 219.519531 73.859375 219.90625 74.578125 220.429688 74.578125 C 220.539062 74.578125 220.96875 74.453125 221.386719 74.304688 Z M 221.648438 71.410156 C 221.761719 71.195312 223.3125 69.597656 223.5 69.496094 C 223.585938 69.453125 223.503906 69.582031 223.3125 69.785156 C 222.464844 70.6875 221.628906 71.554688 221.601562 71.554688 C 221.582031 71.554688 221.605469 71.488281 221.648438 71.410156 Z M 192.851562 69.03125 C 193.207031 68.890625 193.769531 68.667969 194.101562 68.53125 C 194.4375 68.394531 195.25 68.148438 195.914062 67.988281 C 196.578125 67.824219 197.171875 67.664062 197.234375 67.628906 C 197.296875 67.59375 197.386719 67.453125 197.429688 67.316406 C 197.488281 67.144531 197.636719 66.980469 197.910156 66.796875 C 198.230469 66.585938 198.308594 66.492188 198.308594 66.324219 C 198.308594 66.171875 198.421875 66.003906 198.730469 65.699219 C 199.136719 65.296875 199.152344 65.265625 199.105469 64.984375 C 199.0625 64.734375 199.089844 64.644531 199.300781 64.34375 C 199.539062 64.007812 199.542969 63.988281 199.445312 63.6875 C 199.34375 63.390625 199.351562 63.355469 199.542969 63.011719 C 199.683594 62.761719 199.75 62.539062 199.75 62.300781 C 199.75 62.109375 199.816406 61.78125 199.894531 61.566406 C 199.984375 61.335938 200.027344 61.089844 200 60.964844 C 199.96875 60.8125 200.023438 60.636719 200.203125 60.328125 C 200.371094 60.03125 200.429688 59.847656 200.398438 59.722656 C 200.371094 59.613281 200.394531 59.507812 200.449219 59.460938 C 200.5 59.421875 200.644531 59.304688 200.765625 59.207031 C 200.96875 59.042969 200.984375 58.988281 200.972656 58.582031 C 200.964844 58.277344 201.019531 57.964844 201.144531 57.605469 C 201.242188 57.316406 201.308594 57.046875 201.285156 57.011719 C 201.214844 56.898438 200.578125 57.011719 200.363281 57.171875 C 200.210938 57.289062 200.164062 57.386719 200.164062 57.613281 C 200.164062 58.050781 200.117188 58.085938 199.570312 58.039062 L 199.089844 58.003906 L 198.921875 58.277344 C 198.730469 58.582031 198.628906 58.601562 198.15625 58.4375 C 197.722656 58.285156 197.523438 58.292969 197.363281 58.472656 C 197.242188 58.605469 197.164062 58.617188 196.707031 58.578125 L 196.1875 58.527344 L 196.101562 58.765625 C 196.015625 59.015625 195.972656 59.035156 195.316406 59.121094 C 194.871094 59.175781 194.746094 59.261719 194.746094 59.503906 C 194.746094 59.722656 194.527344 59.871094 194.027344 59.992188 C 193.460938 60.125 192.351562 60.730469 192.042969 61.070312 C 191.675781 61.476562 191.378906 62.144531 191.148438 63.085938 L 190.84375 64.339844 C 190.785156 64.59375 190.695312 65.207031 190.644531 65.707031 C 190.496094 67.199219 190.6875 68.171875 191.28125 68.957031 C 191.507812 69.253906 191.554688 69.28125 191.867188 69.28125 C 192.074219 69.28125 192.464844 69.179688 192.851562 69.03125 Z M 192.613281 66.246094 C 193.324219 65.015625 194.347656 63.820312 195.960938 62.332031 C 196.925781 61.441406 196.921875 61.511719 195.941406 62.5625 C 194.785156 63.804688 193.300781 65.523438 192.863281 66.125 C 192.632812 66.445312 192.429688 66.695312 192.410156 66.679688 C 192.394531 66.664062 192.484375 66.46875 192.613281 66.246094 Z M 174.898438 58.453125 C 175.507812 57.886719 176.265625 57 177.136719 55.828125 C 178.207031 54.390625 178.5625 53.871094 178.511719 53.820312 C 178.46875 53.777344 177.828125 54.535156 176.320312 56.433594 C 175.808594 57.078125 175.179688 57.84375 174.925781 58.132812 C 174.675781 58.425781 174.453125 58.714844 174.410156 58.757812 C 173.609375 59.527344 173.585938 59.5625 173.402344 59.765625 C 173.507812 59.683594 174.628906 58.703125 174.898438 58.453125 Z M 185.234375 57.683594 C 185.898438 57.449219 186.015625 57.429688 186.230469 57.507812 C 186.449219 57.585938 186.507812 57.574219 186.765625 57.398438 C 186.972656 57.261719 187.121094 57.214844 187.28125 57.238281 C 187.464844 57.269531 187.554688 57.230469 187.730469 57.042969 C 187.875 56.894531 188.027344 56.8125 188.164062 56.8125 C 188.320312 56.8125 188.40625 56.753906 188.492188 56.589844 C 188.683594 56.21875 188.804688 56.140625 189.121094 56.183594 C 189.375 56.21875 189.429688 56.195312 189.542969 56.027344 C 189.699219 55.789062 189.898438 55.773438 190.085938 55.980469 C 190.269531 56.179688 190.523438 56.171875 190.777344 55.953125 L 190.980469 55.777344 L 190.648438 55.546875 C 190.464844 55.417969 190.214844 55.207031 190.089844 55.078125 C 189.925781 54.90625 189.800781 54.84375 189.609375 54.84375 C 189.441406 54.84375 189.269531 54.777344 189.125 54.65625 C 189 54.550781 188.835938 54.46875 188.757812 54.46875 C 188.679688 54.46875 188.453125 54.3125 188.25 54.125 C 187.554688 53.472656 187.433594 53.378906 187.167969 53.289062 C 187.015625 53.234375 186.851562 53.105469 186.785156 52.984375 C 186.71875 52.863281 186.570312 52.75 186.441406 52.714844 C 186.316406 52.683594 186.117188 52.554688 185.996094 52.429688 C 185.820312 52.246094 185.710938 52.199219 185.464844 52.199219 C 185.296875 52.199219 185.078125 52.144531 184.980469 52.078125 C 184.855469 51.988281 184.722656 51.96875 184.476562 52.007812 C 184.238281 52.042969 184.09375 52.023438 183.964844 51.941406 C 183.796875 51.828125 183.734375 51.851562 182.703125 52.34375 C 182.109375 52.632812 181.398438 52.921875 181.125 52.988281 C 180.066406 53.253906 179.769531 53.535156 179.851562 54.191406 C 179.976562 55.203125 181.351562 56.652344 183.082031 57.597656 C 183.832031 58.007812 184.273438 58.027344 185.234375 57.683594 Z M 183.960938 55.25 C 183.066406 55.121094 182.640625 55.011719 183.003906 55 C 183.226562 54.996094 184.773438 55.195312 185.273438 55.292969 L 185.613281 55.359375 L 185.210938 55.367188 C 184.988281 55.371094 184.425781 55.320312 183.960938 55.25 Z M 176.765625 53.410156 C 177.433594 53.269531 177.925781 52.894531 177.921875 52.527344 C 177.921875 52.449219 177.816406 52.097656 177.6875 51.746094 C 177.355469 50.820312 177.199219 50.292969 177.011719 49.457031 C 176.878906 48.847656 176.8125 48.695312 176.65625 48.589844 C 176.554688 48.523438 176.386719 48.335938 176.285156 48.179688 C 176.171875 48 176.042969 47.890625 175.949219 47.890625 C 175.863281 47.890625 175.664062 47.75 175.503906 47.574219 C 175.269531 47.320312 175.164062 47.261719 174.957031 47.269531 C 174.820312 47.273438 174.597656 47.210938 174.46875 47.128906 C 174.300781 47.027344 174.160156 46.996094 173.996094 47.027344 C 173.828125 47.0625 173.6875 47.03125 173.503906 46.914062 C 173.359375 46.828125 173.136719 46.753906 173.003906 46.753906 C 172.871094 46.753906 172.640625 46.703125 172.492188 46.640625 C 172.34375 46.578125 172.113281 46.527344 171.984375 46.527344 C 171.851562 46.527344 171.644531 46.460938 171.519531 46.378906 C 171.394531 46.296875 171.21875 46.226562 171.125 46.226562 C 171.027344 46.226562 170.894531 46.132812 170.800781 46 C 170.675781 45.828125 170.578125 45.773438 170.394531 45.773438 C 170.257812 45.773438 169.953125 45.722656 169.710938 45.660156 C 169.472656 45.597656 169.261719 45.546875 169.242188 45.546875 C 169.222656 45.546875 169.207031 45.675781 169.207031 45.835938 C 169.207031 46.175781 169.367188 46.351562 169.699219 46.390625 C 169.917969 46.414062 169.925781 46.425781 169.902344 46.753906 C 169.878906 47.046875 169.902344 47.113281 170.085938 47.257812 C 170.292969 47.425781 170.296875 47.425781 170.195312 47.84375 C 170.113281 48.191406 170.109375 48.285156 170.191406 48.382812 C 170.25 48.449219 170.285156 48.65625 170.28125 48.851562 C 170.269531 49.117188 170.304688 49.242188 170.425781 49.371094 C 170.519531 49.472656 170.605469 49.683594 170.625 49.875 C 170.65625 50.136719 170.707031 50.226562 170.878906 50.324219 C 171.027344 50.410156 171.117188 50.546875 171.179688 50.777344 C 171.226562 50.957031 171.382812 51.347656 171.523438 51.644531 C 171.804688 52.230469 172.1875 52.578125 172.878906 52.886719 C 173.773438 53.28125 175.976562 53.578125 176.765625 53.410156 Z M 174.070312 50.648438 C 173.71875 50.316406 173.292969 49.875 173.121094 49.667969 C 172.855469 49.34375 172.910156 49.378906 173.488281 49.910156 C 173.863281 50.25 174.460938 50.804688 174.816406 51.140625 C 175.378906 51.679688 175.410156 51.722656 175.082031 51.503906 C 174.875 51.367188 174.421875 50.980469 174.070312 50.648438 Z M 180.207031 52.085938 C 180.605469 51.859375 181.210938 51.570312 181.550781 51.445312 C 182.367188 51.148438 182.621094 51.007812 182.621094 50.871094 C 182.621094 50.808594 182.742188 50.632812 182.886719 50.484375 C 183.03125 50.332031 183.152344 50.144531 183.152344 50.0625 C 183.152344 49.980469 183.238281 49.8125 183.347656 49.683594 C 183.496094 49.507812 183.535156 49.398438 183.5 49.230469 C 183.472656 49.101562 183.503906 48.921875 183.578125 48.78125 C 183.675781 48.589844 183.679688 48.519531 183.601562 48.371094 C 183.527344 48.234375 183.523438 48.132812 183.59375 47.910156 C 183.644531 47.753906 183.679688 47.507812 183.679688 47.359375 C 183.671875 47.101562 183.714844 46.667969 183.804688 46 C 183.828125 45.8125 183.914062 45.589844 183.996094 45.5 C 184.109375 45.378906 184.136719 45.25 184.121094 44.933594 C 184.109375 44.710938 184.128906 44.414062 184.164062 44.28125 C 184.222656 44.042969 184.214844 44.035156 184.003906 44.035156 C 183.722656 44.035156 183.53125 44.242188 183.53125 44.550781 C 183.53125 44.78125 183.515625 44.789062 183.230469 44.789062 C 182.996094 44.789062 182.910156 44.828125 182.839844 44.960938 C 182.710938 45.203125 182.648438 45.226562 182.261719 45.183594 C 181.988281 45.152344 181.90625 45.171875 181.847656 45.277344 C 181.789062 45.378906 181.714844 45.398438 181.519531 45.363281 C 181.304688 45.320312 181.25 45.34375 181.109375 45.542969 C 181.003906 45.691406 180.855469 45.785156 180.675781 45.816406 C 180.464844 45.859375 180.382812 45.921875 180.316406 46.089844 C 180.257812 46.253906 180.09375 46.386719 179.703125 46.589844 C 178.6875 47.125 178.363281 47.660156 178.214844 49.066406 C 178.023438 50.882812 178.535156 52.5 179.300781 52.5 C 179.398438 52.5 179.808594 52.316406 180.207031 52.085938 Z M 179.9375 49.761719 C 180.03125 49.457031 180.691406 48.5 181.382812 47.667969 C 181.398438 47.652344 181.421875 47.652344 181.441406 47.671875 C 181.457031 47.6875 181.347656 47.890625 181.191406 48.117188 C 180.453125 49.214844 179.949219 49.929688 179.917969 49.929688 C 179.898438 49.929688 179.90625 49.855469 179.9375 49.761719 Z M 155.605469 43.078125 C 156.855469 42.980469 159.273438 42.40625 159.53125 42.148438 C 159.65625 42.023438 159.558594 41.988281 158.921875 41.921875 C 158.199219 41.851562 157.765625 41.65625 155.945312 40.582031 C 154.035156 39.460938 153.085938 39.160156 152.019531 39.34375 C 151.503906 39.433594 150.316406 39.984375 150.082031 40.242188 C 149.96875 40.367188 149.996094 40.402344 150.476562 40.792969 C 151.566406 41.683594 152.886719 42.492188 153.722656 42.785156 C 154.183594 42.941406 155.148438 43.152344 155.261719 43.113281 C 155.285156 43.105469 155.4375 43.089844 155.605469 43.078125 Z M 161.515625 41.171875 C 162.242188 40.964844 162.679688 40.714844 163.222656 40.207031 C 164.042969 39.429688 164.359375 38.714844 164.738281 36.785156 C 165.132812 34.757812 165.371094 34.070312 165.871094 33.5 C 166.113281 33.226562 166.160156 33.070312 166.003906 33.070312 C 165.828125 33.070312 165.003906 33.503906 164.320312 33.957031 C 162.476562 35.171875 161.6875 36.195312 161.25 37.945312 C 161.035156 38.804688 160.757812 40.75 160.808594 41.085938 C 160.839844 41.320312 160.949219 41.335938 161.515625 41.171875 Z M 159.457031 39.59375 C 159.660156 38.367188 159.332031 37.085938 158.582031 36.167969 C 158.152344 35.644531 157.742188 35.328125 156.183594 34.324219 C 154.625 33.316406 154.355469 33.09375 154.089844 32.601562 C 153.972656 32.382812 153.824219 32.140625 153.757812 32.066406 C 153.648438 31.941406 153.636719 31.9375 153.59375 32.050781 C 153.476562 32.390625 153.773438 34.117188 154.140625 35.21875 C 154.679688 36.839844 155.195312 37.484375 156.785156 38.539062 C 157.707031 39.148438 159.0625 39.875 159.28125 39.875 C 159.371094 39.875 159.425781 39.792969 159.457031 39.59375 Z M 159.457031 39.59375 " fill-opacity="1" fill-rule="nonzero"/></g><g fill="#000000" fill-opacity="1"><g transform="translate(6.405762, 129.096311)"><g><path d="M 17.0625 -0.296875 C 17.132812 -0.296875 17.171875 -0.242188 17.171875 -0.140625 C 17.171875 -0.046875 17.132812 0 17.0625 0 C 16.769531 0 16.296875 -0.015625 15.640625 -0.046875 C 15.015625 -0.078125 14.554688 -0.09375 14.265625 -0.09375 C 13.921875 -0.09375 13.46875 -0.078125 12.90625 -0.046875 C 12.382812 -0.015625 11.992188 0 11.734375 0 C 11.671875 0 11.640625 -0.046875 11.640625 -0.140625 C 11.640625 -0.242188 11.671875 -0.296875 11.734375 -0.296875 C 12.398438 -0.296875 12.878906 -0.351562 13.171875 -0.46875 C 13.472656 -0.59375 13.625 -0.804688 13.625 -1.109375 C 13.625 -1.335938 13.535156 -1.65625 13.359375 -2.0625 L 11.046875 -7.0625 L 5.1875 -7.0625 L 3.515625 -3.03125 C 3.285156 -2.46875 3.171875 -2.003906 3.171875 -1.640625 C 3.171875 -1.171875 3.367188 -0.828125 3.765625 -0.609375 C 4.160156 -0.398438 4.773438 -0.296875 5.609375 -0.296875 C 5.691406 -0.296875 5.734375 -0.242188 5.734375 -0.140625 C 5.734375 -0.046875 5.691406 0 5.609375 0 C 5.316406 0 4.890625 -0.015625 4.328125 -0.046875 C 3.703125 -0.078125 3.160156 -0.09375 2.703125 -0.09375 C 2.296875 -0.09375 1.8125 -0.078125 1.25 -0.046875 C 0.757812 -0.015625 0.359375 0 0.046875 0 C -0.0351562 0 -0.078125 -0.046875 -0.078125 -0.140625 C -0.078125 -0.242188 -0.0351562 -0.296875 0.046875 -0.296875 C 0.503906 -0.296875 0.894531 -0.375 1.21875 -0.53125 C 1.539062 -0.695312 1.84375 -0.992188 2.125 -1.421875 C 2.414062 -1.847656 2.722656 -2.457031 3.046875 -3.25 L 8.1875 -15.609375 C 8.21875 -15.660156 8.269531 -15.6875 8.34375 -15.6875 C 8.414062 -15.6875 8.460938 -15.660156 8.484375 -15.609375 L 14.1875 -3.375 C 14.5625 -2.53125 14.894531 -1.890625 15.1875 -1.453125 C 15.488281 -1.023438 15.78125 -0.722656 16.0625 -0.546875 C 16.351562 -0.378906 16.6875 -0.296875 17.0625 -0.296875 Z M 5.390625 -7.5 L 10.828125 -7.5 L 7.9375 -13.671875 Z M 5.390625 -7.5 "/></g></g></g><g fill="#000000" fill-opacity="1"><g transform="translate(25.393769, 129.096311)"><g><path d="M 9.953125 0.296875 C 8.171875 0.296875 6.617188 -0.0664062 5.296875 -0.796875 C 3.972656 -1.523438 2.957031 -2.507812 2.25 -3.75 C 1.550781 -4.988281 1.203125 -6.347656 1.203125 -7.828125 C 1.203125 -9.410156 1.597656 -10.789062 2.390625 -11.96875 C 3.191406 -13.15625 4.285156 -14.0625 5.671875 -14.6875 C 7.054688 -15.320312 8.609375 -15.640625 10.328125 -15.640625 C 11.234375 -15.640625 12.0625 -15.546875 12.8125 -15.359375 C 13.5625 -15.179688 14.203125 -14.929688 14.734375 -14.609375 C 14.847656 -14.523438 14.910156 -14.460938 14.921875 -14.421875 C 14.941406 -14.378906 14.960938 -14.257812 14.984375 -14.0625 L 15.265625 -11.3125 C 15.265625 -11.257812 15.21875 -11.222656 15.125 -11.203125 C 15.039062 -11.191406 14.992188 -11.210938 14.984375 -11.265625 C 14.617188 -12.628906 14.046875 -13.632812 13.265625 -14.28125 C 12.484375 -14.9375 11.390625 -15.265625 9.984375 -15.265625 C 8.617188 -15.265625 7.394531 -14.972656 6.3125 -14.390625 C 5.238281 -13.816406 4.390625 -12.992188 3.765625 -11.921875 C 3.140625 -10.847656 2.828125 -9.585938 2.828125 -8.140625 C 2.828125 -6.773438 3.109375 -5.476562 3.671875 -4.25 C 4.242188 -3.019531 5.113281 -2.007812 6.28125 -1.21875 C 7.457031 -0.4375 8.90625 -0.046875 10.625 -0.046875 C 11.832031 -0.046875 12.6875 -0.28125 13.1875 -0.75 C 13.6875 -1.21875 13.9375 -1.992188 13.9375 -3.078125 C 13.9375 -3.929688 13.878906 -4.523438 13.765625 -4.859375 C 13.648438 -5.191406 13.40625 -5.414062 13.03125 -5.53125 C 12.65625 -5.644531 12 -5.703125 11.0625 -5.703125 C 10.96875 -5.703125 10.921875 -5.769531 10.921875 -5.90625 C 10.921875 -5.945312 10.929688 -5.988281 10.953125 -6.03125 C 10.984375 -6.070312 11.015625 -6.09375 11.046875 -6.09375 C 12.304688 -6.007812 13.320312 -5.96875 14.09375 -5.96875 C 14.832031 -5.96875 15.617188 -5.992188 16.453125 -6.046875 C 16.484375 -6.046875 16.507812 -6.023438 16.53125 -5.984375 C 16.5625 -5.941406 16.578125 -5.90625 16.578125 -5.875 C 16.578125 -5.757812 16.535156 -5.703125 16.453125 -5.703125 C 16.023438 -5.722656 15.71875 -5.671875 15.53125 -5.546875 C 15.351562 -5.421875 15.238281 -5.171875 15.1875 -4.796875 C 15.144531 -4.421875 15.125 -3.765625 15.125 -2.828125 C 15.125 -2.085938 15.148438 -1.5625 15.203125 -1.25 C 15.265625 -0.9375 15.296875 -0.738281 15.296875 -0.65625 C 15.296875 -0.5625 15.28125 -0.5 15.25 -0.46875 C 15.21875 -0.4375 15.144531 -0.40625 15.03125 -0.375 C 13.039062 0.0703125 11.347656 0.296875 9.953125 0.296875 Z M 9.953125 0.296875 "/></g></g></g><g fill="#000000" fill-opacity="1"><g transform="translate(44.652321, 129.096311)"><g><path d="M 17.0625 -0.296875 C 17.132812 -0.296875 17.171875 -0.242188 17.171875 -0.140625 C 17.171875 -0.046875 17.132812 0 17.0625 0 C 16.769531 0 16.296875 -0.015625 15.640625 -0.046875 C 15.015625 -0.078125 14.554688 -0.09375 14.265625 -0.09375 C 13.921875 -0.09375 13.46875 -0.078125 12.90625 -0.046875 C 12.382812 -0.015625 11.992188 0 11.734375 0 C 11.671875 0 11.640625 -0.046875 11.640625 -0.140625 C 11.640625 -0.242188 11.671875 -0.296875 11.734375 -0.296875 C 12.398438 -0.296875 12.878906 -0.351562 13.171875 -0.46875 C 13.472656 -0.59375 13.625 -0.804688 13.625 -1.109375 C 13.625 -1.335938 13.535156 -1.65625 13.359375 -2.0625 L 11.046875 -7.0625 L 5.1875 -7.0625 L 3.515625 -3.03125 C 3.285156 -2.46875 3.171875 -2.003906 3.171875 -1.640625 C 3.171875 -1.171875 3.367188 -0.828125 3.765625 -0.609375 C 4.160156 -0.398438 4.773438 -0.296875 5.609375 -0.296875 C 5.691406 -0.296875 5.734375 -0.242188 5.734375 -0.140625 C 5.734375 -0.046875 5.691406 0 5.609375 0 C 5.316406 0 4.890625 -0.015625 4.328125 -0.046875 C 3.703125 -0.078125 3.160156 -0.09375 2.703125 -0.09375 C 2.296875 -0.09375 1.8125 -0.078125 1.25 -0.046875 C 0.757812 -0.015625 0.359375 0 0.046875 0 C -0.0351562 0 -0.078125 -0.046875 -0.078125 -0.140625 C -0.078125 -0.242188 -0.0351562 -0.296875 0.046875 -0.296875 C 0.503906 -0.296875 0.894531 -0.375 1.21875 -0.53125 C 1.539062 -0.695312 1.84375 -0.992188 2.125 -1.421875 C 2.414062 -1.847656 2.722656 -2.457031 3.046875 -3.25 L 8.1875 -15.609375 C 8.21875 -15.660156 8.269531 -15.6875 8.34375 -15.6875 C 8.414062 -15.6875 8.460938 -15.660156 8.484375 -15.609375 L 14.1875 -3.375 C 14.5625 -2.53125 14.894531 -1.890625 15.1875 -1.453125 C 15.488281 -1.023438 15.78125 -0.722656 16.0625 -0.546875 C 16.351562 -0.378906 16.6875 -0.296875 17.0625 -0.296875 Z M 5.390625 -7.5 L 10.828125 -7.5 L 7.9375 -13.671875 Z M 5.390625 -7.5 "/></g></g></g><g fill="#000000" fill-opacity="1"><g transform="translate(63.64033, 129.096311)"><g><path d="M 4.421875 -14.953125 C 3.390625 -14.953125 2.632812 -14.707031 2.15625 -14.21875 C 1.6875 -13.726562 1.367188 -12.847656 1.203125 -11.578125 C 1.203125 -11.546875 1.148438 -11.53125 1.046875 -11.53125 C 0.953125 -11.53125 0.90625 -11.546875 0.90625 -11.578125 C 0.976562 -12.023438 1.050781 -12.734375 1.125 -13.703125 C 1.207031 -14.679688 1.25 -15.414062 1.25 -15.90625 C 1.25 -15.988281 1.296875 -16.03125 1.390625 -16.03125 C 1.492188 -16.03125 1.546875 -15.988281 1.546875 -15.90625 C 1.546875 -15.550781 1.984375 -15.375 2.859375 -15.375 C 4.265625 -15.320312 5.910156 -15.296875 7.796875 -15.296875 C 8.765625 -15.296875 9.789062 -15.3125 10.875 -15.34375 L 12.546875 -15.375 C 13.128906 -15.375 13.5625 -15.410156 13.84375 -15.484375 C 14.125 -15.566406 14.304688 -15.734375 14.390625 -15.984375 C 14.398438 -16.046875 14.445312 -16.078125 14.53125 -16.078125 C 14.613281 -16.078125 14.65625 -16.046875 14.65625 -15.984375 C 14.601562 -15.523438 14.550781 -14.820312 14.5 -13.875 C 14.457031 -12.9375 14.4375 -12.171875 14.4375 -11.578125 C 14.4375 -11.546875 14.382812 -11.53125 14.28125 -11.53125 C 14.1875 -11.53125 14.140625 -11.546875 14.140625 -11.578125 C 14.140625 -12.453125 14.046875 -13.125 13.859375 -13.59375 C 13.679688 -14.070312 13.378906 -14.414062 12.953125 -14.625 C 12.535156 -14.84375 11.941406 -14.953125 11.171875 -14.953125 C 10.316406 -14.953125 9.71875 -14.921875 9.375 -14.859375 C 9.03125 -14.804688 8.796875 -14.671875 8.671875 -14.453125 C 8.546875 -14.242188 8.484375 -13.867188 8.484375 -13.328125 L 8.484375 -1.984375 C 8.484375 -1.484375 8.539062 -1.117188 8.65625 -0.890625 C 8.769531 -0.660156 9 -0.503906 9.34375 -0.421875 C 9.6875 -0.335938 10.226562 -0.296875 10.96875 -0.296875 C 11 -0.296875 11.015625 -0.242188 11.015625 -0.140625 C 11.015625 -0.046875 11 0 10.96875 0 C 10.425781 0 10 -0.0078125 9.6875 -0.03125 L 7.796875 -0.046875 L 6 -0.03125 C 5.675781 -0.0078125 5.222656 0 4.640625 0 C 4.609375 0 4.59375 -0.046875 4.59375 -0.140625 C 4.59375 -0.242188 4.609375 -0.296875 4.640625 -0.296875 C 5.378906 -0.296875 5.921875 -0.335938 6.265625 -0.421875 C 6.609375 -0.503906 6.84375 -0.660156 6.96875 -0.890625 C 7.09375 -1.128906 7.15625 -1.492188 7.15625 -1.984375 L 7.15625 -13.375 C 7.15625 -13.914062 7.085938 -14.289062 6.953125 -14.5 C 6.828125 -14.707031 6.59375 -14.832031 6.25 -14.875 C 5.914062 -14.925781 5.304688 -14.953125 4.421875 -14.953125 Z M 4.421875 -14.953125 "/></g></g></g><g fill="#000000" fill-opacity="1"><g transform="translate(81.005039, 129.096311)"><g><path d="M 17.0625 -0.296875 C 17.132812 -0.296875 17.171875 -0.242188 17.171875 -0.140625 C 17.171875 -0.046875 17.132812 0 17.0625 0 C 16.769531 0 16.296875 -0.015625 15.640625 -0.046875 C 15.015625 -0.078125 14.554688 -0.09375 14.265625 -0.09375 C 13.921875 -0.09375 13.46875 -0.078125 12.90625 -0.046875 C 12.382812 -0.015625 11.992188 0 11.734375 0 C 11.671875 0 11.640625 -0.046875 11.640625 -0.140625 C 11.640625 -0.242188 11.671875 -0.296875 11.734375 -0.296875 C 12.398438 -0.296875 12.878906 -0.351562 13.171875 -0.46875 C 13.472656 -0.59375 13.625 -0.804688 13.625 -1.109375 C 13.625 -1.335938 13.535156 -1.65625 13.359375 -2.0625 L 11.046875 -7.0625 L 5.1875 -7.0625 L 3.515625 -3.03125 C 3.285156 -2.46875 3.171875 -2.003906 3.171875 -1.640625 C 3.171875 -1.171875 3.367188 -0.828125 3.765625 -0.609375 C 4.160156 -0.398438 4.773438 -0.296875 5.609375 -0.296875 C 5.691406 -0.296875 5.734375 -0.242188 5.734375 -0.140625 C 5.734375 -0.046875 5.691406 0 5.609375 0 C 5.316406 0 4.890625 -0.015625 4.328125 -0.046875 C 3.703125 -0.078125 3.160156 -0.09375 2.703125 -0.09375 C 2.296875 -0.09375 1.8125 -0.078125 1.25 -0.046875 C 0.757812 -0.015625 0.359375 0 0.046875 0 C -0.0351562 0 -0.078125 -0.046875 -0.078125 -0.140625 C -0.078125 -0.242188 -0.0351562 -0.296875 0.046875 -0.296875 C 0.503906 -0.296875 0.894531 -0.375 1.21875 -0.53125 C 1.539062 -0.695312 1.84375 -0.992188 2.125 -1.421875 C 2.414062 -1.847656 2.722656 -2.457031 3.046875 -3.25 L 8.1875 -15.609375 C 8.21875 -15.660156 8.269531 -15.6875 8.34375 -15.6875 C 8.414062 -15.6875 8.460938 -15.660156 8.484375 -15.609375 L 14.1875 -3.375 C 14.5625 -2.53125 14.894531 -1.890625 15.1875 -1.453125 C 15.488281 -1.023438 15.78125 -0.722656 16.0625 -0.546875 C 16.351562 -0.378906 16.6875 -0.296875 17.0625 -0.296875 Z M 5.390625 -7.5 L 10.828125 -7.5 L 7.9375 -13.671875 Z M 5.390625 -7.5 "/></g></g></g><g fill="#000000" fill-opacity="1"><g transform="translate(99.993045, 129.096311)"><g/></g></g><g fill="#000000" fill-opacity="1"><g transform="translate(107.568762, 129.096311)"><g><path d="M 16.96875 -0.296875 C 17.03125 -0.273438 17.054688 -0.21875 17.046875 -0.125 C 17.046875 -0.0390625 17.019531 0 16.96875 0 L 14.65625 0 C 13.832031 0 12.617188 -0.640625 11.015625 -1.921875 C 9.691406 -0.441406 8.019531 0.296875 6 0.296875 C 5.019531 0.296875 4.195312 0.125 3.53125 -0.21875 C 2.863281 -0.5625 2.367188 -1.015625 2.046875 -1.578125 C 1.734375 -2.148438 1.578125 -2.765625 1.578125 -3.421875 C 1.578125 -4.390625 1.867188 -5.234375 2.453125 -5.953125 C 3.046875 -6.671875 3.894531 -7.425781 5 -8.21875 C 4.695312 -8.675781 4.457031 -9.09375 4.28125 -9.46875 C 3.820312 -10.519531 3.59375 -11.414062 3.59375 -12.15625 C 3.59375 -12.8125 3.757812 -13.425781 4.09375 -14 C 4.425781 -14.570312 4.890625 -15.03125 5.484375 -15.375 C 6.078125 -15.71875 6.75 -15.890625 7.5 -15.890625 C 8.238281 -15.890625 8.882812 -15.707031 9.4375 -15.34375 C 10 -14.988281 10.28125 -14.359375 10.28125 -13.453125 C 10.28125 -12.816406 10.117188 -12.238281 9.796875 -11.71875 C 9.484375 -11.195312 9.09375 -10.75 8.625 -10.375 C 8.15625 -10 7.507812 -9.535156 6.6875 -8.984375 L 6.171875 -8.625 C 7.390625 -6.726562 9.160156 -4.894531 11.484375 -3.125 C 12.191406 -4.269531 12.546875 -5.484375 12.546875 -6.765625 C 12.546875 -7.273438 12.429688 -7.65625 12.203125 -7.90625 C 11.984375 -8.15625 11.53125 -8.28125 10.84375 -8.28125 C 10.789062 -8.28125 10.757812 -8.328125 10.75 -8.421875 C 10.75 -8.523438 10.78125 -8.578125 10.84375 -8.578125 L 15.8125 -8.609375 C 15.875 -8.609375 15.90625 -8.554688 15.90625 -8.453125 C 15.90625 -8.359375 15.875 -8.3125 15.8125 -8.3125 C 15.238281 -8.3125 14.804688 -8.257812 14.515625 -8.15625 C 14.234375 -8.0625 14.035156 -7.921875 13.921875 -7.734375 C 13.804688 -7.554688 13.695312 -7.296875 13.59375 -6.953125 C 13.15625 -5.378906 12.5625 -4.03125 11.8125 -2.90625 C 12.769531 -2.195312 13.703125 -1.613281 14.609375 -1.15625 C 15.515625 -0.707031 16.300781 -0.421875 16.96875 -0.296875 Z M 4.765625 -12.90625 C 4.765625 -11.675781 5.175781 -10.347656 6 -8.921875 C 7 -9.628906 7.765625 -10.296875 8.296875 -10.921875 C 8.828125 -11.546875 9.09375 -12.265625 9.09375 -13.078125 C 9.09375 -13.816406 8.894531 -14.390625 8.5 -14.796875 C 8.113281 -15.210938 7.578125 -15.421875 6.890625 -15.421875 C 6.210938 -15.421875 5.6875 -15.210938 5.3125 -14.796875 C 4.945312 -14.390625 4.765625 -13.757812 4.765625 -12.90625 Z M 6.90625 -0.3125 C 7.644531 -0.3125 8.34375 -0.472656 9 -0.796875 C 9.65625 -1.117188 10.238281 -1.566406 10.75 -2.140625 L 10.484375 -2.359375 C 9.460938 -3.160156 8.488281 -4.046875 7.5625 -5.015625 C 6.632812 -5.984375 5.84375 -6.953125 5.1875 -7.921875 C 4.46875 -7.378906 3.90625 -6.804688 3.5 -6.203125 C 3.101562 -5.609375 2.90625 -4.914062 2.90625 -4.125 C 2.90625 -3.425781 3.078125 -2.785156 3.421875 -2.203125 C 3.773438 -1.617188 4.253906 -1.15625 4.859375 -0.8125 C 5.472656 -0.476562 6.15625 -0.3125 6.90625 -0.3125 Z M 6.90625 -0.3125 "/></g></g></g><g fill="#000000" fill-opacity="1"><g transform="translate(126.409187, 129.096311)"><g/></g></g><g fill="#000000" fill-opacity="1"><g transform="translate(133.984911, 129.096311)"><g><path d="M 4.421875 -14.953125 C 3.390625 -14.953125 2.632812 -14.707031 2.15625 -14.21875 C 1.6875 -13.726562 1.367188 -12.847656 1.203125 -11.578125 C 1.203125 -11.546875 1.148438 -11.53125 1.046875 -11.53125 C 0.953125 -11.53125 0.90625 -11.546875 0.90625 -11.578125 C 0.976562 -12.023438 1.050781 -12.734375 1.125 -13.703125 C 1.207031 -14.679688 1.25 -15.414062 1.25 -15.90625 C 1.25 -15.988281 1.296875 -16.03125 1.390625 -16.03125 C 1.492188 -16.03125 1.546875 -15.988281 1.546875 -15.90625 C 1.546875 -15.550781 1.984375 -15.375 2.859375 -15.375 C 4.265625 -15.320312 5.910156 -15.296875 7.796875 -15.296875 C 8.765625 -15.296875 9.789062 -15.3125 10.875 -15.34375 L 12.546875 -15.375 C 13.128906 -15.375 13.5625 -15.410156 13.84375 -15.484375 C 14.125 -15.566406 14.304688 -15.734375 14.390625 -15.984375 C 14.398438 -16.046875 14.445312 -16.078125 14.53125 -16.078125 C 14.613281 -16.078125 14.65625 -16.046875 14.65625 -15.984375 C 14.601562 -15.523438 14.550781 -14.820312 14.5 -13.875 C 14.457031 -12.9375 14.4375 -12.171875 14.4375 -11.578125 C 14.4375 -11.546875 14.382812 -11.53125 14.28125 -11.53125 C 14.1875 -11.53125 14.140625 -11.546875 14.140625 -11.578125 C 14.140625 -12.453125 14.046875 -13.125 13.859375 -13.59375 C 13.679688 -14.070312 13.378906 -14.414062 12.953125 -14.625 C 12.535156 -14.84375 11.941406 -14.953125 11.171875 -14.953125 C 10.316406 -14.953125 9.71875 -14.921875 9.375 -14.859375 C 9.03125 -14.804688 8.796875 -14.671875 8.671875 -14.453125 C 8.546875 -14.242188 8.484375 -13.867188 8.484375 -13.328125 L 8.484375 -1.984375 C 8.484375 -1.484375 8.539062 -1.117188 8.65625 -0.890625 C 8.769531 -0.660156 9 -0.503906 9.34375 -0.421875 C 9.6875 -0.335938 10.226562 -0.296875 10.96875 -0.296875 C 11 -0.296875 11.015625 -0.242188 11.015625 -0.140625 C 11.015625 -0.046875 11 0 10.96875 0 C 10.425781 0 10 -0.0078125 9.6875 -0.03125 L 7.796875 -0.046875 L 6 -0.03125 C 5.675781 -0.0078125 5.222656 0 4.640625 0 C 4.609375 0 4.59375 -0.046875 4.59375 -0.140625 C 4.59375 -0.242188 4.609375 -0.296875 4.640625 -0.296875 C 5.378906 -0.296875 5.921875 -0.335938 6.265625 -0.421875 C 6.609375 -0.503906 6.84375 -0.660156 6.96875 -0.890625 C 7.09375 -1.128906 7.15625 -1.492188 7.15625 -1.984375 L 7.15625 -13.375 C 7.15625 -13.914062 7.085938 -14.289062 6.953125 -14.5 C 6.828125 -14.707031 6.59375 -14.832031 6.25 -14.875 C 5.914062 -14.925781 5.304688 -14.953125 4.421875 -14.953125 Z M 4.421875 -14.953125 "/></g></g></g><g fill="#000000" fill-opacity="1"><g transform="translate(151.349625, 129.096311)"><g><path d="M 17.703125 -0.296875 C 17.753906 -0.296875 17.78125 -0.242188 17.78125 -0.140625 C 17.78125 -0.046875 17.753906 0 17.703125 0 C 17.191406 0 16.800781 -0.0078125 16.53125 -0.03125 L 14.875 -0.046875 L 13.1875 -0.03125 C 12.90625 -0.0078125 12.519531 0 12.03125 0 C 11.976562 0 11.953125 -0.046875 11.953125 -0.140625 C 11.953125 -0.242188 11.976562 -0.296875 12.03125 -0.296875 C 12.6875 -0.296875 13.160156 -0.335938 13.453125 -0.421875 C 13.742188 -0.503906 13.941406 -0.660156 14.046875 -0.890625 C 14.160156 -1.117188 14.21875 -1.484375 14.21875 -1.984375 L 14.21875 -7.765625 L 4.40625 -7.765625 L 4.40625 -1.984375 C 4.40625 -1.484375 4.457031 -1.117188 4.5625 -0.890625 C 4.664062 -0.660156 4.863281 -0.503906 5.15625 -0.421875 C 5.457031 -0.335938 5.9375 -0.296875 6.59375 -0.296875 C 6.625 -0.296875 6.640625 -0.242188 6.640625 -0.140625 C 6.640625 -0.046875 6.625 0 6.59375 0 C 6.101562 0 5.707031 -0.0078125 5.40625 -0.03125 L 3.734375 -0.046875 L 2.109375 -0.03125 C 1.816406 -0.0078125 1.410156 0 0.890625 0 C 0.859375 0 0.84375 -0.046875 0.84375 -0.140625 C 0.84375 -0.242188 0.859375 -0.296875 0.890625 -0.296875 C 1.523438 -0.296875 1.992188 -0.335938 2.296875 -0.421875 C 2.597656 -0.503906 2.804688 -0.660156 2.921875 -0.890625 C 3.035156 -1.128906 3.09375 -1.492188 3.09375 -1.984375 L 3.09375 -13.375 C 3.09375 -13.863281 3.039062 -14.222656 2.9375 -14.453125 C 2.832031 -14.691406 2.628906 -14.851562 2.328125 -14.9375 C 2.023438 -15.03125 1.550781 -15.078125 0.90625 -15.078125 C 0.875 -15.078125 0.859375 -15.125 0.859375 -15.21875 C 0.859375 -15.320312 0.875 -15.375 0.90625 -15.375 L 2.109375 -15.34375 C 2.796875 -15.3125 3.335938 -15.296875 3.734375 -15.296875 C 4.179688 -15.296875 4.75 -15.3125 5.4375 -15.34375 L 6.59375 -15.375 C 6.625 -15.375 6.640625 -15.320312 6.640625 -15.21875 C 6.640625 -15.125 6.625 -15.078125 6.59375 -15.078125 C 5.945312 -15.078125 5.472656 -15.023438 5.171875 -14.921875 C 4.867188 -14.828125 4.664062 -14.660156 4.5625 -14.421875 C 4.457031 -14.179688 4.40625 -13.816406 4.40625 -13.328125 L 4.40625 -8.234375 L 14.21875 -8.234375 L 14.21875 -13.328125 C 14.21875 -13.816406 14.160156 -14.179688 14.046875 -14.421875 C 13.941406 -14.660156 13.738281 -14.828125 13.4375 -14.921875 C 13.132812 -15.023438 12.664062 -15.078125 12.03125 -15.078125 C 11.976562 -15.078125 11.953125 -15.125 11.953125 -15.21875 C 11.953125 -15.320312 11.976562 -15.375 12.03125 -15.375 L 13.1875 -15.34375 C 13.875 -15.3125 14.4375 -15.296875 14.875 -15.296875 C 15.289062 -15.296875 15.84375 -15.3125 16.53125 -15.34375 L 17.703125 -15.375 C 17.753906 -15.375 17.78125 -15.320312 17.78125 -15.21875 C 17.78125 -15.125 17.753906 -15.078125 17.703125 -15.078125 C 17.066406 -15.078125 16.597656 -15.03125 16.296875 -14.9375 C 15.992188 -14.851562 15.785156 -14.691406 15.671875 -14.453125 C 15.554688 -14.222656 15.5 -13.863281 15.5 -13.375 L 15.5 -1.984375 C 15.5 -1.492188 15.554688 -1.128906 15.671875 -0.890625 C 15.785156 -0.660156 15.992188 -0.503906 16.296875 -0.421875 C 16.597656 -0.335938 17.066406 -0.296875 17.703125 -0.296875 Z M 17.703125 -0.296875 "/></g></g></g><g fill="#000000" fill-opacity="1"><g transform="translate(171.813367, 129.096311)"><g><path d="M 9 0.296875 C 7.476562 0.296875 6.117188 -0.0546875 4.921875 -0.765625 C 3.734375 -1.484375 2.816406 -2.453125 2.171875 -3.671875 C 1.523438 -4.898438 1.203125 -6.234375 1.203125 -7.671875 C 1.203125 -9.359375 1.628906 -10.804688 2.484375 -12.015625 C 3.335938 -13.222656 4.429688 -14.128906 5.765625 -14.734375 C 7.097656 -15.335938 8.460938 -15.640625 9.859375 -15.640625 C 11.421875 -15.640625 12.789062 -15.273438 13.96875 -14.546875 C 15.144531 -13.816406 16.050781 -12.851562 16.6875 -11.65625 C 17.320312 -10.457031 17.640625 -9.1875 17.640625 -7.84375 C 17.640625 -6.351562 17.242188 -4.984375 16.453125 -3.734375 C 15.660156 -2.492188 14.601562 -1.507812 13.28125 -0.78125 C 11.96875 -0.0625 10.539062 0.296875 9 0.296875 Z M 9.890625 -0.203125 C 11.054688 -0.203125 12.101562 -0.46875 13.03125 -1 C 13.96875 -1.539062 14.707031 -2.335938 15.25 -3.390625 C 15.789062 -4.441406 16.0625 -5.695312 16.0625 -7.15625 C 16.0625 -8.695312 15.757812 -10.066406 15.15625 -11.265625 C 14.5625 -12.472656 13.71875 -13.410156 12.625 -14.078125 C 11.539062 -14.753906 10.273438 -15.09375 8.828125 -15.09375 C 6.921875 -15.09375 5.4375 -14.503906 4.375 -13.328125 C 3.3125 -12.148438 2.78125 -10.546875 2.78125 -8.515625 C 2.78125 -6.984375 3.078125 -5.582031 3.671875 -4.3125 C 4.273438 -3.039062 5.117188 -2.035156 6.203125 -1.296875 C 7.285156 -0.566406 8.515625 -0.203125 9.890625 -0.203125 Z M 9.890625 -0.203125 "/></g></g></g><g fill="#000000" fill-opacity="1"><g transform="translate(192.473868, 129.096311)"><g><path d="M 19.84375 -0.296875 C 19.894531 -0.296875 19.921875 -0.242188 19.921875 -0.140625 C 19.921875 -0.046875 19.894531 0 19.84375 0 C 19.332031 0 18.929688 -0.0078125 18.640625 -0.03125 L 17 -0.046875 L 15.46875 -0.03125 C 15.21875 -0.0078125 14.875 0 14.4375 0 C 14.40625 0 14.390625 -0.046875 14.390625 -0.140625 C 14.390625 -0.242188 14.40625 -0.296875 14.4375 -0.296875 C 15.007812 -0.296875 15.429688 -0.335938 15.703125 -0.421875 C 15.972656 -0.515625 16.148438 -0.675781 16.234375 -0.90625 C 16.328125 -1.132812 16.359375 -1.492188 16.328125 -1.984375 L 15.90625 -13.421875 L 10.15625 -0.171875 C 10.125 -0.109375 10.054688 -0.078125 9.953125 -0.078125 C 9.878906 -0.078125 9.804688 -0.109375 9.734375 -0.171875 L 3.734375 -13.328125 L 3.71875 -13.375 L 3.515625 -2.5625 C 3.503906 -1.707031 3.644531 -1.113281 3.9375 -0.78125 C 4.226562 -0.457031 4.773438 -0.296875 5.578125 -0.296875 C 5.609375 -0.296875 5.625 -0.242188 5.625 -0.140625 C 5.625 -0.046875 5.609375 0 5.578125 0 C 5.117188 0 4.769531 -0.0078125 4.53125 -0.03125 L 3.203125 -0.046875 L 1.984375 -0.03125 C 1.773438 -0.0078125 1.457031 0 1.03125 0 C 1 0 0.984375 -0.046875 0.984375 -0.140625 C 0.984375 -0.242188 1 -0.296875 1.03125 -0.296875 C 1.71875 -0.296875 2.203125 -0.460938 2.484375 -0.796875 C 2.773438 -1.128906 2.929688 -1.71875 2.953125 -2.5625 L 3.203125 -14.21875 C 2.691406 -14.789062 2.023438 -15.078125 1.203125 -15.078125 C 1.171875 -15.078125 1.15625 -15.125 1.15625 -15.21875 C 1.15625 -15.320312 1.171875 -15.375 1.203125 -15.375 L 2.046875 -15.34375 C 2.203125 -15.332031 2.414062 -15.328125 2.6875 -15.328125 C 2.945312 -15.328125 3.164062 -15.332031 3.34375 -15.34375 C 3.519531 -15.363281 3.660156 -15.375 3.765625 -15.375 C 3.992188 -15.375 4.171875 -15.296875 4.296875 -15.140625 C 4.429688 -14.984375 4.628906 -14.632812 4.890625 -14.09375 L 10.421875 -2.140625 L 15.9375 -14.75 C 16.019531 -14.9375 16.128906 -15.085938 16.265625 -15.203125 C 16.410156 -15.316406 16.546875 -15.375 16.671875 -15.375 C 16.734375 -15.375 16.835938 -15.363281 16.984375 -15.34375 C 17.140625 -15.332031 17.347656 -15.328125 17.609375 -15.328125 L 18.71875 -15.34375 C 18.882812 -15.363281 19.140625 -15.375 19.484375 -15.375 C 19.515625 -15.375 19.53125 -15.320312 19.53125 -15.21875 C 19.53125 -15.125 19.515625 -15.078125 19.484375 -15.078125 C 18.628906 -15.078125 18.023438 -14.960938 17.671875 -14.734375 C 17.316406 -14.515625 17.148438 -14.078125 17.171875 -13.421875 L 17.640625 -1.984375 C 17.648438 -1.484375 17.707031 -1.117188 17.8125 -0.890625 C 17.925781 -0.660156 18.132812 -0.503906 18.4375 -0.421875 C 18.738281 -0.335938 19.207031 -0.296875 19.84375 -0.296875 Z M 19.84375 -0.296875 "/></g></g></g><g fill="#000000" fill-opacity="1"><g transform="translate(214.708477, 129.096311)"><g><path d="M 17.0625 -0.296875 C 17.132812 -0.296875 17.171875 -0.242188 17.171875 -0.140625 C 17.171875 -0.046875 17.132812 0 17.0625 0 C 16.769531 0 16.296875 -0.015625 15.640625 -0.046875 C 15.015625 -0.078125 14.554688 -0.09375 14.265625 -0.09375 C 13.921875 -0.09375 13.46875 -0.078125 12.90625 -0.046875 C 12.382812 -0.015625 11.992188 0 11.734375 0 C 11.671875 0 11.640625 -0.046875 11.640625 -0.140625 C 11.640625 -0.242188 11.671875 -0.296875 11.734375 -0.296875 C 12.398438 -0.296875 12.878906 -0.351562 13.171875 -0.46875 C 13.472656 -0.59375 13.625 -0.804688 13.625 -1.109375 C 13.625 -1.335938 13.535156 -1.65625 13.359375 -2.0625 L 11.046875 -7.0625 L 5.1875 -7.0625 L 3.515625 -3.03125 C 3.285156 -2.46875 3.171875 -2.003906 3.171875 -1.640625 C 3.171875 -1.171875 3.367188 -0.828125 3.765625 -0.609375 C 4.160156 -0.398438 4.773438 -0.296875 5.609375 -0.296875 C 5.691406 -0.296875 5.734375 -0.242188 5.734375 -0.140625 C 5.734375 -0.046875 5.691406 0 5.609375 0 C 5.316406 0 4.890625 -0.015625 4.328125 -0.046875 C 3.703125 -0.078125 3.160156 -0.09375 2.703125 -0.09375 C 2.296875 -0.09375 1.8125 -0.078125 1.25 -0.046875 C 0.757812 -0.015625 0.359375 0 0.046875 0 C -0.0351562 0 -0.078125 -0.046875 -0.078125 -0.140625 C -0.078125 -0.242188 -0.0351562 -0.296875 0.046875 -0.296875 C 0.503906 -0.296875 0.894531 -0.375 1.21875 -0.53125 C 1.539062 -0.695312 1.84375 -0.992188 2.125 -1.421875 C 2.414062 -1.847656 2.722656 -2.457031 3.046875 -3.25 L 8.1875 -15.609375 C 8.21875 -15.660156 8.269531 -15.6875 8.34375 -15.6875 C 8.414062 -15.6875 8.460938 -15.660156 8.484375 -15.609375 L 14.1875 -3.375 C 14.5625 -2.53125 14.894531 -1.890625 15.1875 -1.453125 C 15.488281 -1.023438 15.78125 -0.722656 16.0625 -0.546875 C 16.351562 -0.378906 16.6875 -0.296875 17.0625 -0.296875 Z M 5.390625 -7.5 L 10.828125 -7.5 L 7.9375 -13.671875 Z M 5.390625 -7.5 "/></g></g></g><g fill="#000000" fill-opacity="1"><g transform="translate(233.696489, 129.096311)"><g><path d="M 3.390625 -12.390625 C 3.390625 -11.734375 3.546875 -11.164062 3.859375 -10.6875 C 4.171875 -10.21875 4.550781 -9.820312 5 -9.5 C 5.457031 -9.1875 6.085938 -8.789062 6.890625 -8.3125 C 7.742188 -7.800781 8.398438 -7.378906 8.859375 -7.046875 C 9.328125 -6.710938 9.726562 -6.28125 10.0625 -5.75 C 10.40625 -5.226562 10.578125 -4.597656 10.578125 -3.859375 C 10.578125 -3.085938 10.382812 -2.382812 10 -1.75 C 9.625 -1.125 9.0625 -0.625 8.3125 -0.25 C 7.570312 0.113281 6.660156 0.296875 5.578125 0.296875 C 5.003906 0.296875 4.457031 0.234375 3.9375 0.109375 C 3.425781 -0.015625 2.859375 -0.234375 2.234375 -0.546875 C 2.148438 -0.585938 2.097656 -0.640625 2.078125 -0.703125 C 2.054688 -0.773438 2.035156 -0.878906 2.015625 -1.015625 L 1.640625 -4.203125 L 1.640625 -4.234375 C 1.640625 -4.296875 1.679688 -4.332031 1.765625 -4.34375 C 1.847656 -4.351562 1.898438 -4.320312 1.921875 -4.25 C 2.085938 -3.125 2.519531 -2.140625 3.21875 -1.296875 C 3.925781 -0.460938 4.894531 -0.046875 6.125 -0.046875 C 6.988281 -0.046875 7.71875 -0.28125 8.3125 -0.75 C 8.914062 -1.226562 9.21875 -1.976562 9.21875 -3 C 9.21875 -3.738281 9.050781 -4.375 8.71875 -4.90625 C 8.394531 -5.4375 8 -5.878906 7.53125 -6.234375 C 7.070312 -6.585938 6.4375 -7 5.625 -7.46875 C 4.84375 -7.9375 4.222656 -8.34375 3.765625 -8.6875 C 3.316406 -9.03125 2.929688 -9.457031 2.609375 -9.96875 C 2.296875 -10.488281 2.140625 -11.109375 2.140625 -11.828125 C 2.140625 -12.648438 2.347656 -13.347656 2.765625 -13.921875 C 3.179688 -14.492188 3.722656 -14.921875 4.390625 -15.203125 C 5.066406 -15.492188 5.789062 -15.640625 6.5625 -15.640625 C 7.46875 -15.640625 8.40625 -15.441406 9.375 -15.046875 C 9.613281 -14.953125 9.734375 -14.816406 9.734375 -14.640625 L 9.953125 -12.03125 C 9.953125 -11.957031 9.90625 -11.921875 9.8125 -11.921875 C 9.726562 -11.921875 9.679688 -11.957031 9.671875 -12.03125 C 9.597656 -12.882812 9.273438 -13.644531 8.703125 -14.3125 C 8.128906 -14.988281 7.3125 -15.328125 6.25 -15.328125 C 5.257812 -15.328125 4.535156 -15.035156 4.078125 -14.453125 C 3.617188 -13.878906 3.390625 -13.191406 3.390625 -12.390625 Z M 3.390625 -12.390625 "/></g></g></g><g fill="#000000" fill-opacity="1"><g transform="translate(116.633558, 29.131266)"><g><path d="M 18.65625 -0.328125 C 18.726562 -0.328125 18.765625 -0.269531 18.765625 -0.15625 C 18.765625 -0.0507812 18.726562 0 18.65625 0 C 18.332031 0 17.816406 -0.015625 17.109375 -0.046875 C 16.421875 -0.0859375 15.914062 -0.109375 15.59375 -0.109375 C 15.21875 -0.109375 14.726562 -0.0859375 14.125 -0.046875 C 13.539062 -0.015625 13.109375 0 12.828125 0 C 12.753906 0 12.71875 -0.0507812 12.71875 -0.15625 C 12.71875 -0.269531 12.753906 -0.328125 12.828125 -0.328125 C 13.554688 -0.328125 14.082031 -0.390625 14.40625 -0.515625 C 14.726562 -0.648438 14.890625 -0.878906 14.890625 -1.203125 C 14.890625 -1.460938 14.789062 -1.816406 14.59375 -2.265625 L 12.078125 -7.71875 L 5.671875 -7.71875 L 3.84375 -3.3125 C 3.59375 -2.695312 3.46875 -2.191406 3.46875 -1.796875 C 3.46875 -1.273438 3.679688 -0.898438 4.109375 -0.671875 C 4.546875 -0.441406 5.21875 -0.328125 6.125 -0.328125 C 6.21875 -0.328125 6.265625 -0.269531 6.265625 -0.15625 C 6.265625 -0.0507812 6.21875 0 6.125 0 C 5.800781 0 5.335938 -0.015625 4.734375 -0.046875 C 4.046875 -0.0859375 3.453125 -0.109375 2.953125 -0.109375 C 2.503906 -0.109375 1.976562 -0.0859375 1.375 -0.046875 C 0.832031 -0.015625 0.390625 0 0.046875 0 C -0.0351562 0 -0.078125 -0.0507812 -0.078125 -0.15625 C -0.078125 -0.269531 -0.0351562 -0.328125 0.046875 -0.328125 C 0.554688 -0.328125 0.984375 -0.414062 1.328125 -0.59375 C 1.679688 -0.769531 2.015625 -1.09375 2.328125 -1.5625 C 2.640625 -2.03125 2.972656 -2.691406 3.328125 -3.546875 L 8.953125 -17.078125 C 8.992188 -17.128906 9.050781 -17.15625 9.125 -17.15625 C 9.207031 -17.15625 9.257812 -17.128906 9.28125 -17.078125 L 15.515625 -3.6875 C 15.929688 -2.769531 16.300781 -2.070312 16.625 -1.59375 C 16.945312 -1.125 17.265625 -0.796875 17.578125 -0.609375 C 17.890625 -0.421875 18.25 -0.328125 18.65625 -0.328125 Z M 5.890625 -8.203125 L 11.828125 -8.203125 L 8.6875 -14.953125 Z M 5.890625 -8.203125 "/></g></g></g><g fill="#000000" fill-opacity="1"><g transform="translate(117.521069, 62.10015)"><g><path d="M 4.84375 -16.34375 C 3.707031 -16.34375 2.878906 -16.070312 2.359375 -15.53125 C 1.847656 -15 1.5 -14.046875 1.3125 -12.671875 C 1.3125 -12.628906 1.257812 -12.609375 1.15625 -12.609375 C 1.050781 -12.609375 1 -12.628906 1 -12.671875 C 1.070312 -13.148438 1.148438 -13.921875 1.234375 -14.984375 C 1.328125 -16.054688 1.375 -16.859375 1.375 -17.390625 C 1.375 -17.484375 1.425781 -17.53125 1.53125 -17.53125 C 1.632812 -17.53125 1.6875 -17.484375 1.6875 -17.390625 C 1.6875 -17.003906 2.164062 -16.8125 3.125 -16.8125 C 4.664062 -16.75 6.46875 -16.71875 8.53125 -16.71875 C 9.582031 -16.71875 10.703125 -16.738281 11.890625 -16.78125 L 13.71875 -16.8125 C 14.363281 -16.8125 14.835938 -16.851562 15.140625 -16.9375 C 15.441406 -17.03125 15.640625 -17.210938 15.734375 -17.484375 C 15.753906 -17.554688 15.804688 -17.59375 15.890625 -17.59375 C 15.984375 -17.59375 16.03125 -17.554688 16.03125 -17.484375 C 15.976562 -16.972656 15.921875 -16.203125 15.859375 -15.171875 C 15.804688 -14.148438 15.78125 -13.316406 15.78125 -12.671875 C 15.78125 -12.628906 15.726562 -12.609375 15.625 -12.609375 C 15.519531 -12.609375 15.46875 -12.628906 15.46875 -12.671875 C 15.46875 -13.617188 15.367188 -14.351562 15.171875 -14.875 C 14.972656 -15.394531 14.640625 -15.769531 14.171875 -16 C 13.703125 -16.226562 13.046875 -16.34375 12.203125 -16.34375 C 11.273438 -16.34375 10.625 -16.3125 10.25 -16.25 C 9.875 -16.1875 9.617188 -16.039062 9.484375 -15.8125 C 9.347656 -15.582031 9.28125 -15.171875 9.28125 -14.578125 L 9.28125 -2.171875 C 9.28125 -1.617188 9.34375 -1.21875 9.46875 -0.96875 C 9.59375 -0.71875 9.84375 -0.546875 10.21875 -0.453125 C 10.59375 -0.367188 11.1875 -0.328125 12 -0.328125 C 12.03125 -0.328125 12.046875 -0.269531 12.046875 -0.15625 C 12.046875 -0.0507812 12.03125 0 12 0 C 11.40625 0 10.9375 -0.0078125 10.59375 -0.03125 L 8.53125 -0.046875 L 6.5625 -0.03125 C 6.207031 -0.0078125 5.710938 0 5.078125 0 C 5.046875 0 5.03125 -0.0507812 5.03125 -0.15625 C 5.03125 -0.269531 5.046875 -0.328125 5.078125 -0.328125 C 5.890625 -0.328125 6.484375 -0.367188 6.859375 -0.453125 C 7.234375 -0.546875 7.488281 -0.722656 7.625 -0.984375 C 7.757812 -1.242188 7.828125 -1.640625 7.828125 -2.171875 L 7.828125 -14.625 C 7.828125 -15.21875 7.753906 -15.625 7.609375 -15.84375 C 7.460938 -16.070312 7.207031 -16.210938 6.84375 -16.265625 C 6.476562 -16.316406 5.8125 -16.34375 4.84375 -16.34375 Z M 4.84375 -16.34375 "/></g></g></g><path stroke-linecap="butt" transform="matrix(0.747378, 0, 0, 0.747378, 116.291617, 37.277697)" fill="none" stroke-linejoin="miter" d="M 0.00180819 0.501282 L 26.040772 0.501282 " stroke="#000000" stroke-width="1" stroke-opacity="1" stroke-miterlimit="4"/></svg>