<?xml version="1.0" encoding="UTF-8" standalone="no"?>
<svg
   width="198.98047"
   zoomAndPan="magnify"
   viewBox="0 0 149.23535 211.20036"
   height="281.60049"
   preserveAspectRatio="xMidYMid"
   version="1.0"
   id="svg52"
   sodipodi:docname="logo_gold.svg"
   inkscape:export-filename="logo_gold.png"
   inkscape:export-xdpi="300"
   inkscape:export-ydpi="300"
   inkscape:version="1.4 (e7c3feb1, 2024-10-09)"
   xmlns:inkscape="http://www.inkscape.org/namespaces/inkscape"
   xmlns:sodipodi="http://sodipodi.sourceforge.net/DTD/sodipodi-0.dtd"
   xmlns="http://www.w3.org/2000/svg"
   xmlns:svg="http://www.w3.org/2000/svg">
  <sodipodi:namedview
     id="namedview52"
     pagecolor="#ffffff"
     bordercolor="#000000"
     borderopacity="0.25"
     inkscape:showpageshadow="2"
     inkscape:pageopacity="0.0"
     inkscape:pagecheckerboard="0"
     inkscape:deskcolor="#d1d1d1"
     inkscape:zoom="1.3696823"
     inkscape:cx="10.221348"
     inkscape:cy="130.32219"
     inkscape:window-width="1480"
     inkscape:window-height="872"
     inkscape:window-x="0"
     inkscape:window-y="38"
     inkscape:window-maximized="0"
     inkscape:current-layer="svg52" />
  <defs
     id="defs6">
    <g
       id="g1" />
    <clipPath
       id="80a4984257">
      <path
         d="M 0.0898438,0 H 179.91016 V 252.5 H 0.0898438 Z m 0,0"
         clip-rule="nonzero"
         id="path1" />
    </clipPath>
    <clipPath
       id="3dbf99c44c">
      <path
         d="M 26.410156,89 H 153 V 206.19141 H 26.410156 Z m 0,0"
         clip-rule="nonzero"
         id="path2" />
    </clipPath>
    <clipPath
       id="ada01612f1">
      <path
         d="M 27,45.851562 H 131 V 110 H 27 Z m 0,0"
         clip-rule="nonzero"
         id="path3" />
    </clipPath>
    <clipPath
       id="6073a8c3b1">
      <path
         d="M 72,86.550781 H 91 V 106 H 72 Z m 0,0"
         clip-rule="nonzero"
         id="path4" />
    </clipPath>
    <clipPath
       id="74557ef54d">
      <path
         d="m 103,96 h 28.85156 v 57 H 103 Z m 0,0"
         clip-rule="nonzero"
         id="path5" />
    </clipPath>
    <clipPath
       id="e84956df1e">
      <path
         d="M 47.1875,95 H 126 V 203.4375 H 47.1875 Z m 0,0"
         clip-rule="nonzero"
         id="path6" />
    </clipPath>
  </defs>
  <g
     fill="#bba43f"
     fill-opacity="1"
     id="g10"
     transform="translate(-14.805975,-20.199859)">
    <g
       transform="translate(28.458258,38.996734)"
       id="g9">
      <g
         id="g8">
        <path
           d="M 13.21875,-3.28125 H 6.28125 L 5.171875,0 h -4.75 L 7.15625,-18.59375 h 5.234375 L 19.125,0 h -4.796875 z m -1.171875,-3.5 -2.296875,-6.8125 -2.28125,6.8125 z m 0,0"
           id="path8" />
      </g>
    </g>
  </g>
  <g
     fill="#bba43f"
     fill-opacity="1"
     id="g13"
     transform="translate(-14.805975,-20.199859)">
    <g
       transform="translate(54.989214,38.996734)"
       id="g12">
      <g
         id="g11">
        <path
           d="m 13.984375,-12.71875 c -0.335937,-0.613281 -0.820313,-1.082031 -1.453125,-1.40625 -0.625,-0.332031 -1.359375,-0.5 -2.203125,-0.5 -1.46875,0 -2.648437,0.484375 -3.53125,1.453125 -0.875,0.960937 -1.3125,2.242187 -1.3125,3.84375 0,1.71875 0.460937,3.0625 1.390625,4.03125 0.925781,0.960937 2.203125,1.4375 3.828125,1.4375 1.113281,0 2.050781,-0.28125 2.8125,-0.84375 0.769531,-0.570313 1.332031,-1.390625 1.6875,-2.453125 h -5.75 v -3.328125 H 19.3125 v 4.203125 c -0.34375,1.136719 -0.917969,2.1875 -1.71875,3.15625 -0.804688,0.96875 -1.824219,1.757812 -3.0625,2.359375 C 13.300781,-0.171875 11.910156,0.125 10.359375,0.125 8.515625,0.125 6.875,-0.273438 5.4375,-1.078125 4,-1.878906 2.878906,-2.992188 2.078125,-4.421875 1.273438,-5.847656 0.875,-7.484375 0.875,-9.328125 c 0,-1.832031 0.398438,-3.46875 1.203125,-4.90625 0.800781,-1.4375 1.914063,-2.554687 3.34375,-3.359375 1.4375,-0.800781 3.070313,-1.203125 4.90625,-1.203125 2.226563,0 4.101563,0.539063 5.625,1.609375 1.53125,1.074219 2.539063,2.5625 3.03125,4.46875 z m 0,0"
           id="path10" />
      </g>
    </g>
  </g>
  <g
     fill="#bba43f"
     fill-opacity="1"
     id="g16"
     transform="translate(-14.805975,-20.199859)">
    <g
       transform="translate(82.182018,38.996734)"
       id="g15">
      <g
         id="g14">
        <path
           d="M 13.21875,-3.28125 H 6.28125 L 5.171875,0 h -4.75 L 7.15625,-18.59375 h 5.234375 L 19.125,0 h -4.796875 z m -1.171875,-3.5 -2.296875,-6.8125 -2.28125,6.8125 z m 0,0"
           id="path13" />
      </g>
    </g>
  </g>
  <g
     fill="#bba43f"
     fill-opacity="1"
     id="g19"
     transform="translate(-14.805975,-20.199859)">
    <g
       transform="translate(108.71297,38.996734)"
       id="g18">
      <g
         id="g17">
        <path
           d="m 15.015625,-18.59375 v 3.625 H 10.09375 V 0 H 5.5625 V -14.96875 H 0.640625 v -3.625 z m 0,0"
           id="path16" />
      </g>
    </g>
  </g>
  <g
     fill="#bba43f"
     fill-opacity="1"
     id="g22"
     transform="translate(-14.805975,-20.199859)">
    <g
       transform="translate(131.37876,38.996734)"
       id="g21">
      <g
         id="g20">
        <path
           d="M 13.21875,-3.28125 H 6.28125 L 5.171875,0 h -4.75 L 7.15625,-18.59375 h 5.234375 L 19.125,0 h -4.796875 z m -1.171875,-3.5 -2.296875,-6.8125 -2.28125,6.8125 z m 0,0"
           id="path19" />
      </g>
    </g>
  </g>
  <g
     clip-path="url(#3dbf99c44c)"
     id="g23"
     transform="translate(-14.805975,-20.199859)">
    <path
       fill="#bba43f"
       d="M 152.46875,206.25781 H 26.878906 c -0.128906,0 -0.238281,-0.0469 -0.332031,-0.14062 -0.08984,-0.0898 -0.136719,-0.19922 -0.136719,-0.33203 v -85.21875 c 0,-4.39453 0.472656,-8.73438 1.421875,-13.02735 0.02734,-0.125 0.09766,-0.22265 0.207031,-0.29297 0.109376,-0.0703 0.226563,-0.0898 0.355469,-0.0625 0.125,0.0273 0.222657,0.0977 0.292969,0.20704 0.07031,0.10937 0.08984,0.22656 0.0625,0.35156 -0.933594,4.22656 -1.402344,8.5 -1.398438,12.82422 v 84.75 H 152.00391 v -84.75 c 0.004,-5.375 -0.71485,-10.64844 -2.16016,-15.82813 -1.44141,-5.17578 -3.55859,-10.062499 -6.33984,-14.660155 -0.0703,-0.109375 -0.0859,-0.226563 -0.0547,-0.355469 0.0312,-0.125 0.10156,-0.222656 0.21094,-0.289062 0.11328,-0.06641 0.23046,-0.08203 0.35937,-0.05078 0.125,0.02734 0.21875,0.101563 0.28906,0.210938 2.82813,4.671875 4.97266,9.636719 6.44141,14.894528 1.46484,5.25781 2.19531,10.61719 2.19141,16.07813 v 85.20703 c 0.004,0.13281 -0.0391,0.24609 -0.13282,0.34375 -0.0937,0.0937 -0.20703,0.14062 -0.33984,0.14062 z m 0,0"
       fill-opacity="1"
       fill-rule="nonzero"
       id="path22" />
  </g>
  <g
     clip-path="url(#ada01612f1)"
     id="g24"
     transform="translate(-14.805975,-20.199859)">
    <path
       fill="#bba43f"
       d="m 130.28125,79.871094 c -0.3125,-1.6875 0,-3.445313 -0.36719,-5.109375 -0.375,-1.46875 -1.08594,-2.75 -2.13281,-3.847657 -0.48437,-0.503906 -1,-0.972656 -1.54687,-1.410156 -0.54688,-0.472656 -1.08985,-0.941406 -1.64454,-1.402344 -0.99218,-0.847656 -2.0625,-1.582031 -3.21484,-2.191406 -0.65234,-0.335937 -1.33594,-0.589844 -2.05078,-0.757812 -0.69141,-0.1875 -1.39453,-0.234375 -2.10547,-0.132813 -1.09375,-0.820312 -2.26562,-1.503906 -3.51953,-2.050781 -1.46484,-0.585938 -2.98047,-0.929688 -4.55469,-1.035156 -1.83203,-0.148438 -3.66015,-0.113282 -5.48828,0.101562 -0.11719,-0.04687 -0.23828,-0.08984 -0.36328,-0.128906 -0.0273,-0.01563 -0.0547,-0.03125 -0.0859,-0.04687 -0.625,-0.15625 -1.25781,-0.273437 -1.89844,-0.347656 -0.625,-0.113281 -1.2539,-0.238281 -1.878902,-0.363281 -1.253907,-0.242188 -2.507813,-0.472657 -3.757813,-0.625 -1.253906,-0.152344 -2.589844,-0.363282 -3.882813,-0.460938 -1.324218,-0.05078 -2.636718,0.04687 -3.9375,0.292969 l -2.195312,0.335937 c -0.710938,0.105469 -1.421875,0.242188 -2.132812,0.328125 0.730468,-0.347656 1.429687,-0.757812 2.085937,-1.230469 0.65625,-0.464843 1.332031,-0.898437 2.03125,-1.296874 1.566406,-0.839844 3.042969,0.03125 4.5625,0.453124 1.5,0.460938 3.023437,0.816407 4.570313,1.074219 1.585937,0.175781 3.179687,0.214844 4.773442,0.117188 1.61328,-0.08203 3.22265,-0.02344 4.82421,0.171875 0.89454,0.109375 1.77735,0.261718 2.65235,0.460937 0.70703,0.171875 1.375,0.554688 2.12109,0.515625 0.0703,0 0.13672,-0.01953 0.19922,-0.05469 0.0586,-0.03906 0.10938,-0.08594 0.14453,-0.148438 0.0352,-0.0625 0.0547,-0.128906 0.0547,-0.199219 0,-0.07031 -0.0195,-0.136718 -0.0508,-0.199218 -1.67578,-2.660156 -4.29688,-4.292969 -7.22656,-5.289063 -1.53516,-0.496093 -3.10157,-0.855469 -4.699224,-1.070312 -1.640625,-0.242188 -3.355468,-0.507813 -5.011718,-0.191407 -0.871094,0.203126 -1.664063,0.566407 -2.386719,1.089844 -0.789063,0.507813 -1.515625,1.089844 -2.179688,1.753906 -0.07031,0.07813 -0.07813,0.164063 -0.02734,0.253907 -0.03125,-0.01172 -0.0625,-0.01953 -0.09766,-0.02734 -0.730469,-0.07031 -1.566406,0.289063 -2.191406,0.609375 -0.726563,0.386719 -1.417969,0.835938 -2.066406,1.34375 -0.816407,0.65625 -1.691407,1.226562 -2.617188,1.714844 -0.05078,-0.01953 -0.101562,-0.03516 -0.15625,-0.03906 -1.425781,-0.0625 -2.847656,0.0078 -4.265625,0.214844 -1.441406,0.179687 -2.878906,0.433594 -4.296875,0.75 -2.855469,0.636719 -5.632812,1.523437 -8.328125,2.660156 -0.398437,0.167969 -0.796875,0.347657 -1.1875,0.53125 -0.316406,0.09766 -0.628906,0.203125 -0.941406,0.316407 0.457031,-0.554688 0.863281,-1.167969 1.316406,-1.707032 0.507813,-0.621094 1.058594,-1.203125 1.648438,-1.75 0.28125,-0.253906 0.59375,-0.464844 0.9375,-0.625 0.246094,-0.109375 0.488281,-0.230468 0.71875,-0.371094 0.08594,0.04688 0.175781,0.04688 0.261718,0 2.519532,-1.394531 5.175782,-2.578124 7.53125,-4.242187 C 78.503906,55 80.339844,52.78125 81.867188,50.460938 c 0.445312,-0.6875 0.867187,-1.386719 1.34375,-2.054688 0.476562,-0.667969 1.152343,-1.195312 1.75,-1.808594 0.08594,-0.08594 0.105468,-0.1875 0.05859,-0.304687 -0.04687,-0.113281 -0.132812,-0.171875 -0.257812,-0.171875 -1.402344,0.01953 -2.769531,0.261718 -4.09375,0.722656 -1.324219,0.464844 -2.542969,1.125 -3.652344,1.984375 -1.21875,1.015625 -2.339844,2.125 -3.363281,3.335937 -1.03125,1.183594 -1.960938,2.445313 -2.792969,3.777344 -0.761719,1.222656 -1.824219,2.503906 -2.191406,3.929688 -0.128907,0.152344 -0.246094,0.3125 -0.351563,0.480468 -0.667968,0.246094 -1.28125,0.589844 -1.839844,1.027344 -0.601562,0.542969 -1.15625,1.128906 -1.671874,1.753906 -0.761719,0.894532 -1.394532,1.902344 -2.164063,2.796876 -0.605469,0.285156 -1.1875,0.625 -1.773437,0.9375 -0.917969,0.460937 -1.839844,0.917968 -2.738282,1.414062 -0.898437,0.5 -1.738281,1.0625 -2.613281,1.566406 -0.988281,0.578125 -1.984375,1.15625 -2.945313,1.78125 -0.507812,0.332032 -1.011718,0.675782 -1.484374,1.054688 -0.335938,0.28125 -0.648438,0.585937 -0.9375,0.914062 -0.496094,0.230469 -0.960938,0.511719 -1.390626,0.851563 0.3125,-0.617188 0.578126,-1.253907 0.796876,-1.910157 0.300781,-0.957031 0.730468,-1.855468 1.28125,-2.695312 0.01172,-0.01563 0.01953,-0.03516 0.02344,-0.05469 0.01172,-0.0039 0.02344,-0.01172 0.03125,-0.02344 0.785156,-1.1875 1.648437,-2.3125 2.539063,-3.417969 0.894531,-1.105468 1.75,-2.132812 2.335937,-3.382812 0.640625,-1.402344 0.851563,-2.871094 0.628906,-4.398438 -0.222656,-1.910156 -0.757812,-3.78125 -0.84375,-5.707031 -0.03125,-1.105469 0.07031,-2.199219 0.300781,-3.277344 0.210938,-1.117187 0.496094,-2.21875 0.84375,-3.300781 0.03125,-0.144531 -0.01953,-0.257812 -0.148437,-0.332031 -0.128906,-0.07422 -0.25,-0.0625 -0.363281,0.03516 -1.132813,1.121094 -1.761719,2.632813 -2.792969,3.835937 -0.960937,1.117188 -1.964844,2.167969 -2.539063,3.550782 -0.671874,1.613281 -0.878906,3.394531 -1.046874,5.132812 -0.144532,1.84375 -0.144532,3.683594 0,5.527344 0.136718,2.085938 0.316406,4.183594 0.09375,6.265625 -0.0039,0.01953 -0.0039,0.03906 0,0.05859 -0.808594,1.386719 -0.964844,3.085937 -1.683594,4.527343 -0.04687,0.04297 -0.09766,0.07813 -0.140625,0.121094 -2.765625,2.359375 -5.25,4.988282 -7.453125,7.886719 -0.402344,0.539063 -0.796875,1.089844 -1.199219,1.625 -0.230469,0.316406 -0.449219,0.628906 -0.683594,0.910156 l -0.08594,0.113281 c -0.06641,-0.546874 -0.148438,-1.097656 -0.199219,-1.644531 0,-0.03906 0,-0.07813 0,-0.117187 0.06641,-0.273438 0.08984,-0.554688 0.07422,-0.835938 -0.01172,-0.07422 -0.05469,-0.125 -0.128906,-0.148437 0.04297,-0.824219 0.316406,-1.566407 0.5625,-2.347657 0.242187,-0.890624 0.296874,-1.792968 0.152343,-2.707031 -0.285154,-1.867182 -0.871091,-3.636714 -1.75781,-5.304682 C 36.917969,71.582031 36.433594,70.75 36.054688,69.875 35.691406,69.023438 35.378906,68.152344 35.113281,67.265625 34.585938,65.566406 34.117188,63.820312 33.160156,62.292969 32.648438,61.457031 31.980469,60.773438 31.152344,60.242188 30.351562,59.730469 29.4375,59.398438 28.601562,58.933594 c -0.07812,-0.04687 -0.160156,-0.05859 -0.246093,-0.03516 -0.08984,0.02344 -0.15625,0.07422 -0.203125,0.152343 -0.04297,0.07813 -0.05469,0.160157 -0.03125,0.25 0.01953,0.08594 0.07031,0.152344 0.148437,0.199219 1.21875,0.863281 1.742188,2.375 2.015625,3.78125 0.234375,1.421875 0.367188,2.855469 0.390625,4.296875 0.02734,1.742187 0.246094,3.457031 0.65625,5.152344 0.464844,1.703125 1.28125,3.222656 2.449219,4.550781 0.808594,0.9375 1.59375,1.878906 2.328125,2.863281 0.335937,0.449219 0.652344,0.90625 0.972656,1.363281 0.269531,0.351563 0.523438,0.714844 0.757813,1.089844 0,0.242188 0.03516,0.488282 0.05078,0.730469 -0.01953,0.125 -0.03125,0.25 -0.03906,0.367187 -0.02344,0.320313 -0.02344,0.644532 0,0.964844 0.02734,0.550782 0.144532,1.089844 0.203126,1.632813 -0.04297,0.0078 -0.08594,0.02344 -0.121094,0.04687 -0.269532,0.214844 -0.476563,0.476562 -0.625,0.785156 -0.199219,0.3125 -0.390625,0.625 -0.582032,0.9375 -0.386718,0.652344 -0.746093,1.320312 -1.109374,1.988281 -0.433594,0.800781 -0.832032,1.613281 -1.222657,2.429688 -0.398437,0.519531 -0.742187,1.066406 -1.03125,1.652343 -0.34375,0.625 -0.675781,1.253907 -1,1.902344 -0.566406,1.125 -1.121093,2.257813 -1.628906,3.414063 -0.914063,2.02344 -1.683594,4.10156 -2.3125,6.23437 -0.3125,1.03907 -0.625,2.23047 -0.519531,3.32032 0,0.0625 0.101562,0.11328 0.136718,0.0352 0.371094,-0.86328 0.589844,-1.79297 0.894532,-2.68359 0.371094,-1.07813 0.738281,-2.15625 1.136718,-3.22656 0.800782,-2.12891 1.710938,-4.207034 2.734376,-6.24219 0.351562,-0.707031 0.710937,-1.40625 1.089843,-2.101563 0.332031,-0.628906 0.746094,-1.230468 1.027344,-1.878906 0.02344,0 0.04297,-0.0039 0.05859,-0.02344 0.996093,-1.132812 2.21875,-1.898437 3.671875,-2.300781 2.195312,-0.675781 4.40625,-0.449219 6.515625,0.347657 1.082031,0.40625 2.128906,0.894531 3.199219,1.332031 1.136718,0.492187 2.320312,0.796875 3.550781,0.921875 1.433593,0.101562 2.859375,0.03125 4.273437,-0.207032 0.585938,-0.08984 1.148438,-0.234374 1.722656,-0.355468 0.578126,-0.125 1.234376,-0.109375 1.59375,0.476562 0.164063,0.222656 0.539063,0.01563 0.378907,-0.222656 -1.167969,-1.757812 -2.308594,-3.738281 -4.289063,-4.695312 -2.539062,-1.214844 -5.765625,-1.234376 -8.414062,-0.375 -0.714844,0.25 -1.394532,0.570312 -2.039063,0.96875 -1.785156,1.039062 -4.667969,0.660156 -6.730469,1.339843 -1.289062,0.382813 -2.355468,1.097657 -3.199218,2.140625 0.355468,-0.546875 0.691406,-1.109375 1.015625,-1.671875 0.367187,-0.640625 0.734375,-1.277343 1.109375,-1.910156 0.183594,-0.3125 0.367187,-0.625 0.558594,-0.9375 0.234374,-0.289063 0.410156,-0.609375 0.53125,-0.960937 0.910156,-1.125 1.914062,-2.15625 3.015624,-3.097657 0.75,-0.605469 1.585938,-1.054687 2.503907,-1.34375 0.472656,-0.160156 0.960937,-0.257812 1.457031,-0.292969 0.371094,-0.0039 0.734375,-0.04297 1.097656,-0.113281 0.04297,0.01563 0.08594,0.02344 0.128906,0.02344 1.355469,0 2.707032,0.144531 4.074219,0.02734 1.136719,-0.09766 2.273438,-0.179687 3.414063,-0.265624 1.238281,-0.105469 2.464844,-0.285157 3.679687,-0.535157 1.113281,-0.214843 2.226563,-0.390625 3.351563,-0.542969 0.863281,-0.101562 1.714844,-0.261718 2.558594,-0.476562 1.722656,-0.425781 3.140624,-1.328125 4.253906,-2.703125 0.761718,-0.964844 1.164062,-2.074219 1.710937,-3.15625 0.5,-0.992187 1.425781,-1.710937 1.828125,-2.757813 0.03125,-0.105468 0.01172,-0.199218 -0.05469,-0.285156 -0.0625,-0.08594 -0.148438,-0.128906 -0.257813,-0.132812 -1.71875,0.179687 -2.992187,1.449218 -4.382812,2.335937 -1.5625,0.953125 -3.257813,1.414063 -5.089844,1.378907 -0.867188,-0.01953 -1.707031,-0.292969 -2.574219,-0.351563 -0.871093,-0.0625 -1.726562,0.01953 -2.570312,0.242187 -1.839844,0.496094 -3.355469,1.667969 -4.847657,2.804688 -0.898437,0.679688 -1.796874,1.375 -2.660156,2.101562 -0.582031,0.554688 -1.207031,1.058594 -1.878906,1.503907 h -0.53125 c -0.09766,0 -0.1875,0.03125 -0.261719,0.09375 -0.457031,0.07031 -0.910156,0.09375 -1.375,0.144531 -0.507812,0.06641 -1.003906,0.191406 -1.484375,0.371094 -0.753906,0.25 -1.449218,0.605468 -2.089844,1.074218 0.511719,-0.625 1.039063,-1.222656 1.605469,-1.789062 0.890625,-0.890625 1.824219,-1.730469 2.699219,-2.636719 0.753906,-0.78125 1.472656,-1.59375 2.253906,-2.339843 0.871094,-0.867188 1.851563,-1.578126 2.941406,-2.136719 0.125,-0.05469 0.171876,-0.148438 0.140626,-0.28125 1.691406,-0.589844 3.199218,-1.835938 5.042968,-1.742188 0.07422,0.0039 0.136719,-0.01953 0.1875,-0.07031 0.08984,0.05859 0.179688,0.07031 0.277344,0.02734 2.140625,-0.8125 4.496094,0.167969 6.691406,0.171876 2.398438,0 4.730469,-0.625 7.113282,-0.78125 0.132812,-0.02344 0.214843,-0.101563 0.25,-0.226563 0.03516,-0.128906 0,-0.238281 -0.101563,-0.324219 -1.023437,-0.75 -2.074219,-1.5 -3.285156,-1.917968 -1.300781,-0.453126 -2.644531,-0.367188 -3.984375,-0.171876 -1.460938,0.207032 -2.867188,0.605469 -4.21875,1.1875 -0.941406,0.414063 -2.125,0.78125 -2.851563,1.566407 -0.02734,-0.0078 -0.05078,-0.01172 -0.07813,-0.01563 -1.839844,-0.04687 -3.230468,1.125 -4.796875,1.878906 0.433594,-0.316406 0.871094,-0.628906 1.320313,-0.898438 0.941406,-0.597656 1.945312,-1.128906 2.929687,-1.675781 0.890625,-0.5 1.734375,-1.074219 2.621094,-1.566406 0.886719,-0.492187 1.792969,-0.941406 2.703125,-1.410156 0.484375,-0.246094 0.972656,-0.484375 1.457031,-0.738281 0.417969,-0.1875 0.804688,-0.425782 1.164063,-0.710938 0.01563,-0.01172 0.02344,-0.02734 0.03516,-0.04687 0.08594,-0.03125 0.179688,-0.05859 0.261719,-0.09375 0.644531,-0.238281 1.28125,-0.488281 1.925781,-0.726563 l 0.503906,-0.1875 c 0.625,-0.199218 1.21875,-0.414062 1.835938,-0.597656 0.554687,-0.148437 1.113281,-0.253906 1.683594,-0.3125 0.05078,0.07813 0.125,0.128906 0.21875,0.148438 0.699218,0.171875 1.3125,0.664062 1.851562,1.117187 0.539062,0.449219 1.109375,0.992188 1.636719,1.519531 1.347656,1.398438 2.59375,2.882813 3.738281,4.453126 1.964844,2.578124 4.34375,5.085937 7.707031,5.582031 1.460938,0.214843 3.480469,0.136719 4.476563,1.433593 0.292968,0.378907 0.910156,0.05469 0.664062,-0.386718 C 88.242188,74.886719 86.75,71.402344 84.28125,68.589844 83.125,67.21875 81.742188,66.140625 80.132812,65.351562 78.589844,64.625 76.953125,64.316406 75.292969,63.988281 c -0.894531,-0.191406 -1.796875,-0.328125 -2.707031,-0.414062 -0.625,-0.07031 -1.246094,-0.03516 -1.859376,0.101562 -0.0078,-0.01172 -0.02344,-0.02344 -0.03516,-0.03125 2.421875,-0.738281 4.886719,-1.277343 7.398438,-1.621093 1.5625,-0.203126 3.160156,-0.269532 4.742187,-0.375 0.09766,0 0.1875,-0.03125 0.265625,-0.08984 0.710938,0.03516 1.421875,0 2.136719,-0.03125 0.941406,-0.03125 1.9375,-0.08984 2.820313,0.265625 0.734374,0.339843 1.40625,0.785156 2.003906,1.332031 0.660156,0.539062 1.285156,1.011719 1.679687,1.789062 0.335938,0.753907 0.582031,1.539063 0.742188,2.347657 0.214843,0.855469 0.484375,1.691406 0.808593,2.507812 0.699219,1.808594 1.671876,3.457031 2.917969,4.945313 1.277344,1.488281 2.816407,2.96875 4.718753,3.589844 0.125,0.03125 0.23828,0.0078 0.33985,-0.07031 0.10156,-0.07422 0.15234,-0.179687 0.15625,-0.304687 0.0508,-1.253907 -0.29297,-2.527344 -0.60547,-3.742188 -0.3125,-1.214844 -0.46485,-2.503906 -0.906258,-3.671875 -0.210937,-0.566406 -0.492187,-1.085937 -0.855468,-1.566406 -0.425782,-0.519531 -0.910157,-0.972657 -1.457032,-1.359375 -0.59375,-0.464844 -1.207031,-0.90625 -1.839844,-1.324219 -0.542968,-0.355469 -1.125,-0.667969 -1.660156,-1.042969 -0.40625,-0.28125 -0.777344,-0.625 -1.1875,-0.894531 C 92.640625,64.148438 92.25,63.816406 91.898438,63.902344 91.5,63.429688 91.054688,63.003906 90.566406,62.628906 89.984375,62.085938 89.34375,61.625 88.644531,61.246094 c -0.277343,-0.136719 -0.570312,-0.238282 -0.871093,-0.3125 1.125,-0.148438 2.257812,-0.21875 3.394531,-0.207032 1.277343,0.05469 2.535156,0.296876 3.804687,0.4375 1.269532,0.140626 2.59375,0.390626 3.878906,0.628907 0.707032,0.136719 1.410158,0.269531 2.117188,0.398437 0.33984,0.0625 0.69531,0.148438 1.05469,0.210938 0.0781,0.132812 0.19531,0.207031 0.35156,0.222656 2.42578,0.253906 3.73047,2.875 5.19531,4.503906 0.40625,0.464844 0.85938,0.882813 1.35547,1.253906 0.60938,0.398438 1.26172,0.710938 1.95703,0.9375 1.7461,0.648438 3.57813,1.050782 5.34766,1.628907 1.86328,0.59375 3.55469,1.5 5.07812,2.722656 0.14454,0.128906 0.29297,0.132813 0.44532,0.01563 0.15234,-0.117188 0.18359,-0.261719 0.0977,-0.433594 -0.46875,-0.9375 -0.65625,-1.988281 -0.89843,-3.007812 0.77734,0.53125 1.5664,1.078125 2.03906,1.902344 0.27734,0.484374 0.48047,1.011718 0.73437,1.511718 0.27735,0.546875 0.58985,1.066406 0.94141,1.566406 0.65625,0.976563 1.44141,1.832032 2.35547,2.570313 0.90234,0.714844 1.94531,1.363281 2.5664,2.359375 0.11328,0.183594 0.26953,0.234375 0.46875,0.152344 0.19922,-0.08203 0.27344,-0.230469 0.22266,-0.4375 z m -20.13672,-19.5625 c -0.3125,-0.117188 -0.6289,-0.257813 -0.9414,-0.347656 -0.79297,-0.210938 -1.59766,-0.371094 -2.41016,-0.480469 -1.625,-0.238281 -3.26172,-0.332031 -4.90234,-0.273438 -1.625,0.05078 -3.261724,0.148438 -4.886724,-0.0625 -1.605468,-0.261719 -3.183594,-0.632812 -4.742187,-1.109375 -0.328125,-0.09766 -0.65625,-0.207031 -0.976563,-0.335937 0.597656,-0.136719 1.183594,-0.3125 1.753906,-0.496094 1.433594,-0.441406 2.789063,-0.800781 4.296876,-0.667969 1.511718,0.128906 3.000002,0.625 4.488282,0.972656 1.59375,0.382813 3.16797,0.800782 4.73828,1.253907 1.19922,0.375 2.64063,0.632812 3.58203,1.546875 z M 94.171875,55.140625 c 1.558594,-0.511719 3.148437,-0.652344 4.773437,-0.433594 2.976568,0.332031 5.933598,1.148438 8.410158,2.886719 0.56641,0.394531 1.09766,0.828125 1.59375,1.300781 -0.33984,-0.121093 -0.67969,-0.21875 -0.98438,-0.3125 -1.65625,-0.484375 -3.3125,-0.992187 -4.98828,-1.390625 -1.5664,-0.375 -3.13281,-0.84375 -4.722654,-1.089844 C 96.785156,55.875 95.351562,56 93.945312,56.484375 c -1.054687,0.386719 -2.125,0.722656 -3.214843,1.003906 l -0.08984,-0.03125 c -0.144531,-0.05078 -0.292969,-0.08984 -0.441406,-0.125 1.441406,-0.488281 2.527343,-1.6875 3.96875,-2.207031 z M 71.070312,56.769531 C 71.894531,55.476562 72.78125,54.226562 73.738281,53.027344 75.539062,50.835938 77.566406,48.6875 80.25,47.625 81.152344,47.261719 82.085938,47 83.046875,46.839844 c -0.414063,0.277344 -0.808594,0.59375 -1.203125,0.898437 -1.132812,0.890625 -2.363281,1.621094 -3.445312,2.601563 -2.398438,2.191406 -3.875,5.261718 -6.5,7.203125 -0.699219,0.519531 -1.542969,0.9375 -2.28125,1.472656 0.460937,-0.761719 0.953124,-1.511719 1.449218,-2.261719 z m 0.789063,1.417969 c 1.226563,-0.882812 2.296875,-1.929688 3.210937,-3.132812 0.941407,-1.1875 1.847657,-2.433594 2.90625,-3.53125 1.136719,-1.105469 2.367188,-2.089844 3.695313,-2.953126 0.429687,-0.316406 0.824219,-0.648437 1.253906,-0.960937 0.171875,-0.128906 0.351563,-0.253906 0.535157,-0.367187 -0.144532,0.136718 -0.28125,0.28125 -0.40625,0.433593 -0.4375,0.550781 -0.828126,1.136719 -1.214844,1.726563 -0.789063,1.199218 -1.648438,2.347656 -2.570313,3.445312 -0.894531,1.101563 -1.90625,2.089844 -3.027343,2.960938 -1.144532,0.839844 -2.34375,1.59375 -3.59375,2.261718 -1.09375,0.601563 -2.191407,1.171876 -3.304688,1.757813 0.761719,-0.644531 1.695312,-1.085937 2.511719,-1.65625 z m -21.089844,11.390625 0.04297,-0.07031 c -0.01563,0.01953 -0.02734,0.04688 -0.04297,0.07031 z m 2.785157,-18.53125 c 0.53125,-1.054687 1.320312,-1.9375 1.984374,-2.902344 -0.06641,0.285157 -0.128906,0.566407 -0.1875,0.851563 -0.214843,0.90625 -0.359374,1.824218 -0.441406,2.75 -0.109375,1.929687 0.371094,3.824218 0.675782,5.714844 0.265624,1.648437 0.398437,3.289062 -0.25,4.863281 C 54.816406,63.597656 53.9375,64.6875 53.078125,65.746094 52.425781,66.5 51.847656,67.304688 51.339844,68.160156 l 0.125,-0.335937 c 0.28125,-0.777344 0.511718,-1.570313 0.683594,-2.378907 0.351562,-1.605468 0.3125,-3.230468 0.292968,-4.867187 -0.01953,-1.671875 0.0625,-3.34375 0.246094,-5.007813 0.152344,-1.527343 0.167969,-3.132812 0.867188,-4.523437 z m -3.210938,8.496094 c 0.125,-1.734375 0.3125,-3.523438 0.824219,-5.191407 0.398437,-1.15625 1.003906,-2.191406 1.816406,-3.105468 -0.371094,1.058594 -0.589844,2.148437 -0.65625,3.265625 -0.152344,1.660156 -0.347656,3.289062 -0.347656,4.957031 0,1.664062 0.140625,3.445312 -0.117188,5.125 -0.144531,0.878906 -0.355469,1.75 -0.625,2.601562 C 51.007812,67.960938 50.671875,68.761719 50.5,69.53125 h -0.01953 c 0.285156,-3.316406 -0.378907,-6.652344 -0.13672,-9.988281 z m -3.980469,29.417969 c 1.359375,-0.589844 2.785157,-0.886719 4.269531,-0.882813 2.382813,-0.03906 4.832032,0.472656 6.578126,2.167969 0.589843,0.589844 1.125,1.230468 1.605468,1.914062 -0.492187,-0.105468 -0.984375,-0.128906 -1.484375,-0.06641 -1.367187,0.15625 -2.742187,0.238281 -4.121093,0.238281 -1.417969,-0.03125 -2.789063,-0.3125 -4.105469,-0.84375 C 48,91.042969 46.914062,90.53125 45.808594,90.105469 45.453125,89.96875 45.082031,89.835938 44.710938,89.714844 c 0.589843,-0.207032 1.144531,-0.515625 1.652343,-0.753906 z m -14,-26.625 c 1.011719,1.457031 1.527344,3.1875 2.03125,4.871093 0.25,0.835938 0.496094,1.671875 0.808594,2.503907 0.3125,0.835937 0.734375,1.617187 1.128906,2.414062 0.132813,0.261719 0.261719,0.527344 0.390625,0.792969 -0.476562,-0.445313 -1.027344,-0.839844 -1.46875,-1.285157 -0.804687,-0.816406 -1.625,-1.636718 -2,-2.753906 -0.355468,-1.046875 -0.488281,-2.191406 -0.703125,-3.277344 -0.179687,-1.082031 -0.460937,-2.136718 -0.847656,-3.167968 -0.21875,-0.5625 -0.511719,-1.082032 -0.875,-1.5625 0.609375,0.386718 1.121094,0.875 1.535156,1.464844 z m 4.480469,18.042968 c -0.601562,-0.902344 -1.25,-1.773437 -1.945312,-2.609375 C 34.207031,77.007812 33.582031,76.195312 33.019531,75.335938 32.570312,74.570312 32.21875,73.761719 31.96875,72.90625 31.03125,69.734375 31.515625,66.390625 30.863281,63.175781 30.6875,62.160156 30.347656,61.203125 29.835938,60.308594 l 0.277343,0.144531 c 1.253907,1.457031 1.742188,3.375 1.992188,5.296875 0.09375,1.066406 0.261719,2.117188 0.511719,3.15625 0.207031,0.683594 0.542968,1.289062 1.015624,1.820312 0.847657,2.378907 2.535157,4.386719 3.273438,6.804688 0.441406,1.414062 0.730469,2.859375 0.875,4.335938 -0.277344,-0.515626 -0.589844,-1.011719 -0.929688,-1.488282 z m 1.300781,0.492188 c -0.171875,-1.148438 -0.429687,-2.28125 -0.773437,-3.390625 -0.425782,-1.289063 -1,-2.503907 -1.722656,-3.652344 -0.488282,-0.816406 -1.003907,-1.632813 -1.4375,-2.484375 0.08594,0.08203 0.167968,0.160156 0.253906,0.238281 0.464844,0.421875 0.96875,0.78125 1.460937,1.171875 0.492188,0.390625 1.082031,0.851563 1.367188,1.46875 0.01172,0.03125 0.03516,0.05469 0.0625,0.07031 0.402343,0.929687 0.710937,1.890625 0.921875,2.882812 0.246094,1.027344 0.25,2.058594 0.02344,3.089844 -0.04687,0.203125 -0.09766,0.398437 -0.148437,0.605469 z m 12.785157,-2.136719 c 1.5625,-1.183594 3.128906,-2.550781 5.007812,-3.242187 0.824219,-0.316407 1.671875,-0.472657 2.554688,-0.464844 0.90625,0 1.738281,0.292968 2.628906,0.410156 1.71875,0.230469 3.539062,-0.207031 5.101562,-0.910156 0.84375,-0.425782 1.636719,-0.933594 2.378906,-1.515625 l 0.34375,-0.242188 c -0.605468,0.625 -1.136718,1.382813 -1.777343,1.953125 -0.621094,0.578125 -1.3125,1.054688 -2.066407,1.433594 -0.820312,0.347656 -1.675781,0.519531 -2.566406,0.519531 -0.875,0.02344 -1.734375,0.160157 -2.574218,0.410157 -0.886719,0.308593 -1.742188,0.6875 -2.566407,1.136718 -0.890625,0.484375 -1.828125,0.84375 -2.816406,1.074219 -1.011719,0.195313 -2.046875,0.191406 -3.066406,0.296875 -0.832031,0.08984 -1.636719,0.28125 -2.417969,0.578125 0.613281,-0.480469 1.21875,-0.964844 1.84375,-1.4375 z m -2.957032,2.300781 c 0.410156,-0.199218 0.835938,-0.363281 1.273438,-0.488281 0.804687,-0.269531 1.632812,-0.4375 2.480468,-0.507813 0.972657,-0.08203 1.949219,-0.08984 2.910157,-0.261718 0.875,-0.179688 1.707031,-0.46875 2.503906,-0.871094 0.855469,-0.453125 1.726563,-0.855469 2.625,-1.210938 0.851563,-0.285156 1.722656,-0.445312 2.617187,-0.476562 0.8125,0.0078 1.609376,-0.105469 2.386719,-0.335938 0.742188,-0.265624 1.425781,-0.644531 2.042969,-1.132812 0.699219,-0.550781 1.332031,-1.167969 1.902344,-1.851562 0.433594,-0.578126 0.941406,-1.082032 1.519531,-1.511719 -0.371094,0.433593 -0.71875,0.890625 -1.03125,1.371093 -0.519531,0.90625 -0.824219,1.917969 -1.40625,2.792969 -1,1.472657 -2.355469,2.441407 -4.070313,2.910157 -1.820312,0.519531 -3.742187,0.625 -5.601562,0.9375 -1.179688,0.226562 -2.367188,0.390624 -3.5625,0.488281 -1.148438,0.07422 -2.300781,0.07813 -3.445312,0.183593 -1.097657,0.08594 -2.191407,0.109376 -3.289063,0.07813 0.04297,-0.03906 0.09766,-0.07813 0.15625,-0.113282 z M 59.371094,70.203125 c 1.261718,-0.511719 2.5625,-0.859375 3.90625,-1.054687 1.285156,-0.191407 2.578125,-0.273438 3.824218,0.167968 0.886719,0.34375 1.703126,0.804688 2.457032,1.378906 -2.144532,0.167969 -4.269532,0.65625 -6.425782,0.628907 C 61.375,71.296875 59.542969,70.695312 57.78125,70.875 c 0.535156,-0.230469 1.070312,-0.457031 1.601562,-0.671875 z m 26.792968,6.148437 c -0.71875,-0.06641 -1.421874,-0.1875 -2.117187,-0.363281 -0.835937,-0.253906 -1.609375,-0.628906 -2.324219,-1.125 -1.410156,-0.96875 -2.558594,-2.296875 -3.617187,-3.632812 -1.25,-1.566407 -2.441407,-3.164063 -3.863281,-4.585938 -0.617188,-0.625 -1.265626,-1.214843 -1.945313,-1.773437 -0.226563,-0.183594 -0.464844,-0.375 -0.707031,-0.546875 1.285156,0.449219 2.582031,0.878906 3.859375,1.351562 1.445312,0.527344 2.816406,1.140625 3.949219,2.191407 0.988281,0.941406 1.820312,2.003906 2.78125,2.949218 1.175781,1.15625 2.386718,2.265625 3.515624,3.472656 0.582032,0.625 1.132813,1.273438 1.757813,1.855469 l 0.652344,0.628907 C 87.476562,76.566406 86.832031,76.425781 86.171875,76.351562 Z M 74.886719,64.589844 c 1.542969,0.3125 3.105469,0.601562 4.554687,1.25 3.265625,1.414062 5.410156,4.347656 7.101563,7.34375 0.503906,0.886718 0.980469,1.789062 1.453125,2.695312 -0.488282,-0.460937 -0.964844,-0.9375 -1.425782,-1.421875 -1.179687,-1.253906 -2.429687,-2.453125 -3.695312,-3.617187 -1.050781,-0.957032 -1.929688,-2.082032 -2.953125,-3.070313 -0.464844,-0.460937 -0.972656,-0.871093 -1.519531,-1.230469 -0.667969,-0.386718 -1.363282,-0.707031 -2.09375,-0.957031 -1.605469,-0.601562 -3.285156,-0.980469 -4.914063,-1.519531 1.179688,-0.02344 2.414063,0.292969 3.507813,0.527344 z M 95,66.816406 c 0.589844,0.398438 1.167969,0.816406 1.734375,1.25 0.976563,0.738282 1.792969,1.476563 2.25,2.636719 0.417969,1.054687 0.574219,2.191406 0.886719,3.28125 0.320316,0.953125 0.566406,1.929687 0.734376,2.921875 -0.19141,-0.191406 -0.38672,-0.378906 -0.57031,-0.570312 C 99.671875,75.953125 99.308594,75.574219 98.984375,75.164062 98.320312,74.261719 97.808594,73.277344 97.460938,72.207031 96.714844,70.246094 95.851562,68.292969 94.554688,66.625 94.503908,66.55859 94.445312,66.5 94.394531,66.433594 94.597656,66.550781 94.800781,66.679688 95,66.816406 Z m -2.367188,-1.71875 0.214844,0.175782 c 1.230469,1.226562 2.203125,2.625 2.921875,4.203124 0.457031,0.972657 0.835938,1.972657 1.207031,2.980469 0.328126,1.03125 0.800782,1.992188 1.417969,2.882813 0.328125,0.441406 0.683594,0.859375 1.0625,1.253906 0.07031,0.07031 0.136719,0.140625 0.199219,0.210938 -1.042969,-0.742188 -1.96875,-1.613282 -2.777344,-2.605469 -1.277344,-1.5 -2.265625,-3.171875 -2.96875,-5.011719 -0.527344,-1.355469 -0.789062,-2.820312 -1.367187,-4.167969 z m 24.898438,5.40625 c -1.82031,-0.730468 -3.73437,-1.203125 -5.58594,-1.828125 -0.78515,-0.226562 -1.53125,-0.539062 -2.24218,-0.9375 -0.4961,-0.328125 -0.94141,-0.710937 -1.33204,-1.15625 -0.86328,-0.9375 -1.5664,-2.003906 -2.42968,-2.933593 -0.19141,-0.203126 -0.39063,-0.394532 -0.59766,-0.574219 0.78516,0.1875 1.57813,0.328125 2.37891,0.429687 1.35547,0.210938 2.66406,0.40625 3.83203,1.179688 1.10547,0.734375 2.05469,1.710937 3.01953,2.621094 1.02734,1.007812 2.11328,1.949218 3.26172,2.816406 0.57812,0.421875 1.27734,0.679687 1.82812,1.136718 0.25391,0.226563 0.46875,0.484376 0.64453,0.777344 -0.87109,-0.617187 -1.79687,-1.125 -2.78125,-1.53125 z m 2.69922,0.535156 c -0.46094,-0.398437 -0.97266,-0.730468 -1.52344,-0.996093 -1.27344,-0.734375 -2.36719,-1.832031 -3.44531,-2.816407 -0.94531,-0.949218 -1.94141,-1.839843 -2.98438,-2.671874 -0.51171,-0.386719 -1.0625,-0.699219 -1.65625,-0.941407 -0.63671,-0.230469 -1.28515,-0.394531 -1.95703,-0.488281 -0.80468,-0.128906 -1.61328,-0.234375 -2.41406,-0.386719 -0.35156,-0.06641 -0.6875,-0.152343 -1.02734,-0.246093 2.61718,0.02734 5.28906,0.03125 7.74609,0.9375 1.28125,0.5 2.48047,1.152343 3.59766,1.957031 1.11328,0.78125 2.23828,1.71875 2.94922,2.890625 0.58593,0.972656 0.79687,2.082031 1.05468,3.179687 -0.10156,-0.148437 -0.21484,-0.289062 -0.33984,-0.417969 z m 7.58203,6.238282 c -0.94922,-0.796875 -1.75781,-1.710938 -2.43359,-2.746094 -0.625,-1 -1.01563,-2.148438 -1.66797,-3.128906 -0.71875,-1.089844 -1.92969,-1.703125 -2.98047,-2.417969 -0.0469,-0.03125 -0.0977,-0.05469 -0.15234,-0.07031 -0.0898,-0.25 -0.19532,-0.492187 -0.31641,-0.730468 -0.19531,-0.367188 -0.42969,-0.710938 -0.69531,-1.03125 0.96093,0.445312 1.98828,0.738281 2.86718,1.34375 0.92188,0.636718 1.76954,1.371094 2.53516,2.191406 0.79297,0.808594 1.48828,1.695312 2.08594,2.652344 0.52734,0.925781 0.95312,1.898437 1.27734,2.914062 0.23438,0.683594 0.44531,1.375 0.67969,2.0625 -0.39453,-0.355468 -0.8125,-0.691406 -1.20313,-1.039062 z M 127.60938,73.375 c -0.57032,-0.96875 -1.23829,-1.859375 -2.00782,-2.679688 -0.7539,-0.855468 -1.58984,-1.625 -2.5039,-2.308593 -0.52735,-0.402344 -1.10157,-0.722657 -1.71875,-0.964844 -0.66016,-0.242187 -1.35157,-0.347656 -2.02735,-0.535156 -0.47265,-0.523438 -0.98828,-1.003907 -1.54297,-1.4375 0.39844,0.07031 0.79688,0.128906 1.1875,0.230469 0.625,0.148437 1.23047,0.355468 1.8125,0.625 1.13282,0.570312 2.17579,1.269531 3.13282,2.101562 2.09375,1.75 4.46875,3.550781 5.19921,6.308594 0.17969,0.84375 0.25,1.699218 0.21485,2.566406 v 0.65625 c -0.5,-1.554688 -0.95313,-3.128906 -1.75,-4.5625 z m 0,0"
       fill-opacity="1"
       fill-rule="nonzero"
       id="path23" />
  </g>
  <path
     fill="#bba43f"
     d="m 70.139337,176.81186 c -0.832031,-3.6211 -0.800781,-7.35938 -1.027343,-11.04688 -0.152344,-4.24609 -0.324219,-8.48047 -0.367188,-12.73047 -0.175781,1.35157 -0.121093,2.71485 -0.21875,4.06641 -0.117187,3.15234 -0.34375,6.30859 -0.582031,9.46484 -0.269531,3.63282 -0.660156,7.25 -0.539062,10.89454 0.0625,1.0039 0.171874,2.13671 0.949218,2.88281 0.777344,0.74609 2.074219,1.05078 3.199219,1.1914 1.589844,0.16016 3.179687,0.23047 4.777344,0.20313 -1.503907,-0.45313 -3.058594,-0.86328 -4.386719,-1.75 -1.0625,-0.72266 -1.535156,-1.97656 -1.804688,-3.17578 z m 0,0"
     fill-opacity="1"
     fill-rule="nonzero"
     id="path24" />
  <path
     fill="#bba43f"
     d="m 94.010439,84.999361 c 0.25781,-0.91797 -0.22657,-1.78516 -0.39063,-2.66016 0.72266,-0.77734 1.89063,-0.89453 2.89453,-0.77734 -0.24218,0.32031 -0.4414,0.66406 -0.59375,1.03906 0.20703,-0.30469 0.40235,-0.61719 0.60547,-0.92187 l 0.41016,-0.11719 c -1.32813,-0.39844 -2.66797,0.10937 -3.92188,0.51953 -1.2539,0.41016 -2.24609,1.31641 -2.42187,2.59375 -0.20313,1.02734 0.17578,2.04297 0.69531,2.91797 1.12109,-0.57422 2.35547,-1.30859 2.72266,-2.59375 z m 0,0"
     fill-opacity="1"
     fill-rule="nonzero"
     id="path25" />
  <path
     fill="#bba43f"
     d="m 107.862,82.233731 c 0.41016,0.49219 0.88281,0.91797 1.41797,1.27344 -0.37891,-0.46484 -0.875,-0.83203 -1.19922,-1.32812 -0.32422,-0.5 -0.23828,-1.33203 -0.39063,-2 -0.18359,-1.199222 -1.21093,-2.16016 -2.35546,-2.476566 -0.85547,-0.246094 -1.73047,-0.03125 -2.57032,0.109375 0.32422,0.941406 0.625,1.957031 1.3711,2.660161 1.05859,0.97265 2.86328,0.52734 3.72656,1.76171 z m 0,0"
     fill-opacity="1"
     fill-rule="nonzero"
     id="path26" />
  <path
     fill="#bba43f"
     d="m 41.662775,83.518891 c 0.800781,-0.64844 1.921875,-0.21875 2.789062,-0.72656 0.863282,-0.50781 1.339844,-1.56641 1.804688,-2.47266 -0.746094,-0.28125 -1.558594,-0.43359 -2.355469,-0.30469 -0.496093,0.0859 -0.941406,0.28907 -1.332031,0.60547 -0.390625,0.31641 -0.679688,0.71094 -0.863281,1.17969 -0.238281,0.58203 -0.214844,1.23047 -0.433594,1.81641 -0.214844,0.58203 -0.839844,1.10156 -1.210937,1.68359 0.5625,-0.57031 0.984374,-1.26172 1.601562,-1.78125 z m 0,0"
     fill-opacity="1"
     fill-rule="nonzero"
     id="path27" />
  <g
     clip-path="url(#6073a8c3b1)"
     id="g28"
     transform="translate(-14.805975,-20.199859)">
    <path
       fill="#bba43f"
       d="m 78.136719,105.03516 c 0.363281,-0.57422 0.765625,-1.125 1.199219,-1.65235 0.886718,0.66016 1.769531,1.67578 2.992187,1.50391 0.574219,-0.0977 0.617187,-0.74609 0.722656,-1.20313 0.109375,-0.45312 0.402344,-0.375 0.640625,-0.52734 0.238282,-0.15234 -0.02344,-0.46484 -0.05469,-0.67969 0.539062,-0.0781 0.875,-0.48828 0.992187,-0.99609 0.445313,0 1.058594,0.26953 1.363282,-0.17188 0.183593,-0.83203 -0.140626,-1.695309 0.04297,-2.539059 0.84375,-0.800781 1.382813,-1.890625 1.652344,-3.027343 0.59375,-0.128907 1.285156,-0.171876 1.730469,-0.648438 0.335937,-0.335938 0.542969,-0.738281 0.617187,-1.207031 0.07422,-0.46875 0.0078,-0.917969 -0.207031,-1.34375 -0.550781,-1.058594 -1.414063,-1.921875 -2.410156,-2.550781 -0.992188,-0.625 -1.933594,-0.65625 -2.746094,-1.296876 -0.808594,-0.636718 -1.609375,-1.46875 -2.679687,-1.738281 -1.859376,-0.398437 -3.933594,0.03125 -5.359376,1.320313 -1.246093,1.128906 -2.117187,2.496094 -2.613281,4.105468 -0.574219,1.921876 -0.226562,3.964844 -0.617187,5.910157 -0.09766,0.488281 -0.421875,0.863281 -0.679688,1.273437 1.457032,2.140624 3.585938,3.664064 5.414064,5.468754 z m 0,0"
       fill-opacity="1"
       fill-rule="nonzero"
       id="path28" />
  </g>
  <path
     fill="#bba43f"
     d="m 90.940119,175.74155 c -3.2539,-3.13282 -5.804688,-6.92579 -7.84375,-10.94922 -3.199219,-6.375 -5.222656,-13.26953 -6.679688,-20.22657 -1.460937,-6.96093 -2.507812,-14.08203 -3.046875,-21.20312 -0.02344,3.42578 0.171875,6.85156 0.214844,10.28516 0.355469,11.76953 0.347656,23.57031 1.296875,35.3164 0.3125,3.08203 0.605469,6.17188 1.371094,9.17578 0.359375,1.3086 0.769531,2.66016 1.707031,3.67578 0.585937,0.59375 1.449219,0.74219 2.238281,0.78907 2.300782,0.10547 4.605469,0.0937 6.906258,0.0742 4.625,-0.0859 9.26172,-0.14063 13.875001,-0.55079 -1.070321,-0.49609 -2.195321,-0.89843 -3.230471,-1.48046 -2.4961,-1.27735 -4.77735,-2.97266 -6.8086,-4.90625 z m 0,0"
     fill-opacity="1"
     fill-rule="nonzero"
     id="path29" />
  <g
     clip-path="url(#74557ef54d)"
     id="g30"
     transform="translate(-14.805975,-20.199859)">
    <path
       fill="#bba43f"
       d="m 128.20312,123.6875 c 0.57032,-1.49219 0.67969,-3.11328 0.83985,-4.6875 0.21875,-0.19531 0.15234,-0.48828 -0.008,-0.69141 -0.0898,-0.58984 -0.1211,-1.17968 -0.0859,-1.77343 0.23437,0.55078 0.24609,1.16797 0.17187,1.75 0.10938,0.0312 0.2461,0.0547 0.28125,-0.0977 0.34375,-0.90625 1.07032,-1.56641 1.64063,-2.32422 0.41406,-0.51953 0.6914,-1.10937 0.83594,-1.75781 0.14062,-0.65234 0.13281,-1.30078 -0.0234,-1.94922 -0.26953,-1.27344 -1.07031,-2.33203 -1.85938,-3.32812 -1.15625,1.27734 -2.05468,2.9414 -1.87109,4.71484 -0.44141,-1.55859 -1.19922,-2.98438 -1.94531,-4.39844 0.5,-0.71484 0.89844,-1.48047 1.40625,-2.17187 0.50781,-0.69532 1.04687,-1.83985 0.98437,-2.89844 -0.0547,-1.89063 -1.33984,-3.48047 -2.76562,-4.601564 -0.7461,1.468754 -1.32031,3.109374 -1.0625,4.785154 0.15234,1.26563 1.21094,2.14063 1.55859,3.32813 l -0.3789,0.91797 c -0.5625,-0.63672 -1.00391,-1.3711 -1.54688,-2.01953 -1.14453,-1.38672 -2.44531,-2.60938 -3.89844,-3.66407 -0.6914,-0.50781 -1.47265,-0.86328 -2.14062,-1.39453 -0.66797,-0.82812 -1.11328,-1.765624 -1.33985,-2.808592 -0.25,-1.132813 -1.28515,-1.964844 -2.41015,-2.140626 -0.875,-0.160156 -1.77344,0.109376 -2.53906,0.519532 0.48437,0.886718 1.01562,1.902344 2.03125,2.292968 1.01562,0.386719 1.94531,0.203126 2.85156,0.527344 0.48828,0.421874 0.75781,1.027344 1.14844,1.535154 -1.94532,-0.9414 -4,-1.871091 -6.20313,-1.828122 -2.20703,0.04297 -4.20703,0.390624 -5.87891,1.656252 1.98829,-0.83203 4.21485,-1.11328 6.33204,-0.69141 1.89843,0.38672 3.6875,1.07031 5.35937,2.05078 -1.46875,0 -3.1875,0.0117 -4.24609,1.19141 -1.0586,1.17578 -0.96094,2.78516 -0.61719,4.17969 1.14453,-0.30078 2.39844,-0.63672 3.1875,-1.59766 0.78906,-0.96094 0.8125,-2.11719 1.1875,-3.17969 1.01953,-0.42968 2.03516,0.17578 2.80078,0.8125 1.38281,1.10157 2.71094,2.3125 3.76172,3.75 L 123.1875,107.5 c -0.66016,-0.19531 -0.85156,-1.01562 -1.54687,-1.15625 -0.69141,-0.14062 -1.24219,0.58203 -1.71485,1.04688 0.33203,0.44531 0.69922,0.9414 1.25391,1.13671 0.55078,0.19532 0.91797,-0.39062 1.42578,-0.39843 l -0.32422,-0.0469 c 0.36719,-0.53906 1.19922,-0.41797 1.64063,-0.0508 0.6914,0.875 1.19921,1.87891 1.73046,2.86328 -0.45312,0.0977 -0.95312,0.20313 -1.39453,0 -1.04687,-0.40234 -2.08593,-1.02734 -3.2539,-0.91015 -1.5,0.13281 -2.69141,1.24218 -3.48047,2.44531 1.33984,0.53906 2.61719,1.46875 4.11719,1.37109 1.23437,-0.043 2.26953,-0.86328 2.99609,-1.80469 0.28906,-0.39843 0.76562,-0.53906 1.21094,-0.67968 0.5039,0.98828 0.90234,2.01562 1.1875,3.08984 1.03906,4.28906 0.46484,9.09766 -2.09766,12.76172 0.19531,-1.14453 0.71484,-2.33594 0.32422,-3.49219 -0.58203,-1.46875 -2.11719,-2.26562 -3.54297,-2.73047 -0.46484,1.03516 -0.77734,2.19141 -0.53125,3.32813 0.17578,0.85156 0.77734,1.51172 1.38281,2.10547 0.60547,0.59375 1.02735,0.82031 1.3086,1.41406 0.28125,0.59765 -0.11719,1.27734 -0.4961,1.7539 -2.9414,3.48829 -6.51562,6.34375 -9.93359,9.34766 -2.3125,2.01953 -4.625,4.05078 -6.60156,6.39453 -1.70703,2.04297 -3.11328,4.39844 -3.83594,6.97266 1.35156,-2.60547 3.31641,-4.83203 5.40234,-6.86328 2.34766,-2.26953 4.90625,-4.30078 7.41407,-6.38672 0.35546,-0.32422 0.85546,-0.30078 1.30859,-0.23828 1.17578,0.16406 2.41016,0.0859 3.5,-0.42188 1.4375,-0.625 2.42187,-1.90234 3.19922,-3.21875 -1.15625,-0.32422 -2.36719,-0.57422 -3.56641,-0.32422 1.89844,-1.59375 3.6211,-3.35937 5.16406,-5.29687 0.26172,-0.30078 0.51172,-0.66797 0.95313,-0.69922 1.21094,-0.19531 2.49609,-0.48828 3.39453,-1.38672 1.31641,-1.27344 1.66406,-3.23047 1.54297,-4.99219 -1.07813,0.26172 -2.21485,0.5625 -3.1211,1.25391 z m 0,0"
       fill-opacity="1"
       fill-rule="nonzero"
       id="path30" />
  </g>
  <path
     fill="#bba43f"
     d="m 108.30731,95.839201 c -1.07031,0.0625 -2.34765,-0.0977 -3.17969,0.73438 -0.83203,0.83203 -0.90625,1.96484 -0.85156,3.02344 1.04688,-0.0547 2.22656,-0.20313 2.98047,-1.02735 0.75781,-0.82031 0.62891,-1.70703 1.02734,-2.52734 0.66016,-0.0742 1.33985,-0.0977 1.98829,-0.2461 -0.15235,1.06641 -0.99219,2.03125 -0.66797,3.15235 0.32422,1.124999 1.52343,1.492189 2.52734,1.621089 0.26953,-0.746089 0.41016,-1.738279 -0.21484,-2.355469 -0.62891,-0.61328 -1.27735,-0.60547 -1.74219,-1.15625 0.0859,-0.3789 0.15234,-0.76562 0.26953,-1.14453 0.12109,-0.3789 0.5,-0.82031 0.45703,-1.30859 -0.043,-0.48438 -0.35937,-1.23047 -0.64062,-1.79297 0.15234,0.83203 0.67187,1.77344 0.10937,2.5625 -0.51953,0.60547 -1.37109,0.39844 -2.0625,0.46484 z m 0,0"
     fill-opacity="1"
     fill-rule="nonzero"
     id="path31" />
  <path
     fill="#bba43f"
     d="m 41.674494,99.272801 c 0.753906,0.61718 1.761719,0.734369 2.691406,0.843749 0.128906,-1.027349 0.04297,-2.195319 -0.738281,-2.960939 -0.539063,-0.59375 -1.371094,-0.77734 -2.136719,-0.77734 -0.992187,0.0195 -1.890625,-0.25391 -2.703125,-0.82032 -0.496094,-0.3789 -0.519531,-1.05078 -0.53125,-1.62109 h 0.292969 l -0.140625,-0.31641 c 0.07813,-0.20312 0.128906,-0.39843 0.195312,-0.60156 -0.347656,0.57031 -0.722656,1.26172 -0.464844,1.95313 0.257813,0.6914 0.507813,1.70703 0.703126,2.57421 -0.660157,0.26954 -1.382813,0.55079 -1.804688,1.15625 -0.421875,0.60547 -0.238281,1.535159 -0.05469,2.269539 1.199219,-0.19532 2.625,-1.093749 2.441407,-2.488289 -0.214844,-0.96093 -0.648438,-1.85546 -0.917969,-2.80859 0.585938,0.30469 1.210938,0.51953 1.792969,0.82031 0.53125,0.875 0.585937,2.04297 1.375,2.77735 z m 0,0"
     fill-opacity="1"
     fill-rule="nonzero"
     id="path32" />
  <path
     fill="#bba43f"
     d="m 42.463556,91.350921 c -1.265625,-0.26953 -2.378906,0.55469 -3.589843,0.78125 0.671874,1.11328 1.492187,2.28906 2.808593,2.64453 1.320313,0.35938 2.605469,-0.34375 3.792969,-0.83984 -0.65625,-1.15625 -1.617188,-2.33594 -3.011719,-2.58594 z m 0,0"
     fill-opacity="1"
     fill-rule="nonzero"
     id="path33" />
  <g
     clip-path="url(#e84956df1e)"
     id="g34"
     transform="translate(-14.805975,-20.199859)">
    <path
       fill="#bba43f"
       d="m 118.26953,191.41406 c -3.52344,-4.55078 -6.16015,-9.70703 -8.40625,-14.98047 -2.48437,-5.99609 -4.39844,-12.22265 -6.27734,-18.43359 -1.88281,-6.21484 -3.695315,-12.17969 -6.355471,-17.97266 -1.089844,-2.16015 -2.214844,-4.59375 -4.464844,-5.76953 0.183594,-0.25 0.339844,-0.51562 0.464844,-0.80078 1.007812,-2.42187 1.902343,-4.88281 2.714843,-7.37109 0.808594,-2.48438 1.652344,-4.78516 2.050782,-7.28125 -0.105469,2.11719 -0.765625,4.13672 -1.390625,6.14844 -0.359375,1.23046 -0.757813,2.61328 -0.164063,3.83593 0.25,0.5625 0.855469,0.78906 1.320313,1.11328 0.183593,0.94141 0.05078,2.01172 0.667969,2.82032 0.875,1.11328 2.648442,1.32812 3.835942,0.61718 1.1914,-0.71484 1.39453,-2.55078 0.82031,-3.80468 -0.21485,-0.53907 -0.66797,-0.91797 -0.99219,-1.38282 0.48438,-0.99609 1.49219,-1.75 1.62109,-2.91796 0.12891,-1.16797 -0.43359,-2.04297 -1.24218,-2.64844 -0.37891,-0.35547 -0.9961,-0.72266 -0.82032,-1.32813 0.48438,-1.33984 1.78125,-2.26953 2.05079,-3.70703 0.19531,-1.05859 -0.45313,-2.01172 -1.15625,-2.72265 -0.70313,-0.71485 -1.3711,-1.29688 -1.39454,-2.25782 -0.0312,-1.53515 1.375,-2.64843 1.375,-4.17187 0,-1.52344 -1.14843,-2.39063 -1.40625,-3.6875 -0.25781,-1.29688 0.19532,-2.73438 -0.36718,-4.00781 -0.63672,-1.511724 -2.117191,-2.48438 -3.640629,-2.941411 C 96.019531,97.472656 95.285156,96.5 94.203125,96.195312 93.125,95.894531 91.980469,95.667969 90.996094,96.21875 c -0.984375,0.550781 -1.296875,1.394531 -1.328125,2.3125 -0.53125,0.496094 -1.070313,0.984375 -1.546875,1.52344 -0.335938,0.35547 -0.28125,0.9414 -0.691406,1.24219 -0.550782,0.61718 -1.320313,0.92968 -2.066407,1.22265 0.152344,0.45313 0.726563,0.9375 0.359375,1.42578 -0.226562,0.26953 -0.164062,0.60547 -0.09766,0.91797 l -0.226562,0.32422 c 0.148437,0.71484 -0.378907,1.38281 -0.175782,2.07422 0.605469,0.72656 1.667969,0.67187 2.453125,1.09375 0.789063,0.42187 1.417969,1.33984 1.804688,2.20312 0.390625,0.86329 0.84375,1.95704 1.050781,2.99219 0.128906,0.59375 -0.152344,1.15625 -0.433594,1.65625 -0.960937,1.60938 -2.148437,3.05469 -3.382812,4.46094 -0.746094,0.85547 -1.609375,1.60156 -2.34375,2.47656 -0.734375,0.875 -0.628906,1.79297 -0.453125,2.6875 0.183593,1.17969 0.796875,2.21875 1.414062,3.21094 -1.398437,-0.45313 -2.691406,-1.11328 -3.878906,-1.97656 0.152344,-4.625 0.238281,-9.26172 0.378906,-13.88672 0.03125,-0.94141 0.386719,-1.97656 -0.09766,-2.85156 -0.84375,-1.02735 -1.878906,-1.89454 -2.636719,-2.98438 0.203125,-0.39844 0.410156,-0.80859 0.636719,-1.19922 -0.550781,-0.19531 -1.328125,-0.53125 -1.75,0.0742 -0.519531,-0.61328 -1.136719,-1.23047 -1.976563,-1.33984 0.05469,1.11328 0.398438,2.18359 0.625,3.26562 0.109376,0.17188 0.07813,0.625 0.390626,0.50781 0.398437,-0.33593 0.65625,-0.80078 1.046874,-1.14453 0.292969,0.41016 0.304688,0.92578 0.433594,1.39063 0.625,2.80078 1.058594,5.65234 1.113282,8.52734 -0.01172,0.25 0.07422,0.55078 -0.09766,0.76953 0,-0.76953 -0.269531,-1.49218 -0.433593,-2.22656 -0.929688,-3.56641 -2.0625,-7.13281 -3.847657,-10.375 -0.582031,-1.03906 -1.210937,-2.04297 -1.769531,-3.10156 -0.433594,-0.67188 -0.683594,-1.44922 -1.203125,-2.062502 -0.925781,0.863282 -1.328125,2.203122 -2.472656,2.839842 -2.160157,1.27735 -4.453125,2.33594 -6.722657,3.40625 -0.441406,0.21485 -1.027343,0.32422 -1.210937,0.85156 -0.605469,1.56641 -0.464844,3.28516 -0.496094,4.92969 -0.01172,3.42578 0.07422,6.85938 0.398438,10.27344 0.292969,2.80078 0.574219,5.64453 1.449219,8.34375 0.195312,0.77734 0.929687,1.16797 1.578124,1.5039 -0.421874,2.15625 -0.71875,4.32813 -0.898437,6.51563 -2.570313,-2.36719 -5.183594,-4.69141 -7.519531,-7.29297 -0.476563,-0.53125 -1.003906,-1.0625 -1.316406,-1.71094 -0.316407,-0.64843 0.0078,-1.29687 0.441406,-1.75781 0.734375,-0.8125 1.597656,-1.62109 1.871094,-2.72656 0.269531,-1.10156 -0.21875,-2.41016 -0.832032,-3.42578 -1.265625,0.59765 -2.691406,1.35156 -3.148437,2.76953 -0.355469,1.10156 0.109375,2.19141 0.335937,3.26172 -1.414062,-2.03125 -2.183594,-4.48438 -2.464844,-6.9375 -0.257812,-3.51172 0.640626,-7.08985 2.453126,-10.10547 0.292968,-0.53906 0.769531,-0.97266 1.027343,-1.53125 l 0.238281,0.42969 c 0.488282,-0.33594 1.09375,-0.21485 1.644532,-0.22657 0.300781,0.48829 0.605468,1.1875 1.285156,1.15625 0.679688,-0.0312 1.027344,-0.66796 1.449219,-1.08984 -0.457031,-0.42187 -0.898438,-1.03906 -1.589844,-1.02734 -0.691406,0.0117 -0.984375,0.48437 -1.46875,0.72265 -0.488281,0.23828 -0.910156,0.12891 -1.351563,0.20703 l 0.109376,-0.34765 c 1.125,-1.25391 2.398437,-2.33594 3.824218,-3.24219 0.949219,-0.67969 2.105469,-1.52344 2.074219,-2.82812 -0.390625,0.20312 -0.5625,0.65625 -0.917969,0.90625 -0.898437,0.6914 -1.976562,1.08984 -2.886718,1.75 -1.695313,1.125 -3.113282,2.63671 -4.277344,4.28906 -0.238282,-0.0859 -0.25,-0.38672 -0.304688,-0.59375 0.140625,-1.10156 1.234375,-1.71875 1.589844,-2.74219 0.722656,-1.57812 0.152344,-3.39453 -0.757812,-4.76562 -1.003907,0.71093 -1.921876,1.6289 -2.386719,2.78515 -0.464844,1.15625 -0.378907,2.28125 0.117187,3.29688 0.433594,0.91406 0.90625,1.80468 1.425782,2.66797 -0.484376,0.6914 -0.851563,1.4375 -1.230469,2.19531 0.207031,-1.70703 -0.722657,-3.27344 -1.824219,-4.50781 -1.203125,1.54687 -2.3125,3.39453 -1.96875,5.40625 0.207031,1.78125 2.03125,2.76562 2.421875,4.46093 -0.08594,2.19532 0.09766,4.42188 0.753906,6.52735 -0.875,-0.58203 -1.910156,-0.8086 -2.925781,-1.00391 -0.06641,1.79297 0.289062,3.76953 1.695312,5.01172 0.917969,0.89844 2.238282,1.08203 3.457032,1.2539 0.445312,0.0547 0.660156,0.47657 0.929687,0.76954 0.519531,0.66796 1.136719,1.24218 1.71875,1.85937 -1.273437,-0.40234 -2.625,-0.34766 -3.921875,-0.0898 0.691406,1.57031 1.71875,3.17968 3.394532,3.8164 1.121093,0.45313 2.34375,0.33594 3.519531,0.23828 0.691406,-0.10937 1.148437,0.48438 1.613281,0.86329 1.1875,1.07031 2.453125,2.05468 3.566406,3.19921 -0.28125,2.78907 -0.359375,5.58594 -0.347656,8.38672 L 64.671875,148.25 c 0.140625,2.45312 0.332031,4.90625 0.710937,7.32812 0.207032,1.60938 0.550782,3.21094 0.691407,4.83204 0.03516,1.13281 -0.160157,2.26953 -0.289063,3.39062 -0.78125,5.48047 -1.65625,10.98047 -1.675781,16.53516 0,3.66797 0.28125,7.3125 0.851563,10.9375 0.226562,0.98047 -0.234376,1.93359 -0.410157,2.89453 -0.171875,0.96094 0.08594,2.1289 0.140625,3.19922 0.109375,0.84375 0.01172,1.70703 0.152344,2.55078 0.539062,0.64844 1.5,0.60547 2.171875,1.03515 0.398437,0.47657 0.582031,1.11329 1.070313,1.51563 0.484374,0.39844 1.003906,0.52734 1.554687,0.67969 1.566406,0.42187 3.210937,0.36718 4.820313,0.39062 0.488281,-0.0234 1.003906,0.008 1.449218,-0.21875 0.441406,-0.22656 0.355469,-0.80859 0.269532,-1.19922 -0.226563,-0.78906 -1.101563,-1.04687 -1.652344,-1.57812 -0.8125,-0.76563 -1.601563,-1.59766 -2.128906,-2.59375 0.832031,0.36719 1.316406,1.17969 1.945312,1.80469 0.441406,0.5625 1.164062,0.75781 1.824219,0.92968 1.136719,0.25 2.300781,0.21875 3.449219,0.17578 0.59375,-0.0469 1.210937,-0.0547 1.78125,-0.25 0.746093,-0.20703 0.660156,-1.39453 0.09766,-1.73828 -1.210938,-0.34765 -2.519532,-0.51172 -3.578125,-1.24609 -0.765625,-0.58203 -1.15625,-1.48828 -1.609375,-2.3125 0.06641,-0.375 0.140625,-0.78906 -0.07422,-1.13281 -0.3125,-0.51953 -0.855469,-0.85547 -1.277344,-1.28516 1.429688,-3.63281 1.535157,-7.57812 1.804688,-11.42187 0.410156,-6.25782 0.703125,-12.52735 1.308593,-18.76172 0.679688,-7.06641 1.609376,-14.14453 3.566407,-20.98828 0.3125,-1.10938 0.746093,-2.20313 0.984375,-3.33594 0.339844,0.42969 0.765625,0.73047 1.285156,0.90625 1.597656,0.60547 3.339844,0.47656 5.003906,0.67969 0.832032,0.0977 1.773438,0.18359 2.472656,-0.35547 0.175782,-0.11719 0.457032,-0.39063 0.28125,-0.59375 -0.667968,-0.15235 -1.351562,0.0977 -2.03125,0 1.050782,-0.41016 2.484376,-0.0664 3.199219,-1.13672 l -0.757812,0.043 c 0.601562,-0.14063 1.101562,-0.44922 1.492187,-0.92578 -0.152344,-0.40235 -0.476562,-0.5625 -0.886718,-0.53125 l 0.390624,-0.4336 c -0.28125,-0.41015 -0.8125,-0.42187 -1.230468,-0.58203 0.34375,-0.32422 0.851562,-0.0977 1.175781,0.15234 1.363281,1.11329 2.238281,2.67969 3.046875,4.21485 1.285156,2.64453 2.257812,5.44531 3.125,8.2539 2.085937,6.94922 3.597657,14.05079 5.519527,21.03907 1.51563,5.60937 3.19141,11.1875 5.38281,16.5664 1.83594,4.4336 3.94532,8.83985 7.10938,12.47266 1.15625,1.26562 2.43359,2.51953 4.04297,3.1875 0.95312,0.42187 2.01172,0 2.85156,-0.47656 0.45703,-0.28907 1.05078,-0.55078 1.22266,-1.10157 -0.10938,-0.74609 -0.67969,-1.28515 -1.17578,-1.80468 -2.1211,-2.03516 -4.07813,-4.21875 -5.8711,-6.54688 z M 50.101562,116.80469 c -0.332031,-0.97266 0.132813,-1.94531 0.574219,-2.78906 -0.152343,0.92968 -0.519531,1.82812 -0.574219,2.78906 z m 30.496094,24.68359 c 0.109375,-1.03906 0.292969,-2.06641 0.445313,-3.09375 l 0.355469,0.18359 c -0.226563,0.98438 -0.539063,1.9375 -0.800782,2.91016 z m 3.199219,-8 c -0.765625,-0.47266 -1.652344,-0.66797 -2.484375,-1.00391 0,-1.02734 0.08594,-2.04296 0.07422,-3.05859 1.105469,1.11328 2.304687,2.15234 3.644531,2.97266 -0.441406,0.33203 -0.851562,0.69531 -1.234376,1.08984 z m 0,0"
       fill-opacity="1"
       fill-rule="nonzero"
       id="path34" />
  </g>
  <g
     fill="#bba43f"
     fill-opacity="1"
     id="g37"
     transform="translate(-14.805975,-20.199859)">
    <g
       transform="translate(14.16535,231.21272)"
       id="g36">
      <g
         id="g35">
        <path
           d="m 15.015625,-18.59375 v 3.625 H 10.09375 V 0 H 5.5625 V -14.96875 H 0.640625 v -3.625 z m 0,0"
           id="path35" />
      </g>
    </g>
  </g>
  <g
     fill="#bba43f"
     fill-opacity="1"
     id="g40"
     transform="translate(-14.805975,-20.199859)">
    <g
       transform="translate(36.83115,231.21272)"
       id="g39">
      <g
         id="g38">
        <path
           d="M 17.75,-18.59375 V 0 H 13.21875 V -7.65625 H 6.171875 V 0 h -4.53125 v -18.59375 h 4.53125 v 7.28125 h 7.046875 v -7.28125 z m 0,0"
           id="path37" />
      </g>
    </g>
  </g>
  <g
     fill="#bba43f"
     fill-opacity="1"
     id="g43"
     transform="translate(-14.805975,-20.199859)">
    <g
       transform="translate(63.203269,231.21272)"
       id="g42">
      <g
         id="g41">
        <path
           d="m 10.4375,0.1875 c -1.75,0 -3.355469,-0.40625 -4.8125,-1.21875 C 4.164062,-1.84375 3.007812,-2.976562 2.15625,-4.4375 1.300781,-5.894531 0.875,-7.53125 0.875,-9.34375 c 0,-1.820312 0.425781,-3.457031 1.28125,-4.90625 0.851562,-1.445312 2.007812,-2.578125 3.46875,-3.390625 1.457031,-0.8125 3.0625,-1.21875 4.8125,-1.21875 1.75,0 3.347656,0.40625 4.796875,1.21875 1.457031,0.8125 2.601563,1.945313 3.4375,3.390625 0.84375,1.449219 1.265625,3.085938 1.265625,4.90625 0,1.8125 -0.421875,3.449219 -1.265625,4.90625 -0.84375,1.460938 -1.992187,2.59375 -3.4375,3.40625 C 13.785156,-0.21875 12.1875,0.1875 10.4375,0.1875 Z m 0,-4.140625 c 1.476562,0 2.660156,-0.488281 3.546875,-1.46875 0.894531,-0.988281 1.34375,-2.296875 1.34375,-3.921875 0,-1.644531 -0.449219,-2.957031 -1.34375,-3.9375 C 13.097656,-14.257812 11.914062,-14.75 10.4375,-14.75 c -1.5,0 -2.699219,0.484375 -3.59375,1.453125 -0.886719,0.96875 -1.328125,2.289063 -1.328125,3.953125 0,1.636719 0.441406,2.945312 1.328125,3.921875 0.894531,0.980469 2.09375,1.46875 3.59375,1.46875 z m 0,0"
           id="path40" />
      </g>
    </g>
  </g>
  <g
     fill="#bba43f"
     fill-opacity="1"
     id="g46"
     transform="translate(-14.805975,-20.199859)">
    <g
       transform="translate(91.031437,231.21272)"
       id="g45">
      <g
         id="g44">
        <path
           d="M 22.703125,-18.59375 V 0 h -4.53125 V -11.15625 L 14.015625,0 h -3.65625 l -4.1875,-11.171875 V 0 h -4.53125 v -18.59375 h 5.34375 l 5.21875,12.875 5.171875,-12.875 z m 0,0"
           id="path43" />
      </g>
    </g>
  </g>
  <g
     fill="#bba43f"
     fill-opacity="1"
     id="g49"
     transform="translate(-14.805975,-20.199859)">
    <g
       transform="translate(122.35414,231.21272)"
       id="g48">
      <g
         id="g47">
        <path
           d="M 13.21875,-3.28125 H 6.28125 L 5.171875,0 h -4.75 L 7.15625,-18.59375 h 5.234375 L 19.125,0 h -4.796875 z m -1.171875,-3.5 -2.296875,-6.8125 -2.28125,6.8125 z m 0,0"
           id="path46" />
      </g>
    </g>
  </g>
  <g
     fill="#bba43f"
     fill-opacity="1"
     id="g52"
     transform="translate(-14.805975,-20.199859)">
    <g
       transform="translate(148.88507,231.21272)"
       id="g51">
      <g
         id="g50">
        <path
           d="M 8.375,0.1875 C 7.007812,0.1875 5.785156,-0.03125 4.703125,-0.46875 3.628906,-0.914062 2.769531,-1.570312 2.125,-2.4375 1.488281,-3.300781 1.148438,-4.34375 1.109375,-5.5625 H 5.9375 C 6,-4.875 6.234375,-4.347656 6.640625,-3.984375 c 0.40625,0.367187 0.9375,0.546875 1.59375,0.546875 0.675781,0 1.207031,-0.15625 1.59375,-0.46875 0.382813,-0.3125 0.578125,-0.738281 0.578125,-1.28125 0,-0.457031 -0.15625,-0.835938 -0.46875,-1.140625 C 9.632812,-6.628906 9.253906,-6.875 8.796875,-7.0625 8.347656,-7.257812 7.710938,-7.484375 6.890625,-7.734375 5.679688,-8.109375 4.695312,-8.476562 3.9375,-8.84375 c -0.75,-0.375 -1.402344,-0.921875 -1.953125,-1.640625 -0.542969,-0.726563 -0.8125,-1.675781 -0.8125,-2.84375 0,-1.726563 0.625,-3.082031 1.875,-4.0625 1.25,-0.976563 2.882813,-1.46875 4.90625,-1.46875 2.039063,0 3.6875,0.492187 4.9375,1.46875 1.257813,0.980469 1.929687,2.34375 2.015625,4.09375 H 10.015625 C 9.972656,-13.898438 9.75,-14.375 9.34375,-14.71875 8.9375,-15.0625 8.414062,-15.234375 7.78125,-15.234375 c -0.542969,0 -0.984375,0.148437 -1.328125,0.4375 -0.335937,0.292969 -0.5,0.714844 -0.5,1.265625 0,0.59375 0.28125,1.0625 0.84375,1.40625 0.570313,0.335938 1.457031,0.695312 2.65625,1.078125 1.195313,0.40625 2.171875,0.796875 2.921875,1.171875 0.75,0.367188 1.398438,0.902344 1.953125,1.609375 0.550781,0.710937 0.828125,1.621094 0.828125,2.734375 0,1.054688 -0.273438,2.015625 -0.8125,2.890625 C 13.800781,-1.773438 13.019531,-1.085938 12,-0.578125 10.976562,-0.0664062 9.769531,0.1875 8.375,0.1875 Z m 0,0"
           id="path49" />
      </g>
    </g>
  </g>
</svg>
