<svg xmlns="http://www.w3.org/2000/svg" xmlns:xlink="http://www.w3.org/1999/xlink" width="500" zoomAndPan="magnify" viewBox="0 0 375 374.999991" height="500" preserveAspectRatio="xMidYMid meet" version="1.0"><defs><g/><clipPath id="717b4d8607"><path d="M 81.167969 90 L 294 90 L 294 286.5625 L 81.167969 286.5625 Z M 81.167969 90 " clip-rule="nonzero"/></clipPath><clipPath id="11482b01aa"><path d="M 83 17.3125 L 256 17.3125 L 256 124 L 83 124 Z M 83 17.3125 " clip-rule="nonzero"/></clipPath><clipPath id="ad4a3a905f"><path d="M 209 102 L 258.582031 102 L 258.582031 197 L 209 197 Z M 209 102 " clip-rule="nonzero"/></clipPath><clipPath id="64ad016e54"><path d="M 116.082031 101 L 248 101 L 248 282.210938 L 116.082031 282.210938 Z M 116.082031 101 " clip-rule="nonzero"/></clipPath></defs><rect x="-37.5" width="450" fill="#ffffff" y="-37.499999" height="449.999989" fill-opacity="1"/><rect x="-37.5" width="450" fill="#ffffff" y="-37.499999" height="449.999989" fill-opacity="1"/><g fill="#000000" fill-opacity="1"><g transform="translate(142.964758, 343.344444)"><g><path d="M 1.34375 -1.6875 C 2.039062 -2.289062 2.585938 -2.785156 2.984375 -3.171875 C 3.390625 -3.566406 3.726562 -3.972656 4 -4.390625 C 4.269531 -4.816406 4.40625 -5.238281 4.40625 -5.65625 C 4.40625 -6.09375 4.300781 -6.4375 4.09375 -6.6875 C 3.882812 -6.9375 3.5625 -7.0625 3.125 -7.0625 C 2.6875 -7.0625 2.347656 -6.921875 2.109375 -6.640625 C 1.878906 -6.367188 1.757812 -6.003906 1.75 -5.546875 L 0.546875 -5.546875 C 0.566406 -6.378906 0.8125 -7.015625 1.28125 -7.453125 C 1.757812 -7.890625 2.367188 -8.109375 3.109375 -8.109375 C 3.898438 -8.109375 4.519531 -7.890625 4.96875 -7.453125 C 5.414062 -7.023438 5.640625 -6.445312 5.640625 -5.71875 C 5.640625 -5.1875 5.503906 -4.679688 5.234375 -4.203125 C 4.972656 -3.722656 4.65625 -3.289062 4.28125 -2.90625 C 3.914062 -2.519531 3.453125 -2.078125 2.890625 -1.578125 L 2.40625 -1.140625 L 5.859375 -1.140625 L 5.859375 -0.109375 L 0.5625 -0.109375 L 0.5625 -1.015625 Z M 1.34375 -1.6875 "/></g></g></g><g fill="#000000" fill-opacity="1"><g transform="translate(152.589456, 343.344444)"><g><path d="M 2 -4.15625 C 1.238281 -4.53125 0.859375 -5.125 0.859375 -5.9375 C 0.859375 -6.332031 0.957031 -6.691406 1.15625 -7.015625 C 1.351562 -7.347656 1.644531 -7.609375 2.03125 -7.796875 C 2.425781 -7.992188 2.910156 -8.09375 3.484375 -8.09375 C 4.035156 -8.09375 4.507812 -7.992188 4.90625 -7.796875 C 5.300781 -7.609375 5.597656 -7.347656 5.796875 -7.015625 C 5.992188 -6.691406 6.09375 -6.332031 6.09375 -5.9375 C 6.09375 -5.53125 5.988281 -5.171875 5.78125 -4.859375 C 5.570312 -4.554688 5.300781 -4.320312 4.96875 -4.15625 C 5.375 -4 5.695312 -3.75 5.9375 -3.40625 C 6.175781 -3.0625 6.296875 -2.65625 6.296875 -2.1875 C 6.296875 -1.71875 6.175781 -1.300781 5.9375 -0.9375 C 5.695312 -0.570312 5.363281 -0.289062 4.9375 -0.09375 C 4.507812 0.101562 4.023438 0.203125 3.484375 0.203125 C 2.929688 0.203125 2.441406 0.101562 2.015625 -0.09375 C 1.597656 -0.289062 1.269531 -0.570312 1.03125 -0.9375 C 0.789062 -1.300781 0.671875 -1.71875 0.671875 -2.1875 C 0.671875 -2.664062 0.789062 -3.070312 1.03125 -3.40625 C 1.269531 -3.75 1.59375 -4 2 -4.15625 Z M 4.90625 -5.796875 C 4.90625 -6.203125 4.773438 -6.515625 4.515625 -6.734375 C 4.265625 -6.953125 3.921875 -7.0625 3.484375 -7.0625 C 3.046875 -7.0625 2.695312 -6.953125 2.4375 -6.734375 C 2.1875 -6.515625 2.0625 -6.195312 2.0625 -5.78125 C 2.0625 -5.414062 2.191406 -5.117188 2.453125 -4.890625 C 2.722656 -4.660156 3.066406 -4.546875 3.484375 -4.546875 C 3.890625 -4.546875 4.226562 -4.660156 4.5 -4.890625 C 4.769531 -5.128906 4.90625 -5.429688 4.90625 -5.796875 Z M 3.484375 -3.609375 C 3.003906 -3.609375 2.613281 -3.488281 2.3125 -3.25 C 2.007812 -3.019531 1.859375 -2.679688 1.859375 -2.234375 C 1.859375 -1.816406 2 -1.476562 2.28125 -1.21875 C 2.570312 -0.96875 2.972656 -0.84375 3.484375 -0.84375 C 3.972656 -0.84375 4.359375 -0.972656 4.640625 -1.234375 C 4.929688 -1.492188 5.078125 -1.828125 5.078125 -2.234375 C 5.078125 -2.671875 4.929688 -3.007812 4.640625 -3.25 C 4.347656 -3.488281 3.960938 -3.609375 3.484375 -3.609375 Z M 3.484375 -3.609375 "/></g></g></g><g fill="#000000" fill-opacity="1"><g transform="translate(162.879813, 343.344444)"><g><path d="M 1.3125 0.078125 C 1.09375 0.078125 0.90625 0.00390625 0.75 -0.140625 C 0.601562 -0.296875 0.53125 -0.488281 0.53125 -0.71875 C 0.53125 -0.945312 0.601562 -1.132812 0.75 -1.28125 C 0.90625 -1.4375 1.09375 -1.515625 1.3125 -1.515625 C 1.53125 -1.515625 1.71875 -1.4375 1.875 -1.28125 C 2.03125 -1.132812 2.109375 -0.945312 2.109375 -0.71875 C 2.109375 -0.488281 2.03125 -0.296875 1.875 -0.140625 C 1.71875 0.00390625 1.53125 0.078125 1.3125 0.078125 Z M 1.3125 0.078125 "/></g></g></g><g fill="#000000" fill-opacity="1"><g transform="translate(168.837948, 343.344444)"><g><path d="M 0.65625 -4.078125 C 0.65625 -5.335938 0.867188 -6.320312 1.296875 -7.03125 C 1.722656 -7.738281 2.453125 -8.09375 3.484375 -8.09375 C 4.523438 -8.09375 5.257812 -7.738281 5.6875 -7.03125 C 6.113281 -6.320312 6.328125 -5.335938 6.328125 -4.078125 C 6.328125 -2.804688 6.113281 -1.8125 5.6875 -1.09375 C 5.257812 -0.375 4.523438 -0.015625 3.484375 -0.015625 C 2.453125 -0.015625 1.722656 -0.375 1.296875 -1.09375 C 0.867188 -1.8125 0.65625 -2.804688 0.65625 -4.078125 Z M 5.109375 -4.078125 C 5.109375 -4.671875 5.066406 -5.171875 4.984375 -5.578125 C 4.910156 -5.984375 4.753906 -6.3125 4.515625 -6.5625 C 4.285156 -6.820312 3.941406 -6.953125 3.484375 -6.953125 C 3.023438 -6.953125 2.679688 -6.820312 2.453125 -6.5625 C 2.222656 -6.3125 2.066406 -5.984375 1.984375 -5.578125 C 1.910156 -5.171875 1.875 -4.671875 1.875 -4.078125 C 1.875 -3.460938 1.910156 -2.945312 1.984375 -2.53125 C 2.054688 -2.125 2.207031 -1.789062 2.4375 -1.53125 C 2.675781 -1.28125 3.023438 -1.15625 3.484375 -1.15625 C 3.941406 -1.15625 4.289062 -1.28125 4.53125 -1.53125 C 4.769531 -1.789062 4.925781 -2.125 5 -2.53125 C 5.070312 -2.945312 5.109375 -3.460938 5.109375 -4.078125 Z M 5.109375 -4.078125 "/></g></g></g><g fill="#000000" fill-opacity="1"><g transform="translate(179.161039, 343.344444)"><g><path d="M 4.921875 -6.109375 C 4.847656 -6.441406 4.703125 -6.691406 4.484375 -6.859375 C 4.273438 -7.023438 3.984375 -7.109375 3.609375 -7.109375 C 3.035156 -7.109375 2.601562 -6.890625 2.3125 -6.453125 C 2.03125 -6.015625 1.882812 -5.285156 1.875 -4.265625 C 2.0625 -4.585938 2.335938 -4.832031 2.703125 -5 C 3.066406 -5.175781 3.457031 -5.265625 3.875 -5.265625 C 4.363281 -5.265625 4.789062 -5.160156 5.15625 -4.953125 C 5.519531 -4.742188 5.804688 -4.441406 6.015625 -4.046875 C 6.222656 -3.660156 6.328125 -3.195312 6.328125 -2.65625 C 6.328125 -2.144531 6.222656 -1.6875 6.015625 -1.28125 C 5.816406 -0.882812 5.519531 -0.570312 5.125 -0.34375 C 4.738281 -0.113281 4.269531 0 3.71875 0 C 2.96875 0 2.378906 -0.164062 1.953125 -0.5 C 1.523438 -0.832031 1.226562 -1.296875 1.0625 -1.890625 C 0.894531 -2.492188 0.8125 -3.25 0.8125 -4.15625 C 0.8125 -6.8125 1.75 -8.140625 3.625 -8.140625 C 4.351562 -8.140625 4.925781 -7.941406 5.34375 -7.546875 C 5.757812 -7.160156 6.003906 -6.679688 6.078125 -6.109375 Z M 3.609375 -4.21875 C 3.160156 -4.21875 2.78125 -4.082031 2.46875 -3.8125 C 2.164062 -3.550781 2.015625 -3.171875 2.015625 -2.671875 C 2.015625 -2.171875 2.15625 -1.769531 2.4375 -1.46875 C 2.726562 -1.175781 3.132812 -1.03125 3.65625 -1.03125 C 4.113281 -1.03125 4.472656 -1.171875 4.734375 -1.453125 C 5.003906 -1.742188 5.140625 -2.125 5.140625 -2.59375 C 5.140625 -3.09375 5.007812 -3.488281 4.75 -3.78125 C 4.488281 -4.070312 4.109375 -4.21875 3.609375 -4.21875 Z M 3.609375 -4.21875 "/></g></g></g><g fill="#000000" fill-opacity="1"><g transform="translate(189.49505, 343.344444)"><g><path d="M 1.3125 0.078125 C 1.09375 0.078125 0.90625 0.00390625 0.75 -0.140625 C 0.601562 -0.296875 0.53125 -0.488281 0.53125 -0.71875 C 0.53125 -0.945312 0.601562 -1.132812 0.75 -1.28125 C 0.90625 -1.4375 1.09375 -1.515625 1.3125 -1.515625 C 1.53125 -1.515625 1.71875 -1.4375 1.875 -1.28125 C 2.03125 -1.132812 2.109375 -0.945312 2.109375 -0.71875 C 2.109375 -0.488281 2.03125 -0.296875 1.875 -0.140625 C 1.71875 0.00390625 1.53125 0.078125 1.3125 0.078125 Z M 1.3125 0.078125 "/></g></g></g><g fill="#000000" fill-opacity="1"><g transform="translate(195.453184, 343.344444)"><g><path d="M 1.34375 -1.6875 C 2.039062 -2.289062 2.585938 -2.785156 2.984375 -3.171875 C 3.390625 -3.566406 3.726562 -3.972656 4 -4.390625 C 4.269531 -4.816406 4.40625 -5.238281 4.40625 -5.65625 C 4.40625 -6.09375 4.300781 -6.4375 4.09375 -6.6875 C 3.882812 -6.9375 3.5625 -7.0625 3.125 -7.0625 C 2.6875 -7.0625 2.347656 -6.921875 2.109375 -6.640625 C 1.878906 -6.367188 1.757812 -6.003906 1.75 -5.546875 L 0.546875 -5.546875 C 0.566406 -6.378906 0.8125 -7.015625 1.28125 -7.453125 C 1.757812 -7.890625 2.367188 -8.109375 3.109375 -8.109375 C 3.898438 -8.109375 4.519531 -7.890625 4.96875 -7.453125 C 5.414062 -7.023438 5.640625 -6.445312 5.640625 -5.71875 C 5.640625 -5.1875 5.503906 -4.679688 5.234375 -4.203125 C 4.972656 -3.722656 4.65625 -3.289062 4.28125 -2.90625 C 3.914062 -2.519531 3.453125 -2.078125 2.890625 -1.578125 L 2.40625 -1.140625 L 5.859375 -1.140625 L 5.859375 -0.109375 L 0.5625 -0.109375 L 0.5625 -1.015625 Z M 1.34375 -1.6875 "/></g></g></g><g fill="#000000" fill-opacity="1"><g transform="translate(205.077879, 343.344444)"><g><path d="M 0.65625 -4.078125 C 0.65625 -5.335938 0.867188 -6.320312 1.296875 -7.03125 C 1.722656 -7.738281 2.453125 -8.09375 3.484375 -8.09375 C 4.523438 -8.09375 5.257812 -7.738281 5.6875 -7.03125 C 6.113281 -6.320312 6.328125 -5.335938 6.328125 -4.078125 C 6.328125 -2.804688 6.113281 -1.8125 5.6875 -1.09375 C 5.257812 -0.375 4.523438 -0.015625 3.484375 -0.015625 C 2.453125 -0.015625 1.722656 -0.375 1.296875 -1.09375 C 0.867188 -1.8125 0.65625 -2.804688 0.65625 -4.078125 Z M 5.109375 -4.078125 C 5.109375 -4.671875 5.066406 -5.171875 4.984375 -5.578125 C 4.910156 -5.984375 4.753906 -6.3125 4.515625 -6.5625 C 4.285156 -6.820312 3.941406 -6.953125 3.484375 -6.953125 C 3.023438 -6.953125 2.679688 -6.820312 2.453125 -6.5625 C 2.222656 -6.3125 2.066406 -5.984375 1.984375 -5.578125 C 1.910156 -5.171875 1.875 -4.671875 1.875 -4.078125 C 1.875 -3.460938 1.910156 -2.945312 1.984375 -2.53125 C 2.054688 -2.125 2.207031 -1.789062 2.4375 -1.53125 C 2.675781 -1.28125 3.023438 -1.15625 3.484375 -1.15625 C 3.941406 -1.15625 4.289062 -1.28125 4.53125 -1.53125 C 4.769531 -1.789062 4.925781 -2.125 5 -2.53125 C 5.070312 -2.945312 5.109375 -3.460938 5.109375 -4.078125 Z M 5.109375 -4.078125 "/></g></g></g><g fill="#000000" fill-opacity="1"><g transform="translate(215.400973, 343.344444)"><g><path d="M 1.34375 -1.6875 C 2.039062 -2.289062 2.585938 -2.785156 2.984375 -3.171875 C 3.390625 -3.566406 3.726562 -3.972656 4 -4.390625 C 4.269531 -4.816406 4.40625 -5.238281 4.40625 -5.65625 C 4.40625 -6.09375 4.300781 -6.4375 4.09375 -6.6875 C 3.882812 -6.9375 3.5625 -7.0625 3.125 -7.0625 C 2.6875 -7.0625 2.347656 -6.921875 2.109375 -6.640625 C 1.878906 -6.367188 1.757812 -6.003906 1.75 -5.546875 L 0.546875 -5.546875 C 0.566406 -6.378906 0.8125 -7.015625 1.28125 -7.453125 C 1.757812 -7.890625 2.367188 -8.109375 3.109375 -8.109375 C 3.898438 -8.109375 4.519531 -7.890625 4.96875 -7.453125 C 5.414062 -7.023438 5.640625 -6.445312 5.640625 -5.71875 C 5.640625 -5.1875 5.503906 -4.679688 5.234375 -4.203125 C 4.972656 -3.722656 4.65625 -3.289062 4.28125 -2.90625 C 3.914062 -2.519531 3.453125 -2.078125 2.890625 -1.578125 L 2.40625 -1.140625 L 5.859375 -1.140625 L 5.859375 -0.109375 L 0.5625 -0.109375 L 0.5625 -1.015625 Z M 1.34375 -1.6875 "/></g></g></g><g fill="#000000" fill-opacity="1"><g transform="translate(225.025674, 343.344444)"><g><path d="M 5.78125 -6.875 L 2.125 -6.875 L 2.125 -4.71875 C 2.28125 -4.914062 2.507812 -5.082031 2.8125 -5.21875 C 3.113281 -5.363281 3.4375 -5.4375 3.78125 -5.4375 C 4.382812 -5.4375 4.875 -5.300781 5.25 -5.03125 C 5.632812 -4.769531 5.910156 -4.441406 6.078125 -4.046875 C 6.242188 -3.648438 6.328125 -3.226562 6.328125 -2.78125 C 6.328125 -2.238281 6.222656 -1.757812 6.015625 -1.34375 C 5.804688 -0.925781 5.492188 -0.597656 5.078125 -0.359375 C 4.671875 -0.117188 4.171875 0 3.578125 0 C 2.785156 0 2.148438 -0.191406 1.671875 -0.578125 C 1.191406 -0.972656 0.90625 -1.5 0.8125 -2.15625 L 2.015625 -2.15625 C 2.097656 -1.8125 2.273438 -1.535156 2.546875 -1.328125 C 2.828125 -1.128906 3.175781 -1.03125 3.59375 -1.03125 C 4.101562 -1.03125 4.488281 -1.1875 4.75 -1.5 C 5.007812 -1.8125 5.140625 -2.226562 5.140625 -2.75 C 5.140625 -3.269531 5.007812 -3.671875 4.75 -3.953125 C 4.488281 -4.234375 4.101562 -4.375 3.59375 -4.375 C 3.226562 -4.375 2.925781 -4.285156 2.6875 -4.109375 C 2.445312 -3.929688 2.269531 -3.6875 2.15625 -3.375 L 0.984375 -3.375 L 0.984375 -7.96875 L 5.78125 -7.96875 Z M 5.78125 -6.875 "/></g></g></g><g fill="#000000" fill-opacity="1"><g transform="translate(20.385152, 316.928247)"><g><path d="M 13.234375 -3.28125 L 6.28125 -3.28125 L 5.171875 0 L 0.421875 0 L 7.15625 -18.609375 L 12.40625 -18.609375 L 19.140625 0 L 14.34375 0 Z M 12.0625 -6.78125 L 9.75 -13.609375 L 7.484375 -6.78125 Z M 12.0625 -6.78125 "/></g></g></g><g fill="#000000" fill-opacity="1"><g transform="translate(46.942348, 316.928247)"><g><path d="M 14 -12.734375 C 13.664062 -13.347656 13.179688 -13.816406 12.546875 -14.140625 C 11.921875 -14.472656 11.1875 -14.640625 10.34375 -14.640625 C 8.875 -14.640625 7.695312 -14.15625 6.8125 -13.1875 C 5.925781 -12.226562 5.484375 -10.941406 5.484375 -9.328125 C 5.484375 -7.617188 5.945312 -6.28125 6.875 -5.3125 C 7.800781 -4.351562 9.082031 -3.875 10.71875 -3.875 C 11.832031 -3.875 12.769531 -4.15625 13.53125 -4.71875 C 14.300781 -5.28125 14.863281 -6.09375 15.21875 -7.15625 L 9.46875 -7.15625 L 9.46875 -10.5 L 19.328125 -10.5 L 19.328125 -6.28125 C 18.992188 -5.15625 18.421875 -4.101562 17.609375 -3.125 C 16.804688 -2.15625 15.785156 -1.367188 14.546875 -0.765625 C 13.316406 -0.171875 11.925781 0.125 10.375 0.125 C 8.53125 0.125 6.882812 -0.273438 5.4375 -1.078125 C 4 -1.878906 2.878906 -2.992188 2.078125 -4.421875 C 1.273438 -5.859375 0.875 -7.492188 0.875 -9.328125 C 0.875 -11.171875 1.273438 -12.8125 2.078125 -14.25 C 2.878906 -15.6875 3.992188 -16.804688 5.421875 -17.609375 C 6.859375 -18.421875 8.5 -18.828125 10.34375 -18.828125 C 12.570312 -18.828125 14.445312 -18.285156 15.96875 -17.203125 C 17.5 -16.128906 18.515625 -14.640625 19.015625 -12.734375 Z M 14 -12.734375 "/></g></g></g><g fill="#000000" fill-opacity="1"><g transform="translate(74.162052, 316.928247)"><g><path d="M 13.234375 -3.28125 L 6.28125 -3.28125 L 5.171875 0 L 0.421875 0 L 7.15625 -18.609375 L 12.40625 -18.609375 L 19.140625 0 L 14.34375 0 Z M 12.0625 -6.78125 L 9.75 -13.609375 L 7.484375 -6.78125 Z M 12.0625 -6.78125 "/></g></g></g><g fill="#000000" fill-opacity="1"><g transform="translate(100.719243, 316.928247)"><g><path d="M 15.03125 -18.609375 L 15.03125 -14.984375 L 10.109375 -14.984375 L 10.109375 0 L 5.5625 0 L 5.5625 -14.984375 L 0.640625 -14.984375 L 0.640625 -18.609375 Z M 15.03125 -18.609375 "/></g></g></g><g fill="#000000" fill-opacity="1"><g transform="translate(123.407467, 316.928247)"><g><path d="M 13.234375 -3.28125 L 6.28125 -3.28125 L 5.171875 0 L 0.421875 0 L 7.15625 -18.609375 L 12.40625 -18.609375 L 19.140625 0 L 14.34375 0 Z M 12.0625 -6.78125 L 9.75 -13.609375 L 7.484375 -6.78125 Z M 12.0625 -6.78125 "/></g></g></g><g fill="#000000" fill-opacity="1"><g transform="translate(149.964667, 316.928247)"><g/></g></g><g fill="#000000" fill-opacity="1"><g transform="translate(162.609441, 316.928247)"><g><path d="M 15.890625 0 L 14.15625 -1.671875 C 12.445312 -0.359375 10.394531 0.296875 8 0.296875 C 6.570312 0.296875 5.328125 0.0625 4.265625 -0.40625 C 3.203125 -0.875 2.382812 -1.535156 1.8125 -2.390625 C 1.238281 -3.253906 0.953125 -4.257812 0.953125 -5.40625 C 0.953125 -6.570312 1.265625 -7.628906 1.890625 -8.578125 C 2.523438 -9.523438 3.46875 -10.296875 4.71875 -10.890625 C 4.257812 -11.460938 3.929688 -12.007812 3.734375 -12.53125 C 3.546875 -13.050781 3.453125 -13.617188 3.453125 -14.234375 C 3.453125 -15.117188 3.679688 -15.921875 4.140625 -16.640625 C 4.597656 -17.367188 5.265625 -17.941406 6.140625 -18.359375 C 7.015625 -18.773438 8.050781 -18.984375 9.25 -18.984375 C 10.46875 -18.984375 11.5 -18.757812 12.34375 -18.3125 C 13.195312 -17.875 13.835938 -17.285156 14.265625 -16.546875 C 14.691406 -15.804688 14.882812 -14.992188 14.84375 -14.109375 L 10.578125 -14.109375 C 10.597656 -14.585938 10.476562 -14.953125 10.21875 -15.203125 C 9.96875 -15.460938 9.628906 -15.59375 9.203125 -15.59375 C 8.773438 -15.59375 8.421875 -15.46875 8.140625 -15.21875 C 7.859375 -14.96875 7.71875 -14.648438 7.71875 -14.265625 C 7.71875 -13.890625 7.835938 -13.5 8.078125 -13.09375 C 8.316406 -12.6875 8.691406 -12.21875 9.203125 -11.6875 L 13.734375 -7.265625 C 13.765625 -7.347656 13.8125 -7.453125 13.875 -7.578125 C 13.9375 -7.703125 14.003906 -7.84375 14.078125 -8 L 15.0625 -9.671875 L 19.59375 -9.671875 L 18.328125 -7.375 C 17.847656 -6.332031 17.296875 -5.34375 16.671875 -4.40625 L 21.15625 0 Z M 8.21875 -3.375 C 9.40625 -3.375 10.457031 -3.707031 11.375 -4.375 L 7.234375 -8.375 C 5.960938 -7.71875 5.328125 -6.835938 5.328125 -5.734375 C 5.328125 -5.054688 5.585938 -4.492188 6.109375 -4.046875 C 6.628906 -3.597656 7.332031 -3.375 8.21875 -3.375 Z M 8.21875 -3.375 "/></g></g></g><g fill="#000000" fill-opacity="1"><g transform="translate(190.783134, 316.928247)"><g/></g></g><g fill="#000000" fill-opacity="1"><g transform="translate(203.427908, 316.928247)"><g><path d="M 15.03125 -18.609375 L 15.03125 -14.984375 L 10.109375 -14.984375 L 10.109375 0 L 5.5625 0 L 5.5625 -14.984375 L 0.640625 -14.984375 L 0.640625 -18.609375 Z M 15.03125 -18.609375 "/></g></g></g><g fill="#000000" fill-opacity="1"><g transform="translate(226.116132, 316.928247)"><g><path d="M 17.765625 -18.609375 L 17.765625 0 L 13.234375 0 L 13.234375 -7.65625 L 6.171875 -7.65625 L 6.171875 0 L 1.640625 0 L 1.640625 -18.609375 L 6.171875 -18.609375 L 6.171875 -11.328125 L 13.234375 -11.328125 L 13.234375 -18.609375 Z M 17.765625 -18.609375 "/></g></g></g><g fill="#000000" fill-opacity="1"><g transform="translate(252.514338, 316.928247)"><g><path d="M 10.453125 0.1875 C 8.703125 0.1875 7.097656 -0.21875 5.640625 -1.03125 C 4.179688 -1.84375 3.019531 -2.976562 2.15625 -4.4375 C 1.300781 -5.894531 0.875 -7.535156 0.875 -9.359375 C 0.875 -11.179688 1.300781 -12.816406 2.15625 -14.265625 C 3.019531 -15.710938 4.179688 -16.84375 5.640625 -17.65625 C 7.097656 -18.46875 8.703125 -18.875 10.453125 -18.875 C 12.203125 -18.875 13.804688 -18.46875 15.265625 -17.65625 C 16.722656 -16.84375 17.867188 -15.710938 18.703125 -14.265625 C 19.546875 -12.816406 19.96875 -11.179688 19.96875 -9.359375 C 19.96875 -7.535156 19.539062 -5.894531 18.6875 -4.4375 C 17.84375 -2.976562 16.695312 -1.84375 15.25 -1.03125 C 13.800781 -0.21875 12.203125 0.1875 10.453125 0.1875 Z M 10.453125 -3.953125 C 11.929688 -3.953125 13.117188 -4.445312 14.015625 -5.4375 C 14.910156 -6.425781 15.359375 -7.734375 15.359375 -9.359375 C 15.359375 -11.003906 14.910156 -12.316406 14.015625 -13.296875 C 13.117188 -14.273438 11.929688 -14.765625 10.453125 -14.765625 C 8.941406 -14.765625 7.738281 -14.28125 6.84375 -13.3125 C 5.957031 -12.34375 5.515625 -11.023438 5.515625 -9.359375 C 5.515625 -7.710938 5.957031 -6.398438 6.84375 -5.421875 C 7.738281 -4.441406 8.941406 -3.953125 10.453125 -3.953125 Z M 10.453125 -3.953125 "/></g></g></g><g fill="#000000" fill-opacity="1"><g transform="translate(280.370017, 316.928247)"><g><path d="M 22.71875 -18.609375 L 22.71875 0 L 18.1875 0 L 18.1875 -11.15625 L 14.03125 0 L 10.375 0 L 6.171875 -11.1875 L 6.171875 0 L 1.640625 0 L 1.640625 -18.609375 L 7 -18.609375 L 12.21875 -5.734375 L 17.390625 -18.609375 Z M 22.71875 -18.609375 "/></g></g></g><g fill="#000000" fill-opacity="1"><g transform="translate(311.723699, 316.928247)"><g><path d="M 13.234375 -3.28125 L 6.28125 -3.28125 L 5.171875 0 L 0.421875 0 L 7.15625 -18.609375 L 12.40625 -18.609375 L 19.140625 0 L 14.34375 0 Z M 12.0625 -6.78125 L 9.75 -13.609375 L 7.484375 -6.78125 Z M 12.0625 -6.78125 "/></g></g></g><g fill="#000000" fill-opacity="1"><g transform="translate(338.280883, 316.928247)"><g><path d="M 8.375 0.1875 C 7.019531 0.1875 5.800781 -0.03125 4.71875 -0.46875 C 3.644531 -0.914062 2.785156 -1.570312 2.140625 -2.4375 C 1.492188 -3.300781 1.148438 -4.34375 1.109375 -5.5625 L 5.9375 -5.5625 C 6.007812 -4.875 6.25 -4.347656 6.65625 -3.984375 C 7.0625 -3.628906 7.59375 -3.453125 8.25 -3.453125 C 8.914062 -3.453125 9.441406 -3.601562 9.828125 -3.90625 C 10.222656 -4.21875 10.421875 -4.648438 10.421875 -5.203125 C 10.421875 -5.660156 10.265625 -6.035156 9.953125 -6.328125 C 9.648438 -6.628906 9.269531 -6.878906 8.8125 -7.078125 C 8.363281 -7.273438 7.722656 -7.5 6.890625 -7.75 C 5.691406 -8.113281 4.710938 -8.476562 3.953125 -8.84375 C 3.191406 -9.21875 2.535156 -9.769531 1.984375 -10.5 C 1.441406 -11.226562 1.171875 -12.175781 1.171875 -13.34375 C 1.171875 -15.070312 1.796875 -16.425781 3.046875 -17.40625 C 4.304688 -18.382812 5.941406 -18.875 7.953125 -18.875 C 10.003906 -18.875 11.65625 -18.382812 12.90625 -17.40625 C 14.164062 -16.425781 14.835938 -15.0625 14.921875 -13.3125 L 10.015625 -13.3125 C 9.984375 -13.914062 9.765625 -14.390625 9.359375 -14.734375 C 8.953125 -15.078125 8.429688 -15.25 7.796875 -15.25 C 7.242188 -15.25 6.800781 -15.101562 6.46875 -14.8125 C 6.132812 -14.519531 5.96875 -14.097656 5.96875 -13.546875 C 5.96875 -12.941406 6.25 -12.472656 6.8125 -12.140625 C 7.375 -11.804688 8.257812 -11.445312 9.46875 -11.0625 C 10.664062 -10.65625 11.640625 -10.265625 12.390625 -9.890625 C 13.140625 -9.515625 13.789062 -8.972656 14.34375 -8.265625 C 14.894531 -7.566406 15.171875 -6.660156 15.171875 -5.546875 C 15.171875 -4.484375 14.898438 -3.519531 14.359375 -2.65625 C 13.816406 -1.789062 13.03125 -1.097656 12 -0.578125 C 10.976562 -0.0664062 9.769531 0.1875 8.375 0.1875 Z M 8.375 0.1875 "/></g></g></g><g clip-path="url(#717b4d8607)"><path fill="#000000" d="M 293.035156 286.898438 L 81.957031 286.898438 C 81.742188 286.898438 81.554688 286.820312 81.402344 286.667969 C 81.246094 286.511719 81.167969 286.328125 81.167969 286.109375 L 81.167969 142.878906 C 81.167969 135.496094 81.964844 128.199219 83.558594 120.988281 C 83.605469 120.773438 83.722656 120.609375 83.90625 120.492188 C 84.089844 120.375 84.289062 120.339844 84.5 120.386719 C 84.714844 120.433594 84.878906 120.550781 84.996094 120.734375 C 85.113281 120.917969 85.148438 121.117188 85.101562 121.328125 C 83.527344 128.425781 82.746094 135.609375 82.75 142.878906 L 82.75 285.320312 L 292.25 285.320312 L 292.25 142.878906 C 292.253906 138.382812 291.953125 133.910156 291.34375 129.457031 C 290.738281 125.003906 289.832031 120.609375 288.625 116.28125 C 287.414062 111.949219 285.917969 107.722656 284.136719 103.597656 C 282.351562 99.472656 280.292969 95.484375 277.964844 91.640625 C 277.851562 91.453125 277.820312 91.253906 277.875 91.042969 C 277.925781 90.832031 278.046875 90.667969 278.234375 90.558594 C 278.417969 90.445312 278.617188 90.414062 278.832031 90.46875 C 279.042969 90.519531 279.203125 90.640625 279.316406 90.824219 C 281.683594 94.730469 283.769531 98.78125 285.585938 102.972656 C 287.398438 107.164062 288.917969 111.457031 290.144531 115.859375 C 291.367188 120.257812 292.289062 124.71875 292.90625 129.242188 C 293.527344 133.765625 293.832031 138.3125 293.828125 142.878906 L 293.828125 286.089844 C 293.835938 286.3125 293.761719 286.503906 293.605469 286.664062 C 293.449219 286.820312 293.257812 286.902344 293.035156 286.898438 Z M 293.035156 286.898438 " fill-opacity="1" fill-rule="nonzero"/></g><g clip-path="url(#11482b01aa)"><path fill="#000000" d="M 255.746094 74.480469 C 255.21875 71.648438 255.746094 68.691406 255.125 65.894531 C 254.496094 63.429688 253.300781 61.273438 251.542969 59.433594 C 250.726562 58.585938 249.863281 57.792969 248.945312 57.058594 C 248.023438 56.269531 247.113281 55.480469 246.175781 54.703125 C 244.511719 53.273438 242.710938 52.046875 240.773438 51.019531 C 239.679688 50.453125 238.527344 50.027344 237.328125 49.746094 C 236.164062 49.429688 234.984375 49.355469 233.789062 49.519531 C 231.953125 48.140625 229.980469 46.996094 227.875 46.078125 C 225.414062 45.09375 222.863281 44.511719 220.21875 44.335938 C 217.140625 44.085938 214.066406 44.144531 210.996094 44.507812 C 210.796875 44.429688 210.59375 44.355469 210.386719 44.292969 C 210.339844 44.261719 210.289062 44.234375 210.238281 44.214844 C 209.1875 43.949219 208.125 43.753906 207.050781 43.628906 C 205.996094 43.433594 204.945312 43.222656 203.890625 43.019531 C 201.785156 42.609375 199.679688 42.222656 197.574219 41.964844 C 195.46875 41.707031 193.226562 41.355469 191.050781 41.191406 C 188.828125 41.105469 186.621094 41.269531 184.429688 41.683594 L 180.746094 42.246094 C 179.550781 42.425781 178.355469 42.65625 177.15625 42.804688 C 178.386719 42.21875 179.558594 41.527344 180.667969 40.734375 C 181.765625 39.949219 182.902344 39.222656 184.078125 38.554688 C 186.710938 37.140625 189.1875 38.601562 191.746094 39.3125 C 194.265625 40.085938 196.828125 40.6875 199.425781 41.117188 C 202.09375 41.414062 204.769531 41.480469 207.449219 41.3125 C 210.160156 41.179688 212.867188 41.277344 215.5625 41.601562 C 217.058594 41.785156 218.542969 42.046875 220.015625 42.382812 C 221.203125 42.667969 222.324219 43.3125 223.578125 43.246094 C 223.699219 43.242188 223.808594 43.214844 223.914062 43.152344 C 224.015625 43.09375 224.097656 43.011719 224.15625 42.90625 C 224.21875 42.800781 224.246094 42.691406 224.25 42.570312 C 224.25 42.453125 224.21875 42.339844 224.164062 42.234375 C 221.347656 37.765625 216.941406 35.019531 212.019531 33.347656 C 209.441406 32.511719 206.808594 31.910156 204.121094 31.550781 C 201.363281 31.136719 198.484375 30.691406 195.699219 31.226562 C 194.238281 31.566406 192.898438 32.175781 191.683594 33.058594 C 190.359375 33.910156 189.140625 34.890625 188.027344 36.003906 C 187.90625 36.136719 187.890625 36.277344 187.976562 36.433594 C 187.925781 36.414062 187.871094 36.398438 187.816406 36.386719 C 186.589844 36.269531 185.183594 36.871094 184.128906 37.40625 C 182.90625 38.0625 181.75 38.8125 180.65625 39.664062 C 179.285156 40.769531 177.816406 41.734375 176.253906 42.550781 C 176.171875 42.515625 176.085938 42.492188 175.996094 42.480469 C 173.597656 42.378906 171.207031 42.5 168.828125 42.84375 C 166.402344 43.144531 163.992188 43.570312 161.605469 44.109375 C 156.804688 45.175781 152.140625 46.667969 147.609375 48.578125 C 146.9375 48.863281 146.265625 49.160156 145.609375 49.472656 C 145.082031 49.636719 144.558594 49.808594 144.03125 50 C 144.800781 49.066406 145.484375 48.039062 146.242188 47.136719 C 147.097656 46.09375 148.019531 45.109375 149.011719 44.191406 C 149.484375 43.765625 150.011719 43.414062 150.589844 43.140625 C 151.003906 42.960938 151.40625 42.753906 151.792969 42.519531 C 151.941406 42.597656 152.089844 42.597656 152.238281 42.519531 C 156.472656 40.175781 160.933594 38.1875 164.894531 35.386719 C 168.722656 32.679688 171.808594 28.953125 174.371094 25.054688 C 175.125 23.902344 175.835938 22.722656 176.632812 21.601562 C 177.433594 20.480469 178.566406 19.589844 179.570312 18.5625 C 179.71875 18.414062 179.75 18.242188 179.671875 18.050781 C 179.59375 17.859375 179.449219 17.761719 179.242188 17.757812 C 176.878906 17.792969 174.585938 18.199219 172.359375 18.976562 C 170.132812 19.753906 168.085938 20.867188 166.21875 22.3125 C 164.171875 24.015625 162.289062 25.882812 160.570312 27.917969 C 158.835938 29.90625 157.269531 32.023438 155.875 34.265625 C 154.59375 36.324219 152.808594 38.476562 152.1875 40.871094 C 151.972656 41.125 151.773438 41.394531 151.601562 41.675781 C 150.476562 42.089844 149.445312 42.667969 148.503906 43.402344 C 147.5 44.320312 146.5625 45.300781 145.699219 46.351562 C 144.414062 47.855469 143.351562 49.550781 142.0625 51.050781 C 141.046875 51.53125 140.066406 52.105469 139.082031 52.628906 C 137.535156 53.40625 135.988281 54.167969 134.476562 55.003906 C 132.964844 55.839844 131.554688 56.789062 130.085938 57.636719 C 128.421875 58.609375 126.75 59.578125 125.136719 60.632812 C 124.28125 61.191406 123.4375 61.769531 122.644531 62.40625 C 122.078125 62.875 121.550781 63.386719 121.0625 63.9375 C 120.230469 64.324219 119.449219 64.800781 118.726562 65.371094 C 119.25 64.332031 119.699219 63.265625 120.0625 62.164062 C 120.574219 60.554688 121.292969 59.042969 122.222656 57.632812 C 122.238281 57.601562 122.25 57.570312 122.257812 57.535156 C 122.28125 57.53125 122.296875 57.519531 122.3125 57.5 C 123.632812 55.503906 125.082031 53.613281 126.582031 51.757812 C 128.082031 49.898438 129.523438 48.167969 130.507812 46.070312 C 131.585938 43.710938 131.9375 41.246094 131.558594 38.675781 C 131.1875 35.464844 130.292969 32.324219 130.144531 29.085938 C 130.09375 27.226562 130.261719 25.390625 130.648438 23.574219 C 131.007812 21.695312 131.480469 19.847656 132.070312 18.03125 C 132.121094 17.785156 132.035156 17.597656 131.820312 17.472656 C 131.601562 17.34375 131.398438 17.363281 131.207031 17.53125 C 129.300781 19.414062 128.25 21.953125 126.511719 23.972656 C 124.894531 25.855469 123.210938 27.621094 122.25 29.945312 C 121.117188 32.65625 120.769531 35.648438 120.492188 38.570312 C 120.242188 41.667969 120.242188 44.765625 120.492188 47.863281 C 120.714844 51.367188 121.015625 54.894531 120.644531 58.390625 C 120.636719 58.421875 120.636719 58.457031 120.644531 58.488281 C 119.285156 60.820312 119.023438 63.679688 117.816406 66.101562 C 117.738281 66.167969 117.652344 66.234375 117.578125 66.300781 C 112.929688 70.273438 108.753906 74.691406 105.050781 79.554688 C 104.378906 80.464844 103.714844 81.386719 103.035156 82.292969 C 102.652344 82.820312 102.28125 83.34375 101.886719 83.820312 L 101.746094 84.007812 C 101.636719 83.085938 101.492188 82.167969 101.410156 81.246094 C 101.410156 81.183594 101.410156 81.113281 101.410156 81.050781 C 101.519531 80.589844 101.5625 80.121094 101.535156 79.644531 C 101.511719 79.519531 101.441406 79.433594 101.320312 79.390625 C 101.386719 78.007812 101.847656 76.761719 102.261719 75.449219 C 102.671875 73.953125 102.757812 72.4375 102.519531 70.902344 C 102.039062 67.761719 101.054688 64.789062 99.566406 61.984375 C 98.828125 60.554688 98.011719 59.152344 97.375 57.683594 C 96.769531 56.253906 96.242188 54.789062 95.796875 53.300781 C 94.90625 50.441406 94.125 47.507812 92.511719 44.941406 C 91.652344 43.53125 90.527344 42.382812 89.140625 41.492188 C 87.792969 40.632812 86.257812 40.078125 84.855469 39.292969 C 84.722656 39.214844 84.582031 39.195312 84.433594 39.234375 C 84.289062 39.273438 84.175781 39.359375 84.097656 39.488281 C 84.023438 39.621094 84.003906 39.761719 84.039062 39.90625 C 84.078125 40.054688 84.164062 40.167969 84.296875 40.246094 C 86.339844 41.699219 87.222656 44.234375 87.679688 46.605469 C 88.078125 48.992188 88.296875 51.398438 88.339844 53.820312 C 88.382812 56.746094 88.75 59.632812 89.4375 62.480469 C 90.21875 65.347656 91.589844 67.898438 93.554688 70.128906 C 94.917969 71.707031 96.234375 73.285156 97.472656 74.945312 C 98.035156 75.695312 98.566406 76.464844 99.101562 77.234375 C 99.558594 77.824219 99.984375 78.433594 100.378906 79.066406 C 100.378906 79.476562 100.433594 79.886719 100.460938 80.292969 C 100.429688 80.503906 100.414062 80.714844 100.398438 80.910156 C 100.359375 81.449219 100.359375 81.992188 100.398438 82.535156 C 100.445312 83.460938 100.640625 84.363281 100.742188 85.277344 C 100.664062 85.289062 100.597656 85.3125 100.535156 85.355469 C 100.085938 85.714844 99.734375 86.15625 99.480469 86.671875 C 99.152344 87.199219 98.828125 87.726562 98.507812 88.25 C 97.855469 89.347656 97.25 90.472656 96.644531 91.59375 C 95.914062 92.9375 95.246094 94.304688 94.585938 95.679688 C 93.917969 96.546875 93.34375 97.472656 92.855469 98.453125 C 92.277344 99.503906 91.71875 100.558594 91.175781 101.648438 C 90.222656 103.542969 89.292969 105.449219 88.433594 107.386719 C 86.902344 110.792969 85.605469 114.285156 84.546875 117.867188 C 84.023438 119.613281 83.496094 121.613281 83.675781 123.445312 C 83.675781 123.550781 83.847656 123.636719 83.90625 123.507812 C 84.527344 122.054688 84.894531 120.492188 85.410156 118.996094 C 86.03125 117.179688 86.648438 115.371094 87.316406 113.570312 C 88.664062 109.996094 90.195312 106.5 91.914062 103.085938 C 92.507812 101.894531 93.113281 100.714844 93.746094 99.546875 C 94.308594 98.496094 95.003906 97.480469 95.472656 96.390625 C 95.511719 96.394531 95.542969 96.382812 95.570312 96.351562 C 97.246094 94.449219 99.304688 93.160156 101.746094 92.484375 C 105.429688 91.351562 109.148438 91.730469 112.695312 93.066406 C 114.511719 93.753906 116.273438 94.574219 118.074219 95.308594 C 119.980469 96.132812 121.96875 96.648438 124.039062 96.859375 C 126.445312 97.027344 128.84375 96.910156 131.222656 96.511719 C 132.207031 96.359375 133.148438 96.117188 134.117188 95.910156 C 135.085938 95.703125 136.191406 95.730469 136.796875 96.714844 C 137.070312 97.089844 137.703125 96.742188 137.429688 96.34375 C 135.464844 93.382812 133.550781 90.058594 130.222656 88.445312 C 125.953125 86.410156 120.53125 86.371094 116.085938 87.820312 C 114.882812 88.234375 113.738281 88.777344 112.65625 89.445312 C 109.652344 91.195312 104.808594 90.558594 101.339844 91.699219 C 99.179688 92.34375 97.386719 93.542969 95.964844 95.292969 C 96.5625 94.375 97.128906 93.429688 97.671875 92.484375 C 98.289062 91.410156 98.910156 90.339844 99.535156 89.277344 C 99.84375 88.75 100.15625 88.226562 100.476562 87.699219 C 100.867188 87.210938 101.164062 86.671875 101.371094 86.082031 C 102.902344 84.191406 104.589844 82.457031 106.4375 80.875 C 107.695312 79.859375 109.101562 79.105469 110.648438 78.617188 C 111.441406 78.351562 112.257812 78.191406 113.09375 78.128906 C 113.714844 78.117188 114.332031 78.054688 114.941406 77.941406 C 115.011719 77.964844 115.085938 77.976562 115.15625 77.976562 C 117.433594 77.976562 119.707031 78.21875 122 78.023438 C 123.910156 77.859375 125.828125 77.71875 127.742188 77.578125 C 129.824219 77.398438 131.886719 77.101562 133.929688 76.675781 C 135.796875 76.3125 137.667969 76.019531 139.554688 75.765625 C 141.007812 75.589844 142.445312 75.324219 143.863281 74.964844 C 145.269531 74.617188 146.582031 74.050781 147.804688 73.273438 C 149.03125 72.496094 150.097656 71.542969 151.011719 70.417969 C 152.289062 68.800781 152.964844 66.933594 153.882812 65.117188 C 154.726562 63.449219 156.28125 62.242188 156.957031 60.480469 C 156.980469 60.398438 156.984375 60.3125 156.96875 60.230469 C 156.953125 60.144531 156.917969 60.066406 156.867188 60 C 156.816406 59.929688 156.75 59.878906 156.675781 59.839844 C 156.597656 59.800781 156.519531 59.78125 156.433594 59.777344 C 153.542969 60.078125 151.40625 62.214844 149.0625 63.699219 C 146.4375 65.308594 143.589844 66.082031 140.515625 66.023438 C 139.050781 65.992188 137.644531 65.527344 136.183594 65.425781 C 134.71875 65.324219 133.28125 65.460938 131.867188 65.835938 C 128.777344 66.667969 126.222656 68.644531 123.71875 70.550781 C 122.207031 71.695312 120.695312 72.859375 119.25 74.082031 C 118.269531 75.015625 117.214844 75.859375 116.089844 76.613281 L 115.195312 76.613281 C 115.027344 76.609375 114.882812 76.660156 114.757812 76.769531 C 113.988281 76.886719 113.226562 76.929688 112.445312 77.011719 C 111.59375 77.125 110.761719 77.332031 109.953125 77.632812 C 108.6875 78.050781 107.515625 78.65625 106.4375 79.441406 C 107.300781 78.386719 108.183594 77.386719 109.136719 76.433594 C 110.632812 74.933594 112.203125 73.523438 113.671875 72 C 114.941406 70.691406 116.148438 69.324219 117.464844 68.070312 C 118.921875 66.613281 120.570312 65.417969 122.40625 64.480469 C 122.613281 64.386719 122.691406 64.226562 122.636719 64.007812 C 125.480469 63.015625 128.019531 60.921875 131.117188 61.078125 C 131.242188 61.085938 131.347656 61.046875 131.433594 60.957031 C 131.578125 61.058594 131.734375 61.074219 131.898438 61.003906 C 135.492188 59.636719 139.457031 61.285156 143.144531 61.296875 C 147.171875 61.296875 151.09375 60.242188 155.101562 59.980469 C 155.320312 59.941406 155.460938 59.8125 155.515625 59.597656 C 155.574219 59.382812 155.519531 59.203125 155.347656 59.058594 C 153.625 57.792969 151.863281 56.535156 149.824219 55.832031 C 147.640625 55.074219 145.382812 55.214844 143.128906 55.542969 C 140.679688 55.894531 138.3125 56.558594 136.039062 57.542969 C 134.460938 58.238281 132.472656 58.851562 131.246094 60.175781 C 131.203125 60.160156 131.160156 60.148438 131.117188 60.140625 C 128.023438 60.0625 125.6875 62.039062 123.054688 63.300781 C 123.78125 62.773438 124.515625 62.246094 125.273438 61.796875 C 126.855469 60.789062 128.542969 59.894531 130.195312 58.972656 C 131.695312 58.136719 133.113281 57.167969 134.601562 56.34375 C 136.09375 55.515625 137.617188 54.761719 139.144531 53.972656 C 139.960938 53.5625 140.78125 53.15625 141.59375 52.734375 C 142.292969 52.417969 142.949219 52.019531 143.550781 51.542969 C 143.574219 51.515625 143.59375 51.492188 143.609375 51.460938 C 143.757812 51.410156 143.910156 51.363281 144.050781 51.304688 C 145.128906 50.898438 146.203125 50.484375 147.285156 50.082031 L 148.132812 49.765625 C 149.183594 49.429688 150.179688 49.066406 151.222656 48.761719 C 152.148438 48.511719 153.089844 48.335938 154.046875 48.234375 C 154.136719 48.367188 154.257812 48.453125 154.414062 48.488281 C 155.589844 48.773438 156.621094 49.605469 157.527344 50.363281 C 158.433594 51.121094 159.394531 52.03125 160.28125 52.914062 C 162.542969 55.269531 164.636719 57.761719 166.558594 60.398438 C 169.867188 64.734375 173.859375 68.949219 179.515625 69.78125 C 181.972656 70.144531 185.363281 70.011719 187.042969 72.191406 C 187.53125 72.828125 188.566406 72.285156 188.152344 71.542969 C 185.089844 66.105469 182.582031 60.253906 178.429688 55.519531 C 176.484375 53.21875 174.164062 51.40625 171.460938 50.078125 C 168.867188 48.863281 166.117188 48.339844 163.328125 47.789062 C 161.824219 47.46875 160.304688 47.234375 158.773438 47.09375 C 157.722656 46.976562 156.683594 47.035156 155.652344 47.265625 C 155.632812 47.246094 155.613281 47.226562 155.589844 47.210938 C 159.660156 45.96875 163.804688 45.0625 168.023438 44.488281 C 170.65625 44.144531 173.335938 44.035156 175.996094 43.855469 C 176.164062 43.855469 176.3125 43.804688 176.445312 43.707031 C 177.636719 43.765625 178.828125 43.707031 180.035156 43.652344 C 181.613281 43.597656 183.289062 43.503906 184.773438 44.097656 C 186.011719 44.671875 187.132812 45.417969 188.140625 46.339844 C 189.253906 47.246094 190.300781 48.039062 190.964844 49.347656 C 191.527344 50.613281 191.945312 51.929688 192.210938 53.292969 C 192.574219 54.726562 193.027344 56.132812 193.574219 57.503906 C 194.746094 60.546875 196.378906 63.320312 198.472656 65.816406 C 200.621094 68.316406 203.210938 70.808594 206.40625 71.847656 C 206.503906 71.875 206.605469 71.878906 206.703125 71.859375 C 206.804688 71.839844 206.894531 71.796875 206.976562 71.734375 C 207.058594 71.675781 207.121094 71.597656 207.167969 71.507812 C 207.214844 71.414062 207.238281 71.320312 207.238281 71.21875 C 207.328125 69.113281 206.75 66.976562 206.222656 64.933594 C 205.695312 62.890625 205.4375 60.722656 204.695312 58.757812 C 204.347656 57.808594 203.867188 56.933594 203.257812 56.125 C 202.546875 55.253906 201.730469 54.492188 200.8125 53.839844 C 199.8125 53.0625 198.78125 52.320312 197.722656 51.621094 C 196.804688 51.019531 195.832031 50.492188 194.933594 49.867188 C 194.246094 49.394531 193.625 48.816406 192.933594 48.363281 C 192.480469 48.0625 191.828125 47.5 191.230469 47.644531 C 190.5625 46.851562 189.816406 46.136719 188.996094 45.503906 C 188.015625 44.59375 186.941406 43.820312 185.765625 43.183594 C 185.296875 42.953125 184.808594 42.777344 184.300781 42.65625 C 186.191406 42.40625 188.09375 42.289062 190.003906 42.308594 C 192.152344 42.398438 194.269531 42.808594 196.402344 43.046875 C 198.53125 43.28125 200.757812 43.699219 202.921875 44.097656 C 204.109375 44.328125 205.292969 44.554688 206.476562 44.773438 C 207.050781 44.878906 207.648438 45.019531 208.25 45.125 C 208.382812 45.351562 208.578125 45.476562 208.839844 45.5 C 212.917969 45.925781 215.113281 50.332031 217.570312 53.066406 C 218.257812 53.851562 219.015625 54.550781 219.851562 55.171875 C 220.878906 55.847656 221.972656 56.371094 223.140625 56.753906 C 226.078125 57.84375 229.152344 58.515625 232.132812 59.488281 C 235.257812 60.484375 238.101562 62.011719 240.664062 64.0625 C 240.769531 64.15625 240.890625 64.207031 241.03125 64.210938 C 241.171875 64.21875 241.300781 64.175781 241.410156 64.09375 C 241.523438 64.007812 241.59375 63.894531 241.625 63.757812 C 241.65625 63.621094 241.640625 63.488281 241.574219 63.363281 C 240.785156 61.785156 240.476562 60.019531 240.0625 58.304688 C 241.375 59.199219 242.695312 60.121094 243.492188 61.503906 C 243.960938 62.320312 244.300781 63.207031 244.726562 64.046875 C 245.195312 64.960938 245.722656 65.839844 246.308594 66.679688 C 247.410156 68.316406 248.734375 69.757812 250.269531 70.996094 C 251.78125 72.195312 253.539062 73.292969 254.582031 74.960938 C 254.664062 75.09375 254.777344 75.183594 254.925781 75.234375 C 255.078125 75.28125 255.222656 75.277344 255.367188 75.21875 C 255.511719 75.15625 255.621094 75.058594 255.691406 74.917969 C 255.765625 74.78125 255.78125 74.632812 255.746094 74.480469 Z M 221.898438 41.601562 C 221.371094 41.410156 220.847656 41.171875 220.320312 41.023438 C 218.984375 40.667969 217.632812 40.398438 216.265625 40.214844 C 213.535156 39.8125 210.789062 39.65625 208.027344 39.753906 C 205.296875 39.839844 202.542969 40.003906 199.816406 39.648438 C 197.117188 39.207031 194.460938 38.585938 191.847656 37.78125 C 191.289062 37.621094 190.742188 37.433594 190.203125 37.21875 C 191.203125 36.988281 192.1875 36.691406 193.152344 36.386719 C 195.558594 35.644531 197.835938 35.039062 200.375 35.261719 C 202.910156 35.480469 205.417969 36.3125 207.917969 36.898438 C 210.597656 37.539062 213.238281 38.246094 215.875 39.003906 C 217.898438 39.632812 220.320312 40.070312 221.898438 41.601562 Z M 195.054688 32.917969 C 197.671875 32.0625 200.34375 31.820312 203.074219 32.191406 C 208.082031 32.75 213.050781 34.125 217.214844 37.039062 C 218.160156 37.703125 219.054688 38.433594 219.894531 39.230469 C 219.320312 39.023438 218.75 38.859375 218.234375 38.703125 C 215.449219 37.886719 212.671875 37.035156 209.851562 36.367188 C 207.21875 35.738281 204.585938 34.949219 201.917969 34.535156 C 199.449219 34.152344 197.035156 34.367188 194.675781 35.175781 C 192.902344 35.832031 191.101562 36.394531 189.273438 36.867188 L 189.121094 36.8125 C 188.875 36.730469 188.628906 36.660156 188.378906 36.601562 C 190.800781 35.78125 192.625 33.765625 195.046875 32.890625 Z M 156.226562 35.65625 C 157.609375 33.480469 159.105469 31.386719 160.710938 29.371094 C 163.738281 25.683594 167.148438 22.074219 171.65625 20.289062 C 173.175781 19.679688 174.742188 19.238281 176.355469 18.96875 C 175.660156 19.4375 174.996094 19.964844 174.335938 20.480469 C 172.429688 21.972656 170.359375 23.207031 168.542969 24.847656 C 164.511719 28.53125 162.03125 33.691406 157.621094 36.953125 C 156.449219 37.828125 155.027344 38.535156 153.785156 39.433594 C 154.5625 38.148438 155.390625 36.890625 156.222656 35.628906 Z M 157.554688 38.039062 C 159.617188 36.554688 161.414062 34.796875 162.953125 32.777344 C 164.53125 30.78125 166.054688 28.683594 167.839844 26.84375 C 169.746094 24.984375 171.8125 23.328125 174.042969 21.875 C 174.765625 21.347656 175.433594 20.789062 176.152344 20.261719 C 176.445312 20.046875 176.746094 19.835938 177.050781 19.640625 C 176.808594 19.871094 176.582031 20.117188 176.371094 20.375 C 175.632812 21.300781 174.976562 22.285156 174.328125 23.273438 C 173 25.289062 171.558594 27.21875 170.007812 29.066406 C 168.503906 30.917969 166.808594 32.578125 164.921875 34.042969 C 162.996094 35.453125 160.980469 36.71875 158.878906 37.84375 C 157.042969 38.855469 155.195312 39.8125 153.328125 40.796875 C 154.605469 39.714844 156.175781 38.972656 157.546875 38.011719 Z M 122.113281 57.183594 L 122.179688 57.0625 C 122.15625 57.101562 122.132812 57.140625 122.113281 57.183594 Z M 126.792969 26.039062 C 127.679688 24.269531 129.007812 22.785156 130.125 21.164062 C 130.011719 21.640625 129.90625 22.117188 129.808594 22.59375 C 129.453125 24.117188 129.207031 25.65625 129.070312 27.210938 C 128.886719 30.460938 129.691406 33.640625 130.203125 36.816406 C 130.648438 39.585938 130.871094 42.34375 129.785156 44.992188 C 128.914062 47.136719 127.433594 48.96875 125.984375 50.746094 C 124.894531 52.011719 123.917969 53.363281 123.0625 54.800781 L 123.28125 54.234375 C 123.753906 52.929688 124.136719 51.59375 124.425781 50.234375 C 125.015625 47.539062 124.953125 44.808594 124.917969 42.0625 C 124.886719 39.246094 125.023438 36.4375 125.332031 33.640625 C 125.589844 31.074219 125.617188 28.375 126.792969 26.039062 Z M 121.390625 40.320312 C 121.601562 37.402344 121.917969 34.398438 122.78125 31.597656 C 123.449219 29.652344 124.46875 27.910156 125.832031 26.375 C 125.207031 28.152344 124.835938 29.984375 124.726562 31.863281 C 124.46875 34.648438 124.144531 37.390625 124.144531 40.191406 C 124.144531 42.992188 124.378906 45.984375 123.949219 48.804688 C 123.703125 50.289062 123.351562 51.746094 122.894531 53.179688 C 122.507812 54.46875 121.941406 55.808594 121.652344 57.105469 L 121.621094 57.105469 C 122.101562 51.53125 120.984375 45.925781 121.390625 40.320312 Z M 114.699219 89.761719 C 116.988281 88.765625 119.382812 88.273438 121.878906 88.277344 C 125.886719 88.214844 130.003906 89.074219 132.933594 91.921875 C 133.925781 92.914062 134.824219 93.988281 135.632812 95.136719 C 134.808594 94.957031 133.976562 94.921875 133.140625 95.027344 C 130.839844 95.289062 128.527344 95.425781 126.210938 95.425781 C 123.824219 95.375 121.527344 94.902344 119.3125 94.011719 C 117.453125 93.261719 115.625 92.398438 113.773438 91.683594 C 113.171875 91.453125 112.550781 91.230469 111.925781 91.03125 C 112.914062 90.683594 113.847656 90.164062 114.699219 89.761719 Z M 91.171875 45.015625 C 92.875 47.460938 93.738281 50.371094 94.585938 53.199219 C 95.007812 54.605469 95.417969 56.011719 95.945312 57.410156 C 96.472656 58.8125 97.183594 60.125 97.84375 61.464844 C 98.066406 61.90625 98.28125 62.351562 98.496094 62.796875 C 97.699219 62.046875 96.777344 61.382812 96.035156 60.636719 C 94.675781 59.269531 93.300781 57.890625 92.671875 56.011719 C 92.074219 54.246094 91.851562 52.324219 91.488281 50.503906 C 91.183594 48.683594 90.710938 46.90625 90.066406 45.175781 C 89.695312 44.234375 89.203125 43.359375 88.589844 42.550781 C 89.617188 43.199219 90.476562 44.019531 91.171875 45.015625 Z M 98.703125 75.339844 C 97.691406 73.820312 96.601562 72.355469 95.433594 70.953125 C 94.269531 69.675781 93.21875 68.308594 92.277344 66.859375 C 91.519531 65.574219 90.929688 64.210938 90.511719 62.78125 C 88.933594 57.445312 89.75 51.824219 88.65625 46.425781 C 88.359375 44.71875 87.785156 43.109375 86.929688 41.601562 L 87.390625 41.84375 C 89.496094 44.296875 90.324219 47.519531 90.738281 50.75 C 90.894531 52.542969 91.183594 54.308594 91.601562 56.058594 C 91.945312 57.203125 92.515625 58.222656 93.308594 59.117188 C 94.734375 63.109375 97.566406 66.484375 98.808594 70.550781 C 99.546875 72.929688 100.039062 75.359375 100.28125 77.839844 C 99.8125 76.972656 99.289062 76.140625 98.71875 75.339844 Z M 100.886719 76.164062 C 100.597656 74.234375 100.167969 72.332031 99.59375 70.464844 C 98.875 68.300781 97.910156 66.257812 96.699219 64.328125 C 95.875 62.953125 95.007812 61.585938 94.28125 60.152344 C 94.421875 60.289062 94.558594 60.421875 94.707031 60.554688 C 95.488281 61.257812 96.335938 61.863281 97.160156 62.523438 C 97.988281 63.179688 98.976562 63.953125 99.457031 64.992188 C 99.480469 65.042969 99.515625 65.082031 99.566406 65.105469 C 100.238281 66.671875 100.753906 68.289062 101.113281 69.953125 C 101.523438 71.679688 101.535156 73.410156 101.152344 75.144531 C 101.070312 75.488281 100.988281 75.816406 100.902344 76.164062 Z M 122.375 72.574219 C 125.007812 70.585938 127.636719 68.285156 130.796875 67.121094 C 132.175781 66.589844 133.609375 66.332031 135.085938 66.34375 C 136.609375 66.34375 138.007812 66.832031 139.503906 67.03125 C 142.394531 67.417969 145.453125 66.683594 148.078125 65.5 C 149.496094 64.785156 150.828125 63.933594 152.078125 62.953125 L 152.65625 62.546875 C 151.636719 63.601562 150.746094 64.871094 149.667969 65.832031 C 148.625 66.800781 147.464844 67.605469 146.195312 68.242188 C 144.816406 68.824219 143.378906 69.117188 141.882812 69.113281 C 140.410156 69.152344 138.96875 69.378906 137.554688 69.800781 C 136.066406 70.324219 134.628906 70.960938 133.246094 71.710938 C 131.746094 72.53125 130.167969 73.132812 128.507812 73.519531 C 126.808594 73.84375 125.070312 73.839844 123.355469 74.019531 C 121.960938 74.164062 120.605469 74.488281 119.296875 74.988281 C 120.320312 74.179688 121.34375 73.363281 122.390625 72.574219 Z M 117.410156 76.4375 C 118.101562 76.105469 118.8125 75.832031 119.546875 75.617188 C 120.902344 75.167969 122.292969 74.882812 123.71875 74.765625 C 125.347656 74.628906 126.992188 74.613281 128.605469 74.328125 C 130.078125 74.027344 131.480469 73.539062 132.816406 72.859375 C 134.25 72.101562 135.722656 71.425781 137.230469 70.828125 C 138.65625 70.347656 140.125 70.082031 141.628906 70.027344 C 142.996094 70.035156 144.332031 69.847656 145.640625 69.460938 C 146.890625 69.015625 148.03125 68.378906 149.074219 67.558594 C 150.246094 66.632812 151.3125 65.59375 152.269531 64.441406 C 153 63.476562 153.851562 62.628906 154.828125 61.90625 C 154.195312 62.636719 153.617188 63.40625 153.089844 64.210938 C 152.214844 65.734375 151.703125 67.433594 150.726562 68.902344 C 149.914062 70.097656 148.917969 71.117188 147.742188 71.960938 C 146.566406 72.800781 145.277344 73.410156 143.882812 73.792969 C 140.824219 74.671875 137.597656 74.84375 134.472656 75.371094 C 132.488281 75.75 130.492188 76.023438 128.480469 76.191406 C 126.554688 76.316406 124.617188 76.324219 122.691406 76.503906 C 120.851562 76.640625 119.007812 76.683594 117.164062 76.628906 C 117.238281 76.566406 117.332031 76.503906 117.425781 76.4375 Z M 136.566406 58.230469 C 138.683594 57.378906 140.871094 56.789062 143.128906 56.464844 C 145.292969 56.140625 147.460938 56.003906 149.558594 56.746094 C 151.046875 57.320312 152.421875 58.09375 153.691406 59.0625 C 150.082031 59.347656 146.515625 60.164062 142.886719 60.117188 C 139.933594 60.074219 136.855469 59.0625 133.890625 59.363281 C 134.792969 58.972656 135.691406 58.59375 136.582031 58.230469 Z M 181.59375 68.570312 C 180.390625 68.457031 179.207031 68.253906 178.035156 67.960938 C 176.632812 67.535156 175.335938 66.902344 174.132812 66.0625 C 171.761719 64.4375 169.828125 62.207031 168.054688 59.964844 C 165.949219 57.332031 163.949219 54.640625 161.558594 52.257812 C 160.519531 51.207031 159.429688 50.210938 158.289062 49.273438 C 157.90625 48.960938 157.511719 48.644531 157.101562 48.351562 C 159.265625 49.109375 161.4375 49.832031 163.585938 50.625 C 166.015625 51.515625 168.324219 52.542969 170.222656 54.308594 C 171.886719 55.890625 173.28125 57.671875 174.902344 59.261719 C 176.875 61.207031 178.914062 63.074219 180.808594 65.101562 C 181.789062 66.152344 182.710938 67.242188 183.761719 68.222656 L 184.863281 69.273438 C 183.800781 68.929688 182.71875 68.695312 181.609375 68.570312 Z M 162.644531 48.796875 C 165.234375 49.324219 167.859375 49.816406 170.296875 50.902344 C 175.789062 53.277344 179.394531 58.207031 182.234375 63.242188 C 183.082031 64.734375 183.882812 66.253906 184.679688 67.773438 C 183.851562 67 183.050781 66.195312 182.277344 65.386719 C 180.296875 63.28125 178.199219 61.261719 176.066406 59.304688 C 174.304688 57.695312 172.824219 55.804688 171.109375 54.148438 C 170.324219 53.371094 169.472656 52.679688 168.550781 52.078125 C 167.429688 51.425781 166.257812 50.886719 165.03125 50.46875 C 162.332031 49.457031 159.511719 48.820312 156.773438 47.914062 C 158.753906 47.878906 160.828125 48.410156 162.667969 48.796875 Z M 196.449219 52.542969 C 197.4375 53.214844 198.410156 53.917969 199.363281 54.648438 C 201 55.882812 202.375 57.125 203.144531 59.074219 C 203.847656 60.847656 204.105469 62.757812 204.632812 64.589844 C 205.171875 66.195312 205.585938 67.832031 205.871094 69.5 C 205.550781 69.179688 205.21875 68.863281 204.914062 68.542969 C 204.300781 67.902344 203.691406 67.265625 203.144531 66.574219 C 202.023438 65.054688 201.171875 63.398438 200.578125 61.605469 C 199.328125 58.304688 197.878906 55.027344 195.699219 52.21875 C 195.609375 52.109375 195.515625 52.007812 195.425781 51.898438 C 195.769531 52.09375 196.109375 52.316406 196.449219 52.542969 Z M 192.46875 49.652344 L 192.832031 49.953125 C 194.898438 52.007812 196.535156 54.363281 197.742188 57.015625 C 198.507812 58.648438 199.148438 60.332031 199.769531 62.023438 C 200.320312 63.753906 201.113281 65.371094 202.148438 66.871094 C 202.699219 67.609375 203.296875 68.3125 203.9375 68.976562 C 204.054688 69.089844 204.164062 69.210938 204.273438 69.328125 C 202.519531 68.078125 200.964844 66.621094 199.605469 64.949219 C 197.457031 62.429688 195.796875 59.621094 194.617188 56.527344 C 193.730469 54.246094 193.289062 51.789062 192.316406 49.523438 Z M 234.316406 58.742188 C 231.257812 57.511719 228.042969 56.722656 224.925781 55.667969 C 223.605469 55.289062 222.351562 54.765625 221.15625 54.089844 C 220.324219 53.542969 219.578125 52.898438 218.917969 52.152344 C 217.464844 50.574219 216.289062 48.78125 214.835938 47.21875 C 214.511719 46.878906 214.175781 46.554688 213.828125 46.25 C 215.148438 46.566406 216.484375 46.808594 217.828125 46.972656 C 220.109375 47.332031 222.308594 47.65625 224.265625 48.957031 C 226.128906 50.195312 227.71875 51.835938 229.339844 53.363281 C 231.070312 55.058594 232.898438 56.636719 234.828125 58.101562 C 235.800781 58.804688 236.972656 59.238281 237.902344 60.003906 C 238.324219 60.386719 238.683594 60.820312 238.980469 61.3125 C 237.519531 60.277344 235.964844 59.421875 234.3125 58.742188 Z M 238.855469 59.640625 C 238.074219 58.96875 237.21875 58.410156 236.289062 57.96875 C 234.148438 56.730469 232.3125 54.890625 230.5 53.230469 C 228.914062 51.640625 227.238281 50.144531 225.484375 48.742188 C 224.625 48.089844 223.695312 47.566406 222.699219 47.160156 C 221.632812 46.769531 220.539062 46.496094 219.414062 46.339844 C 218.0625 46.121094 216.703125 45.945312 215.355469 45.6875 C 214.765625 45.578125 214.199219 45.429688 213.628906 45.273438 C 218.03125 45.320312 222.515625 45.328125 226.648438 46.851562 C 228.800781 47.691406 230.820312 48.789062 232.695312 50.140625 C 234.5625 51.453125 236.453125 53.027344 237.648438 55 C 238.632812 56.632812 238.992188 58.5 239.421875 60.34375 C 239.25 60.09375 239.058594 59.859375 238.847656 59.640625 Z M 251.59375 70.121094 C 250 68.789062 248.640625 67.25 247.507812 65.511719 C 246.453125 63.828125 245.796875 61.894531 244.703125 60.246094 C 243.492188 58.421875 241.460938 57.390625 239.691406 56.183594 C 239.609375 56.128906 239.523438 56.09375 239.433594 56.066406 C 239.285156 55.648438 239.109375 55.238281 238.90625 54.839844 C 238.574219 54.226562 238.183594 53.644531 237.738281 53.105469 C 239.347656 53.855469 241.082031 54.347656 242.554688 55.363281 C 244.105469 56.4375 245.527344 57.667969 246.816406 59.046875 C 248.144531 60.410156 249.3125 61.894531 250.324219 63.507812 C 251.207031 65.0625 251.921875 66.695312 252.464844 68.402344 C 252.859375 69.554688 253.21875 70.71875 253.609375 71.871094 C 252.945312 71.277344 252.246094 70.707031 251.585938 70.121094 Z M 251.25 63.5625 C 250.296875 61.9375 249.171875 60.4375 247.882812 59.0625 C 246.609375 57.625 245.207031 56.332031 243.671875 55.183594 C 242.785156 54.507812 241.820312 53.964844 240.78125 53.5625 C 239.667969 53.152344 238.511719 52.976562 237.375 52.664062 C 236.582031 51.78125 235.714844 50.976562 234.78125 50.246094 C 235.449219 50.363281 236.121094 50.460938 236.78125 50.628906 C 237.828125 50.882812 238.84375 51.230469 239.820312 51.683594 C 241.722656 52.640625 243.480469 53.820312 245.085938 55.214844 C 248.609375 58.15625 252.597656 61.183594 253.824219 65.816406 C 254.128906 67.238281 254.25 68.675781 254.1875 70.128906 L 254.1875 71.234375 C 253.34375 68.621094 252.585938 65.976562 251.246094 63.5625 Z M 251.25 63.5625 " fill-opacity="1" fill-rule="nonzero"/></g><path fill="#000000" d="M 179.542969 271.347656 C 178.144531 265.265625 178.199219 258.980469 177.816406 252.789062 C 177.5625 245.648438 177.273438 238.53125 177.199219 231.390625 C 176.910156 233.664062 177 235.949219 176.835938 238.222656 C 176.636719 243.523438 176.253906 248.828125 175.855469 254.132812 C 175.402344 260.234375 174.746094 266.316406 174.945312 272.4375 C 175.054688 274.128906 175.238281 276.035156 176.546875 277.289062 C 177.851562 278.542969 180.03125 279.050781 181.921875 279.285156 C 184.589844 279.558594 187.265625 279.671875 189.949219 279.632812 C 187.425781 278.867188 184.808594 278.179688 182.574219 276.6875 C 180.796875 275.472656 179.996094 273.367188 179.542969 271.347656 Z M 179.542969 271.347656 " fill-opacity="1" fill-rule="nonzero"/><path fill="#000000" d="M 219.664062 117.042969 C 220.097656 115.5 219.28125 114.046875 219.007812 112.574219 C 220.226562 111.265625 222.1875 111.066406 223.875 111.265625 C 223.46875 111.804688 223.132812 112.386719 222.878906 113.011719 C 223.222656 112.503906 223.550781 111.976562 223.894531 111.46875 L 224.585938 111.265625 C 222.351562 110.59375 220.097656 111.449219 217.992188 112.140625 C 215.886719 112.828125 214.214844 114.355469 213.921875 116.496094 C 213.578125 118.222656 214.214844 119.929688 215.085938 121.402344 C 216.972656 120.4375 219.046875 119.203125 219.664062 117.042969 Z M 219.664062 117.042969 " fill-opacity="1" fill-rule="nonzero"/><path fill="#000000" d="M 242.945312 112.394531 C 243.632812 113.226562 244.425781 113.941406 245.324219 114.535156 C 244.691406 113.753906 243.855469 113.136719 243.308594 112.300781 C 242.765625 111.46875 242.910156 110.066406 242.65625 108.941406 C 242.347656 106.925781 240.621094 105.308594 238.695312 104.78125 C 237.261719 104.367188 235.789062 104.730469 234.375 104.964844 C 234.917969 106.542969 235.425781 108.253906 236.679688 109.433594 C 238.460938 111.066406 241.492188 110.324219 242.945312 112.394531 Z M 242.945312 112.394531 " fill-opacity="1" fill-rule="nonzero"/><path fill="#000000" d="M 131.683594 114.554688 C 133.027344 113.464844 134.917969 114.191406 136.371094 113.335938 C 137.824219 112.484375 138.621094 110.703125 139.402344 109.179688 C 138.148438 108.707031 136.789062 108.453125 135.445312 108.667969 C 134.609375 108.8125 133.863281 109.152344 133.207031 109.6875 C 132.550781 110.21875 132.066406 110.878906 131.757812 111.667969 C 131.359375 112.648438 131.394531 113.738281 131.03125 114.71875 C 130.667969 115.699219 129.613281 116.570312 128.996094 117.550781 C 129.941406 116.589844 130.648438 115.425781 131.683594 114.554688 Z M 131.683594 114.554688 " fill-opacity="1" fill-rule="nonzero"/><path fill="#000000" d="M 168.101562 116.769531 C 168.714844 115.800781 169.386719 114.875 170.117188 113.992188 C 171.605469 115.097656 173.09375 116.804688 175.148438 116.515625 C 176.109375 116.351562 176.183594 115.261719 176.363281 114.5 C 176.546875 113.738281 177.035156 113.863281 177.433594 113.609375 C 177.835938 113.355469 177.398438 112.828125 177.34375 112.464844 C 178.253906 112.339844 178.816406 111.648438 179.015625 110.792969 C 179.761719 110.792969 180.796875 111.25 181.304688 110.503906 C 181.613281 109.105469 181.066406 107.652344 181.375 106.234375 C 182.792969 104.890625 183.703125 103.058594 184.15625 101.152344 C 185.152344 100.933594 186.316406 100.859375 187.0625 100.0625 C 187.335938 99.785156 187.5625 99.472656 187.742188 99.128906 C 187.917969 98.78125 188.039062 98.414062 188.101562 98.03125 C 188.160156 97.644531 188.164062 97.257812 188.105469 96.875 C 188.042969 96.488281 187.925781 96.121094 187.75 95.773438 C 186.824219 93.996094 185.371094 92.542969 183.703125 91.488281 C 182.03125 90.433594 180.449219 90.378906 179.089844 89.308594 C 177.726562 88.238281 176.382812 86.839844 174.582031 86.382812 C 171.460938 85.710938 167.972656 86.4375 165.574219 88.601562 C 163.480469 90.5 162.015625 92.800781 161.179688 95.503906 C 160.21875 98.734375 160.796875 102.167969 160.144531 105.4375 C 159.980469 106.253906 159.4375 106.890625 159 107.582031 C 161.453125 111.175781 165.03125 113.738281 168.101562 116.769531 Z M 168.101562 116.769531 " fill-opacity="1" fill-rule="nonzero"/><path fill="#000000" d="M 214.503906 269.550781 C 209.039062 264.285156 204.75 257.910156 201.320312 251.152344 C 195.941406 240.4375 192.546875 228.847656 190.09375 217.152344 C 187.640625 205.457031 185.878906 193.488281 184.972656 181.519531 C 184.9375 187.277344 185.261719 193.035156 185.335938 198.808594 C 185.933594 218.589844 185.917969 238.421875 187.515625 258.164062 C 188.042969 263.339844 188.53125 268.535156 189.820312 273.582031 C 190.421875 275.78125 191.113281 278.050781 192.691406 279.757812 C 193.671875 280.757812 195.125 281.011719 196.453125 281.085938 C 200.320312 281.265625 204.1875 281.246094 208.058594 281.210938 C 215.832031 281.066406 223.621094 280.976562 231.378906 280.285156 C 229.578125 279.449219 227.691406 278.777344 225.945312 277.796875 C 221.75 275.652344 217.917969 272.800781 214.503906 269.550781 Z M 214.503906 269.550781 " fill-opacity="1" fill-rule="nonzero"/><g clip-path="url(#ad4a3a905f)"><path fill="#000000" d="M 252.246094 148.117188 C 253.207031 145.613281 253.390625 142.886719 253.664062 140.234375 C 254.027344 139.910156 253.917969 139.417969 253.644531 139.074219 C 253.492188 138.085938 253.445312 137.09375 253.5 136.09375 C 253.898438 137.019531 253.917969 138.054688 253.789062 139.039062 C 253.972656 139.089844 254.207031 139.128906 254.261719 138.875 C 254.84375 137.347656 256.058594 136.238281 257.023438 134.96875 C 257.71875 134.089844 258.183594 133.105469 258.421875 132.011719 C 258.664062 130.917969 258.648438 129.828125 258.382812 128.738281 C 257.929688 126.597656 256.585938 124.816406 255.261719 123.144531 C 253.316406 125.289062 251.808594 128.085938 252.117188 131.0625 C 251.375 128.449219 250.101562 126.050781 248.847656 123.671875 C 249.683594 122.472656 250.355469 121.183594 251.210938 120.019531 C 252.0625 118.859375 252.972656 116.933594 252.863281 115.152344 C 252.773438 111.976562 250.609375 109.304688 248.214844 107.417969 C 246.960938 109.886719 245.996094 112.648438 246.433594 115.460938 C 246.6875 117.585938 248.46875 119.058594 249.050781 121.054688 L 248.414062 122.601562 C 247.46875 121.527344 246.722656 120.292969 245.816406 119.203125 C 243.890625 116.875 241.707031 114.820312 239.257812 113.046875 C 238.097656 112.191406 236.789062 111.59375 235.664062 110.703125 C 234.542969 109.308594 233.789062 107.734375 233.410156 105.980469 C 232.992188 104.074219 231.25 102.675781 229.359375 102.386719 C 227.890625 102.113281 226.382812 102.566406 225.09375 103.257812 C 225.910156 104.746094 226.800781 106.453125 228.507812 107.109375 C 230.214844 107.761719 231.777344 107.453125 233.300781 107.996094 C 234.121094 108.707031 234.574219 109.722656 235.226562 110.578125 C 231.957031 108.996094 228.507812 107.433594 224.800781 107.507812 C 221.097656 107.582031 217.738281 108.160156 214.921875 110.285156 C 218.265625 108.886719 222.003906 108.414062 225.566406 109.125 C 228.757812 109.773438 231.761719 110.925781 234.574219 112.574219 C 232.105469 112.574219 229.214844 112.59375 227.4375 114.574219 C 225.65625 116.550781 225.820312 119.257812 226.402344 121.601562 C 228.324219 121.09375 230.433594 120.53125 231.757812 118.914062 C 233.085938 117.296875 233.121094 115.355469 233.757812 113.574219 C 235.464844 112.847656 237.171875 113.863281 238.460938 114.9375 C 240.785156 116.789062 243.019531 118.824219 244.78125 121.238281 L 243.820312 120.910156 C 242.710938 120.585938 242.382812 119.203125 241.222656 118.96875 C 240.058594 118.730469 239.132812 119.949219 238.332031 120.730469 C 238.894531 121.472656 239.515625 122.308594 240.441406 122.636719 C 241.367188 122.964844 241.984375 121.984375 242.835938 121.964844 L 242.292969 121.890625 C 242.910156 120.984375 244.308594 121.183594 245.054688 121.800781 C 246.214844 123.273438 247.070312 124.960938 247.960938 126.613281 C 247.195312 126.777344 246.359375 126.960938 245.617188 126.613281 C 243.855469 125.941406 242.109375 124.890625 240.148438 125.089844 C 237.625 125.304688 235.628906 127.175781 234.300781 129.191406 C 236.554688 130.101562 238.695312 131.664062 241.222656 131.5 C 243.292969 131.425781 245.035156 130.046875 246.253906 128.464844 C 246.742188 127.792969 247.542969 127.558594 248.285156 127.324219 C 249.136719 128.984375 249.800781 130.714844 250.285156 132.515625 C 252.027344 139.726562 251.066406 147.808594 246.761719 153.964844 C 247.085938 152.042969 247.960938 150.042969 247.304688 148.101562 C 246.324219 145.628906 243.746094 144.285156 241.347656 143.503906 C 240.566406 145.25 240.039062 147.191406 240.457031 149.097656 C 240.75 150.535156 241.765625 151.640625 242.78125 152.640625 C 243.800781 153.640625 244.507812 154.019531 244.980469 155.019531 C 245.453125 156.019531 244.78125 157.164062 244.144531 157.960938 C 239.207031 163.828125 233.195312 168.625 227.453125 173.671875 C 223.566406 177.070312 219.679688 180.484375 216.355469 184.425781 C 213.488281 187.855469 211.125 191.816406 209.910156 196.140625 C 212.179688 191.761719 215.484375 188.019531 218.992188 184.605469 C 222.933594 180.792969 227.234375 177.378906 231.449219 173.871094 C 232.050781 173.328125 232.882812 173.363281 233.648438 173.472656 C 235.628906 173.746094 237.699219 173.617188 239.53125 172.765625 C 241.949219 171.710938 243.601562 169.566406 244.90625 167.351562 C 242.964844 166.808594 240.929688 166.390625 238.914062 166.808594 C 242.105469 164.128906 245 161.164062 247.597656 157.90625 C 248.03125 157.398438 248.449219 156.78125 249.195312 156.726562 C 251.230469 156.398438 253.390625 155.910156 254.898438 154.402344 C 257.113281 152.257812 257.695312 148.972656 257.496094 146.011719 C 255.679688 146.449219 253.769531 146.957031 252.246094 148.117188 Z M 252.246094 148.117188 " fill-opacity="1" fill-rule="nonzero"/></g><path fill="#000000" d="M 243.691406 135.257812 C 241.894531 135.367188 239.75 135.097656 238.351562 136.496094 C 236.953125 137.894531 236.824219 139.800781 236.917969 141.578125 C 238.679688 141.488281 240.65625 141.234375 241.929688 139.855469 C 243.199219 138.472656 242.984375 136.984375 243.65625 135.605469 C 244.761719 135.476562 245.90625 135.441406 246.996094 135.1875 C 246.742188 136.984375 245.324219 138.601562 245.871094 140.488281 C 246.414062 142.378906 248.429688 142.996094 250.121094 143.214844 C 250.574219 141.960938 250.8125 140.289062 249.757812 139.253906 C 248.703125 138.21875 247.613281 138.238281 246.832031 137.3125 C 246.980469 136.675781 247.085938 136.023438 247.289062 135.386719 C 247.488281 134.75 248.121094 134.007812 248.050781 133.1875 C 247.976562 132.371094 247.449219 131.117188 246.980469 130.175781 C 247.234375 131.574219 248.105469 133.152344 247.160156 134.476562 C 246.289062 135.496094 244.855469 135.152344 243.691406 135.257812 Z M 243.691406 135.257812 " fill-opacity="1" fill-rule="nonzero"/><path fill="#000000" d="M 131.703125 141.035156 C 132.972656 142.070312 134.664062 142.269531 136.226562 142.453125 C 136.441406 140.726562 136.296875 138.765625 134.988281 137.476562 C 134.082031 136.476562 132.683594 136.167969 131.394531 136.167969 C 129.730469 136.199219 128.21875 135.738281 126.851562 134.789062 C 126.019531 134.152344 125.980469 133.027344 125.964844 132.0625 L 126.453125 132.0625 L 126.21875 131.535156 C 126.34375 131.191406 126.4375 130.863281 126.542969 130.519531 C 125.964844 131.480469 125.328125 132.644531 125.761719 133.804688 C 126.199219 134.96875 126.617188 136.675781 126.945312 138.128906 C 125.835938 138.582031 124.621094 139.054688 123.910156 140.074219 C 123.203125 141.089844 123.511719 142.652344 123.820312 143.886719 C 125.835938 143.558594 128.234375 142.050781 127.925781 139.710938 C 127.5625 138.09375 126.835938 136.585938 126.382812 134.988281 C 127.363281 135.496094 128.414062 135.859375 129.394531 136.367188 C 130.285156 137.839844 130.375 139.800781 131.703125 141.035156 Z M 131.703125 141.035156 " fill-opacity="1" fill-rule="nonzero"/><path fill="#000000" d="M 133.027344 127.722656 C 130.902344 127.269531 129.03125 128.648438 127 129.03125 C 128.125 130.902344 129.503906 132.878906 131.722656 133.480469 C 133.9375 134.078125 136.097656 132.898438 138.097656 132.0625 C 136.988281 130.121094 135.371094 128.140625 133.027344 127.722656 Z M 133.027344 127.722656 " fill-opacity="1" fill-rule="nonzero"/><g clip-path="url(#64ad016e54)"><path fill="#000000" d="M 235.554688 261.941406 C 229.632812 254.296875 225.203125 245.632812 221.425781 236.769531 C 217.246094 226.6875 214.03125 216.226562 210.871094 205.785156 C 207.710938 195.339844 204.660156 185.316406 200.191406 175.578125 C 198.359375 171.945312 196.46875 167.859375 192.691406 165.882812 C 193 165.460938 193.261719 165.011719 193.472656 164.535156 C 195.160156 160.46875 196.667969 156.328125 198.03125 152.148438 C 199.394531 147.972656 200.808594 144.105469 201.480469 139.910156 C 201.300781 143.46875 200.191406 146.863281 199.140625 150.242188 C 198.539062 152.3125 197.867188 154.636719 198.867188 156.691406 C 199.285156 157.636719 200.300781 158.015625 201.082031 158.5625 C 201.390625 160.140625 201.171875 161.941406 202.207031 163.300781 C 203.679688 165.171875 206.660156 165.535156 208.65625 164.335938 C 210.652344 163.136719 211 160.050781 210.035156 157.945312 C 209.671875 157.035156 208.910156 156.398438 208.367188 155.621094 C 209.183594 153.949219 210.871094 152.675781 211.089844 150.714844 C 211.308594 148.753906 210.363281 147.28125 209 146.265625 C 208.367188 145.667969 207.332031 145.050781 207.621094 144.03125 C 208.4375 141.78125 210.617188 140.21875 211.070312 137.800781 C 211.398438 136.023438 210.308594 134.425781 209.128906 133.226562 C 207.949219 132.027344 206.820312 131.046875 206.785156 129.429688 C 206.730469 126.851562 209.09375 124.980469 209.09375 122.417969 C 209.09375 119.859375 207.167969 118.40625 206.730469 116.226562 C 206.296875 114.046875 207.058594 111.628906 206.113281 109.488281 C 205.042969 106.945312 202.554688 105.308594 199.992188 104.546875 C 198.160156 104.054688 196.921875 102.421875 195.105469 101.914062 C 193.289062 101.40625 191.367188 101.023438 189.714844 101.949219 C 188.058594 102.875 187.535156 104.292969 187.480469 105.835938 C 186.589844 106.671875 185.679688 107.488281 184.882812 108.398438 C 184.320312 108.996094 184.410156 109.976562 183.71875 110.484375 C 182.792969 111.519531 181.503906 112.046875 180.25 112.539062 C 180.503906 113.300781 181.46875 114.117188 180.851562 114.9375 C 180.46875 115.390625 180.578125 115.953125 180.6875 116.480469 L 180.304688 117.023438 C 180.558594 118.222656 179.667969 119.347656 180.015625 120.511719 C 181.03125 121.726562 182.8125 121.636719 184.136719 122.347656 C 185.464844 123.054688 186.515625 124.597656 187.171875 126.050781 C 187.824219 127.503906 188.585938 129.339844 188.933594 131.082031 C 189.148438 132.082031 188.679688 133.027344 188.207031 133.859375 C 186.589844 136.566406 184.589844 139 182.519531 141.363281 C 181.265625 142.796875 179.816406 144.050781 178.578125 145.519531 C 177.34375 146.992188 177.527344 148.535156 177.816406 150.042969 C 178.125 152.023438 179.160156 153.765625 180.195312 155.4375 C 177.847656 154.671875 175.675781 153.566406 173.675781 152.113281 C 173.929688 144.339844 174.074219 136.550781 174.3125 128.777344 C 174.367188 127.195312 174.964844 125.453125 174.148438 123.980469 C 172.730469 122.253906 170.988281 120.800781 169.714844 118.96875 C 170.0625 118.296875 170.40625 117.605469 170.789062 116.953125 C 169.863281 116.625 168.554688 116.0625 167.84375 117.078125 C 166.972656 116.042969 165.9375 115.007812 164.523438 114.828125 C 164.613281 116.699219 165.195312 118.496094 165.574219 120.3125 C 165.757812 120.601562 165.703125 121.367188 166.230469 121.164062 C 166.902344 120.601562 167.335938 119.820312 167.992188 119.242188 C 168.480469 119.929688 168.5 120.800781 168.71875 121.582031 C 169.769531 126.289062 170.496094 131.082031 170.589844 135.914062 C 170.570312 136.332031 170.714844 136.839844 170.425781 137.203125 C 170.425781 135.914062 169.96875 134.695312 169.699219 133.460938 C 168.136719 127.46875 166.230469 121.472656 163.234375 116.027344 C 162.25 114.28125 161.199219 112.59375 160.253906 110.8125 C 159.527344 109.6875 159.109375 108.378906 158.238281 107.34375 C 156.675781 108.796875 156.003906 111.050781 154.078125 112.121094 C 150.445312 114.265625 146.597656 116.042969 142.78125 117.839844 C 142.035156 118.203125 141.054688 118.386719 140.746094 119.277344 C 139.730469 121.910156 139.964844 124.796875 139.910156 127.558594 C 139.894531 133.316406 140.039062 139.089844 140.585938 144.832031 C 141.074219 149.535156 141.546875 154.3125 143.019531 158.851562 C 143.34375 160.160156 144.578125 160.8125 145.667969 161.375 C 144.960938 165 144.460938 168.648438 144.160156 172.328125 C 139.839844 168.351562 135.445312 164.445312 131.519531 160.070312 C 130.722656 159.179688 129.832031 158.289062 129.304688 157.199219 C 128.777344 156.109375 129.324219 155.019531 130.050781 154.238281 C 131.285156 152.875 132.738281 151.515625 133.191406 149.660156 C 133.644531 147.808594 132.828125 145.613281 131.792969 143.90625 C 129.667969 144.902344 127.269531 146.175781 126.507812 148.554688 C 125.910156 150.40625 126.691406 152.242188 127.070312 154.039062 C 124.691406 150.625 123.402344 146.5 122.929688 142.378906 C 122.496094 136.476562 124 130.464844 127.054688 125.398438 C 127.542969 124.488281 128.34375 123.761719 128.777344 122.816406 L 129.179688 123.542969 C 129.996094 122.980469 131.011719 123.179688 131.9375 123.164062 C 132.449219 123.980469 132.957031 125.160156 134.101562 125.105469 C 135.246094 125.050781 135.824219 123.980469 136.535156 123.273438 C 135.769531 122.5625 135.027344 121.527344 133.863281 121.546875 C 132.703125 121.566406 132.210938 122.363281 131.394531 122.765625 C 130.578125 123.164062 129.867188 122.980469 129.125 123.109375 L 129.304688 122.527344 C 131.199219 120.414062 133.339844 118.597656 135.734375 117.078125 C 137.332031 115.933594 139.277344 114.519531 139.222656 112.320312 C 138.566406 112.664062 138.277344 113.429688 137.679688 113.847656 C 136.171875 115.007812 134.355469 115.679688 132.828125 116.789062 C 129.976562 118.675781 127.597656 121.21875 125.636719 124 C 125.238281 123.851562 125.21875 123.34375 125.128906 123 C 125.363281 121.148438 127.199219 120.113281 127.796875 118.386719 C 129.015625 115.734375 128.050781 112.683594 126.527344 110.378906 C 124.835938 111.574219 123.292969 113.121094 122.511719 115.0625 C 121.730469 117.007812 121.875 118.894531 122.710938 120.601562 C 123.4375 122.136719 124.234375 123.632812 125.109375 125.089844 C 124.292969 126.25 123.675781 127.503906 123.039062 128.777344 C 123.382812 125.90625 121.824219 123.273438 119.96875 121.203125 C 117.953125 123.800781 116.082031 126.90625 116.664062 130.28125 C 117.007812 133.28125 120.078125 134.933594 120.734375 137.785156 C 120.585938 141.472656 120.894531 145.210938 122.003906 148.753906 C 120.53125 147.773438 118.789062 147.390625 117.082031 147.066406 C 116.972656 150.078125 117.574219 153.402344 119.933594 155.492188 C 121.476562 157 123.691406 157.308594 125.746094 157.597656 C 126.488281 157.691406 126.851562 158.398438 127.308594 158.886719 C 128.179688 160.015625 129.214844 160.976562 130.195312 162.011719 C 128.050781 161.339844 125.78125 161.429688 123.601562 161.867188 C 124.765625 164.5 126.488281 167.207031 129.304688 168.277344 C 131.195312 169.042969 133.246094 168.839844 135.226562 168.679688 C 136.386719 168.496094 137.152344 169.496094 137.933594 170.132812 C 139.929688 171.929688 142.054688 173.582031 143.925781 175.507812 C 143.453125 180.191406 143.328125 184.898438 143.34375 189.601562 L 145.46875 189.402344 C 145.707031 193.523438 146.03125 197.648438 146.667969 201.714844 C 147.011719 204.421875 147.59375 207.109375 147.832031 209.832031 C 147.886719 211.742188 147.558594 213.648438 147.339844 215.535156 C 146.03125 224.746094 144.5625 233.988281 144.523438 243.324219 C 144.523438 249.488281 145.003906 255.617188 145.960938 261.707031 C 146.339844 263.359375 145.558594 264.957031 145.269531 266.574219 C 144.980469 268.1875 145.414062 270.152344 145.507812 271.949219 C 145.6875 273.367188 145.523438 274.816406 145.761719 276.234375 C 146.667969 277.324219 148.285156 277.253906 149.410156 277.980469 C 150.082031 278.777344 150.390625 279.847656 151.210938 280.519531 C 152.027344 281.191406 152.898438 281.410156 153.824219 281.664062 C 156.457031 282.375 159.21875 282.28125 161.925781 282.320312 C 162.742188 282.28125 163.613281 282.335938 164.359375 281.957031 C 165.101562 281.574219 164.957031 280.59375 164.8125 279.941406 C 164.429688 278.613281 162.960938 278.179688 162.035156 277.289062 C 160.671875 276 159.34375 274.601562 158.457031 272.929688 C 159.855469 273.546875 160.671875 274.910156 161.726562 275.960938 C 162.46875 276.90625 163.6875 277.234375 164.792969 277.523438 C 166.703125 277.941406 168.664062 277.886719 170.589844 277.816406 C 171.585938 277.742188 172.621094 277.722656 173.585938 277.398438 C 174.839844 277.050781 174.691406 275.054688 173.75 274.472656 C 171.714844 273.890625 169.515625 273.621094 167.738281 272.382812 C 166.445312 271.402344 165.792969 269.878906 165.03125 268.496094 C 165.140625 267.863281 165.265625 267.171875 164.902344 266.589844 C 164.375 265.71875 163.46875 265.15625 162.761719 264.429688 C 165.15625 258.328125 165.339844 251.699219 165.792969 245.230469 C 166.484375 234.714844 166.972656 224.183594 167.992188 213.703125 C 169.136719 201.824219 170.695312 189.929688 173.984375 178.429688 C 174.511719 176.558594 175.238281 174.726562 175.636719 172.820312 C 176.207031 173.539062 176.929688 174.050781 177.796875 174.34375 C 180.488281 175.363281 183.410156 175.144531 186.207031 175.488281 C 187.605469 175.652344 189.1875 175.796875 190.367188 174.890625 C 190.65625 174.691406 191.128906 174.234375 190.839844 173.890625 C 189.714844 173.636719 188.570312 174.054688 187.425781 173.890625 C 189.1875 173.199219 191.601562 173.78125 192.800781 171.984375 L 191.527344 172.054688 C 192.539062 171.816406 193.375 171.296875 194.035156 170.496094 C 193.78125 169.820312 193.238281 169.550781 192.546875 169.605469 L 193.199219 168.878906 C 192.726562 168.1875 191.839844 168.167969 191.128906 167.898438 C 191.710938 167.351562 192.566406 167.734375 193.109375 168.152344 C 195.398438 170.023438 196.867188 172.65625 198.230469 175.234375 C 200.390625 179.683594 202.027344 184.386719 203.480469 189.109375 C 206.984375 200.789062 209.527344 212.722656 212.761719 224.472656 C 215.304688 233.898438 218.117188 243.269531 221.804688 252.316406 C 224.894531 259.761719 228.433594 267.171875 233.757812 273.273438 C 235.699219 275.398438 237.84375 277.507812 240.550781 278.632812 C 242.148438 279.339844 243.925781 278.632812 245.34375 277.832031 C 246.105469 277.34375 247.105469 276.90625 247.394531 275.980469 C 247.214844 274.726562 246.253906 273.820312 245.417969 272.949219 C 241.851562 269.527344 238.566406 265.859375 235.554688 261.941406 Z M 120.988281 136.550781 C 120.425781 134.914062 121.203125 133.28125 121.949219 131.863281 C 121.695312 133.425781 121.078125 134.933594 120.988281 136.550781 Z M 172.242188 178.03125 C 172.421875 176.289062 172.730469 174.5625 172.984375 172.835938 L 173.585938 173.144531 C 173.203125 174.796875 172.675781 176.398438 172.242188 178.03125 Z M 177.617188 164.589844 C 176.328125 163.792969 174.839844 163.464844 173.441406 162.902344 C 173.441406 161.175781 173.585938 159.46875 173.566406 157.761719 C 175.417969 159.632812 177.433594 161.375 179.6875 162.757812 C 178.945312 163.3125 178.257812 163.921875 177.617188 164.589844 Z M 177.617188 164.589844 " fill-opacity="1" fill-rule="nonzero"/></g></svg>