<?xml version="1.0" encoding="UTF-8"?>
<svg id="Layer_2" data-name="Layer 2" xmlns="http://www.w3.org/2000/svg" viewBox="0 0 916 828.35">
  <defs>
    <style>
      .cls-1 {
        fill: gray;
      }

      .cls-2 {
        fill: #fff;
      }

      .cls-3 {
        fill: #666;
      }

      .cls-4 {
        fill: #ed3200;
      }

      .cls-5 {
        fill: #ffbf1f;
      }
    </style>
  </defs>
  <g id="Layer_1-2" data-name="Layer 1">
    <g>
      <g>
        <path class="cls-3" d="M194,772.04v43.56c0,7.01-5.73,12.74-12.74,12.74H51.74c-7.01,0-12.74-5.73-12.74-12.74v-43.56c0-7.05,5.74-12.7,12.76-12.7h129.49c7.02,0,12.76,5.65,12.76,12.7Z"/>
        <path class="cls-1" d="M152,335.26v424.08h-72v-424.08c0-7.69,6.23-13.92,13.92-13.92h44.17c7.69,0,13.92,6.23,13.92,13.92Z"/>
        <path class="cls-1" d="M836,335.26v424.08h-72v-424.08c0-7.69,6.23-13.92,13.92-13.92h44.17c7.69,0,13.92,6.23,13.92,13.92Z"/>
        <path class="cls-3" d="M878,772.04v43.56c0,7.01-5.73,12.74-12.74,12.74h-129.5c-7.08,0-12.76-5.71-12.76-12.7v-43.56c0-7.04,5.71-12.74,12.74-12.74h129.5c7.02,0,12.76,5.65,12.76,12.7Z"/>
      </g>
      <path d="M151.9,408.35L0,560.18v-137.92c0-7.65,6.26-13.92,13.92-13.92h137.99Z"/>
      <polygon points="388.53 408.35 182.46 614.35 54.37 614.35 260.3 408.35 388.53 408.35"/>
      <polygon points="625.05 408.35 419.05 614.35 290.89 614.35 496.89 408.35 625.05 408.35"/>
      <path d="M861.63,408.35l-206.07,206h-128.16l199.74-199.68c1.95-1.95,3.68-4.1,5.07-6.32h129.41Z"/>
      <path d="M916,461.96v138.47c0,7.65-6.26,13.92-13.92,13.92h-138.54l152.46-152.39Z"/>
      <polygon class="cls-5" points="496.75 408.35 290.75 614.35 182.6 614.35 388.67 408.35 496.75 408.35"/>
      <path class="cls-5" d="M259.72,408.35l-205.93,206H13.92c-7.65,0-13.92-6.26-13.92-13.92v-40.43l151.72-151.65h108Z"/>
      <path class="cls-5" d="M732.08,408.35c-1.39,2.22-3.13,4.38-5.07,6.32l-199.74,199.68h-108.07l206-206h106.89Z"/>
      <path class="cls-5" d="M916,422.26v39.88l-152.28,152.21h-108.14l206.07-206h40.43c7.65,0,13.92,6.26,13.92,13.92Z"/>
      <circle class="cls-4" cx="458.28" cy="253.59" r="253.59"/>
      <rect class="cls-2" x="307" y="207.35" width="302" height="93" rx="13.92" ry="13.92"/>
    </g>
  </g>
</svg>