<?xml version="1.0" encoding="utf-8" ?>
<svg xmlns="http://www.w3.org/2000/svg" xmlns:xlink="http://www.w3.org/1999/xlink" width="1024" height="1024">
	<path fill="white" d="M0 0L1024 0L1024 1024L0 1024L0 0Z"/>
	<path d="M466.839 64.6408C470.407 64.4678 473.847 64.6563 477.301 65.5852C486.953 68.1803 494.321 75.6824 499.18 84.1412C529.152 136.324 514.48 247.927 502.823 305.843C499.028 324.697 494.04 343.044 489.094 361.589C499.068 363.384 509.911 363.641 520.052 364.658L587.393 371.311C593.828 359.324 601.128 347.701 607.947 335.915Q636.805 286.231 666.71 237.172L686.751 204.186C691.47 196.479 696.485 188.845 700.613 180.806C698.408 176.707 696.438 172.462 696.951 167.693C697.607 161.582 722.671 121.906 727.428 115.647C730.697 111.346 734.377 107.342 738.629 104.002C755.157 91.0187 774.814 82.5502 796.135 84.3475C807.653 85.3184 819.141 87.9088 830.652 89.2485C832.018 87.6382 833.26 85.888 835.49 85.6229C839.361 86.8591 836.458 88.0401 837.787 90.366C850.53 93.0672 863.784 94.3939 876.671 96.3516C895.228 99.1706 913.791 102.42 932.397 104.838C933.853 103.538 935.114 102.318 936.965 101.633C939.195 102.131 940.035 104.96 942.092 106.211C944.111 107.439 947.691 107.906 950.017 108.558Q952.302 109.187 954.519 110.024Q956.736 110.862 958.866 111.9Q960.996 112.938 963.021 114.169Q965.047 115.399 966.95 116.811C979.4 126.217 987.176 143.699 989.107 158.862C992.682 186.941 979.749 211.278 963.002 232.676C956.958 240.398 949.572 252.581 939.178 253.843C933.155 263.726 926.128 272.981 919.87 282.719C894.373 322.4 868.119 361.65 842.107 400.997C838.961 405.758 819.59 433.922 819.019 435.931C818.472 437.856 819.223 441.609 819.125 443.775C818.998 446.557 818.277 449.435 817.782 452.182L803.12 530.439C799.888 548.425 797.102 568.96 792.67 586.43C792.016 589.005 791.118 591.427 789.759 593.725C785.552 600.838 778.142 606.044 771.829 611.173Q766.788 615.187 761.578 618.979Q756.368 622.77 750.997 626.331Q745.627 629.892 740.106 633.216Q734.586 636.54 728.927 639.62Q723.267 642.701 717.478 645.532Q711.69 648.364 705.784 650.941Q699.878 653.517 693.865 655.835Q687.853 658.152 681.745 660.206C673.508 662.953 665.042 665.052 656.652 667.275C670.084 681.032 683.194 695.135 696.789 708.722C705.855 700.982 717.484 695.179 728.787 691.567C749.554 684.93 773.713 687.303 793.012 697.35C816.041 709.339 832.255 729.219 840.014 753.876C848.433 780.628 845.022 808.294 832.083 832.91C820.568 854.817 800.203 872.527 776.417 879.761C753.882 886.615 729.263 885.338 708.387 873.972C690.377 864.167 676.156 847.535 668.232 828.698C665.703 822.684 663.956 816.359 662.085 810.118C657.382 811.367 652.758 812.951 648.126 814.439C644.639 815.757 641.049 816.785 637.482 817.864C639.29 830.371 638.657 843.592 636.482 855.998Q636.224 857.441 635.932 858.876Q635.639 860.312 635.312 861.741Q634.984 863.169 634.622 864.589Q634.26 866.009 633.863 867.419Q633.466 868.83 633.035 870.231Q632.604 871.631 632.139 873.021Q631.673 874.41 631.174 875.788Q630.676 877.166 630.143 878.531Q629.611 879.897 629.045 881.248Q628.48 882.6 627.882 883.938Q627.283 885.276 626.653 886.598Q626.022 887.921 625.359 889.228Q624.696 890.535 624.002 891.825Q623.307 893.116 622.581 894.389Q621.856 895.662 621.099 896.917Q620.342 898.172 619.555 899.408Q618.768 900.644 617.952 901.86Q617.135 903.077 616.288 904.273Q615.442 905.469 614.567 906.645Q613.691 907.82 612.788 908.974Q611.884 910.127 610.953 911.258Q610.021 912.39 609.062 913.498Q608.103 914.606 607.118 915.69Q606.132 916.775 605.12 917.835Q604.109 918.895 603.071 919.93Q602.034 920.965 600.972 921.974Q599.909 922.984 598.823 923.967Q597.736 924.95 596.626 925.907Q595.516 926.863 594.383 927.792Q593.249 928.721 592.094 929.623Q590.938 930.524 589.761 931.396Q588.584 932.269 587.386 933.113C565.216 948.542 536.265 955.607 509.551 950.795C484.181 946.225 459.624 929.781 445.052 908.568C426.698 881.848 420.808 847.436 426.677 815.809C418.955 815.207 409.272 812.776 401.861 813.253C400.506 813.34 399.891 813.357 398.841 814.257C396.328 816.413 394.162 819.311 391.892 821.743C386.388 827.641 380.513 832.545 373.439 836.412C354.801 846.601 333.959 848.162 313.691 842.088C286.958 834.077 267.296 812.359 254.411 788.428C252.18 787.858 249.917 787.532 247.645 787.173C246.646 817.069 235.923 843.755 215.482 865.679C197.448 885.021 171.11 897.386 144.6 898.266C117.86 899.154 90.5255 888.297 71.1164 869.981Q70.0798 869.004 69.0679 868.002Q68.056 867 67.0694 865.973Q66.0828 864.945 65.1221 863.894Q64.1615 862.843 63.2273 861.768Q62.2931 860.693 61.3861 859.595Q60.479 858.497 59.5996 857.376Q58.7202 856.256 57.869 855.114Q57.0178 853.972 56.1954 852.81Q55.3729 851.647 54.5797 850.464Q53.7865 849.281 53.023 848.079Q52.2595 846.876 51.5263 845.656Q50.793 844.435 50.0905 843.196Q49.3879 841.957 48.7164 840.701Q48.045 839.445 47.405 838.173Q46.7651 836.9 46.1571 835.612Q45.5491 834.324 44.9734 833.022Q44.3977 831.719 43.8546 830.402Q43.3116 829.086 42.8015 827.756Q42.2915 826.426 41.8147 825.084Q41.338 823.742 40.8949 822.389Q40.4518 821.035 40.0426 819.671Q39.6333 818.307 39.2582 816.933Q38.8832 815.559 38.5424 814.176Q38.2017 812.793 37.8956 811.402Q37.5895 810.011 37.3182 808.613Q37.0468 807.215 36.8104 805.811Q36.574 804.406 36.3727 802.996Q36.1714 801.586 36.0054 800.172Q35.8393 798.757 35.7085 797.339Q35.5778 795.921 35.4824 794.5Q35.3871 793.079 35.3272 791.656Q35.2673 790.233 35.2429 788.809C34.495 758.621 46.5782 727.16 67.4518 705.371C87.0038 684.962 113.7 672.366 142.117 671.916C174.861 671.398 197.145 684.415 220.046 706.43L259.201 669.257C268.237 660.566 277.133 651.558 286.809 643.582C268.336 639.793 244.928 638.228 225.852 635.993C214.696 634.685 203.373 634.114 192.852 629.861C173.002 621.836 151.448 605.163 143.22 584.84C139.199 574.907 137.299 564.058 134.529 553.723Q127.143 526.482 118.788 499.522C116.425 491.799 114.67 483.484 111.44 476.085L111.118 475.358C106.189 473.301 100.957 470.911 96.5994 467.818C90.6239 463.577 88.3543 458.453 87.1931 451.434C84.6122 435.832 85.5278 419.625 87.0922 403.97Q87.6998 398.218 88.4914 392.489Q89.2831 386.76 90.2581 381.059Q91.2331 375.358 92.3904 369.692Q93.5476 364.025 94.886 358.398Q96.2244 352.772 97.7426 347.191Q99.2607 341.61 100.957 336.081Q102.653 330.551 104.526 325.079Q106.399 319.607 108.446 314.198Q110.493 308.789 112.713 303.448Q114.933 298.108 117.322 292.841Q119.712 287.574 122.27 282.386Q124.827 277.199 127.549 272.096Q130.272 266.993 133.156 261.98Q136.041 256.968 139.085 252.05Q142.129 247.132 145.329 242.314Q148.529 237.497 151.882 232.784C195.225 173.072 249.581 137.174 321.879 121.708C352.699 115.115 383.494 111.092 413.166 99.8152C417.64 98.115 422.539 96.3699 426.378 93.4468C430.24 90.5067 433.142 86.4408 436.284 82.78C444.565 73.1315 454.201 66.6813 466.839 64.6408Z"/>
	<path fill="white" d="M205.375 750.368C205.863 750.803 206.379 751.676 206.68 752.289C207.3 753.552 207.378 753.651 206.925 754.907C205.222 755.839 204.287 755.58 202.375 755.504C201.499 755.458 201.392 755.632 200.737 754.989C201.597 753.126 203.818 751.679 205.375 750.368Z"/>
	<path fill="white" d="M707.498 749.946C709.757 751.001 713.255 755.567 715.16 757.481C704.453 760.189 708.874 767.017 702.497 770.415C702.088 770.796 701.678 771.182 701.245 771.535C700.021 772.534 699.093 772.894 697.532 772.729C697.015 771.785 696.966 771.481 697.093 770.365C697.525 766.567 703.455 753.79 706.565 751.697C706.766 751.561 706.979 751.443 707.186 751.316L707.498 749.946Z"/>
	<path fill="white" d="M694.312 779.646C696.478 780.898 697.434 782.149 698.268 784.533C698.902 786.348 699.303 788.956 698.134 790.648C697.149 792.074 695.574 792.446 693.992 792.764C691.658 793.233 689.436 793.932 687.166 794.644C685.167 792.081 683.784 787.058 682.47 783.995C686.37 782.424 690.352 781.055 694.312 779.646Z"/>
	<path fill="white" d="M445.932 768.986L446.373 769.55C442.14 776.427 437.813 782.582 434.269 789.95C428.486 789.066 422.607 788.513 416.795 787.812C415.329 787.622 413.858 787.577 412.578 786.773C423.019 779.998 434.935 774.858 445.932 768.986Z"/>
	<path fill="white" d="M225.283 732.037C230.493 740.131 233.293 750.56 235.857 759.769C231.517 759.4 227.188 758.551 222.89 757.849C219.669 757.34 216.481 756.595 213.293 755.912C211.975 752.743 210.885 749.612 209.926 746.316C214.816 741.345 219.804 736.364 225.283 732.037Z"/>
	<path fill="white" d="M749.752 773.025C751.563 772.978 753.196 773.1 754.892 773.797C757.841 775.009 760.096 777.549 761.333 780.443C763.027 784.407 763.166 789.155 761.483 793.147C759.884 796.939 757.265 799.007 753.543 800.52C752.03 800.601 750.497 800.703 749.019 800.299Q748.464 800.148 747.928 799.941Q747.392 799.734 746.88 799.474Q746.367 799.213 745.884 798.902Q745.401 798.591 744.952 798.232Q744.503 797.874 744.093 797.471Q743.683 797.068 743.315 796.626Q742.948 796.184 742.628 795.707Q742.308 795.229 742.038 794.722C740.128 791.119 739.975 786.501 741.253 782.669C742.828 777.944 745.414 775.278 749.752 773.025Z"/>
	<path fill="white" d="M675.388 786.558C675.516 786.622 675.651 786.675 675.773 786.751C679.038 788.777 679.728 793.061 680.593 796.49C666.623 801.428 652.529 806.027 638.613 811.111L637.237 811.491C634.886 809.85 634.246 803.277 633.665 800.462Q654.49 793.401 675.388 786.558Z"/>
	<path fill="white" d="M712.427 763.13C723.221 762.461 731.292 768.752 739.194 775.293C737.774 778.879 736.456 782.347 735.606 786.115L728.807 785.538C722.674 785.477 716.409 785.681 710.318 784.912C707.333 782.205 704.215 780.428 700.688 778.53L707.041 776.752C708.806 772.248 709.24 766.923 712.427 763.13Z"/>
	<path fill="white" d="M297.876 795.992C318.577 800.042 339.65 802.385 360.231 806.976C358.488 808.377 356.59 809.517 354.698 810.701C347.591 814.399 339.956 816.118 331.95 815.583C317.033 814.585 307.359 806.752 297.876 795.992Z"/>
	<path fill="white" d="M140.63 764.564C143.373 764.373 145.908 764.273 148.544 765.192Q148.949 765.331 149.345 765.491Q149.742 765.651 150.13 765.831Q150.518 766.012 150.896 766.212Q151.274 766.412 151.641 766.631Q152.009 766.851 152.364 767.089Q152.719 767.327 153.062 767.584Q153.404 767.84 153.733 768.114Q154.062 768.388 154.376 768.678Q154.69 768.968 154.988 769.275Q155.287 769.581 155.569 769.903Q155.852 770.224 156.117 770.56Q156.382 770.895 156.629 771.244Q156.877 771.593 157.106 771.955Q157.335 772.316 157.545 772.689Q157.755 773.061 157.945 773.444Q158.136 773.828 158.306 774.22C160.045 778.273 159.912 782.843 158.281 786.908C156.326 791.779 152.816 794.769 148.129 796.872C145.169 797.258 142.468 797.504 139.578 796.557Q138.842 796.312 138.135 795.992Q137.428 795.672 136.759 795.28Q136.089 794.887 135.465 794.427Q134.84 793.967 134.267 793.444Q133.694 792.921 133.178 792.341Q132.663 791.761 132.211 791.131Q131.759 790.5 131.375 789.825Q130.992 789.151 130.681 788.44C128.722 784.032 128.93 778.703 130.67 774.26C132.632 769.25 135.867 766.634 140.63 764.564Z"/>
	<path fill="white" d="M687.103 732.429C692.23 736.777 697.404 742.484 701.516 747.76C696.512 756.523 692.523 764.86 690.434 774.769L681.622 777.332C678.231 778.527 674.893 779.877 671.498 781.071C671.319 764.45 677.796 746.052 687.103 732.429Z"/>
	<path fill="white" d="M832.586 94.9286C841.461 97.2284 850.899 98.2187 859.956 99.5838L903.121 106.27C911.941 107.594 920.947 108.518 929.661 110.409C927.991 114.621 927.161 118.88 926.41 123.33C907.214 119.822 887.773 116.787 868.492 113.743C861.597 112.654 832.699 109.401 828.679 107.152C827.697 103.746 830.945 97.9298 832.586 94.9286Z"/>
	<path fill="white" d="M647.269 669.188C647.901 669.067 648.751 669.184 649.401 669.205C656.556 673.859 742.613 764.316 744.113 769.55L743.267 770.217C741.496 770.293 741.557 770.169 740.164 769.033C734.546 764.478 727.817 761.5 722.339 756.832C718.091 753.212 714.186 749.181 709.982 745.506C705.927 741.961 701.486 738.804 697.719 734.943C686.525 723.472 676.377 710.71 665.519 698.88C656.775 689.352 647.231 680.555 639.118 670.462C641.813 669.918 644.547 669.576 647.269 669.188Z"/>
	<path fill="white" d="M293.278 644.482C296.501 645.281 300.115 645.429 303.426 645.812C293.958 655.22 285.031 665.157 275.654 674.657C256.591 693.969 237.173 712.743 217.455 731.375C210.422 738.021 199.431 750.059 191.6 754.783C189.258 756.196 185.095 756.769 182.391 757.43L172.553 759.73L241.649 693.577C258.879 677.346 276.74 661.41 293.278 644.482Z"/>
	<path fill="white" d="M927.752 248.266C929.606 249.762 931.05 251.666 933.009 253.166C922.062 267.36 912.712 283.244 902.807 298.198L845.319 385.512C835.698 400.302 826.716 415.893 815.877 429.813L815.134 429.659C813.747 427.111 812.278 424.635 810.761 422.163C821.132 408.069 830.741 393.038 840.471 378.487L900.778 287.835C909.7 274.661 918.016 260.85 927.752 248.266Z"/>
	<path fill="white" d="M266.64 790.738C274.981 792.137 283.358 793.434 291.618 795.26Q294.668 799.242 297.872 803.101C306.391 813.261 316.879 820.184 330.327 821.288C344.733 822.47 357.414 817.298 368.209 808.027C376.458 809.352 384.777 810.245 393.002 811.722C391.187 814.137 389.269 816.216 387.099 818.318Q382.001 822.996 376.122 826.644C359.717 836.854 341.606 840.291 322.711 835.744C298.335 829.877 279.434 811.587 266.64 790.738Z"/>
	<path fill="white" d="M786.768 90.1997C799.569 89.2271 813.247 92.5644 825.826 94.7528C824.299 98.1861 823.2 101.541 822.268 105.179C809.756 103.493 797.247 102.185 784.869 105.492C755.05 113.458 741.161 136.648 726.874 161.554C723.336 167.205 720.765 173.351 716.416 178.469C713.049 177.525 709.099 176.538 706.294 174.39C704.654 173.135 703.228 171.149 703.117 169.024C702.841 163.751 729.704 122.043 734.584 116.254C747.49 100.946 767.021 91.9346 786.768 90.1997Z"/>
	<path fill="white" d="M429.685 423.704C435.631 423.902 440.879 425.127 445.801 428.622C452.01 433.029 456.08 440.039 457.25 447.522C458.661 456.544 456.288 466.641 450.76 473.951C445.828 480.473 439.699 483.437 431.758 484.474C425.214 484.37 419.563 483.247 414.302 479.046C408.003 474.016 404.323 466.019 403.434 458.111Q403.342 457.302 403.291 456.489Q403.239 455.676 403.229 454.861Q403.218 454.047 403.248 453.233Q403.278 452.419 403.349 451.607Q403.419 450.796 403.531 449.989Q403.642 449.182 403.793 448.381Q403.944 447.581 404.135 446.789Q404.326 445.997 404.557 445.216Q404.787 444.434 405.056 443.666Q405.325 442.897 405.632 442.142Q405.939 441.388 406.284 440.65Q406.628 439.912 407.009 439.191Q407.39 438.471 407.806 437.771Q408.223 437.071 408.674 436.393Q409.124 435.714 409.609 435.059Q410.093 434.404 410.609 433.774C415.541 427.735 422.005 424.491 429.685 423.704Z"/>
	<path fill="white" d="M675.474 502.711L677.923 502.531L678.366 503.136C676.961 506.453 670.274 513.184 667.61 516.45C657.246 529.156 646.616 541.792 636.721 554.862Q598.781 605.429 561.954 656.814L510.795 725.87C503.998 728.312 497.264 730.495 490.635 733.389C489.928 733.682 489.198 733.844 488.459 734.038L488.341 733.669L612.305 573.648C624.484 557.981 636.004 541.811 648.19 526.134C654.167 518.444 660.007 510.62 666.777 503.598C669.659 503.217 672.579 502.995 675.474 502.711Z"/>
	<path fill="white" d="M935.121 111.449C946.023 111.38 958.401 116.814 966.211 124.295C977.587 135.192 983.894 151.362 984.223 166.974C984.844 196.434 963.604 225.817 944.003 246.427C943.202 246.956 942.754 247.102 941.798 247.181C938.038 245.985 932.624 242.571 930.693 239.079C929.867 237.586 930.177 236.289 930.866 234.807C932.808 230.63 936.08 226.697 938.669 222.864C947.882 209.226 958.765 195.353 963.363 179.341C967.071 166.429 966.506 151.209 959.775 139.342C956.488 133.548 950.638 127.55 944.234 125.397C941.006 124.312 937.567 123.997 934.32 123.005C932.912 122.575 932.806 122.577 932.15 121.33C932.1 117.659 933.609 114.692 935.121 111.449Z"/>
	<path fill="white" d="M191.664 760.568C200.874 759.575 211.87 762.332 221.007 763.77L265.087 770.931Q330.453 782.124 396.096 791.551C408.188 793.293 420.221 795.372 432.351 796.861C430.758 801.344 429.291 805.793 428.046 810.39Q421.198 809.671 414.379 808.719C395.405 806.513 376.458 803.009 357.652 799.708L279.963 786.198L205.2 773.764C193.448 771.709 181.023 770.264 169.57 766.961C176.667 764.334 184.327 762.466 191.664 760.568Z"/>
	<path fill="white" d="M808.848 429.644C810.482 433.669 812.005 437.496 811.371 441.919C810.238 449.817 802.868 457.687 796.745 462.326C770.617 482.119 733.502 489.526 701.816 494.039C687.985 496.009 674.466 497.789 660.448 497.601C645.157 497.396 629.791 495.361 614.599 493.741Q585.397 490.527 556.159 487.665C525.373 484.469 494.245 482.642 463.601 478.49L461.838 478.194L461.503 477.466C462.661 474.034 464.755 470.787 466.31 467.485C477.698 469.181 489.507 469.83 500.981 471.062Q535.321 474.869 569.702 478.273Q591.829 480.221 613.908 482.651C630.464 484.524 646.821 486.809 663.529 486.487C687.735 486.02 712.645 480.749 736.059 474.877C749.7 471.457 763.884 468.691 776.825 463.093C794.531 455.434 801.849 447.375 808.848 429.644Z"/>
	<path fill="white" d="M752.759 696.711C770.81 695.518 789.097 701.718 803.403 712.57C821.754 726.491 833.555 748.035 836.604 770.745C839.884 795.185 833.962 821.183 818.9 840.876C804.084 860.25 784.591 872.256 760.287 875.432C739.775 878.113 718.655 871.574 702.397 859.019C686.007 846.363 673.788 827.556 671.176 806.786C677.299 804.517 683.492 802.495 689.699 800.471L690.814 805.876C693.219 814.93 696.483 823.013 702.106 830.576C712.41 844.432 726.667 853.561 743.871 856.032C760.429 858.41 777.575 853.115 790.745 843.04C805.898 831.448 816.61 812.736 819.016 793.787Q819.234 791.996 819.364 790.197Q819.494 788.398 819.535 786.594Q819.575 784.791 819.527 782.987Q819.479 781.184 819.342 779.385Q819.204 777.586 818.979 775.797Q818.753 774.007 818.439 772.23Q818.125 770.454 817.724 768.695Q817.323 766.936 816.836 765.199Q816.348 763.462 815.776 761.752Q815.203 760.041 814.547 758.36Q813.891 756.68 813.152 755.034Q812.414 753.388 811.595 751.781Q810.776 750.173 809.879 748.608Q808.982 747.043 808.009 745.524Q807.036 744.005 805.989 742.536Q804.942 741.067 803.824 739.651C794.293 727.429 779.895 718.35 764.334 716.601C746.237 714.568 731.889 719.674 717.841 730.807C713.001 726.113 707.886 721.343 703.756 716.006C716.73 703.531 735.216 697.777 752.759 696.711Z"/>
	<path fill="white" d="M467.403 75.1261C468.668 75.0239 469.993 74.9593 471.26 75.028C478.71 75.4326 484.353 81.9719 489.097 87.0209C486.377 86.9521 483.544 86.8006 480.912 87.5902C465.104 92.3325 455.006 111.834 448.046 125.529C416.943 186.727 410.256 280.081 420.477 347.186C423.903 369.68 429.697 391.064 436.736 412.659L429.65 412.397C422.554 412.637 416.293 414.397 409.756 417.081C409.484 416.219 409.226 415.371 408.999 414.496C385.352 323.087 381.043 189.328 431.617 105.961C439.482 92.9975 452.149 78.9123 467.403 75.1261Z"/>
	<path fill="white" d="M751.287 722.182C751.945 722.102 752.583 722.034 753.246 722C767.173 721.291 781.319 725.694 791.748 735.129C804.958 747.08 812.658 764.845 813.448 782.501Q813.508 784.159 813.488 785.818Q813.468 787.476 813.366 789.132Q813.265 790.788 813.084 792.437Q812.902 794.086 812.641 795.724Q812.379 797.362 812.038 798.986Q811.697 800.609 811.277 802.214Q810.858 803.82 810.361 805.402Q809.863 806.985 809.29 808.542Q808.716 810.098 808.067 811.625Q807.418 813.152 806.696 814.645Q805.974 816.139 805.18 817.595Q804.386 819.052 803.522 820.468Q802.658 821.884 801.726 823.257Q800.794 824.629 799.796 825.955Q798.799 827.28 797.738 828.555Q796.677 829.831 795.555 831.053C785.113 842.369 768.951 850.2 753.486 850.714C738.214 851.222 723.55 844.418 712.5 834.171C702.705 823.648 697.884 813.05 694.216 799.307C698.266 798.118 702.423 797.01 706.393 795.576C709.127 794.588 711.862 793.587 713.118 790.798C713.182 790.657 713.238 790.512 713.298 790.369C718.835 789.793 729.474 791.263 735.672 791.538C737.791 796.9 740.142 802.06 745.86 804.405C749.456 805.88 753.501 805.676 757.003 804.04C761.476 801.949 764.865 797.954 766.507 793.329C768.317 788.236 768.264 781.873 765.746 777.019C762.715 771.175 757.137 769.099 751.25 767.248L721.364 735.132C730.316 727.374 739.595 723.6 751.287 722.182Z"/>
	<path fill="white" d="M351.183 650.856C375.608 654.26 400.204 656.486 424.701 659.303L529.851 671.939C526.108 678.298 521.294 684.068 516.729 689.852C508.032 700.87 498.96 711.572 490 722.377C485.917 727.525 481.794 733.702 476.871 738.024C471.828 742.452 440.906 758.983 433.485 762.001C417.274 741.73 402.841 719.661 387.522 698.681C375.721 682.519 362.661 667.265 351.183 650.856Z"/>
	<path fill="white" d="M629.878 672.207C630.076 672.191 630.275 672.149 630.474 672.159C632.641 672.259 675.955 718.88 681.564 724.808C668.224 741.158 663.963 763.765 661.347 784.18Q646.325 789.24 631.465 794.761C625.533 780.158 618.253 768.294 608.018 756.352C604.951 753.11 601.833 749.927 598.486 746.973C576.358 727.444 546.286 722.861 517.862 724.523C529.947 707.91 543.697 692.664 555.281 675.473C580.504 676.718 604.841 675.408 629.878 672.207Z"/>
	<path fill="white" d="M139.708 682.203Q145.098 681.817 150.492 682.126C174.451 683.42 197.38 695.759 213.313 713.374C208.4 718.294 203.535 723.264 198.348 727.898Q196.884 726.211 195.325 724.611Q193.767 723.011 192.118 721.504Q190.469 719.997 188.736 718.588Q187.003 717.179 185.191 715.872Q183.38 714.565 181.496 713.366Q179.612 712.166 177.661 711.077Q175.711 709.988 173.701 709.014Q171.691 708.04 169.628 707.183C152.758 700.33 131.906 701.089 115.296 708.291C95.6373 716.815 80.7788 732.421 72.9043 752.383C64.327 774.126 64.0922 797.412 73.4959 818.922C82.0444 838.476 97.3375 854.523 117.427 862.188Q119.072 862.809 120.745 863.349Q122.418 863.889 124.116 864.345Q125.814 864.802 127.532 865.174Q129.25 865.546 130.985 865.834Q132.72 866.121 134.466 866.322Q136.213 866.523 137.967 866.639Q139.721 866.754 141.479 866.782Q143.237 866.811 144.994 866.753Q146.752 866.694 148.504 866.55Q150.256 866.405 151.999 866.174Q153.742 865.944 155.471 865.627Q157.201 865.311 158.913 864.91Q160.624 864.508 162.314 864.023Q164.004 863.538 165.668 862.971Q167.332 862.403 168.966 861.754Q170.6 861.105 172.2 860.376C192.609 851.17 205.695 835.196 213.539 814.543C217.059 803.916 218.517 793.92 218.563 782.774C225.342 784.048 232.235 784.889 239.064 785.871Q239.077 788.118 238.994 790.364Q238.911 792.61 238.732 794.85Q238.553 797.091 238.279 799.321Q238.004 801.552 237.634 803.768Q237.265 805.985 236.8 808.184Q236.336 810.383 235.778 812.56Q235.22 814.737 234.57 816.888Q233.92 819.039 233.178 821.161Q232.436 823.282 231.604 825.37Q230.772 827.458 229.852 829.508Q228.932 831.558 227.924 833.568Q226.917 835.577 225.825 837.541Q224.733 839.505 223.557 841.42Q222.382 843.336 221.126 845.2Q219.87 847.063 218.535 848.871Q217.201 850.68 215.79 852.429C199.251 872.577 177.317 885.339 151.285 887.886Q150.15 888.002 149.013 888.091Q147.876 888.179 146.737 888.239Q145.598 888.299 144.458 888.331Q143.318 888.362 142.177 888.366Q141.037 888.369 139.897 888.344Q138.756 888.319 137.617 888.265Q136.478 888.212 135.34 888.13Q134.202 888.048 133.067 887.938Q131.932 887.828 130.8 887.69Q129.668 887.552 128.539 887.385Q127.411 887.219 126.287 887.025Q125.163 886.83 124.044 886.608Q122.926 886.386 121.813 886.136Q120.7 885.885 119.594 885.608Q118.488 885.33 117.389 885.025Q116.29 884.72 115.199 884.388Q114.107 884.056 113.025 883.696Q111.942 883.337 110.869 882.951Q109.796 882.564 108.733 882.152Q107.67 881.739 106.617 881.3Q105.564 880.861 104.523 880.396Q103.481 879.931 102.452 879.44Q101.422 878.949 100.405 878.433Q99.3884 877.916 98.3845 877.375Q97.3807 876.833 96.3906 876.267Q95.4005 875.701 94.4249 875.11Q93.4492 874.519 92.4885 873.905Q91.5279 873.29 90.5828 872.651Q89.6377 872.013 88.7088 871.351Q87.7799 870.689 86.8677 870.004Q85.9556 869.32 85.0607 868.612Q84.1659 867.905 83.2889 867.176C61.015 848.756 48.2865 823.521 45.7526 794.765C43.2725 766.62 53.3332 737.329 71.6228 715.898C88.378 696.264 114.207 684.264 139.708 682.203Z"/>
	<path fill="white" d="M140.306 708.712C142.439 708.539 144.602 708.655 146.738 708.746C165.761 709.552 181.671 717.79 194.42 731.76C183.784 743.153 170.74 753.593 159.106 764.071C154.026 760.196 148.115 757.709 141.601 758.567C135.899 759.319 131.126 762.838 127.846 767.451C124.014 772.839 123.104 780.612 124.418 786.973C125.614 792.763 128.935 797.957 134.022 801.064Q134.808 801.55 135.638 801.955Q136.468 802.361 137.334 802.683Q138.2 803.005 139.093 803.24Q139.986 803.476 140.899 803.622Q141.811 803.768 142.733 803.823Q143.655 803.879 144.578 803.844Q145.501 803.808 146.417 803.682Q147.332 803.556 148.23 803.34C154.248 801.867 159.423 797.618 162.396 792.224C165.927 785.819 165.682 779.263 163.697 772.472Q188.461 777.365 213.315 781.782C214.171 792.751 211.465 804.635 207.575 814.825C204.282 822.388 200.735 829.584 195.414 835.953Q194.326 837.271 193.175 838.533Q192.023 839.795 190.811 840.998Q189.599 842.202 188.329 843.345Q187.058 844.487 185.733 845.566Q184.408 846.644 183.032 847.656Q181.655 848.668 180.23 849.61Q178.805 850.553 177.335 851.424Q175.866 852.295 174.355 853.092Q172.844 853.89 171.295 854.612Q169.747 855.334 168.165 855.978Q166.583 856.623 164.971 857.189Q163.359 857.755 161.721 858.24Q160.083 858.726 158.423 859.13Q156.763 859.534 155.085 859.856Q153.407 860.177 151.715 860.416Q150.023 860.654 148.322 860.809Q146.685 860.943 145.044 860.998Q143.402 861.052 141.76 861.026Q140.118 861 138.479 860.894Q136.84 860.788 135.208 860.602Q133.576 860.417 131.955 860.152Q130.334 859.887 128.728 859.543Q127.122 859.199 125.535 858.777Q123.948 858.355 122.383 857.857Q120.818 857.358 119.279 856.783Q117.741 856.209 116.232 855.56Q114.723 854.911 113.248 854.19Q111.772 853.468 110.334 852.675Q108.896 851.883 107.498 851.021Q106.1 850.159 104.745 849.23Q103.391 848.301 102.083 847.307Q100.776 846.313 99.5187 845.256C83.8105 832.027 74.0979 812.141 72.5519 791.733C70.9474 770.551 77.3037 749.009 91.2544 732.839C104.123 717.924 120.813 710.099 140.306 708.712Z"/>
	<path fill="white" d="M98.5385 404.15C115.719 408.253 132.609 413.249 149.925 416.918Q170.133 421.315 190.516 424.81Q210.899 428.304 231.417 430.89Q251.935 433.475 272.548 435.146Q293.16 436.817 313.827 437.57C340.506 438.795 367.59 439.362 394.28 437.988C392.806 445.406 391.869 452.951 392.916 460.496Q393.319 463.354 394.048 466.148Q394.777 468.941 395.821 471.632C396.377 473.06 398.251 476.296 398.252 477.559C398.253 477.874 398.1 478.169 398.024 478.474L396.042 478.868Q389.644 479.389 383.24 479.821C328.373 483.413 139.382 490.334 99.5873 455.449C95.7918 440.617 96.7789 419.4 98.5385 404.15Z"/>
	<path fill="white" d="M129.728 293.749C131.481 295.263 133.053 297.589 134.589 299.354C138.308 303.626 142.18 307.86 146.608 311.413C164.857 326.052 186.04 338.268 206.404 349.748Q222.899 359.129 239.735 367.884Q256.571 376.638 273.724 384.755Q290.876 392.872 308.322 400.339Q325.767 407.807 343.48 414.614C360.953 421.225 378.72 426.37 396.391 432.311C386.383 432.064 376.406 432.247 366.399 432.466Q340.76 432.738 315.141 431.7Q289.522 430.661 263.989 428.316Q238.457 425.971 213.077 422.325Q187.697 418.679 162.537 413.741C141.288 409.528 119.94 405.025 99.3686 398.157C99.7821 387.104 102.269 375.978 104.851 365.259C110.959 339.901 119.051 317.481 129.728 293.749Z"/>
	<path fill="white" d="M310.344 646.969C318.304 646.366 328.846 647.944 336.628 649.772C345.126 659.771 352.743 670.882 360.7 681.324Q393.417 723.582 423.494 767.759C412.31 773.151 401.477 779.163 390.209 784.432C376.961 782.721 363.792 780.253 350.611 778.089C315.454 772.488 280.109 767.302 245.042 761.223C241.709 749.016 238.012 736.878 231.232 726.081Q271.448 687.185 310.344 646.969Z"/>
	<path fill="white" d="M485.894 95.1239C486.891 95.1054 487.935 95.1214 488.919 95.3077C491.592 95.8138 493.761 98.216 495.124 100.424C498.467 105.841 499.765 113.336 501.272 119.47C516.879 182.979 497.625 297.572 481.134 360.878L450.619 357.596C444.307 357.043 437.931 356.492 431.695 355.357C419.527 286.073 426.203 180.6 462.606 119.234C467.427 111.106 476.094 97.6488 485.894 95.1239Z"/>
	<path fill="white" d="M230.16 171.4C231.429 171.645 232.515 179.487 232.916 181.013C240.078 208.284 251.322 234.753 263.826 259.942C288.243 309.134 322.78 351.399 359.865 391.528C370.132 402.637 380.821 413.336 391.074 424.467C381.203 421.946 371.576 418.073 362.016 414.565Q340.094 406.753 318.625 397.773Q291.441 386.493 264.97 373.625Q238.5 360.758 212.837 346.348C191.367 334.521 169.22 322.205 150.313 306.484Q145.231 302.298 140.687 297.533Q136.143 292.769 132.201 287.495C156.561 240.199 186.521 202.206 230.16 171.4Z"/>
	<path fill="white" d="M803.963 464.55L804.222 464.911C803.984 470.237 802.344 475.788 801.321 481.036L795.429 511.919L786.945 557.353C785.36 566.1 784.345 575.397 781.867 583.913C780.81 587.544 779.093 590.179 776.43 592.851C770.316 598.986 762.466 604.147 755.531 609.379C700.187 651.13 632.574 666.084 564.222 665.031L563.933 664.847C564.565 660.185 637.753 562.587 646.664 551.171C655.49 539.862 664.702 528.701 673.914 517.7C678.411 512.33 682.849 506.339 687.983 501.58C727.306 496.827 771.932 489.74 803.963 464.55Z"/>
	<path fill="white" d="M433.229 366.826C456.443 368.455 479.609 371.622 502.749 374.052Q574.523 381.07 646.156 389.406L722.808 397.865C735.822 399.327 748.727 400.943 761.656 403.045C768.062 404.087 774.68 404.946 780.864 406.966C787.061 408.992 793.641 413.091 796.505 419.131C798.401 423.13 798.519 427.56 797.022 431.706C793.207 442.266 783.754 447.502 774.126 451.797C749.445 463.493 686.746 474.433 658.993 474.778C636.427 475.058 613.372 470.954 590.906 468.746C550.092 464.734 508.98 461.275 468.325 455.935C468.295 452.684 468.37 449.358 467.85 446.142C465.639 432.464 458.026 423.733 447.129 415.931C440.888 401.088 435.343 382.757 433.229 366.826Z"/>
	<path fill="white" d="M416.794 109.994L417.597 110.11C417.347 113.045 413.658 117.924 412.304 120.769C404.069 138.084 397.685 158.35 393.564 177.095C380.631 235.913 381.504 310.221 391.621 369.647C393.626 381.42 395.865 393.366 398.635 404.983C400.076 411.03 402.149 416.932 403.414 423.013C402.812 424.203 402.061 424.703 401.028 425.499C392.358 417.966 384.59 408.726 376.731 400.334C361.542 384.113 346.393 367.994 332.372 350.73C323.055 339.493 313.576 328.374 304.991 316.557C281.133 283.717 261.188 245.677 247.461 207.473C242.817 194.548 239.134 181.34 235.332 168.15C267.756 146.962 304.409 136.09 342.202 129.028C367.258 124.346 393.329 120.365 416.794 109.994Z"/>
	<path fill="white" d="M530.159 734.71C552.8 733.153 577.687 742.667 595.275 756.571C616.017 772.969 626.948 794.17 629.922 820.272C633.266 849.61 625.954 880.751 607.241 903.971C589.321 926.207 565.525 939.941 537.06 943.02Q535.936 943.076 534.81 943.106Q533.685 943.136 532.559 943.139Q531.434 943.142 530.308 943.119Q529.183 943.095 528.058 943.045Q526.934 942.995 525.811 942.919Q524.688 942.843 523.567 942.74Q522.446 942.637 521.327 942.508Q520.209 942.379 519.094 942.224Q517.979 942.068 516.868 941.887Q515.757 941.705 514.651 941.497Q513.545 941.289 512.443 941.056Q511.342 940.822 510.247 940.562Q509.152 940.302 508.063 940.017Q506.974 939.732 505.892 939.421Q504.81 939.11 503.736 938.774Q502.662 938.437 501.595 938.076Q500.529 937.714 499.472 937.328Q498.415 936.941 497.367 936.53Q496.319 936.118 495.281 935.682Q494.244 935.247 493.216 934.786Q492.189 934.326 491.173 933.842Q490.157 933.357 489.152 932.849Q488.148 932.341 487.155 931.81Q486.163 931.278 485.184 930.723Q484.204 930.168 483.238 929.59Q482.272 929.013 481.32 928.412Q480.368 927.812 479.43 927.189Q478.492 926.567 477.569 925.922Q476.646 925.277 475.739 924.611Q474.831 923.945 473.94 923.258Q473.048 922.571 472.173 921.863Q471.298 921.155 470.44 920.426C449.037 902.242 437.595 877.207 435.468 849.502C433.202 819.978 442 789.167 461.626 766.668C479.215 746.504 503.908 736.524 530.159 734.71Z"/>
	<path d="M529.144 754.706C547.11 753.973 567.484 761.443 581.579 772.437C596.746 784.268 607.467 803.317 609.74 822.424C612.472 845.393 606.315 870.365 591.81 888.587C577.52 906.538 559.177 917.51 536.374 920.209L535.673 920.285C517.791 922.045 498.371 915.232 484.739 903.751C468.088 889.726 457.314 867.885 455.537 846.273C453.738 824.381 460.575 800.628 474.938 783.79C488.681 767.681 507.919 756.435 529.144 754.706Z"/>
	<path fill="white" d="M465.807 811.619C481.195 814.249 496.917 815.614 512.174 818.899C510.62 822.373 509.128 825.765 508.063 829.424C492.763 827.745 477.449 825.386 462.087 824.383C463.118 820.059 464.194 815.767 465.807 811.619Z"/>
	<path fill="white" d="M528.081 814.173C532.055 814.358 535.397 814.717 538.978 816.679C543.157 818.969 546.425 822.848 547.593 827.503C548.832 832.44 547.882 838.176 545.127 842.451C542.265 846.892 538.182 848.945 533.188 850.025C529.044 850.135 525.172 849.495 521.609 847.266C517.496 844.693 514.681 840.436 513.621 835.731Q513.515 835.272 513.433 834.808Q513.35 834.344 513.292 833.876Q513.234 833.408 513.2 832.938Q513.166 832.468 513.156 831.997Q513.146 831.526 513.161 831.055Q513.176 830.584 513.215 830.114Q513.254 829.645 513.317 829.177Q513.38 828.71 513.467 828.247Q513.555 827.784 513.666 827.326Q513.777 826.868 513.911 826.416Q514.046 825.965 514.203 825.521Q514.361 825.076 514.542 824.641Q514.722 824.206 514.925 823.78Q515.127 823.355 515.352 822.94Q515.576 822.526 515.822 822.123Q516.067 821.721 516.333 821.332C519.172 817.237 523.285 815.101 528.081 814.173Z"/>
	<path fill="white" d="M528.482 760.699C542.345 759.159 559.536 765.291 571.11 772.574C587.986 783.194 599.003 800.243 603.408 819.492C585.741 819.478 567.761 821.168 550.167 820.275C548.599 818.102 546.961 816.191 545.12 814.256C541.932 811.682 538.339 809.595 534.281 808.785C527.302 807.391 521.819 809.871 516.185 813.664C500.111 811.984 484.029 808.855 467.987 806.684C471.065 799.985 474.486 793.67 479.11 787.901C491.571 772.359 508.68 762.844 528.482 760.699Z"/>
	<path fill="white" d="M577.232 824.782C586.132 824.229 595.162 824.396 604.078 824.434Q604.238 826.507 604.342 828.584C605.56 851.89 597.925 873.125 582.229 890.38C569.544 904.326 552.139 913.693 533.093 914.41C514.284 915.119 497.201 907.242 483.616 894.581Q481.577 892.552 479.711 890.362C465.323 873.631 459.69 851.619 461.297 829.919C476.877 830.585 492.615 832.761 508.137 834.309C509.968 839.8 512.331 844.983 516.769 848.89Q517.167 849.245 517.582 849.579Q517.998 849.913 518.43 850.225Q518.862 850.538 519.309 850.828Q519.756 851.118 520.218 851.385Q520.679 851.652 521.154 851.895Q521.628 852.138 522.115 852.357Q522.601 852.576 523.098 852.769Q523.594 852.963 524.1 853.131Q524.606 853.299 525.12 853.441Q525.634 853.583 526.155 853.698Q526.675 853.814 527.201 853.903Q527.726 853.992 528.256 854.054Q528.785 854.117 529.317 854.152Q529.849 854.187 530.382 854.195Q530.915 854.203 531.448 854.183Q531.981 854.164 532.512 854.118Q533.044 854.073 533.572 854.001Q534.101 853.929 534.625 853.831Q535.149 853.734 535.668 853.61Q536.187 853.486 536.699 853.337Q537.211 853.188 537.716 853.013Q538.22 852.839 538.714 852.64Q539.209 852.44 539.694 852.217Q540.178 851.993 540.651 851.746Q541.123 851.499 541.583 851.228Q542.043 850.958 542.488 850.665Q542.934 850.372 543.365 850.057Q543.796 849.743 544.21 849.407Q544.625 849.071 545.022 848.716Q545.42 848.36 545.799 847.985Q546.178 847.61 546.539 847.216Q546.899 846.823 547.239 846.412C552.527 840.048 552.845 833.28 552.267 825.467Q564.751 825.194 577.232 824.782Z"/>
	<path fill="white" d="M799.84 109.218C812.618 108.886 818.61 111.943 830.276 113.778C857.622 118.079 884.94 122.777 912.333 126.745C919.148 127.733 926.714 130.26 933.49 130.18C934.37 129.675 935.415 128.992 936.455 128.93C939.566 128.744 945.017 131.855 947.515 133.645C952.793 137.429 955.784 143.453 957.768 149.474C970.796 189.02 921.647 222.55 924.868 240.802C924.904 241.003 924.944 241.203 924.981 241.403C920.264 247.862 915.935 254.694 911.4 261.291Q890.141 291.884 870.107 323.293Q855.246 345.821 840.056 368.129L821.105 396.466C816.887 402.874 812.978 409.658 808.103 415.589C799.852 404.956 791.846 398.606 778.821 394.796C761.576 390.075 738.222 388.874 720.06 386.703L593.842 372.16C599.068 361.242 606.364 350.714 612.462 340.19Q636.693 298.524 661.685 257.31Q676.335 232.739 691.294 208.356C695.95 200.688 700.276 191.853 705.949 184.962C707.865 184.74 709.753 184.722 711.674 184.62C714.628 184.462 718.454 183.672 720.718 181.609C726.121 176.686 737.417 154.263 741.762 147.08Q746.688 139.088 752.972 132.114Q754.084 130.865 755.255 129.671Q756.426 128.477 757.654 127.342Q758.882 126.207 760.163 125.132Q761.445 124.058 762.777 123.047Q764.109 122.037 765.489 121.092Q766.869 120.147 768.293 119.271Q769.717 118.394 771.182 117.588Q772.647 116.782 774.15 116.048Q775.652 115.314 777.189 114.654Q778.725 113.994 780.292 113.409Q781.859 112.824 783.452 112.317Q785.046 111.809 786.662 111.379Q788.278 110.95 789.913 110.599Q791.548 110.249 793.198 109.978Q794.848 109.707 796.51 109.517Q798.171 109.327 799.84 109.218Z"/>
	<path fill="white" d="M125.191 479.693C155.385 488.168 187.235 490.965 218.443 492.773Q281.326 495.925 344.24 493.455Q363.346 492.695 382.419 491.333C389.929 490.751 398.343 489.291 405.809 489.711C412.525 490.089 418.465 494.919 425.425 495.725C438.115 497.193 447.606 491.479 457.113 483.905C470.85 484.262 485.966 486.753 499.859 487.96Q546.156 492.019 592.359 497.034C614.748 499.378 637.062 501.934 659.528 503.439C638.185 529.72 618.428 557.08 597.56 583.713C577.403 609.42 558.612 636.278 538.168 661.774C526.807 659.837 515.271 658.951 503.836 657.542Q468.112 652.863 432.29 649.005L278.205 630.277C262.629 628.29 246.999 626.643 231.399 624.852C222.482 623.829 213.297 623.146 204.524 621.235C198.515 619.925 193.003 617.47 187.669 614.448C176.777 608.277 163.638 598.727 156.916 587.928C149.866 576.602 145.615 553.286 141.803 539.444L125.191 479.693Z"/>
</svg>
